<svg width="20" height="13" viewBox="0 0 20 13" fill="none" xmlns="http://www.w3.org/2000/svg">
<path fill-rule="evenodd" clip-rule="evenodd" d="M18.8963 0.400391H5.91633C5.71822 0.400391 5.52929 0.483716 5.39572 0.63019L0.58399 5.91134C0.339191 6.1801 0.339191 6.59084 0.58399 6.85983L5.39572 12.141C5.52926 12.2875 5.71822 12.3708 5.91633 12.3708H18.8963C19.2852 12.3708 19.6004 12.0556 19.6004 11.6669V1.10456C19.6004 0.715615 19.2852 0.400391 18.8963 0.400391ZM18.1921 10.9625H6.22732L2.05733 6.38545L6.22732 1.80844H18.1921V10.9625ZM15.2601 3.95979C14.9832 3.68657 14.5377 3.68916 14.2642 3.9659L12.858 5.38948L11.4345 3.98333C11.1577 3.71011 10.7118 3.71292 10.4388 3.98944C10.1654 4.26619 10.168 4.71192 10.4447 4.98537L11.8681 6.39155L10.4618 7.81527C10.1885 8.09202 10.1911 8.53775 10.4679 8.8112C10.6052 8.94665 10.7838 9.01422 10.9627 9.01422C11.1441 9.01422 11.326 8.94428 11.4638 8.80508L12.8701 7.38137L14.2938 8.78778C14.4311 8.92323 14.6098 8.99081 14.7886 8.99081C14.97 8.99081 15.1519 8.92087 15.2895 8.78145C15.563 8.50473 15.5604 8.05897 15.2836 7.78556L13.86 6.37928L15.2662 4.95572C15.5395 4.67897 15.5369 4.23324 15.2601 3.95979Z" fill="#2A2B2B"/>
</svg>
