<svg width="16" height="16" viewBox="0 0 16 16" fill="none" xmlns="http://www.w3.org/2000/svg">
<path d="M7.12727 0.799805C10.6213 0.799805 13.4538 3.63227 13.4538 7.1263C13.4538 8.65635 12.9106 10.0595 12.0066 11.1536L15.0243 14.1712C15.2596 14.4065 15.2596 14.788 15.0243 15.0233C14.789 15.2586 14.4075 15.2586 14.1722 15.0233L11.1545 12.0056C10.0605 12.9096 8.65733 13.4528 7.12727 13.4528C3.63325 13.4528 0.800781 10.6203 0.800781 7.1263C0.800781 3.63227 3.63325 0.799805 7.12727 0.799805ZM7.12727 2.00485C4.29878 2.00485 2.00583 4.2978 2.00583 7.1263C2.00583 9.9548 4.29878 12.2477 7.12727 12.2477C9.95577 12.2477 12.2487 9.9548 12.2487 7.1263C12.2487 4.2978 9.95577 2.00485 7.12727 2.00485Z" fill="#AAAAAA"/>
</svg>
