<svg width="14" height="14" viewBox="0 0 14 14" fill="none" xmlns="http://www.w3.org/2000/svg">
<path d="M2.20795 0.658275L2.27791 0.722522L6.9999 5.44475L11.7229 0.722522L11.7928 0.658275C12.2249 0.294203 12.8714 0.315619 13.2783 0.722522C13.7078 1.15203 13.7078 1.8484 13.2783 2.27791L8.55561 6.9999L13.2783 11.7229C13.7078 12.1524 13.7078 12.8487 13.2783 13.2783C12.8714 13.6852 12.2249 13.7066 11.7928 13.3425L11.7229 13.2783L6.9999 8.55561L2.27791 13.2783L2.20795 13.3425C1.77584 13.7066 1.12943 13.6852 0.722522 13.2783C0.293013 12.8487 0.293013 12.1524 0.722522 11.7229L5.44475 6.9999L0.722522 2.27791C0.293013 1.8484 0.293013 1.15203 0.722522 0.722522C1.12943 0.315619 1.77584 0.294203 2.20795 0.658275Z" fill="#FF004A"/>
</svg>
