<svg width="14" height="14" viewBox="0 0 14 14" fill="none" xmlns="http://www.w3.org/2000/svg">
<path d="M13.4152 0.577687C13.4162 0.578658 13.4172 0.579634 13.4182 0.580612C13.6602 0.822756 13.6613 1.21465 13.4205 1.45806L7.93916 7.00039L13.4205 12.5427C13.6441 12.7687 13.6591 13.1228 13.4664 13.3661L13.4182 13.4202C13.4172 13.4211 13.4162 13.4221 13.4152 13.4231C13.1737 13.6615 12.7844 13.6592 12.5458 13.4179L7.00017 7.81184L1.45503 13.4179C1.21181 13.6605 0.822518 13.6602 0.58259 13.4202C0.34056 13.178 0.33953 12.7861 0.580282 12.5427L6.06162 7.00039L0.580282 1.45806C0.33953 1.21465 0.34056 0.822756 0.58259 0.580612C0.822518 0.340571 1.21181 0.34028 1.4521 0.579962L1.45503 0.582902L7.00017 6.18894L12.5458 0.582902C12.7844 0.341605 13.1737 0.33927 13.4152 0.577687Z" fill="#AAAAAA"/>
</svg>
