<svg width="54" height="10" viewBox="0 0 54 10" fill="none" xmlns="http://www.w3.org/2000/svg">
<path fill-rule="evenodd" clip-rule="evenodd" d="M30.7148 1.753V0.540818C30.7148 0.354329 30.8453 0.242434 31.0132 0.242434H36.4214C36.5892 0.242434 36.7384 0.372978 36.7384 0.540818V1.56651C36.7384 1.73435 36.5892 1.95814 36.3281 2.33112L33.5308 6.32199C34.5751 6.30334 35.6754 6.45253 36.6079 6.9747C36.813 7.0866 36.869 7.27309 36.8876 7.44093V8.7277C36.8876 8.91419 36.7011 9.11933 36.496 9.00744C34.8362 8.13094 32.617 8.03769 30.7894 9.02609C30.6029 9.11933 30.3978 8.93284 30.3978 8.74635V7.51552C30.3978 7.32903 30.3978 6.99335 30.6029 6.69497L33.8478 2.05138H31.0318C30.864 2.05138 30.7148 1.92084 30.7148 1.753ZM11.0029 9.26852H9.36177C9.21258 9.24987 9.08204 9.13798 9.06339 8.98879V0.559468C9.06339 0.391628 9.21258 0.261084 9.38042 0.261084H10.9096C11.0775 0.261084 11.1894 0.391627 11.208 0.540818V1.6411H11.2453C11.6369 0.578115 12.4015 0.0745946 13.4086 0.0745946C14.4343 0.0745946 15.087 0.578115 15.5346 1.6411C15.9262 0.578115 16.84 0.0745946 17.8097 0.0745946C18.4997 0.0745946 19.2457 0.354329 19.7119 1.00704C20.2341 1.7157 20.1222 2.7414 20.1222 3.65519V8.98879C20.1222 9.15663 19.973 9.28717 19.8052 9.28717H18.1827C18.0149 9.26852 17.8843 9.13798 17.8843 8.98879V4.51304C17.8843 4.15871 17.9216 3.26356 17.847 2.92788C17.7165 2.36841 17.3622 2.20057 16.8773 2.20057C16.4857 2.20057 16.0567 2.46166 15.8889 2.89059C15.7211 3.31951 15.7397 4.02817 15.7397 4.51304V8.98879C15.7397 9.15663 15.5905 9.28717 15.4227 9.28717H13.7816C13.6137 9.26852 13.4832 9.13798 13.4832 8.98879V4.51304C13.4832 3.58059 13.6324 2.18192 12.4761 2.18192C11.3013 2.18192 11.3386 3.52465 11.3386 4.51304V8.98879C11.3199 9.13798 11.1894 9.26852 11.0029 9.26852ZM41.4006 0.0745946C43.8437 0.0745946 45.1677 2.16328 45.1677 4.83007C45.1677 7.40363 43.7131 9.45501 41.4006 9.45501C39.0136 9.45501 37.7082 7.36633 37.7082 4.75548C37.6895 2.12598 39.0136 0.0745946 41.4006 0.0745946ZM41.4006 1.80894C40.1885 1.80894 40.1139 3.4687 40.1139 4.4944C40.1139 5.52009 40.0952 7.72066 41.382 7.72066C42.6501 7.72066 42.7247 5.94901 42.7247 4.86737C42.7247 4.15871 42.6874 3.30086 42.4823 2.6295C42.2958 2.03274 41.9228 1.80894 41.4006 1.80894ZM48.3194 9.26852H46.6783C46.5105 9.24987 46.3799 9.11933 46.3799 8.97014V0.522168C46.3986 0.372977 46.5291 0.242434 46.6969 0.242434H48.2262C48.3754 0.242434 48.4872 0.354331 48.5245 0.484874V1.77165H48.5618C49.0281 0.615415 49.6621 0.0745946 50.7997 0.0745946C51.527 0.0745946 52.2543 0.335678 52.7206 1.06299C53.1495 1.73435 53.1495 2.87193 53.1495 3.69249V9.00744C53.1308 9.15663 53.0003 9.26852 52.8324 9.26852H51.1913C51.0421 9.24987 50.9116 9.13798 50.893 9.00744V4.4198C50.893 3.48735 51.0049 2.14463 49.8673 2.14463C49.4756 2.14463 49.1027 2.40571 48.9162 2.81599C48.6924 3.33816 48.6551 3.84168 48.6551 4.4198V8.97014C48.6364 9.13798 48.4872 9.26852 48.3194 9.26852ZM26.4069 5.24035C26.4069 5.87442 26.4255 6.41524 26.1085 6.99335C25.8474 7.45958 25.4372 7.73931 24.9709 7.73931C24.3369 7.73931 23.9639 7.25444 23.9639 6.54578C23.9639 5.14711 25.2134 4.88602 26.4069 4.88602V5.24035ZM28.0667 9.24988C27.9548 9.34312 27.8056 9.36177 27.675 9.28717C27.1342 8.8396 27.0223 8.61581 26.7239 8.18688C25.8288 9.10068 25.1761 9.38041 24.0198 9.38041C22.6398 9.38041 21.5582 8.52257 21.5582 6.82551C21.5582 5.48279 22.2855 4.58764 23.3112 4.14006C24.2063 3.74843 25.4558 3.67384 26.4069 3.56195V3.35681C26.4069 2.96518 26.4442 2.49896 26.2018 2.16328C25.9966 1.8649 25.6236 1.73435 25.288 1.73435C24.6539 1.73435 24.0944 2.05138 23.9639 2.72275C23.9266 2.87194 23.8333 3.02112 23.6842 3.02112L22.099 2.85329C21.9685 2.81599 21.8193 2.72275 21.8566 2.51761C22.2295 0.578117 23.9639 0 25.5304 0C26.3323 0 27.3766 0.205137 28.0107 0.820552C28.8126 1.56651 28.738 2.57355 28.738 3.65519V6.21009C28.738 6.9747 29.055 7.31038 29.3534 7.73931C29.4653 7.8885 29.484 8.07499 29.3534 8.16823C28.9991 8.44797 28.4023 8.97014 28.0667 9.24988ZM4.86737 5.24035C4.86737 5.87442 4.88602 6.41524 4.56899 6.99335C4.30791 7.45958 3.89763 7.73931 3.4314 7.73931C2.79734 7.73931 2.42436 7.25444 2.42436 6.54578C2.42436 5.14711 3.67384 4.88602 4.86737 4.88602V5.24035ZM6.50848 9.24988C6.39659 9.34312 6.2474 9.36177 6.11685 9.28717C5.57603 8.8396 5.46414 8.61581 5.16576 8.18688C4.27061 9.10068 3.61789 9.38041 2.46166 9.38041C1.08164 9.38041 0 8.52257 0 6.82551C0 5.48279 0.727308 4.58764 1.753 4.14006C2.64815 3.74843 3.89763 3.67384 4.84872 3.56195V3.35681C4.84872 2.96518 4.88602 2.49896 4.64359 2.16328C4.43845 1.8649 4.06547 1.73435 3.72979 1.73435C3.09572 1.73435 2.53625 2.05138 2.40571 2.72275C2.36841 2.87194 2.27517 3.02112 2.12598 3.02112L0.540818 2.85329C0.410276 2.81599 0.261086 2.72275 0.298384 2.51761C0.671363 0.578117 2.40571 0 3.97222 0C4.77413 0 5.81847 0.205137 6.45253 0.820552C7.25444 1.56651 7.17984 2.57355 7.17984 3.65519V6.21009C7.17984 6.9747 7.49687 7.31038 7.79526 7.73931C7.90715 7.8885 7.9258 8.07499 7.79526 8.16823C7.44093 8.44797 6.84416 8.97014 6.50848 9.24988Z" fill="#2A2B2B"/>
</svg>
