<svg width="40" height="40" viewBox="0 0 40 40" fill="none" xmlns="http://www.w3.org/2000/svg">
<path d="M32 23.546C32 24.1471 31.6203 24.4272 30.9408 24.4272H29.6421V23.8262H30.9408C31.0607 23.8262 31.1607 23.8063 31.2008 23.7663C31.2406 23.7261 31.2806 23.666 31.2806 23.586C31.2806 23.5057 31.2408 23.4256 31.2008 23.3857C31.1607 23.3455 31.0809 23.3256 30.9609 23.3256C30.3417 23.3054 29.5622 23.3455 29.5622 22.4641C29.5622 22.0633 29.8219 21.6226 30.5213 21.6226H31.8601V22.2236H30.6211C30.5014 22.2236 30.4213 22.2236 30.3614 22.2636C30.3014 22.3237 30.2615 22.3838 30.2615 22.484C30.2615 22.5842 30.3215 22.6444 30.4013 22.6846C30.4814 22.7045 30.5614 22.7245 30.6614 22.7245H31.0209C31.4006 22.7245 31.6405 22.8045 31.8004 22.945C31.92 23.0851 32 23.2656 32 23.546ZM29.1823 22.945C29.0224 22.8045 28.7825 22.7245 28.4029 22.7245H28.0433C27.9435 22.7245 27.8634 22.7043 27.7836 22.6846C27.7035 22.6444 27.6438 22.5842 27.6438 22.484C27.6438 22.3838 27.6636 22.3237 27.7436 22.2636C27.8036 22.2236 27.8834 22.2236 28.0033 22.2236H29.2423V21.6226H27.9035C27.184 21.6226 26.9441 22.0633 26.9441 22.4641C26.9441 23.3453 27.7236 23.3054 28.3432 23.3256C28.4628 23.3256 28.5429 23.3455 28.5828 23.3857C28.6226 23.4256 28.6629 23.5057 28.6629 23.586C28.6629 23.666 28.6228 23.7261 28.5828 23.7663C28.5228 23.8063 28.443 23.8262 28.323 23.8262H27.0241V24.4272H28.323C29.0023 24.4272 29.3821 24.147 29.3821 23.546C29.3821 23.2656 29.3023 23.0851 29.1823 22.945ZM26.6244 23.8465H25.046V23.2855H26.5846V22.7248H25.046V22.2037H26.6244V21.6229H24.3865V24.4274H26.6244V23.8465ZM23.667 21.7631C23.4471 21.6429 23.1873 21.6227 22.8476 21.6227H21.3091V24.4272H21.9883V23.4056H22.7079C22.9475 23.4056 23.0875 23.4258 23.1875 23.5258C23.3074 23.666 23.3074 23.9065 23.3074 24.0868V24.4272H23.9667V23.8863C23.9667 23.6259 23.9468 23.5057 23.8669 23.3655C23.8069 23.2852 23.6872 23.1852 23.5273 23.125C23.707 23.0652 24.007 22.8247 24.007 22.3838C24.0068 22.0635 23.8869 21.8831 23.667 21.7631ZM19.8702 21.6227H17.7319L16.8726 22.5443L16.0533 21.6227H13.3556V24.4272H16.0135L16.8728 23.5057L17.6921 24.4272H18.9911V23.4859H19.8304C20.4098 23.4859 20.9895 23.3256 20.9895 22.5443C20.9894 21.783 20.3898 21.6227 19.8702 21.6227ZM23.1274 22.7848C23.0276 22.8247 22.9276 22.8247 22.8077 22.8247L21.9883 22.8449V22.2036H22.8077C22.9276 22.2036 23.0476 22.2036 23.1274 22.2637C23.2075 22.304 23.2672 22.384 23.2672 22.5042C23.2672 22.6245 23.2075 22.7247 23.1274 22.7848ZM19.8702 22.9249H18.9909V22.2036H19.8702C20.1101 22.2036 20.2699 22.304 20.2699 22.5443C20.2699 22.7848 20.1099 22.9249 19.8702 22.9249ZM17.2923 23.025L18.3314 21.9233V24.187L17.2923 23.025ZM15.6736 23.8465H14.015V23.2855H15.4937V22.7248H14.015V22.2037H15.6936L16.433 23.0251L15.6736 23.8465ZM30.1415 19.5993H29.1823L27.9234 17.4958V19.5993H26.5647L26.3047 18.9782H24.906L24.6462 19.5993H23.8667C23.547 19.5993 23.1274 19.5192 22.8878 19.2787C22.6679 19.0383 22.5479 18.7178 22.5479 18.217C22.5479 17.7963 22.6079 17.4156 22.9075 17.1152C23.1072 16.8947 23.4671 16.7947 23.9266 16.7947H24.566V17.3957H23.9266C23.687 17.3957 23.5469 17.4358 23.4071 17.5561C23.2871 17.6763 23.2272 17.8966 23.2272 18.1971C23.2272 18.4975 23.2871 18.718 23.4071 18.8583C23.5069 18.9583 23.687 18.9984 23.8666 18.9984H24.1664L25.1256 16.7948H26.1248L27.2438 19.4392V16.7947H28.2831L29.4621 18.7379V16.7947H30.1413V19.5993H30.1415ZM22.2082 16.7947H21.529V19.5993H22.2082V16.7947ZM20.7893 16.9149C20.5694 16.7947 20.3298 16.7947 19.9902 16.7947H18.4513V19.5993H19.1107V18.5775H19.8301C20.07 18.5775 20.2299 18.5976 20.3297 18.6978C20.4496 18.8381 20.4295 19.0786 20.4295 19.2387V19.5993H21.1088V19.0383C21.1088 18.798 21.0889 18.6778 20.9891 18.5375C20.9291 18.4573 20.8092 18.3571 20.6694 18.2971C20.849 18.217 21.149 17.9967 21.149 17.5559C21.1492 17.2354 21.0091 17.055 20.7893 16.9149ZM17.9717 19.0184H16.413V18.4574H17.9517V17.8766H16.413V17.3757H17.9717V16.7948H15.7336V19.5995H17.9717V19.0184ZM15.234 16.7947H14.1349L13.3156 18.6978L12.4363 16.7947H11.3573V19.439L10.2182 16.7947H9.21914L8.02014 19.5993H8.73951L8.99924 18.9782H10.398L10.6577 19.5993H12.0167V17.3957L12.9958 19.5993H13.5752L14.5544 17.3957V19.5993H15.2338V16.7947H15.234ZM26.0651 18.3773L25.6053 17.2755L25.1458 18.3773H26.0651ZM20.2699 17.9367C20.1701 17.9968 20.0701 17.9968 19.9302 17.9968H19.1107V17.3758H19.93C20.05 17.3758 20.1896 17.3758 20.2697 17.4159C20.3495 17.476 20.3897 17.5562 20.3897 17.6763C20.3897 17.7964 20.3497 17.8965 20.2699 17.9367ZM9.23898 18.3773L9.69862 17.2755L10.1583 18.3773H9.23898ZM32 8H8V18.0969L8.82482 16.2338H10.5749L10.8164 16.6946V16.2338H12.8684L13.3311 17.2354L13.7737 16.2338H20.3119C20.6134 16.2338 20.8749 16.2939 21.0763 16.4541V16.2338H22.8667V16.4541C23.1682 16.2938 23.5505 16.2338 23.9932 16.2338H26.5882L26.8297 16.6946V16.2338H28.7408L29.0226 16.6946V16.2338H30.8933V20.1603H29.0025L28.6405 19.5594V20.1603H26.2867L26.0252 19.5193H25.4416L25.1801 20.1603H23.9531C23.4702 20.1603 23.108 20.0401 22.8668 19.92V20.1603H19.9498V19.2588C19.9498 19.1385 19.9296 19.1185 19.8491 19.1185H19.7487V20.1602H14.1157V19.6593L13.9146 20.1602H12.7277L12.5266 19.6793V20.1602H10.2532L10.0119 19.5192H9.42841L9.16693 20.1602H8V32H32V24.8079C31.7385 24.9281 31.3763 24.9882 31.0142 24.9882H29.2639V24.7477C29.0628 24.9082 28.7006 24.9882 28.3588 24.9882H22.8465V24.0868C22.8465 23.9666 22.8266 23.9666 22.7258 23.9666H22.6253V24.9882H20.8147V23.9265C20.5131 24.0667 20.171 24.0667 19.8693 24.0667H19.668V24.9882H17.4552L16.9322 24.3872L16.3489 24.9882H12.7879V21.0619H16.409L16.9321 21.6627L17.4954 21.0619H19.9296C20.2111 21.0619 20.674 21.1018 20.8751 21.3021V21.0619H23.0476C23.269 21.0619 23.6916 21.1018 23.9731 21.3021V21.0619H27.2522V21.3022C27.4333 21.1419 27.7754 21.062 28.077 21.062H29.9076V21.3022C30.109 21.1621 30.3905 21.062 30.7527 21.062H32V8Z" fill="#0077A6"/>
</svg>
