<svg width="40" height="40" viewBox="0 0 40 40" fill="none" xmlns="http://www.w3.org/2000/svg">
<path d="M29.5808 26.7038C29.2218 27.5423 28.7967 28.3141 28.3043 29.0237C27.633 29.9911 27.0834 30.6607 26.6598 31.0325C26.0032 31.6429 25.2997 31.9555 24.5464 31.9732C24.0056 31.9732 23.3534 31.8177 22.5942 31.5021C21.8325 31.1881 21.1325 31.0325 20.4925 31.0325C19.8212 31.0325 19.1013 31.1881 18.3312 31.5021C17.56 31.8177 16.9387 31.9821 16.4637 31.9984C15.7413 32.0295 15.0213 31.7081 14.3025 31.0325C13.8438 30.6281 13.27 29.9348 12.5826 28.9526C11.8451 27.9037 11.2388 26.6875 10.7637 25.3009C10.255 23.8031 10 22.3528 10 20.9487C10 19.3403 10.3438 17.9531 11.0325 16.7906C11.5738 15.8568 12.2939 15.1203 13.1951 14.5796C14.0963 14.0388 15.0701 13.7633 16.1187 13.7457C16.6925 13.7457 17.445 13.9251 18.38 14.2776C19.3125 14.6314 19.9112 14.8108 20.1737 14.8108C20.3699 14.8108 21.035 14.601 22.1625 14.1828C23.2288 13.795 24.1287 13.6344 24.8659 13.6977C26.8636 13.8606 28.3644 14.6566 29.3625 16.0906C27.5758 17.1848 26.6921 18.7174 26.7097 20.6834C26.7258 22.2147 27.2754 23.4891 28.3556 24.5009C28.8451 24.9705 29.3918 25.3334 30 25.5912C29.8681 25.9779 29.7289 26.3482 29.5808 26.7038ZM24.9993 8.48062C24.9993 9.6809 24.5654 10.8016 23.7007 11.8389C22.6572 13.072 21.395 13.7846 20.0262 13.6722C20.0088 13.5282 19.9987 13.3766 19.9987 13.2174C19.9987 12.0651 20.4949 10.832 21.3762 9.82369C21.8162 9.31319 22.3758 8.88872 23.0544 8.5501C23.7315 8.21654 24.372 8.03208 24.9744 8.00049C24.9919 8.16095 24.9993 8.32141 24.9993 8.48061V8.48062Z" fill="white"/>
</svg>
