<svg width="24" height="24" viewBox="0 0 24 24" fill="none" xmlns="http://www.w3.org/2000/svg">
    <path d="M17.7485 16.0228C17.5331 16.5258 17.278 16.9889 16.9826 17.4147C16.5798 17.9951 16.25 18.3969 15.9959 18.62C15.6019 18.9862 15.1798 19.1738 14.7278 19.1844C14.4033 19.1844 14.012 19.0911 13.5565 18.9018C13.0995 18.7133 12.6795 18.62 12.2955 18.62C11.8927 18.62 11.4608 18.7133 10.9987 18.9018C10.536 19.0911 10.1632 19.1898 9.87824 19.1995C9.44479 19.2182 9.01275 19.0253 8.5815 18.62C8.30626 18.3773 7.96198 17.9614 7.54955 17.372C7.10705 16.7427 6.74325 16.013 6.45824 15.181C6.15301 14.2824 6 13.4122 6 12.5697C6 11.6047 6.2063 10.7723 6.61952 10.0748C6.94428 9.5146 7.37632 9.07265 7.91705 8.74822C8.45778 8.42378 9.04203 8.25846 9.67123 8.24788C10.0155 8.24788 10.467 8.35552 11.028 8.56707C11.5875 8.77933 11.9467 8.88697 12.1042 8.88697C12.222 8.88697 12.621 8.76111 13.2975 8.51018C13.9373 8.27748 14.4772 8.18112 14.9195 8.21908C16.1181 8.31685 17.0186 8.79444 17.6175 9.65486C16.5455 10.3114 16.0152 11.2309 16.0258 12.4105C16.0355 13.3293 16.3652 14.0939 17.0133 14.701C17.3071 14.9828 17.6351 15.2006 18 15.3552C17.9209 15.5872 17.8373 15.8094 17.7485 16.0228ZM14.9996 5.08886C14.9996 5.80903 14.7393 6.48144 14.2204 7.10382C13.5943 7.84371 12.837 8.27126 12.0157 8.20379C12.0053 8.11739 11.9992 8.02646 11.9992 7.93091C11.9992 7.23955 12.297 6.49966 12.8257 5.89471C13.0897 5.5884 13.4255 5.33372 13.8326 5.13055C14.2389 4.93041 14.6232 4.81973 14.9846 4.80078C14.9952 4.89706 14.9996 4.99334 14.9996 5.08885V5.08886Z" fill="#2A2B2B"/>
</svg>
