<svg width="40" height="40" viewBox="0 0 40 40" fill="none" xmlns="http://www.w3.org/2000/svg">
<path d="M24.1648 23.6783C24.5725 23.2022 25.2597 23.1738 25.6997 23.6149C26.1165 24.0328 26.162 24.7222 25.8191 25.1985L25.7583 25.2759L20.3242 31.6236C19.915 32.1016 19.2303 32.1246 18.7946 31.6924L18.7312 31.6242L13.2898 25.2764C12.8819 24.8005 12.9077 24.0569 13.3475 23.6154C13.7641 23.1972 14.4028 23.2002 14.8157 23.6064L14.8823 23.6778L19.1285 28.6309C19.3325 28.8688 19.6761 28.8828 19.896 28.662C19.906 28.652 19.9157 28.6415 19.925 28.6306L24.1648 23.6783Z" fill="#2A2B2B"/>
<path d="M24.1648 16.0275C24.5725 15.5513 25.2597 15.5229 25.6997 15.964C26.1165 16.3819 26.162 17.0714 25.8191 17.5477L25.7583 17.625L20.3242 23.9727C19.915 24.4507 19.2303 24.4737 18.7946 24.0416L18.7312 23.9733L13.2898 17.6256C12.8819 17.1497 12.9077 16.406 13.3475 15.9645C13.7641 15.5463 14.4028 15.5494 14.8157 15.9555L14.8823 16.0269L19.1285 20.98C19.3325 21.218 19.6761 21.2319 19.896 21.0112C19.906 21.0011 19.9157 20.9906 19.925 20.9797L24.1648 16.0275Z" fill="#2A2B2B"/>
<path d="M24.1648 8.37658C24.5725 7.9004 25.2597 7.87199 25.6997 8.31314C26.1165 8.73107 26.162 9.42049 25.8191 9.89679L25.7583 9.97411L20.3242 16.3219C19.915 16.7998 19.2303 16.8228 18.7946 16.3907L18.7312 16.3224L13.2898 9.97468C12.8819 9.49879 12.9077 8.75513 13.3475 8.31367C13.7641 7.89544 14.4028 7.89848 14.8157 8.3046L14.8823 8.37601L19.1285 13.3291C19.3325 13.5671 19.6761 13.581 19.896 13.3603C19.906 13.3502 19.9157 13.3397 19.925 13.3289L24.1648 8.37658Z" fill="#2A2B2B"/>
</svg>
