<svg width="12" height="20" viewBox="0 0 12 20" fill="none" xmlns="http://www.w3.org/2000/svg">
    <path d="M11.3179 18.0837C11.6696 18.4075 11.6955 18.9589 11.3757 19.3151C11.0806 19.6439 10.594 19.6915 10.2443 19.4422L10.1599 19.3736L0.681307 10.6454C0.332539 10.3242 0.307626 9.78544 0.606569 9.43319L0.681307 9.35539L10.1599 0.627133C10.5116 0.303258 11.056 0.32948 11.3757 0.685702C11.6709 1.01452 11.6716 1.50959 11.3933 1.83854L11.3179 1.91713L2.88971 9.67789C2.71385 9.83982 2.7009 10.1155 2.86079 10.2936C2.86996 10.3038 2.87962 10.3136 2.88971 10.3229L11.3179 18.0837Z" fill="#AAAAAA"/>
</svg>
