<svg width="32" height="32" viewBox="0 0 32 32" fill="none" xmlns="http://www.w3.org/2000/svg">
<circle opacity="0.1" cx="16" cy="16" r="16" fill="#2A2B2B"/>
<path d="M19.9889 22.0623C20.2527 22.3052 20.2721 22.7187 20.0323 22.9858C19.8109 23.2324 19.446 23.2682 19.1837 23.0812L19.1204 23.0297L12.0115 16.4836C11.7499 16.2427 11.7312 15.8386 11.9554 15.5744L12.0115 15.5161L19.1204 8.96986C19.3842 8.72695 19.7925 8.74662 20.0323 9.01379C20.2537 9.2604 20.2542 9.6317 20.0454 9.87842L19.9889 9.93736L13.6678 15.7579C13.5359 15.8794 13.5262 16.0861 13.6461 16.2197C13.653 16.2274 13.6602 16.2347 13.6678 16.2417L19.9889 22.0623Z" fill="white"/>
</svg>
