<svg width="32" height="32" viewBox="0 0 32 32" fill="none" xmlns="http://www.w3.org/2000/svg">
<circle opacity="0.1" cx="16" cy="16" r="16" fill="#2A2B2B"/>
<path d="M19.9889 22.0632C20.2527 22.3061 20.2721 22.7196 20.0323 22.9868C19.8109 23.2334 19.446 23.2691 19.1837 23.0821L19.1204 23.0307L12.0115 16.4845C11.7499 16.2437 11.7312 15.8396 11.9554 15.5754L12.0115 15.517L19.1204 8.97084C19.3842 8.72793 19.7925 8.7476 20.0323 9.01476C20.2537 9.26138 20.2542 9.63268 20.0454 9.87939L19.9889 9.93833L13.6678 15.7589C13.5359 15.8804 13.5262 16.0871 13.6461 16.2207C13.653 16.2284 13.6602 16.2357 13.6678 16.2427L19.9889 22.0632Z" fill="white"/>
</svg>
