<svg width="30" height="22" viewBox="0 0 30 22" fill="none" xmlns="http://www.w3.org/2000/svg">
<path d="M27.8568 3.79922H22.1996C22.0155 3.79947 21.8453 3.70153 21.7531 3.54208L20.2886 0.978934C20.0136 0.498047 19.5026 0.200474 18.9489 0.199219H11.0503C10.4968 0.200223 9.98608 0.496791 9.7106 0.976925L8.24609 3.54208C8.15393 3.70153 7.98368 3.79947 7.79961 3.79922H2.14247C1.29043 3.79922 0.599609 4.49004 0.599609 5.34208V19.7421C0.599609 20.5941 1.29043 21.2849 2.14247 21.2849H27.8568C28.7088 21.2849 29.3996 20.5941 29.3996 19.7421V5.34208C29.3996 4.49004 28.7088 3.79922 27.8568 3.79922ZM22.2079 14.2665C20.9252 17.6184 17.5005 19.6429 13.9454 19.1507C10.3904 18.6588 7.64417 15.78 7.32023 12.2058L5.98304 13.5428C5.78139 13.7379 5.46071 13.7349 5.26233 13.5365C5.06395 13.3381 5.06094 13.0174 5.25605 12.8158L7.438 10.6336C7.6389 10.4327 7.96434 10.4327 8.16523 10.6336L10.3474 12.8158C10.481 12.9449 10.5348 13.136 10.4876 13.3158C10.4406 13.4956 10.3002 13.6359 10.1204 13.6831C9.94063 13.7301 9.74928 13.6766 9.6202 13.5428L8.36537 12.2895C8.72397 15.346 11.1229 17.7628 14.1767 18.1442C17.2303 18.5259 20.15 16.7736 21.2496 13.8994C21.3134 13.7251 21.4661 13.5988 21.6492 13.5686C21.832 13.5385 22.017 13.6093 22.1333 13.7537C22.2496 13.8984 22.279 14.0942 22.2104 14.2665H22.2079ZM24.7454 10.2092L22.5632 12.3914C22.3623 12.592 22.0369 12.592 21.836 12.3914L19.6538 10.2092C19.5202 10.0801 19.4665 9.88903 19.5137 9.70924C19.5606 9.52944 19.7013 9.38881 19.8811 9.34185C20.0609 9.29464 20.252 9.34838 20.381 9.48197L21.6364 10.7376C21.2778 7.67645 18.8731 5.25745 15.8142 4.88027C12.7556 4.5031 9.83541 6.26568 8.74381 9.14774C8.64336 9.41342 8.34654 9.54752 8.08086 9.44707C7.81518 9.34662 7.68108 9.0498 7.78153 8.78412C9.05419 5.42294 12.4797 3.38588 16.0407 3.87254C19.6018 4.35921 22.3548 7.24076 22.679 10.8202L24.0162 9.48298C24.1453 9.34939 24.3364 9.2959 24.5162 9.34286C24.696 9.38982 24.8363 9.53044 24.8835 9.71024C24.9305 9.89004 24.877 10.0811 24.7432 10.2102L24.7454 10.2092Z" fill="white"/>
</svg>
