<svg width="40" height="40" viewBox="0 0 40 40" fill="none" xmlns="http://www.w3.org/2000/svg">
<path d="M30.7143 14H26C25.8466 14.0002 25.7047 13.9186 25.6279 13.7857L24.4075 11.6498C24.1784 11.249 23.7525 11.001 23.2911 11H16.7089C16.2477 11.0008 15.8221 11.248 15.5925 11.6481L14.3721 13.7857C14.2953 13.9186 14.1534 14.0002 14 14H9.28571C8.57568 14 8 14.5757 8 15.2857V27.2857C8 27.9957 8.57568 28.5714 9.28571 28.5714H30.7143C31.4243 28.5714 32 27.9957 32 27.2857V15.2857C32 14.5757 31.4243 14 30.7143 14ZM26.0069 22.7227C24.938 25.516 22.0841 27.2031 19.1215 26.7929C16.159 26.383 13.8705 23.984 13.6005 21.0055L12.4862 22.1196C12.3182 22.2822 12.0509 22.2797 11.8856 22.1144C11.7203 21.9491 11.7178 21.6819 11.8804 21.5138L13.6987 19.6953C13.8661 19.5279 14.1373 19.5279 14.3047 19.6953L16.1232 21.5138C16.2345 21.6214 16.2793 21.7806 16.24 21.9305C16.2008 22.0803 16.0838 22.1973 15.934 22.2366C15.7842 22.2757 15.6247 22.2312 15.5172 22.1196L14.4715 21.0752C14.7703 23.6223 16.7694 25.6363 19.3142 25.9542C21.8589 26.2723 24.292 24.812 25.2084 22.4168C25.2615 22.2716 25.3887 22.1663 25.5413 22.1412C25.6936 22.1161 25.8479 22.1751 25.9448 22.2954C26.0416 22.4159 26.0661 22.5792 26.009 22.7227H26.0069ZM28.1215 19.3417L26.303 21.1602C26.1356 21.3274 25.8644 21.3274 25.697 21.1602L23.8785 19.3417C23.7672 19.2341 23.7224 19.0748 23.7617 18.925C23.8009 18.7752 23.918 18.658 24.0679 18.6189C24.2177 18.5795 24.377 18.6243 24.4845 18.7356L25.5306 19.7819C25.2318 17.231 23.2279 15.2152 20.6789 14.9009C18.13 14.5866 15.6965 16.0554 14.7868 18.4571C14.7031 18.6785 14.4558 18.7902 14.2344 18.7065C14.013 18.6228 13.9012 18.3755 13.9849 18.1541C15.0455 15.3531 17.9 13.6556 20.8676 14.0611C23.8352 14.4667 26.1293 16.868 26.3995 19.8508L27.5138 18.7365C27.6214 18.6251 27.7806 18.5806 27.9305 18.6197C28.0803 18.6588 28.1973 18.776 28.2366 18.9259C28.2757 19.0757 28.2312 19.2349 28.1196 19.3425L28.1215 19.3417Z" fill="black"/>
</svg>
