<svg width="18" height="18" viewBox="0 0 18 18" xmlns="http://www.w3.org/2000/svg">
<path d="M17.5533 0.435614C17.5546 0.436909 17.556 0.438209 17.5573 0.439514C17.88 0.762372 17.8813 1.28489 17.5603 1.60944L10.2519 8.99922L17.5603 16.389C17.8584 16.6904 17.8785 17.1624 17.6215 17.4868L17.5573 17.5589C17.556 17.5602 17.5546 17.5615 17.5533 17.5628C17.2313 17.8807 16.7122 17.8776 16.394 17.5559L8.9999 10.0812L1.60637 17.5559C1.28209 17.8794 0.763032 17.879 0.443128 17.5589C0.120421 17.2361 0.119047 16.7135 0.440051 16.389L7.7485 8.99922L0.440051 1.60944C0.119047 1.28489 0.120421 0.762372 0.443128 0.439514C0.763032 0.11946 1.28209 0.119071 1.60247 0.438647L1.60637 0.442568L8.9999 7.91728L16.394 0.442568C16.7122 0.120838 17.2313 0.117724 17.5533 0.435614Z" fill="white"/>
</svg>
