<svg width="40" height="40" viewBox="0 0 40 40" fill="none" xmlns="http://www.w3.org/2000/svg">
<path d="M28.8699 26.5611L29.8879 21.7697L28.9297 21.5653C28.4578 21.465 28.0451 21.1814 27.7823 20.7768C27.5195 20.3723 27.4281 19.8799 27.5282 19.408L27.7316 18.4497L14.4976 15.6365L14.2942 16.5948C14.2445 16.8285 14.1493 17.0502 14.0139 17.2471C13.8786 17.444 13.7057 17.6124 13.5053 17.7425C13.3049 17.8727 13.0808 17.9621 12.8459 18.0056C12.6109 18.0491 12.3697 18.046 12.1359 17.9963L11.1776 17.7929L10.1596 22.5843L11.1179 22.7877C11.3517 22.8373 11.5733 22.9326 11.7703 23.0679C11.9672 23.2033 12.1356 23.3761 12.2657 23.5765C12.3958 23.7769 12.4852 24.001 12.5288 24.236C12.5723 24.4709 12.5691 24.7122 12.5194 24.9459L12.2675 26.1328L25.5006 28.9451L25.7525 27.7592C25.8022 27.5254 25.8974 27.3038 26.0327 27.1068C26.1681 26.9099 26.3409 26.7415 26.5413 26.6114C26.7417 26.4813 26.9658 26.3919 27.2008 26.3483C27.4358 26.3048 27.677 26.308 27.9107 26.3577L28.8709 26.5611H28.8699ZM28.5788 27.9299L27.6205 27.7265C27.5666 27.715 27.5108 27.7143 27.4566 27.7243C27.4023 27.7344 27.3506 27.755 27.3043 27.7851C27.258 27.8152 27.2181 27.8541 27.1869 27.8996C27.1556 27.9451 27.1337 27.9963 27.1223 28.0503L26.8703 29.2363L28.2392 29.5274L28.5788 27.9299ZM30.1791 20.3999L30.4702 19.0311L29.1013 18.7399L28.897 19.6982C28.8855 19.7522 28.8848 19.8079 28.8948 19.8622C28.9049 19.9164 28.9255 19.9682 28.9556 20.0145C28.9857 20.0608 29.0246 20.1006 29.0701 20.1319C29.1156 20.1631 29.1668 20.1851 29.2208 20.1965L30.1791 20.3999ZM10.8977 25.8426L11.1497 24.6557C11.1729 24.5468 11.1519 24.4332 11.0914 24.3397C11.0309 24.2463 10.9357 24.1807 10.8268 24.1574L9.86852 23.954L9.52888 25.5515L10.8977 25.8426ZM13.1287 15.3454L11.7599 15.0561L11.4688 16.424L12.4271 16.6284C12.481 16.6399 12.5367 16.6406 12.591 16.6305C12.6453 16.6205 12.697 16.5998 12.7433 16.5698C12.7896 16.5397 12.8295 16.5008 12.8607 16.4553C12.8919 16.4098 12.9139 16.3586 12.9253 16.3046L13.1287 15.3463V15.3454ZM11.3661 13.5408L31.4462 17.8087C31.5361 17.8279 31.6213 17.8646 31.697 17.9167C31.7727 17.9688 31.8374 18.0353 31.8874 18.1124C31.9374 18.1895 31.9717 18.2758 31.9884 18.3661C32.0051 18.4565 32.0038 18.5493 31.9846 18.6392L29.4625 30.5034C29.4434 30.5934 29.4068 30.6787 29.3547 30.7545C29.3026 30.8303 29.2361 30.8951 29.159 30.9452C29.0819 30.9953 28.9956 31.0297 28.9052 31.0464C28.8148 31.0631 28.7219 31.0619 28.632 31.0427L8.5538 26.7738C8.46392 26.7547 8.3787 26.718 8.303 26.6659C8.2273 26.6137 8.1626 26.5472 8.11261 26.4701C8.06261 26.393 8.0283 26.3068 8.01162 26.2164C7.99494 26.126 7.99623 26.0333 8.01541 25.9434L10.5357 14.0801C10.5742 13.8986 10.6832 13.7398 10.8388 13.6387C10.9943 13.5376 11.1837 13.5023 11.3652 13.5408H11.3661ZM14.3641 12.3968C14.2871 12.5657 14.146 12.6971 13.9721 12.762C13.7982 12.8269 13.6056 12.8201 13.4367 12.743C13.2678 12.6659 13.1364 12.5249 13.0715 12.3509C13.0066 12.177 13.0134 11.9844 13.0905 11.8155L14.4407 8.85853C14.8046 8.11112 15.6994 7.78547 16.4431 8.14938L29.4559 14.4962C29.5407 14.5351 29.6169 14.5906 29.6799 14.6593C29.743 14.7281 29.7917 14.8087 29.8231 14.8966C29.8545 14.9844 29.8681 15.0776 29.863 15.1708C29.8579 15.2639 29.8342 15.3551 29.7933 15.439C29.7524 15.5228 29.6952 15.5977 29.625 15.6591C29.5548 15.7205 29.473 15.7673 29.3844 15.7966C29.2959 15.826 29.2024 15.8373 29.1094 15.83C29.0164 15.8227 28.9258 15.7969 28.8429 15.7541L15.8291 9.40811C15.7899 9.38945 15.7293 9.41091 15.7059 9.45664L14.3641 12.3977V12.3968Z" fill="#555555"/>
<path d="M19.2721 25.714C18.8226 25.6185 18.3963 25.4354 18.0175 25.1751C17.6388 24.9148 17.315 24.5825 17.0647 24.1971C16.8144 23.8117 16.6424 23.3808 16.5586 22.9289C16.4749 22.4771 16.4809 22.0131 16.5764 21.5636C16.6719 21.1141 16.8551 20.6878 17.1153 20.309C17.3756 19.9303 17.7079 19.6065 18.0933 19.3562C18.4787 19.1059 18.9096 18.9339 19.3615 18.8501C19.8134 18.7664 20.2773 18.7724 20.7268 18.8679C21.1763 18.9635 21.6026 19.1467 21.9813 19.407C22.3601 19.6673 22.6838 19.9997 22.9341 20.3851C23.1844 20.7706 23.3563 21.2016 23.44 21.6534C23.5237 22.1053 23.5176 22.5693 23.422 23.0188C23.3265 23.4683 23.1433 23.8946 22.8829 24.2733C22.6226 24.652 22.2902 24.9758 21.9048 25.2261C21.5194 25.4763 21.0884 25.6482 20.6365 25.732C20.1846 25.8157 19.7207 25.8096 19.2712 25.714H19.2721ZM19.5632 24.3442C19.835 24.4073 20.1166 24.4155 20.3916 24.3684C20.6666 24.3214 20.9294 24.22 21.1648 24.0702C21.4002 23.9204 21.6033 23.7252 21.7624 23.496C21.9214 23.2668 22.0332 23.0082 22.0912 22.7354C22.1492 22.4625 22.1522 22.1808 22.1 21.9067C22.0479 21.6326 21.9416 21.3717 21.7875 21.1392C21.6334 20.9066 21.4344 20.7071 21.2023 20.5523C20.9702 20.3976 20.7096 20.2906 20.4357 20.2377C19.8956 20.1334 19.3362 20.2452 18.8777 20.5491C18.4192 20.853 18.0983 21.3247 17.984 21.8628C17.8696 22.4008 17.9711 22.9622 18.2664 23.4263C18.5617 23.8903 19.0274 24.2199 19.5632 24.3442Z" fill="#5E97B6"/>
</svg>
