<svg width="40" height="40" viewBox="0 0 40 40" fill="none" xmlns="http://www.w3.org/2000/svg">
<path fill-rule="evenodd" clip-rule="evenodd" d="M25.2552 17.9045L23.1074 20.0523C23.0388 20.1208 22.9459 20.1592 22.849 20.1592C22.7521 20.1592 22.6591 20.1208 22.5905 20.0523L21.9583 19.4201C21.8898 19.3515 21.8514 19.2585 21.8514 19.1616C21.8514 19.0647 21.8898 18.9718 21.9583 18.9032L24.1508 16.7107C23.4329 16.7724 22.7111 16.6493 22.0542 16.3531C21.1457 15.9444 20.3663 15.165 19.7097 14.0363C19.6682 13.9671 19.6409 13.8903 19.6293 13.8105C19.6177 13.7306 19.622 13.6493 19.6421 13.5711C19.6622 13.493 19.6976 13.4196 19.7463 13.3552C19.7949 13.2909 19.8559 13.2368 19.9256 13.1962C19.9953 13.1556 20.0724 13.1292 20.1524 13.1186C20.2324 13.108 20.3137 13.1134 20.3916 13.1345C20.4695 13.1556 20.5424 13.1919 20.6061 13.2414C20.6699 13.2908 20.7232 13.3525 20.7629 13.4227C21.3017 14.3483 21.9006 14.9481 22.5548 15.2422C22.9286 15.4096 23.3187 15.4982 23.7331 15.5055L22.4881 14.2606C22.03 13.8023 21.7726 13.1808 21.7726 12.5329C21.7726 11.8849 22.03 11.2634 22.4881 10.8052C23.4519 9.84137 24.8855 9.70566 25.781 10.6004C26.5611 11.3822 26.8066 12.6596 26.5286 13.9371L26.1646 15.8355L28.0629 15.4714C29.3412 15.1935 30.6187 15.4389 31.3996 16.219C32.2944 17.1146 32.1587 18.5489 31.1957 19.5127C30.9688 19.7397 30.6993 19.9197 30.4028 20.0425C30.1063 20.1654 29.7885 20.2286 29.4676 20.2286C29.1466 20.2286 28.8288 20.1654 28.5323 20.0425C28.2358 19.9197 27.9664 19.7397 27.7395 19.5127L26.4661 18.2385C26.4742 18.6529 26.5619 19.0438 26.7302 19.4168C27.0243 20.071 27.6241 20.6707 28.5489 21.2087C28.6181 21.2489 28.6787 21.3024 28.7272 21.366C28.7758 21.4297 28.8113 21.5023 28.8318 21.5797C28.8523 21.6571 28.8573 21.7377 28.8466 21.8171C28.8359 21.8964 28.8097 21.9729 28.7695 22.0421C28.7293 22.1113 28.6758 22.1719 28.6122 22.2204C28.5485 22.269 28.4759 22.3045 28.3985 22.325C28.3211 22.3455 28.2405 22.3505 28.1611 22.3398C28.0818 22.3291 28.0053 22.3029 27.9361 22.2627C26.8066 21.6053 26.0272 20.8259 25.6185 19.9174C25.3338 19.2865 25.209 18.5951 25.2552 17.9045ZM28.6017 18.6505C28.8314 18.8801 29.1428 19.0091 29.4676 19.0091C29.7923 19.0091 30.1038 18.8801 30.3334 18.6505C30.8535 18.1304 30.9169 17.4608 30.5374 17.0821C30.0856 16.6302 29.2282 16.4653 28.3067 16.6652L26.8886 16.9374L28.6017 18.6505ZM25.0626 15.1114L23.3504 13.3983C23.121 13.1687 22.9922 12.8574 22.9922 12.5329C22.9922 12.2083 23.121 11.897 23.3504 11.6674C23.8705 11.1473 24.5401 11.0839 24.9188 11.4626C25.3706 11.9144 25.5348 12.7718 25.3349 13.6933L25.0626 15.1114ZM18.5159 18.7829H19.4131C19.6138 18.7829 19.7772 18.9455 19.7772 19.147V28.1706C19.7772 28.3714 19.6146 28.5347 19.4131 28.5347H18.5159C18.4194 28.5347 18.3268 28.4964 18.2585 28.4281C18.1902 28.3598 18.1519 28.2672 18.1519 28.1706V19.147C18.1519 18.9463 18.3144 18.7829 18.5159 18.7829Z" fill="#5E97B6"/>
<path d="M25.9676 24.2928L21.0682 19.3926H12.3192L13.0929 27.7409C13.0975 27.7915 13.121 27.8385 13.1586 27.8726C13.1962 27.9068 13.2452 27.9256 13.296 27.9254H25.4451C25.4959 27.9256 25.5449 27.9068 25.5826 27.8726C25.6202 27.8385 25.6436 27.7915 25.6483 27.7409L25.9676 24.292V24.2928ZM27.0883 25.4127L26.8616 27.8539C26.8288 28.2067 26.6655 28.5345 26.4036 28.7732C26.1418 29.0119 25.8002 29.1443 25.4459 29.1444H13.2952C12.9409 29.1443 12.5994 29.0119 12.3375 28.7732C12.0757 28.5345 11.9124 28.2067 11.8796 27.8539L11.0434 18.8392C11.0356 18.7547 11.0455 18.6696 11.0724 18.5892C11.0994 18.5089 11.1428 18.435 11.2 18.3724C11.2571 18.3097 11.3267 18.2597 11.4042 18.2255C11.4818 18.1912 11.5656 18.1736 11.6504 18.1736H19.85L16.3841 14.7085C16.2143 14.5387 16.0796 14.3371 15.9877 14.1153C15.8958 13.8934 15.8485 13.6557 15.8485 13.4155C15.8485 13.1754 15.8958 12.9377 15.9877 12.7158C16.0796 12.494 16.2143 12.2924 16.3841 12.1226L17.5332 10.9735C17.703 10.8037 17.9045 10.6691 18.1264 10.5772C18.3482 10.4853 18.586 10.438 18.8261 10.438C19.0662 10.438 19.304 10.4853 19.5258 10.5772C19.7477 10.6691 19.9492 10.8037 20.119 10.9735L20.4164 11.2702C20.5275 11.3851 20.589 11.539 20.5877 11.6988C20.5864 11.8586 20.5224 12.0115 20.4094 12.1246C20.2965 12.2376 20.1436 12.3018 19.9838 12.3032C19.824 12.3047 19.67 12.2433 19.555 12.1324L19.2568 11.8349C19.1425 11.7208 18.9876 11.6567 18.8261 11.6567C18.6646 11.6567 18.5097 11.7208 18.3954 11.8349L17.2463 12.984C17.1897 13.0406 17.1447 13.1078 17.1141 13.1818C17.0834 13.2558 17.0677 13.3351 17.0677 13.4151C17.0677 13.4952 17.0834 13.5745 17.1141 13.6485C17.1447 13.7224 17.1897 13.7896 17.2463 13.8463L28.1634 24.7642C28.2777 24.8783 28.4326 24.9424 28.5941 24.9424C28.7556 24.9424 28.9106 24.8783 29.0248 24.7642L30.1739 23.6151C30.2881 23.5008 30.3522 23.3459 30.3522 23.1844C30.3522 23.0229 30.2881 22.868 30.1739 22.7537L29.8976 22.4766C29.7865 22.3617 29.725 22.2077 29.7263 22.0479C29.7277 21.8881 29.7917 21.7352 29.9046 21.6222C30.0176 21.5091 30.1704 21.445 30.3302 21.4435C30.49 21.442 30.644 21.5034 30.759 21.6144L31.0361 21.8907C31.206 22.0605 31.3408 22.2621 31.4328 22.484C31.5248 22.7059 31.5721 22.9438 31.5721 23.184C31.5721 23.4242 31.5248 23.6621 31.4328 23.884C31.3408 24.1059 31.206 24.3075 31.0361 24.4773L29.8871 25.6264C29.7173 25.7962 29.5157 25.9309 29.2939 26.0228C29.072 26.1147 28.8342 26.1619 28.5941 26.1619C28.354 26.1619 28.1162 26.1147 27.8944 26.0228C27.6726 25.9309 27.471 25.7962 27.3012 25.6264L27.0875 25.4127H27.0883ZM13.6975 13.5886C13.6975 13.7503 13.6333 13.9053 13.519 14.0196C13.4047 14.1339 13.2496 14.1981 13.088 14.1981C12.9263 14.1981 12.7713 14.1339 12.657 14.0196C12.5427 13.9053 12.4785 13.7503 12.4785 13.5886V12.2941C12.4785 12.1324 12.5427 11.9774 12.657 11.8631C12.7713 11.7488 12.9263 11.6846 13.088 11.6846C13.2496 11.6846 13.4047 11.7488 13.519 11.8631C13.6333 11.9774 13.6975 12.1324 13.6975 12.2941V13.5886ZM9.45545 14.0169C9.34493 13.9013 9.28426 13.7469 9.28654 13.587C9.28882 13.4271 9.35387 13.2745 9.46764 13.1621C9.58142 13.0497 9.73482 12.9865 9.89475 12.9862C10.0547 12.9859 10.2083 13.0484 10.3225 13.1604L11.2815 14.1323C11.3863 14.2488 11.4423 14.4012 11.4377 14.5579C11.4331 14.7146 11.3683 14.8635 11.2568 14.9737C11.1453 15.0838 10.9956 15.1468 10.8389 15.1495C10.6821 15.1521 10.5304 15.0943 10.4152 14.988L9.45545 14.0169ZM9.88859 16.2176C10.0502 16.2176 10.2053 16.2818 10.3196 16.3961C10.4339 16.5104 10.4981 16.6654 10.4981 16.827C10.4981 16.9887 10.4339 17.1437 10.3196 17.258C10.2053 17.3723 10.0502 17.4365 9.88859 17.4365H8.60949C8.44784 17.4365 8.29282 17.3723 8.17851 17.258C8.06421 17.1437 8 16.9887 8 16.827C8 16.6654 8.06421 16.5104 8.17851 16.3961C8.29282 16.2818 8.44784 16.2176 8.60949 16.2176H9.88859Z" fill="#555555"/>
</svg>
