<svg width="40" height="40" viewBox="0 0 40 40" fill="none" xmlns="http://www.w3.org/2000/svg">
<path fill-rule="evenodd" clip-rule="evenodd" d="M19.8916 20.6348C19.8122 20.6348 19.7334 20.6328 19.6548 20.6299C14.9336 20.7397 10.8441 24.124 9.87932 28.7581C9.81907 29.0475 9.89075 29.344 10.076 29.5719C10.1834 29.7038 10.4226 29.9251 10.8192 29.9251H18.08C18.593 29.9251 19.009 30.341 19.009 30.8542C19.009 31.3673 18.593 31.7832 18.08 31.7832H10.8192C9.96786 31.7832 9.17147 31.4045 8.63456 30.7442C8.09492 30.0805 7.88553 29.2186 8.06026 28.3794C8.61786 25.7011 10.0949 23.2639 12.2191 21.5165C13.3779 20.5635 14.7018 19.8412 16.1125 19.3768C14.5726 18.2237 13.5742 16.3849 13.5742 14.3174C13.5742 10.8339 16.4081 8 19.8916 8C23.375 8 26.209 10.8339 26.209 14.3174C26.209 16.3836 25.2118 18.2213 23.6734 19.3747C24.3956 19.612 25.0951 19.9172 25.7607 20.2875C26.209 20.537 26.3702 21.1028 26.1207 21.5512C25.8712 21.9995 25.3054 22.1607 24.857 21.9112C23.4114 21.1066 21.7753 20.6664 20.1117 20.6305C20.0386 20.6332 19.9653 20.6348 19.8916 20.6348ZM19.8916 9.85806C17.4326 9.85806 15.4323 11.8586 15.4323 14.3174C15.4323 16.7035 17.3159 18.6577 19.6742 18.7713C19.7466 18.7701 19.819 18.769 19.8916 18.769C19.9653 18.769 20.039 18.7699 20.1128 18.7713C22.4693 18.6556 24.351 16.7022 24.351 14.3174C24.351 11.8586 22.3505 9.85806 19.8916 9.85806Z" fill="#555555"/>
<path fill-rule="evenodd" clip-rule="evenodd" d="M31.4585 25.4887C31.4594 26.1093 31.2168 26.6925 30.7757 27.1312L29.0478 28.8496C28.8665 29.0299 28.6295 29.1199 28.3927 29.1199C28.1541 29.1199 27.9155 29.0285 27.7339 28.8459C27.3721 28.4821 27.3737 27.894 27.7375 27.5322L28.8957 26.3804H23.6309C22.5937 26.3804 21.7502 27.2241 21.7502 28.2611C21.7502 29.2981 22.5836 30.1419 23.6082 30.1419C24.1212 30.1419 24.5372 30.5578 24.5372 31.0709C24.5372 31.584 24.1212 31.9999 23.6082 31.9999C22.609 31.9999 21.6727 31.6098 20.9721 30.9012C20.2755 30.1968 19.8921 29.2593 19.8921 28.2611C19.8921 26.1995 21.5692 24.5223 23.6309 24.5223H28.8104L27.7393 23.4632C27.3746 23.1023 27.3712 22.514 27.7321 22.1493C28.0928 21.7846 28.6811 21.7811 29.046 22.142L30.7712 23.848C31.2136 24.2855 31.4576 24.8682 31.4585 25.4887Z" fill="#5F99B6"/>
</svg>
