<svg width="40" height="40" viewBox="0 0 40 40" fill="none" xmlns="http://www.w3.org/2000/svg">
<path d="M11.2432 20.0178C11.2432 20.7746 11.8588 21.3902 12.6155 21.3902C13.3722 21.3902 13.9878 20.7746 13.9878 20.0178C13.9878 19.2611 13.3722 18.6455 12.6155 18.6455C11.8588 18.6455 11.2432 19.2611 11.2432 20.0178ZM13.2848 20.0178C13.2848 20.3868 12.9845 20.6871 12.6155 20.6871C12.2465 20.6871 11.9463 20.3868 11.9463 20.0178C11.9463 19.6488 12.2465 19.3486 12.6155 19.3486C12.9845 19.3486 13.2848 19.6488 13.2848 20.0178Z" fill="#5F99B6"/>
<path d="M17.2852 20.0178C17.2852 19.2611 16.6695 18.6455 15.9128 18.6455C15.1561 18.6455 14.5405 19.2611 14.5405 20.0178C14.5405 20.7746 15.1562 21.3902 15.9128 21.3902C16.6695 21.3902 17.2852 20.7746 17.2852 20.0178ZM15.2436 20.0178C15.2436 19.6488 15.5438 19.3486 15.9128 19.3486C16.2818 19.3486 16.582 19.6488 16.582 20.0178C16.582 20.3868 16.2818 20.6871 15.9128 20.6871C15.5438 20.6871 15.2436 20.3868 15.2436 20.0178Z" fill="#5F99B6"/>
<path d="M20.5821 20.0178C20.5821 19.2611 19.9664 18.6455 19.2097 18.6455C18.453 18.6455 17.8374 19.2611 17.8374 20.0178C17.8374 20.7746 18.4531 21.3902 19.2097 21.3902C19.9664 21.3902 20.5821 20.7746 20.5821 20.0178ZM18.5405 20.0178C18.5405 19.6488 18.8407 19.3486 19.2097 19.3486C19.5787 19.3486 19.8789 19.6488 19.8789 20.0178C19.8789 20.3868 19.5787 20.6871 19.2097 20.6871C18.8407 20.6871 18.5405 20.3868 18.5405 20.0178Z" fill="#5F99B6"/>
<path d="M23.879 20.0178C23.879 19.2611 23.2633 18.6455 22.5066 18.6455C21.7499 18.6455 21.1343 19.2611 21.1343 20.0178C21.1343 20.7746 21.7499 21.3902 22.5066 21.3902C23.2633 21.3902 23.879 20.7746 23.879 20.0178ZM21.8374 20.0178C21.8374 19.6488 22.1375 19.3486 22.5065 19.3486C22.8755 19.3486 23.1758 19.6488 23.1758 20.0178C23.1758 20.3868 22.8755 20.6871 22.5065 20.6871C22.1375 20.6871 21.8374 20.3868 21.8374 20.0178Z" fill="#5F99B6"/>
<path d="M20.2078 27.9522L20.0724 27.9204L20.2078 27.9522C20.3579 27.313 19.8707 26.7005 19.2129 26.7005H16.7331C16.456 26.7005 16.2315 26.9251 16.2315 27.2021C16.2315 27.479 16.456 27.7036 16.7331 27.7036H19.2129C19.2192 27.7036 19.2244 27.7062 19.2281 27.7108C19.2316 27.7152 19.2321 27.7192 19.2313 27.7228L19.2312 27.7229C19.0177 28.6323 18.6976 29.5257 18.2797 30.3782L18.2797 30.3782C17.8493 31.2566 18.8346 32.1525 19.6667 31.6376L19.5878 31.51C20.768 30.7796 22.4773 29.5394 23.9175 27.7792L24.0336 27.8742C24.0336 27.8742 24.0336 27.8742 24.0336 27.8742C24.1219 27.7664 24.2544 27.7036 24.399 27.7036C26.3719 27.7036 27.9768 26.0988 27.9768 24.1259V23.7214H28.5722C30.5452 23.7214 32.15 22.1165 32.15 20.1436V16.606C32.15 16.329 31.9255 16.1045 31.6484 16.1045C31.3714 16.1045 31.1469 16.329 31.1469 16.606V20.1436C31.1469 21.5631 29.9918 22.7182 28.5722 22.7182H27.9768V15.41C27.9768 13.4372 26.3719 11.8323 24.399 11.8323H13.0263V11.4278C13.0263 10.0083 14.1814 8.85317 15.601 8.85317H28.5722C29.9918 8.85317 31.1469 10.0083 31.1469 11.4278V14.9654C31.1469 15.2424 31.3714 15.467 31.6484 15.467C31.9255 15.467 32.15 15.2424 32.15 14.9654V11.4278C32.15 9.45484 30.5452 7.85 28.5722 7.85H15.601C13.6281 7.85 12.0232 9.45484 12.0232 11.4277V11.8323H11.4277C9.45484 11.8323 7.85 13.4372 7.85 15.41V24.1259C7.85 26.0988 9.45485 27.7036 11.4277 27.7036H15.0924C15.3695 27.7036 15.594 27.479 15.594 27.2021C15.594 26.9251 15.3695 26.7005 15.0924 26.7005H11.4277C10.0082 26.7005 8.85312 25.5454 8.85312 24.1259V15.41C8.85312 13.9905 10.0082 12.8354 11.4277 12.8354H24.399C25.8185 12.8354 26.9736 13.9905 26.9736 15.41V24.1259C26.9736 25.5454 25.8185 26.7005 24.399 26.7005C23.9541 26.7005 23.5374 26.8965 23.2573 27.2389C21.9261 28.8657 20.3452 30.029 19.2229 30.7322C19.653 29.8389 19.9842 28.9041 20.2078 27.9522Z" fill="#555555" stroke="#555555" stroke-width="0.3"/>
</svg>
