<svg width="40" height="40" viewBox="0 0 40 40" fill="none" xmlns="http://www.w3.org/2000/svg">
<path d="M28.25 21.25C28.25 21.0511 28.329 20.8603 28.4697 20.7197C28.6103 20.579 28.8011 20.5 29 20.5C29.1989 20.5 29.3897 20.579 29.5303 20.7197C29.671 20.8603 29.75 21.0511 29.75 21.25V26.25C29.75 26.4489 29.671 26.6397 29.5303 26.7803C29.3897 26.921 29.1989 27 29 27C28.8011 27 28.6103 26.921 28.4697 26.7803C28.329 26.6397 28.25 26.4489 28.25 26.25V21.25ZM9.253 26.313C9.25113 26.292 9.25013 26.271 9.25 26.25V21.25C9.25 21.0511 9.32902 20.8603 9.46967 20.7197C9.61032 20.579 9.80109 20.5 10 20.5C10.1989 20.5 10.3897 20.579 10.5303 20.7197C10.671 20.8603 10.75 21.0511 10.75 21.25V26.25H23.25V21.25C23.25 21.0511 23.329 20.8603 23.4697 20.7197C23.6103 20.579 23.8011 20.5 24 20.5C24.1989 20.5 24.3897 20.579 24.5303 20.7197C24.671 20.8603 24.75 21.0511 24.75 21.25V26.25H30.286C31.232 26.25 32 27.018 32 27.964V29.536C32 30.482 31.232 31.25 30.286 31.25H9.714C9.48891 31.25 9.26603 31.2057 9.05808 31.1195C8.85013 31.0334 8.66118 30.9071 8.50202 30.748C8.18058 30.4265 8 29.9906 8 29.536V27.964C8 27.177 8.53 26.514 9.253 26.313ZM9.714 27.75C9.6859 27.75 9.65807 27.7555 9.63211 27.7663C9.60614 27.777 9.58255 27.7928 9.56268 27.8127C9.54281 27.8326 9.52704 27.8561 9.51629 27.8821C9.50554 27.9081 9.5 27.9359 9.5 27.964V29.536C9.5 29.654 9.596 29.75 9.714 29.75H30.286C30.3428 29.75 30.3972 29.7275 30.4373 29.6873C30.4775 29.6472 30.5 29.5928 30.5 29.536V27.964C30.5 27.9072 30.4775 27.8528 30.4373 27.8127C30.3972 27.7725 30.3428 27.75 30.286 27.75H9.714ZM11.72 10.5L9.65 14.122C9.54884 14.2897 9.3861 14.4112 9.19657 14.4604C9.00703 14.5097 8.80574 14.4829 8.6357 14.3858C8.46567 14.2886 8.34038 14.1288 8.28662 13.9405C8.23286 13.7522 8.25489 13.5503 8.348 13.378L10.528 9.56C10.751 9.202 11.145 9 11.568 9H28.431C28.853 9 29.247 9.202 29.485 9.585L31.65 13.378C31.7016 13.4636 31.7357 13.5587 31.75 13.6576C31.7644 13.7566 31.7588 13.8574 31.7337 13.9542C31.7085 14.0509 31.6642 14.1417 31.6035 14.2211C31.5427 14.3005 31.4667 14.367 31.3799 14.4166C31.2931 14.4662 31.1972 14.4979 31.098 14.51C30.9987 14.522 30.8981 14.514 30.8019 14.4866C30.7058 14.4591 30.6161 14.4128 30.5381 14.3501C30.4602 14.2875 30.3955 14.21 30.348 14.122L28.282 10.5H11.719H11.72ZM15.234 21.111C15.3137 21.0526 15.4041 21.0106 15.5001 20.9873C15.5961 20.964 15.6957 20.9598 15.7933 20.9751C15.8908 20.9904 15.9844 21.0248 16.0687 21.0764C16.1529 21.1279 16.2261 21.1956 16.2842 21.2756C16.3422 21.3555 16.3838 21.4461 16.4067 21.5422C16.4296 21.6383 16.4333 21.7379 16.4176 21.8354C16.4019 21.9329 16.3671 22.0264 16.3151 22.1104C16.2632 22.1944 16.1952 22.2673 16.115 22.325L13.688 24.088C13.527 24.2038 13.3266 24.2511 13.1308 24.2195C12.935 24.188 12.7596 24.0801 12.6431 23.9196C12.5267 23.7591 12.4785 23.5589 12.5092 23.363C12.5399 23.167 12.647 22.9912 12.807 22.874L15.234 21.111ZM19.447 21.111C19.5267 21.0531 19.6171 21.0114 19.7129 20.9884C19.8087 20.9654 19.9081 20.9615 20.0054 20.977C20.1027 20.9924 20.196 21.0268 20.28 21.0783C20.364 21.1298 20.4371 21.1973 20.495 21.277C20.5529 21.3567 20.5946 21.4471 20.6176 21.5429C20.6406 21.6387 20.6445 21.7381 20.629 21.8354C20.6136 21.9327 20.5792 22.026 20.5277 22.11C20.4762 22.194 20.4087 22.2671 20.329 22.325L16.689 24.97C16.528 25.087 16.3272 25.1352 16.1306 25.104C15.9341 25.0729 15.758 24.965 15.641 24.804C15.524 24.643 15.4758 24.4422 15.507 24.2456C15.5381 24.0491 15.646 23.873 15.807 23.756L19.447 21.111Z" fill="#555555"/>
<path fill-rule="evenodd" clip-rule="evenodd" d="M32 15.9641C32 17.8581 30.518 19.3931 28.69 19.3931C27.443 19.3931 26.358 18.6791 25.793 17.6251C25.228 18.6791 24.143 19.3931 22.897 19.3931C21.65 19.3931 20.565 18.6791 20 17.6251C19.435 18.6791 18.35 19.3931 17.103 19.3931C15.857 19.3931 14.772 18.6791 14.207 17.6251C13.642 18.6791 12.557 19.3931 11.31 19.3931C9.482 19.3931 8 17.8581 8 15.9641C8 15.5901 8.303 15.2871 8.677 15.2871H31.323C31.697 15.2871 32 15.5901 32 15.9641Z" fill="#5E97B6"/>
</svg>
