<svg width="40" height="40" viewBox="0 0 40 40" fill="none" xmlns="http://www.w3.org/2000/svg">
<path d="M18.0364 18.8199V15.5471C18.0364 15.3735 18.1053 15.207 18.2281 15.0843C18.3508 14.9615 18.5173 14.8926 18.6909 14.8926H21.3091C21.4827 14.8926 21.6492 14.9615 21.7719 15.0843C21.8947 15.207 21.9636 15.3735 21.9636 15.5471V18.8199H26.5455C27.182 18.8199 27.7924 19.0727 28.2425 19.5228C28.6926 19.9729 28.9455 20.5833 28.9455 21.2199V26.8926C28.9455 27.0662 28.8765 27.2327 28.7537 27.3554C28.631 27.4782 28.4645 27.5471 28.2909 27.5471C28.1173 27.5471 27.9508 27.4782 27.8281 27.3554C27.7053 27.2327 27.6364 27.0662 27.6364 26.8926V21.2199C27.6364 20.6177 27.1476 20.1289 26.5455 20.1289H13.4545C12.8524 20.1289 12.3636 20.6177 12.3636 21.2199V26.8926C12.3636 26.9785 12.3467 27.0636 12.3138 27.1431C12.2809 27.2225 12.2327 27.2946 12.1719 27.3554C12.1111 27.4162 12.039 27.4644 11.9596 27.4973C11.8802 27.5302 11.795 27.5471 11.7091 27.5471C11.6231 27.5471 11.538 27.5302 11.4586 27.4973C11.3792 27.4644 11.307 27.4162 11.2463 27.3554C11.1855 27.2946 11.1373 27.2225 11.1044 27.1431C11.0715 27.0636 11.0545 26.9785 11.0545 26.8926V21.2199C11.0545 20.5833 11.3074 19.9729 11.7575 19.5228C12.2076 19.0727 12.818 18.8199 13.4545 18.8199H18.0364ZM19.3455 18.8199H20.6545V16.2017H19.3455V18.8199ZM8.65455 30.1653C8.48095 30.1653 8.31446 30.0963 8.19171 29.9736C8.06896 29.8508 8 29.6844 8 29.5108C8 29.3372 8.06896 29.1707 8.19171 29.0479C8.31446 28.9252 8.48095 28.8562 8.65455 28.8562H31.3455C31.5191 28.8562 31.6855 28.9252 31.8083 29.0479C31.931 29.1707 32 29.3372 32 29.5108C32 29.6844 31.931 29.8508 31.8083 29.9736C31.6855 30.0963 31.5191 30.1653 31.3455 30.1653H8.65455Z" fill="#555555"/>
<path d="M27.6365 24.8243C27.1744 25.0384 26.6709 25.1486 26.1616 25.1472C25.3927 25.1472 24.6675 24.9028 24.1081 24.4761C23.5146 24.9175 22.7933 25.1532 22.0537 25.1472C21.2857 25.1472 20.5596 24.9028 20.0001 24.4761C19.4069 24.9174 18.6859 25.153 17.9466 25.1472C17.1769 25.1472 16.4516 24.9028 15.8922 24.4761C15.299 24.9174 14.578 25.153 13.8387 25.1472C13.3295 25.1486 12.8262 25.039 12.3638 24.826V22.8537C12.5846 23.3075 13.1492 23.6513 13.8387 23.6513C14.4426 23.6513 14.9741 23.3817 15.2403 22.9785C15.3125 22.8719 15.4097 22.7847 15.5234 22.7244C15.6372 22.6641 15.7639 22.6325 15.8926 22.6325C16.0214 22.6325 16.1481 22.6641 16.2618 22.7244C16.3756 22.7847 16.4728 22.8719 16.545 22.9785C16.8103 23.3817 17.3427 23.6505 17.9466 23.6505C18.5497 23.6505 19.0812 23.3817 19.3482 22.9785C19.4205 22.8721 19.5176 22.785 19.6313 22.7248C19.7449 22.6646 19.8715 22.6332 20.0001 22.6332C20.1287 22.6332 20.2554 22.6646 20.369 22.7248C20.4826 22.785 20.5798 22.8721 20.6521 22.9785C20.9182 23.3817 21.4506 23.6505 22.0537 23.6505C22.6576 23.6505 23.19 23.3817 23.4553 22.9785C23.5275 22.8719 23.6247 22.7847 23.7384 22.7244C23.8521 22.6641 23.9789 22.6325 24.1076 22.6325C24.2363 22.6325 24.3631 22.6641 24.4768 22.7244C24.5906 22.7847 24.6878 22.8719 24.76 22.9785C25.0262 23.3817 25.5577 23.6505 26.1616 23.6505C26.851 23.6505 27.4157 23.3075 27.6365 22.8563V24.8252V24.8243ZM20.0001 13.8017C19.0358 13.8017 18.2547 12.9849 18.2547 11.976C18.2547 11.304 18.8368 10.3117 20.0001 9C21.1635 10.3117 21.7456 11.304 21.7456 11.976C21.7456 12.9849 20.9645 13.8017 20.0001 13.8017Z" fill="#5E97B6"/>
</svg>
