<svg width="40" height="40" viewBox="0 0 40 40" fill="none" xmlns="http://www.w3.org/2000/svg">
<path fill-rule="evenodd" clip-rule="evenodd" d="M16.1509 12C18.3644 12 18.6415 12.0091 19.5109 12.0489C20.3795 12.0888 20.9718 12.2264 21.4898 12.4284C22.026 12.6367 22.4806 12.9147 22.9334 13.3685C23.3863 13.8213 23.6661 14.2759 23.8744 14.8121C24.0755 15.3301 24.2131 15.9224 24.253 16.79C24.2928 17.6595 24.3019 17.9375 24.3019 20.1509C24.3019 22.3644 24.2928 22.6415 24.253 23.5109C24.2131 24.3795 24.0755 24.9718 23.8744 25.4898C23.6695 26.0337 23.3484 26.5264 22.9334 26.9334C22.4806 27.3863 22.026 27.6661 21.4898 27.8744C20.9718 28.0755 20.3795 28.2131 19.5118 28.253C18.6424 28.2928 18.3644 28.3019 16.1509 28.3019C13.9375 28.3019 13.6604 28.2928 12.7909 28.253C11.9224 28.2131 11.3301 28.0755 10.8121 27.8744C10.2682 27.6695 9.77549 27.3484 9.36845 26.9334C8.91562 26.4806 8.63577 26.026 8.42838 25.4898C8.22642 24.9718 8.08875 24.3795 8.04891 23.5118C8.00906 22.6415 8 22.3644 8 20.1509C8 17.9375 8.00906 17.6604 8.04891 16.7909C8.08875 15.9224 8.22642 15.3301 8.42838 14.8121C8.63263 14.268 8.95314 13.775 9.36755 13.3675C9.82038 12.9147 10.275 12.6349 10.8112 12.4275C11.3292 12.2255 11.9215 12.0878 12.7891 12.048C13.6604 12.0091 13.9375 12 16.1509 12ZM16.1509 13.469C13.9746 13.469 13.7165 13.4771 12.8571 13.5161C12.0628 13.5523 11.6308 13.6854 11.3446 13.7968C10.9633 13.9445 10.6925 14.1211 10.4063 14.4063C10.1211 14.6916 9.94445 14.9633 9.79683 15.3437C9.68543 15.6308 9.5523 16.0628 9.51608 16.8571C9.47713 17.7174 9.46898 17.9746 9.46898 20.1509C9.46898 22.3272 9.47713 22.5854 9.51608 23.4448C9.5523 24.2391 9.68543 24.6711 9.79683 24.9573C9.94445 25.3386 10.1211 25.6094 10.4063 25.8955C10.6916 26.1808 10.9633 26.3574 11.3437 26.5051C11.6308 26.6165 12.0628 26.7496 12.8571 26.7858C13.7174 26.8248 13.9746 26.8329 16.1509 26.8329C18.3272 26.8329 18.5854 26.8248 19.4448 26.7858C20.2391 26.7496 20.6711 26.6165 20.9573 26.5051C21.3386 26.3574 21.6094 26.1808 21.8955 25.8955C22.1808 25.6103 22.3574 25.3386 22.5051 24.9582C22.6165 24.6711 22.7496 24.2391 22.7858 23.4448C22.8248 22.5845 22.8329 22.3272 22.8329 20.1509C22.8329 17.9746 22.8248 17.7165 22.7858 16.8571C22.7496 16.0628 22.6165 15.6308 22.5051 15.3446C22.3746 14.9902 22.1663 14.6696 21.8955 14.4063C21.6326 14.1357 21.3123 13.9274 20.9582 13.7968C20.6711 13.6854 20.2391 13.5523 19.4448 13.5161C18.5845 13.4771 18.3272 13.469 16.1509 13.469ZM11.965 20.1509C11.965 19.0408 12.406 17.976 13.191 17.191C13.976 16.406 15.0408 15.965 16.1509 15.965C17.2611 15.965 18.3258 16.406 19.1109 17.191C19.8959 17.976 20.3369 19.0408 20.3369 20.1509C20.3369 21.2611 19.8959 22.3258 19.1109 23.1109C18.3258 23.8959 17.2611 24.3369 16.1509 24.3369C15.0408 24.3369 13.976 23.8959 13.191 23.1109C12.406 22.3258 11.965 21.2611 11.965 20.1509ZM16.1509 22.8679C16.8715 22.8679 17.5626 22.5817 18.0721 22.0721C18.5817 21.5626 18.8679 20.8715 18.8679 20.1509C18.8679 19.4304 18.5817 18.7393 18.0721 18.2297C17.5626 17.7202 16.8715 17.434 16.1509 17.434C15.4304 17.434 14.7393 17.7202 14.2297 18.2297C13.7202 18.7393 13.434 19.4304 13.434 20.1509C13.434 20.8715 13.7202 21.5626 14.2297 22.0721C14.7393 22.5817 15.4304 22.8679 16.1509 22.8679ZM20.5017 16.7783C20.2423 16.7783 19.9935 16.6752 19.8101 16.4918C19.6267 16.3084 19.5236 16.0596 19.5236 15.8002C19.5236 15.5407 19.6267 15.292 19.8101 15.1085C19.9935 14.9251 20.2423 14.822 20.5017 14.822C20.7611 14.822 21.0099 14.9251 21.1934 15.1085C21.3768 15.292 21.4798 15.5407 21.4798 15.8002C21.4798 16.0596 21.3768 16.3084 21.1934 16.4918C21.0099 16.6752 20.7611 16.7783 20.5017 16.7783Z" fill="#555555"/>
<path d="M29.7359 19.6982H31.3208C31.501 19.6982 31.6737 19.7698 31.8011 19.8972C31.9285 20.0246 32.0001 20.1973 32.0001 20.3775C32.0001 20.5576 31.9285 20.7304 31.8011 20.8578C31.6737 20.9852 31.501 21.0567 31.3208 21.0567H29.7359V22.6416C29.7359 22.8218 29.6644 22.9945 29.537 23.1219C29.4096 23.2493 29.2368 23.3209 29.0567 23.3209C28.8765 23.3209 28.7038 23.2493 28.5764 23.1219C28.449 22.9945 28.3774 22.8218 28.3774 22.6416V21.0567H26.7925C26.6124 21.0567 26.4396 20.9852 26.3122 20.8578C26.1848 20.7304 26.1133 20.5576 26.1133 20.3775C26.1133 20.1973 26.1848 20.0246 26.3122 19.8972C26.4396 19.7698 26.6124 19.6982 26.7925 19.6982H28.3774V18.1133C28.3774 17.9332 28.449 17.7604 28.5764 17.633C28.7038 17.5056 28.8765 17.4341 29.0567 17.4341C29.2368 17.4341 29.4096 17.5056 29.537 17.633C29.6644 17.7604 29.7359 17.9332 29.7359 18.1133V19.6982Z" fill="#5E97B6"/>
</svg>
