<svg width="40" height="40" viewBox="0 0 40 40" fill="none" xmlns="http://www.w3.org/2000/svg">
<path d="M23.4804 23.9364C23.0693 23.9364 22.656 23.8379 22.2737 23.6383L20.2898 22.6025C20.0792 22.4925 19.8278 22.4925 19.6172 22.6025L17.6333 23.6382C16.7499 24.0994 15.7012 24.0212 14.8966 23.4341C14.0983 22.8516 13.7064 21.8864 13.8742 20.9151L14.2531 18.7212C14.2924 18.4938 14.216 18.2614 14.0489 18.0996L12.4439 16.5459C11.7322 15.857 11.4791 14.8447 11.7834 13.9041C12.0892 12.959 12.8923 12.2834 13.8793 12.141L16.0973 11.8209C16.3317 11.7871 16.5338 11.6419 16.6378 11.4325L17.6298 9.43645C18.0702 8.55044 18.9605 8 19.9534 8C20.9464 8 21.8368 8.55044 22.2771 9.43645L23.2691 11.4324C23.3731 11.6419 23.5752 11.7871 23.8096 11.8209L26.0276 12.141C27.0146 12.2835 27.8177 12.9591 28.1235 13.9041C28.4278 14.8447 28.1747 15.857 27.463 16.5459L25.858 18.0996C25.6908 18.2614 25.6145 18.4938 25.6538 18.7213L26.0327 20.915C26.2005 21.8864 25.8087 22.8516 25.0103 23.4341C24.554 23.7672 24.019 23.9364 23.4804 23.9364V23.9364ZM19.9535 20.6452C20.3671 20.6452 20.7805 20.7436 21.1576 20.9404L23.1414 21.9762C23.5024 22.1646 23.7959 21.9993 23.9053 21.9195C24.0116 21.8419 24.2518 21.6198 24.1852 21.2341L23.8063 19.0403C23.6614 18.2011 23.941 17.3458 24.5541 16.7524L26.1591 15.1987C26.4427 14.9241 26.3798 14.6055 26.3397 14.4813C26.2988 14.3548 26.1604 14.0545 25.76 13.9967L23.5419 13.6766C22.6979 13.5548 21.9683 13.0278 21.5901 12.2668L20.5981 10.2708C20.4205 9.91348 20.0882 9.87491 19.9535 9.87491C19.8189 9.87491 19.4865 9.91348 19.3089 10.2708L18.3169 12.2669C17.9388 13.0278 17.2092 13.5548 16.3652 13.6766L14.1471 13.9967C13.7467 14.0545 13.6083 14.3548 13.5674 14.4813C13.5272 14.6055 13.4644 14.9241 13.748 15.1987L15.353 16.7524C15.9661 17.3458 16.2457 18.2011 16.1008 19.0402L15.7219 21.2341C15.6553 21.6197 15.8954 21.8418 16.0018 21.9194C16.1112 21.9992 16.4047 22.1646 16.7657 21.9761L18.7495 20.9403C19.1264 20.7436 19.54 20.6452 19.9535 20.6452V20.6452ZM18.4694 9.85372H18.4698H18.4694Z" fill="#555555"/>
<path d="M16.2186 31.9995C15.8947 31.9995 15.569 31.9218 15.2676 31.7645L13.9408 31.0717C13.8899 31.0453 13.8293 31.0453 13.7783 31.0717L12.4515 31.7645C11.7553 32.128 10.9287 32.0663 10.2945 31.6036C9.66447 31.1439 9.35538 30.3819 9.4878 29.6151L9.7412 28.1479C9.74997 28.0971 9.73253 28.0448 9.69465 28.0081L8.62124 26.9691C8.05951 26.4253 7.85978 25.6262 8.10005 24.8836C8.34127 24.1379 8.97458 23.605 9.75282 23.4927L11.2362 23.2786C11.2735 23.2732 11.3083 23.2558 11.3342 23.2296C11.6982 22.8614 12.2917 22.858 12.66 23.222C13.0282 23.5859 13.0316 24.1795 12.6676 24.5477C12.3563 24.8626 11.9431 25.071 11.5041 25.1344L10.0206 25.3484C9.9946 25.3522 9.91543 25.3636 9.88398 25.4607C9.85412 25.553 9.90774 25.6048 9.92532 25.6219L10.9987 26.661C11.4826 27.1294 11.7032 27.8045 11.5888 28.467L11.3354 29.9342C11.3313 29.9579 11.3189 30.03 11.3996 30.0889C11.4578 30.1314 11.5197 30.1358 11.5838 30.1024L12.9107 29.4097C13.5048 29.0995 14.2143 29.0995 14.8085 29.4097L16.1354 30.1025C16.1994 30.1359 16.2613 30.1314 16.3195 30.089C16.4003 30.0301 16.3878 29.958 16.3837 29.9343L16.1303 28.4671C16.016 27.8045 16.2366 27.1294 16.7204 26.661L17.7938 25.6219C18.1658 25.2619 18.7594 25.2714 19.1194 25.6435C19.4796 26.0155 19.4699 26.609 19.0979 26.9691L18.0245 28.0082C17.9865 28.0449 17.9691 28.0972 17.9779 28.148L18.2313 29.6152C18.3637 30.382 18.0546 31.1439 17.4246 31.6036C17.0649 31.866 16.6432 31.9995 16.2186 31.9995V31.9995ZM29.7055 31.6035C30.3355 31.1438 30.6446 30.3819 30.5122 29.6151L30.2588 28.1479C30.25 28.0971 30.2675 28.0448 30.3054 28.0081L31.3788 26.969C31.9405 26.4253 32.1402 25.6262 31.9 24.8835C31.6587 24.1379 31.0254 23.6049 30.2472 23.4927L28.7638 23.2786C28.7265 23.2732 28.6917 23.2558 28.6658 23.2296C28.3019 22.8614 27.7082 22.8579 27.34 23.2219C26.9718 23.5859 26.9684 24.1794 27.3324 24.5477C27.6437 24.8626 28.0569 25.0709 28.496 25.1343L29.9794 25.3484C30.0054 25.3521 30.0846 25.3636 30.116 25.4607C30.1459 25.5529 30.0923 25.6048 30.0747 25.6219L29.0013 26.6609C28.5174 27.1293 28.2968 27.8044 28.4112 28.467L28.6646 29.9342C28.6687 29.9579 28.6811 30.03 28.6004 30.0889C28.5422 30.1313 28.4802 30.1358 28.4162 30.1024L27.0893 29.4096C26.4952 29.0994 25.7856 29.0994 25.1915 29.4096L23.8647 30.1023C23.8006 30.1358 23.7387 30.1313 23.6805 30.0888C23.5997 30.0299 23.6122 29.9578 23.6163 29.9342L23.8697 28.4669C23.984 27.8044 23.7635 27.1293 23.2796 26.6609L22.2062 25.6218C21.8341 25.2617 21.2406 25.2713 20.8806 25.6434C20.5204 26.0154 20.5301 26.6089 20.9021 26.969L21.9755 28.008C22.0135 28.0447 22.0309 28.097 22.0221 28.1478L21.7687 29.615C21.6363 30.3818 21.9454 31.1438 22.5754 31.6035C23.2096 32.0663 24.0362 32.1279 24.7324 31.7644L26.0592 31.0716C26.1101 31.0452 26.1708 31.0452 26.2217 31.0716L27.5485 31.7644C27.8499 31.9217 28.1755 31.9994 28.4995 31.9994C28.9241 31.9995 29.3458 31.866 29.7055 31.6035V31.6035Z" fill="#5F99B6"/>
</svg>
