<svg width="40" height="40" viewBox="0 0 40 40" fill="none" xmlns="http://www.w3.org/2000/svg">
<path d="M27.6428 30.5933C27.7346 30.5805 27.828 30.586 27.9178 30.6094C28.0075 30.6328 28.0917 30.6736 28.1656 30.7295C28.2396 30.7855 28.3017 30.8554 28.3486 30.9354C28.3955 31.0153 28.4262 31.1038 28.439 31.1956C28.4517 31.2874 28.4462 31.3808 28.4228 31.4706C28.3995 31.5603 28.3586 31.6445 28.3027 31.7184C28.2468 31.7924 28.1768 31.8545 28.0969 31.9014C28.0169 31.9483 27.9285 31.979 27.8367 31.9918C27.7661 32.0012 28.4992 32.0012 9.17629 31.9984C9.00813 31.9983 8.84194 31.9623 8.6889 31.8926C8.53587 31.8229 8.39955 31.7212 8.28914 31.5944C8.17872 31.4676 8.09678 31.3186 8.04884 31.1574C8.00089 30.9962 7.98805 30.8266 8.01119 30.6601L10.1805 15.0659C10.2354 14.6724 10.4307 14.312 10.7305 14.0512C11.0302 13.7904 11.4141 13.6467 11.8114 13.6467H12.3874C12.5746 13.6467 12.7541 13.721 12.8865 13.8534C13.0188 13.9858 13.0932 14.1653 13.0932 14.3525C13.0932 14.5397 13.0188 14.7192 12.8865 14.8516C12.7541 14.984 12.5746 15.0583 12.3874 15.0583H11.8114C11.7547 15.0585 11.6999 15.0792 11.6572 15.1165C11.6144 15.1539 11.5867 15.2054 11.5789 15.2616L9.44733 30.5867C14.9999 30.5867 27.6842 30.5876 27.6428 30.5933ZM22.0695 15.4696C22.0546 15.4121 22.047 15.353 22.0469 15.2936V12.411C22.0469 10.7575 20.6804 9.41167 18.9883 9.41167C17.2962 9.41167 15.9297 10.7575 15.9297 12.4119V15.2936C15.9296 15.353 15.922 15.4121 15.9071 15.4696C16.181 15.6211 16.3968 15.8593 16.5205 16.1468C16.6443 16.4342 16.669 16.7547 16.5907 17.0577C16.5125 17.3608 16.3358 17.6292 16.0884 17.8209C15.841 18.0126 15.5369 18.1166 15.2239 18.1166C14.9109 18.1166 14.6068 18.0126 14.3594 17.8209C14.1119 17.6292 13.9352 17.3608 13.857 17.0577C13.7788 16.7547 13.8035 16.4342 13.9272 16.1468C14.051 15.8593 14.2667 15.6211 14.5406 15.4696C14.5257 15.4121 14.5181 15.353 14.518 15.2936V12.411C14.518 9.97257 16.5226 8 18.9883 8C21.454 8 23.4586 9.97257 23.4586 12.4119V15.2936C23.4585 15.353 23.4509 15.4121 23.436 15.4696C23.7099 15.6211 23.9257 15.8593 24.0494 16.1468C24.1732 16.4342 24.1979 16.7547 24.1196 17.0577C24.0414 17.3608 23.8647 17.6292 23.6173 17.8209C23.3699 18.0126 23.0657 18.1166 22.7528 18.1166C22.4398 18.1166 22.1357 18.0126 21.8883 17.8209C21.6408 17.6292 21.4641 17.3608 21.3859 17.0577C21.3077 16.7547 21.3324 16.4342 21.4561 16.1468C21.5799 15.8593 21.7956 15.6211 22.0695 15.4696ZM25.5516 15.0583C25.3644 15.0583 25.1849 14.984 25.0525 14.8516C24.9202 14.7192 24.8458 14.5397 24.8458 14.3525C24.8458 14.1653 24.9202 13.9858 25.0525 13.8534C25.1849 13.721 25.3644 13.6467 25.5516 13.6467H26.1652C26.5627 13.6467 26.9467 13.7905 27.2465 14.0515C27.5462 14.3126 27.7415 14.6731 27.7962 15.0668L28.135 17.5043C28.151 17.5975 28.1481 17.693 28.1265 17.7851C28.1048 17.8772 28.0649 17.9641 28.0091 18.0404C27.9532 18.1168 27.8826 18.1811 27.8014 18.2297C27.7202 18.2782 27.63 18.3099 27.5363 18.3229C27.4426 18.3359 27.3472 18.3299 27.2559 18.3053C27.1645 18.2808 27.0791 18.2381 27.0045 18.1798C26.93 18.1215 26.868 18.0488 26.8221 17.9661C26.7762 17.8834 26.7474 17.7922 26.7374 17.6982L26.3986 15.2607C26.3907 15.2045 26.3627 15.153 26.3198 15.1158C26.2769 15.0787 26.222 15.0582 26.1652 15.0583H25.5507H25.5516ZM18.0472 15.0583C17.86 15.0583 17.6805 14.984 17.5481 14.8516C17.4157 14.7192 17.3414 14.5397 17.3414 14.3525C17.3414 14.1653 17.4157 13.9858 17.5481 13.8534C17.6805 13.721 17.86 13.6467 18.0472 13.6467H19.9294C20.1166 13.6467 20.2962 13.721 20.4285 13.8534C20.5609 13.9858 20.6353 14.1653 20.6353 14.3525C20.6353 14.5397 20.5609 14.7192 20.4285 14.8516C20.2962 14.984 20.1166 15.0583 19.9294 15.0583H18.0472Z" fill="#555555"/>
<path fill-rule="evenodd" clip-rule="evenodd" d="M22.6906 23.533L23.3777 19.8363C23.4002 19.7152 23.4692 19.6077 23.57 19.537C23.6709 19.4663 23.7954 19.4379 23.9169 19.4579L27.6249 20.0772C27.7483 20.0977 27.8664 20.1427 27.9723 20.2094C28.0781 20.2762 28.1696 20.3634 28.2413 20.4659L31.1249 24.5842C31.1604 24.6348 31.1856 24.692 31.199 24.7524C31.2124 24.8128 31.2138 24.8752 31.203 24.9362C31.1923 24.9971 31.1696 25.0553 31.1364 25.1075C31.1031 25.1596 31.0599 25.2047 31.0091 25.2401L26.3855 28.4785C26.3348 28.514 26.2776 28.5392 26.2172 28.5526C26.1568 28.566 26.0944 28.5674 26.0335 28.5567C25.9725 28.5459 25.9143 28.5232 25.8622 28.49C25.81 28.4567 25.7649 28.4135 25.7295 28.3627L22.8459 24.2444C22.7742 24.142 22.7237 24.0264 22.6972 23.9042C22.6707 23.7821 22.6688 23.6559 22.6916 23.533H22.6906Z" fill="#5E97B6"/>
</svg>
