<svg width="40" height="40" viewBox="0 0 40 40" fill="none" xmlns="http://www.w3.org/2000/svg">
<path d="M13.6966 27.7179C20.5316 27.7179 24.2702 22.0549 24.2702 17.1444C24.2702 16.9832 24.2702 16.8238 24.2593 16.6644C24.9866 16.1383 25.6143 15.4869 26.1132 14.7407C25.4349 15.0411 24.7153 15.238 23.9786 15.3249C24.7544 14.8603 25.335 14.1297 25.6124 13.269C24.8831 13.7022 24.0852 14.0076 23.2531 14.172C22.6929 13.576 21.9519 13.1813 21.1447 13.049C20.3375 12.9167 19.5093 13.0541 18.7881 13.44C18.0669 13.8259 17.493 14.4388 17.1553 15.1838C16.8176 15.9287 16.7348 16.7642 16.9198 17.561C15.4423 17.4869 13.9969 17.103 12.6774 16.4341C11.3579 15.7652 10.1938 14.8263 9.26068 13.6784C8.7855 14.4964 8.63993 15.4647 8.85362 16.3863C9.0673 17.3078 9.62418 18.1133 10.4109 18.6387C9.81964 18.6213 9.24126 18.4619 8.72453 18.1741V18.2212C8.72488 19.0791 9.02194 19.9105 9.56534 20.5744C10.1087 21.2383 10.865 21.6938 11.706 21.8638C11.1588 22.0129 10.5847 22.0346 10.0278 21.9272C10.2652 22.6657 10.7276 23.3115 11.3502 23.7744C11.9727 24.2372 12.7244 24.4938 13.5001 24.5083C12.7295 25.1139 11.8471 25.5617 10.9034 25.826C9.95963 26.0903 8.97303 26.1661 8 26.0488C9.69959 27.1395 11.6772 27.718 13.6966 27.7152" fill="#555555"/>
<path d="M29.7359 19.7925H31.3208C31.501 19.7925 31.6737 19.864 31.8011 19.9914C31.9285 20.1188 32.0001 20.2916 32.0001 20.4717C32.0001 20.6519 31.9285 20.8246 31.8011 20.952C31.6737 21.0794 31.501 21.151 31.3208 21.151H29.7359V22.7359C29.7359 22.916 29.6644 23.0888 29.537 23.2162C29.4096 23.3436 29.2368 23.4151 29.0567 23.4151C28.8765 23.4151 28.7038 23.3436 28.5764 23.2162C28.449 23.0888 28.3774 22.916 28.3774 22.7359V21.151H26.7925C26.6124 21.151 26.4396 21.0794 26.3122 20.952C26.1848 20.8246 26.1133 20.6519 26.1133 20.4717C26.1133 20.2916 26.1848 20.1188 26.3122 19.9914C26.4396 19.864 26.6124 19.7925 26.7925 19.7925H28.3774V18.2076C28.3774 18.0274 28.449 17.8547 28.5764 17.7273C28.7038 17.5999 28.8765 17.5283 29.0567 17.5283C29.2368 17.5283 29.4096 17.5999 29.537 17.7273C29.6644 17.8547 29.7359 18.0274 29.7359 18.2076V19.7925Z" fill="#5E97B6"/>
</svg>
