<svg width="40" height="40" viewBox="0 0 40 40" fill="none" xmlns="http://www.w3.org/2000/svg">
<path d="M28.8092 24.7538L26.2199 26.4234C26.2583 26.6695 26.2518 26.9207 26.2006 27.1645L28.7793 28.8274C29.1128 28.6289 29.504 28.5501 29.8883 28.6039C30.2727 28.6577 30.6272 28.8409 30.8934 29.1233C31.1596 29.4056 31.3216 29.7703 31.3526 30.1572C31.3837 30.544 31.2819 30.9299 31.0641 31.2511C30.8464 31.5724 30.5256 31.8097 30.1547 31.9241C29.7839 32.0385 29.3851 32.0231 29.0243 31.8803C28.6634 31.7376 28.3619 31.4761 28.1697 31.139C27.9774 30.8019 27.9058 30.4093 27.9667 30.026L25.4169 28.3815C25.1089 28.6094 24.743 28.7461 24.3611 28.776C23.9791 28.806 23.5964 28.728 23.2566 28.5509C22.9168 28.3738 22.6337 28.1048 22.4394 27.7746C22.2452 27.4443 22.1476 27.0661 22.158 26.6831C22.1683 26.3001 22.2861 25.9277 22.4979 25.6084C22.7097 25.2891 23.0069 25.0358 23.3557 24.8773C23.7046 24.7188 24.0909 24.6615 24.4707 24.712C24.8505 24.7626 25.2085 24.9188 25.5038 25.163L27.9725 23.5706C27.9042 23.1886 27.9681 22.7947 28.1537 22.454C28.3394 22.1132 28.6356 21.8459 28.9936 21.6962C29.3515 21.5464 29.7499 21.5231 30.1228 21.6302C30.4958 21.7372 30.8212 21.9682 31.0452 22.2851C31.2693 22.6019 31.3786 22.9856 31.3553 23.3729C31.3319 23.7603 31.1772 24.1281 30.9167 24.4157C30.6562 24.7033 30.3055 24.8935 29.9224 24.955C29.5392 25.0164 29.1466 24.9455 28.8092 24.7538Z" fill="#5E97B6"/>
<path d="M23.5891 8H9.85217C9.62616 8 9.40941 8.08978 9.24959 8.24959C9.08978 8.40941 9 8.62616 9 8.85217V22.5891C9 23.0601 9.38121 23.4413 9.85217 23.4413H17.2534V17.4694H15.2431V15.132H17.2534V13.4122C17.2534 11.4183 18.4723 10.3326 20.2509 10.3326C20.8504 10.331 21.4496 10.361 22.046 10.4224V12.5069H20.8203C19.8514 12.5069 19.6622 12.9653 19.6622 13.6419V15.13H21.9784L21.6783 17.4675H19.6487V23.4413H23.5891C23.8152 23.4413 24.0319 23.3515 24.1917 23.1917C24.3515 23.0319 24.4413 22.8152 24.4413 22.5891V8.85217C24.4413 8.62616 24.3515 8.40941 24.1917 8.24959C24.0319 8.08978 23.8152 8 23.5891 8Z" fill="#555555"/>
</svg>
