<svg width="40" height="40" viewBox="0 0 40 40" fill="none" xmlns="http://www.w3.org/2000/svg">
<path d="M9.57157 17.1196H12.7147C13.1315 17.1196 13.5313 17.2852 13.826 17.5799C14.1207 17.8747 14.2863 18.2744 14.2863 18.6912V28.1206C14.2863 28.5374 14.1207 28.9372 13.826 29.2319C13.5313 29.5266 13.1315 29.6922 12.7147 29.6922H9.57157C9.15477 29.6922 8.75503 29.5266 8.4603 29.2319C8.16558 28.9372 8 28.5374 8 28.1206V18.6912C8 18.2744 8.16558 17.8747 8.4603 17.5799C8.75503 17.2852 9.15477 17.1196 9.57157 17.1196Z" fill="#5E97B6"/>
<path d="M28.3587 16.3602C29.3244 16.3605 30.2505 16.7443 30.9333 17.4272C31.616 18.1102 31.9996 19.0364 31.9996 20.0021C31.9996 21.9885 31.6182 23.9572 30.8764 25.8001L30.2488 27.3591C29.8783 28.2801 29.2407 29.0693 28.4181 29.6251C27.5954 30.1809 26.6254 30.478 25.6326 30.4782H21.4868C20.304 30.478 19.1401 30.1812 18.1016 29.6148L16.0051 28.4728C15.9145 28.4234 15.8346 28.3567 15.7698 28.2764C15.7049 28.1961 15.6566 28.1038 15.6275 28.0048C15.5983 27.9058 15.589 27.802 15.5999 27.6994C15.6109 27.5968 15.642 27.4974 15.6914 27.4068C15.7407 27.3162 15.8075 27.2362 15.8878 27.1714C15.9681 27.1066 16.0604 27.0582 16.1594 27.0291C16.2584 27 16.3621 26.9906 16.4647 27.0016C16.5674 27.0125 16.6668 27.0436 16.7574 27.093L18.8528 28.235C19.6608 28.6757 20.5664 28.9066 21.4868 28.9066H25.6326C26.3119 28.9065 26.9758 28.7033 27.5387 28.323C28.1016 27.9427 28.5379 27.4026 28.7915 26.7724L29.419 25.2134C30.0854 23.5569 30.428 21.7874 30.428 20.0021C30.428 19.4532 30.21 18.9267 29.822 18.5385C29.434 18.1503 28.9076 17.932 28.3587 17.9318H24.4309C23.7079 17.9318 23.1212 17.345 23.1212 16.6221V12.5486C23.1212 12.0289 22.9588 11.5218 22.656 11.0986C22.5395 10.9355 22.3857 10.8027 22.2075 10.711C22.0293 10.6194 21.8318 10.5715 21.6314 10.5716H20.9325C20.8631 10.5716 20.7965 10.5992 20.7473 10.6483C20.6982 10.6974 20.6706 10.764 20.6706 10.8335V13.7179C20.6705 14.5302 20.4716 15.3301 20.0912 16.0479C19.7107 16.7656 19.1604 17.3793 18.4882 17.8354L16.8224 18.9669C16.6498 19.0839 16.4378 19.1275 16.2331 19.0882C16.0284 19.0489 15.8476 18.9299 15.7306 18.7574C15.6137 18.5848 15.57 18.3728 15.6093 18.1681C15.6486 17.9634 15.7676 17.7826 15.9402 17.6656L17.606 16.5352C18.0659 16.2231 18.4424 15.8031 18.7027 15.3121C18.9629 14.821 19.099 14.2736 19.099 13.7179V10.8335C19.099 9.82141 19.9194 9 20.9325 9H21.6314C22.545 9 23.402 9.44109 23.9342 10.1839C24.4276 10.8737 24.6928 11.7006 24.6928 12.5486V16.3602H28.3587Z" fill="#555555"/>
</svg>
