<svg width="40" height="40" viewBox="0 0 40 40" fill="none" xmlns="http://www.w3.org/2000/svg">
<path fill-rule="evenodd" clip-rule="evenodd" d="M11.2386 12H28.7614C30.5472 12 32 13.4538 32 15.2407V24.7593C32 26.5462 30.5472 28 28.7614 28H11.2386C9.45281 28 8 26.5462 8 24.7593V15.2407C8 13.4538 9.45281 12 11.2386 12ZM28.7614 13.9726H11.2386C10.5398 13.9726 9.97131 14.5415 9.97131 15.2407V16.0078H30.0287V15.2407C30.0287 14.5415 29.4602 13.9726 28.7614 13.9726ZM11.2386 26.0274H28.7614C29.4602 26.0274 30.0287 25.4585 30.0287 24.7593V17.9804H9.97131V24.7593C9.97131 25.4585 10.5398 26.0274 11.2386 26.0274ZM12.8514 21H14.1486C14.6188 21 15 21.4477 15 22C15 22.5523 14.6188 23 14.1486 23H12.8514C12.3812 23 12 22.5523 12 22C12 21.4477 12.3812 21 12.8514 21Z" fill="#2A2B2B"/>
</svg>
