<svg width="24" height="24" viewBox="0 0 24 24" fill="none" xmlns="http://www.w3.org/2000/svg">
    <path fill-rule="evenodd" clip-rule="evenodd" d="M6.74296 7.19922H17.2567C18.3281 7.19922 19.1998 8.07148 19.1998 9.14365V14.8548C19.1998 15.927 18.3281 16.7992 17.2567 16.7992H6.74296C5.67149 16.7992 4.7998 15.927 4.7998 14.8548V9.14365C4.7998 8.07148 5.67149 7.19922 6.74296 7.19922ZM17.2567 8.38278H6.74296C6.32369 8.38278 5.98259 8.7241 5.98259 9.14365V9.60391H18.017V9.14365C18.017 8.7241 17.6759 8.38278 17.2567 8.38278ZM6.74296 15.6157H17.2567C17.6759 15.6157 18.017 15.2743 18.017 14.8548V10.7875H5.98259V14.8548C5.98259 15.2743 6.32369 15.6157 6.74296 15.6157ZM7.71081 12.6H8.48919C8.7713 12.6 9 12.8686 9 13.2C9 13.5314 8.7713 13.8 8.48919 13.8H7.71081C7.4287 13.8 7.2 13.5314 7.2 13.2C7.2 12.8686 7.4287 12.6 7.71081 12.6Z" fill="#2A2B2B"/>
</svg>
