<svg width="31" height="40" viewBox="0 0 31 40" fill="none" xmlns="http://www.w3.org/2000/svg">
<path d="M4.44562 31.7409H5.01133V28.2215C5.01133 20.8881 11.2526 17.4284 14.6057 15.5696C14.8187 15.4516 14.9492 15.2294 14.9463 14.9893C14.946 14.9585 14.9458 14.9278 14.9458 14.8971C14.9458 13.5104 15.3289 12.1468 16.039 10.9655C15.6904 10.5916 15.4605 10.2531 15.0468 9.39769C13.2336 5.64902 14.6666 1.31475 14.7284 1.13211L15.1121 0L16.2377 0.402113C16.4192 0.467016 20.7068 2.0344 22.5199 5.78298C22.8653 6.49707 22.9722 6.89103 23.0168 7.28139C24.8745 7.38673 26.803 8.15443 28.3208 9.39518C30.0458 10.8052 30.9973 12.6186 31 14.501C31.004 17.2964 29.3028 18.5277 28.0606 19.4268C27.6974 19.6897 27.3543 19.938 27.0949 20.1915C26.6203 20.6552 26.4817 21.3863 26.7501 22.0109C27.3557 23.4203 27.6628 24.9183 27.6628 26.4632C27.6628 28.671 27.2426 30.4999 26.3602 32.0611C28.1156 32.4956 29.4206 34.0842 29.4206 35.9718C29.4206 38.1929 27.6135 40 25.3924 40H4.44562C2.16855 40 0.316006 38.1475 0.316006 35.8705C0.316006 33.5934 2.16855 31.7409 4.44562 31.7409ZM25.3925 37.6485C26.317 37.6485 27.0692 36.8964 27.0692 35.9718C27.0692 35.0473 26.317 34.2952 25.3925 34.2952H19.2311L19.4626 32.9237C19.5224 32.5699 19.5488 32.2082 19.5411 31.8485C19.5217 30.9406 19.2915 30.076 18.857 29.2786L20.9217 28.1533C21.5294 29.2684 21.8649 30.5288 21.8921 31.7984C21.8931 31.8467 21.8937 31.8952 21.8938 31.9436H23.5901C24.776 30.5246 25.3112 28.803 25.3112 26.4632C25.3112 25.2393 25.0684 24.0537 24.5895 22.9393C23.94 21.4279 24.2864 19.6476 25.4515 18.5094C25.8351 18.1348 26.2655 17.8232 26.6817 17.5219C27.7818 16.7256 28.6506 16.0967 28.6484 14.5043C28.6447 11.9079 25.5149 9.74995 22.8249 9.62603C22.5819 9.61505 22.3281 9.62148 22.0711 9.6457L21.0012 9.74666L20.8048 8.69004C20.724 8.25539 20.7077 7.96498 20.6957 7.75287C20.68 7.47233 20.6741 7.36745 20.4029 6.80684C19.5329 5.00792 17.8188 3.82235 16.6527 3.18516C16.4281 4.49552 16.2935 6.57483 17.1636 8.3736C17.5347 9.14075 17.6107 9.21709 17.9304 9.53824C18.0588 9.66718 18.2186 9.82755 18.4238 10.0528L19.1037 10.7989L18.4691 11.5839C17.7026 12.5323 17.2973 13.678 17.2973 14.8969L17.2977 14.9612C17.3111 16.0671 16.7163 17.0882 15.7458 17.6262C12.6105 19.3642 7.36287 22.2732 7.36287 28.2214V36.3965C7.36287 37.0868 7.92441 37.6483 8.61467 37.6483H25.3925V37.6485ZM4.44562 37.6485H5.2359C5.09089 37.2583 5.01133 36.8366 5.01133 36.3967V34.0925H4.44562C3.46519 34.0925 2.66755 34.8901 2.66755 35.8705C2.66755 36.8508 3.46519 37.6485 4.44562 37.6485Z" fill="#AAAAAA"/>
<path d="M23.7529 12.4746C24.3679 12.4746 24.9572 13.0154 24.9287 13.6504C24.9002 14.2874 24.4121 14.8262 23.7529 14.8262C23.1379 14.8262 22.5487 14.2854 22.5772 13.6504C22.6057 13.0133 23.0938 12.4746 23.7529 12.4746Z" fill="#AAAAAA"/>
</svg>
