<svg width="32" height="32" viewBox="0 0 32 32" fill="none" xmlns="http://www.w3.org/2000/svg">
    <path d="M17.4701 6.40039C18.5031 6.40039 19.4202 7.06142 19.7469 8.04144L20.2663 9.60039H24.7999C25.2417 9.60039 25.5999 9.95856 25.5999 10.4004C25.5999 10.8422 25.2417 11.2004 24.7999 11.2004H23.8399L22.616 23.4392C22.4933 24.6661 21.4609 25.6004 20.2279 25.6004H11.7719C10.5389 25.6004 9.50647 24.6661 9.38378 23.4392L8.1599 11.2004H7.1999C6.75807 11.2004 6.3999 10.8422 6.3999 10.4004C6.3999 9.95856 6.75807 9.60039 7.1999 9.60039H11.7327L12.2529 8.04144C12.5796 7.06142 13.4967 6.40039 14.5297 6.40039H17.4701ZM22.2311 11.2004H9.7679L10.9758 23.28C11.0136 23.6575 11.3097 23.9519 11.6783 23.995L11.7719 24.0004H20.2279C20.6073 24.0004 20.9297 23.735 21.0092 23.3725L21.024 23.28L22.2311 11.2004ZM15.9999 12.8004C16.4417 12.8004 16.7999 13.1586 16.7999 13.6004V21.6004C16.7999 22.0422 16.4417 22.4004 15.9999 22.4004C15.5581 22.4004 15.1999 22.0422 15.1999 21.6004V13.6004C15.1999 13.1586 15.5581 12.8004 15.9999 12.8004ZM19.1999 12.8004C19.6417 12.8004 19.9999 13.1586 19.9999 13.6004V21.6004C19.9999 22.0422 19.6417 22.4004 19.1999 22.4004C18.7581 22.4004 18.3999 22.0422 18.3999 21.6004V13.6004C18.3999 13.1586 18.7581 12.8004 19.1999 12.8004ZM12.7999 12.8004C13.2417 12.8004 13.5999 13.1586 13.5999 13.6004V21.6004C13.5999 22.0422 13.2417 22.4004 12.7999 22.4004C12.3581 22.4004 11.9999 22.0422 11.9999 21.6004V13.6004C11.9999 13.1586 12.3581 12.8004 12.7999 12.8004ZM17.4701 8.00039H14.5297C14.2167 8.00039 13.9356 8.18249 13.8052 8.46104L13.7708 8.54741L13.4191 9.60039H18.5799L18.229 8.54741C18.13 8.25043 17.8684 8.04133 17.5629 8.00577L17.4701 8.00039Z" fill="#AAAAAA"/>
</svg>
