<svg width="24" height="24" viewBox="0 0 24 24" fill="none" xmlns="http://www.w3.org/2000/svg">
<path fill-rule="evenodd" clip-rule="evenodd" d="M17.5681 2.27239C17.2342 0.936892 16.0343 0 14.6577 0H9.34233C7.96573 0 6.76578 0.936892 6.4319 2.27239L6.249 3H2C0.89543 3 0 3.89543 0 5C0 6.10457 0.89543 7 2 7H2.381L3.82758 22.1896C3.92534 23.2161 4.78746 24 5.81857 24H18.1814C19.2125 24 20.0747 23.2161 20.1724 22.1896L21.619 7H22C23.1046 7 24 6.10457 24 5C24 3.89543 23.1046 3 22 3H17.75L17.5681 2.27239ZM12 10C10.8954 10 10 10.8954 10 12V16C10 17.1046 10.8954 18 12 18C13.1046 18 14 17.1046 14 16V12C14 10.8954 13.1046 10 12 10Z" fill="white"/>
</svg>