<svg width="40" height="40" viewBox="0 0 40 40" fill="none" xmlns="http://www.w3.org/2000/svg">
<path d="M20.9524 8C21.5732 8 22.1501 8.18712 22.6295 8.50787C22.9831 8.19218 23.4517 8 23.9654 8H29.9913C31.1007 8 32 8.89643 32 10.0022V26.0201C32 27.1259 31.1007 28.0224 29.9913 28.0224H23.9654C23.2436 28.0224 22.6107 27.6429 22.2566 27.0732L19.8564 30.6623C18.9333 32.0424 17.0627 32.4154 15.6781 31.4953C14.6428 30.8073 14.1383 29.5556 14.4082 28.3448L14.9264 26.0201H12.0173C9.79861 26.0201 8 24.2273 8 22.0157C8 21.6933 8.03906 21.372 8.11633 21.059L10.5873 11.0478C11.029 9.25804 12.6393 8 14.4883 8H20.9524ZM20.9524 10.0022H14.4883C13.6182 10.0022 12.8538 10.5594 12.5827 11.371L12.5378 11.5261L10.0668 21.5373C10.0282 21.6939 10.0087 21.8545 10.0087 22.0157C10.0087 23.0712 10.8281 23.936 11.8674 24.0124L12.0173 24.0179H17.4305L16.369 28.7792C16.279 29.1827 16.4472 29.6 16.7923 29.8293C17.2209 30.1141 17.7891 30.0272 18.1145 29.6451L18.1851 29.5516L21.8861 24.0179L21.9567 24.0169V11.0034C21.9567 10.4899 21.569 10.0668 21.0695 10.009L20.9524 10.0022ZM29.9913 10.0022H23.9654V26.0201H29.9913V10.0022Z" fill="#2A2B2B"/>
</svg>
