<svg width="40" height="40" viewBox="0 0 40 40" fill="none" xmlns="http://www.w3.org/2000/svg">
<path fill-rule="evenodd" clip-rule="evenodd" d="M14 8H21H21.2C22.3 8.10024 23.2 9.00238 23.2 10.2052V25.5417H23.1C22.7 25.7422 22.3 26.0429 22 26.4438L18.9 31.0548L18.8 31.155C18.1 32.0572 16.9 32.2576 15.9 31.6562C15.2 31.155 14.8 30.2529 15 29.3507L15.5 27.1455V27.0453C15.5 26.3436 15.1 25.7422 14.4 25.5417H14.1H11.3H11.1C9.4 25.4414 8 23.9379 8 22.2338C8 21.9331 8 21.7326 8.1 21.4319L10.8 10.506V10.3055C11.3 8.90214 12.5 8 14 8ZM25.0998 27.7469C24.6998 27.6467 24.2998 27.2457 24.2998 26.6443V9.10262V9.00238C24.3998 8.40095 24.7998 8 25.1998 8H31.0998H31.1998C31.5998 8.10024 31.9998 8.50119 31.9998 9.10262V26.6443V26.7445C31.8998 27.346 31.4998 27.7469 31.0998 27.7469H25.1998H25.0998Z" fill="#2A2B2B"/>
</svg>
