<svg width="40" height="40" viewBox="0 0 40 40" fill="none" xmlns="http://www.w3.org/2000/svg">
<path d="M20 19C20.5523 19 21 19.4477 21 20L20.9991 25.587L22.1355 24.4503C22.5261 24.0597 23.1592 24.0597 23.5497 24.4503C23.9403 24.8408 23.9403 25.4739 23.5497 25.8645L20.7146 28.6995C20.5331 28.8849 20.28 29 20 29C19.9178 29 19.8379 28.9901 19.7621 28.9707C19.5666 28.9365 19.3794 28.8439 19.2284 28.6929L16.4 25.8645C16.0095 25.4739 16.0095 24.8408 16.4 24.4503C16.7905 24.0597 17.4237 24.0597 17.8142 24.4503L18.9991 25.636L19 20C19 19.4477 19.4477 19 20 19ZM19 11C21.9607 11 24.5457 12.6083 25.9291 14.9988L26 15C29.3137 15 32 17.6863 32 21C32 24.2384 29.4344 26.8776 26.2249 26.9959L26 27H24.898C24.433 26.9483 24.0613 26.5816 24.0069 26.1178L24 26C24 25.4872 24.386 25.0645 24.8834 25.0067L25 25L25.9632 25.0003L26.1513 24.9972C28.295 24.9182 30 23.1531 30 21C30 18.8578 28.316 17.1089 26.1698 17.0047L24.7649 16.9801L24.198 16.0006C23.1314 14.1574 21.1676 13 19 13C15.7616 13 13.1224 15.5656 13.0038 18.7415L12.9997 18.9641L13.0303 20.6696L11.4996 21.0626C10.6248 21.2872 10 22.0819 10 23C10 24.0544 10.8159 24.9182 11.8507 24.9945L12 25H15.101C15.5669 25.0516 15.9387 25.4184 15.9931 25.8822L16 26C16 26.5128 15.614 26.9355 15.1166 26.9933L15 27H12C9.79086 27 8 25.2091 8 23C8 21.1353 9.27588 19.5687 11.0023 19.1254L11 19C11 14.5817 14.5817 11 19 11Z" fill="#2A2B2B"/>
</svg>
