<svg width="32" height="32" viewBox="0 0 32 32" fill="none" xmlns="http://www.w3.org/2000/svg">
    <path d="M22.6601 7.11004L24.8884 9.33829C25.7989 10.2456 25.8353 11.6965 24.9991 12.6488L24.89 12.7651L22.3221 15.326L22.3254 15.3298L21.1826 16.4726L21.1778 16.4678L12.9745 24.654C12.3685 25.2588 11.5473 25.5985 10.6911 25.5985H8.01612C7.12351 25.5985 6.3999 24.8749 6.3999 23.9823V21.2718C6.3999 20.4141 6.74075 19.5916 7.34741 18.9854L19.231 7.10948C20.1785 6.16381 21.713 6.16406 22.6601 7.11004ZM16.6669 11.9569L8.48987 20.1286C8.18654 20.4317 8.01612 20.843 8.01612 21.2718V23.5782C8.01612 23.8014 8.19702 23.9823 8.42017 23.9823H10.6911C11.1192 23.9823 11.5298 23.8124 11.8328 23.51L20.0311 15.3211L16.6669 11.9569ZM20.3735 8.25269L17.8104 10.8143L21.1754 14.1792L23.8195 11.5396C24.0603 11.2233 24.036 10.7705 23.7455 10.4811L21.5173 8.25288L21.4417 8.18627C21.124 7.93955 20.6649 7.96185 20.3735 8.25269Z" fill="#5F99B6"/>
</svg>
