<svg width="20" height="20" viewBox="0 0 20 20" fill="none" xmlns="http://www.w3.org/2000/svg">
<path d="M16.6606 1.11004L18.8889 3.33829C19.7994 4.24556 19.8358 5.69651 18.9996 6.64876L18.8905 6.76512L16.3226 9.32595L16.3259 9.32978L15.183 10.4726L15.1783 10.4678L6.97499 18.654C6.36897 19.2588 5.54775 19.5985 4.69155 19.5985H2.01661C1.124 19.5985 0.400391 18.8749 0.400391 17.9823V15.2718C0.400391 14.4141 0.741239 13.5916 1.34789 12.9854L13.2315 1.10948C14.1789 0.163809 15.7135 0.164059 16.6606 1.11004ZM10.6674 5.95695L2.49036 14.1286C2.18703 14.4317 2.01661 14.843 2.01661 15.2718V17.5782C2.01661 17.8014 2.19751 17.9823 2.42066 17.9823H4.69155C5.11965 17.9823 5.53026 17.8124 5.83327 17.51L14.0316 9.32111L10.6674 5.95695ZM14.374 2.25269L11.8109 4.81428L15.1759 8.17925L17.82 5.53959C18.0608 5.22326 18.0364 4.77053 17.746 4.48113L15.5178 2.25288L15.4422 2.18627C15.1245 1.93955 14.6654 1.96185 14.374 2.25269Z" fill="#5F99B6"/>
</svg>
