<svg width="30" height="30" viewBox="0 0 40 40" fill="none" xmlns="http://www.w3.org/2000/svg">
<path fill-rule="evenodd" clip-rule="evenodd" d="M17.2691 17.9435L9.84336 17.8405C9.24949 17.8307 8.95502 17.1092 9.37219 16.692L11.4384 14.6258L8.00287 11.1902L11.193 8L14.6286 11.4356L16.6949 9.36932C17.117 8.94724 17.8335 9.24171 17.8433 9.83558L17.9513 17.2613C17.9562 17.6392 17.647 17.9484 17.2691 17.9435ZM30.6311 16.7333L28.5649 14.667L31.9955 11.2314L28.8054 8.04125L25.3698 11.4768L23.3133 9.41548C22.8913 8.9934 22.1747 9.28788 22.1649 9.88174L22.0569 17.3075C22.052 17.6854 22.3612 17.9946 22.7391 17.9897L30.1649 17.8817C30.7587 17.8719 31.0532 17.1554 30.6311 16.7333ZM30.6211 23.0211C31.0432 22.599 30.7487 21.8825 30.1548 21.8727L22.7291 21.7647C22.3512 21.7598 22.042 22.069 22.0469 22.4469L22.1549 29.8727C22.1647 30.4665 22.8812 30.761 23.3033 30.3389L25.3696 28.2727L28.8051 31.7082L31.9953 28.5181L28.5598 25.0825L30.6211 23.0211ZM9.83558 21.8238L17.2613 21.7159C17.6392 21.711 17.9484 22.0202 17.9484 22.3981L17.8405 29.8238C17.8307 30.4177 17.1141 30.7122 16.692 30.2901L14.6258 28.2238L11.1902 31.6594L8 28.4692L11.4356 25.0337L9.36932 22.9723C8.94724 22.5502 9.24171 21.8337 9.83558 21.8238Z" fill="#ffffff"/>
</svg>
