<svg width="40" height="40" viewBox="0 0 40 40" fill="none" xmlns="http://www.w3.org/2000/svg">
    <path d="M23.7023 16.3268C23.46 16.6961 23.2669 17.1337 23.121 17.4048C23.4256 15.4057 23.3289 14.887 22.9757 13.4612C20.8149 17.032 18.5763 17.1079 16.5142 19.503C17.031 20.4908 17.6532 21.3485 18.304 21.8434C18.6228 22.0855 19.0584 22.2067 19.4991 22.2067C19.9396 22.2067 20.3753 22.0855 20.6939 21.8434C21.4885 21.2392 22.2396 20.0966 22.809 18.8363C22.8891 18.6587 22.9657 18.479 23.0381 18.2982C23.126 18.3163 23.2071 18.3291 23.2825 18.3209C24.1685 18.2247 24.7653 16.5264 24.4432 16.209C24.2533 16.022 24.0513 16.1869 23.7023 16.3268ZM11.1344 28.4716C16.7009 29.3309 21.5511 29.4222 25.4946 25.7504C24.2913 25.2881 23.044 24.8475 21.882 24.4331C21.5795 24.3252 21.3802 24.0431 21.3802 23.7203V22.255C21.303 22.3229 21.2251 22.387 21.1466 22.4466C20.6933 22.7912 20.0937 22.9636 19.4991 22.9636C18.9045 22.9636 18.3051 22.7912 17.8514 22.4466C17.773 22.3868 17.6951 22.3227 17.6178 22.2549V23.7203C17.6178 24.0429 17.4187 24.3253 17.1159 24.4331C15.7495 24.9203 14.2672 25.4433 12.8756 25.9953C12.2879 26.2283 11.8982 26.6627 11.6211 27.2289C11.4261 27.627 11.2665 28.042 11.1344 28.4716ZM25.7467 25.0385C25.4429 24.0394 25.1397 23.042 26.742 22.7351C27.0828 22.6699 27.5013 22.6275 27.6901 22.7801C27.8348 22.8971 27.8224 23.0728 27.7132 23.215C27.362 23.6711 27.0197 24.166 26.7758 24.6606C27.2561 24.3398 28.0296 23.9697 28.543 24.0361C28.8944 24.0815 29.0552 24.3307 28.9831 24.6722C28.8204 25.4418 27.6879 24.7535 26.7938 25.4848C27.3501 25.8089 27.757 26.2963 28.0501 26.8947C28.53 27.8752 28.8117 28.9318 28.9927 30.0721C29.0302 30.3078 28.8418 30.5114 28.6106 30.5082C26.6266 30.517 25.2121 30.9049 23.8469 31.2794C22.5106 31.6459 21.2197 32 19.4987 32C15.9802 32 14.2341 30.515 10.3752 30.5081C10.1381 30.5076 9.96903 30.3044 10.0048 30.072C10.2076 28.7612 10.6896 26.865 11.6142 25.9401C11.8896 25.6645 12.2155 25.4447 12.602 25.2915C13.9991 24.7376 15.4439 24.2278 16.8652 23.7207L16.865 21.4476C16.5599 21.0601 16.2714 20.6186 16.0073 20.146C15.8576 20.3536 15.7088 20.5764 15.5613 20.8169C12.9097 17.4228 13.758 12.3911 16.7471 10.5114C17.9779 9.73733 19.4601 9.53173 20.8215 9.81094C21.1779 8.75768 22.1695 8 23.3371 8C24.8047 8 25.9941 9.1966 25.9941 10.6727C25.9941 11.6711 25.4499 12.5415 24.6437 13.0003C24.9028 13.7549 24.9833 14.6253 24.823 15.598C25.0747 15.7653 25.2362 16.0514 25.2362 16.3664C25.2362 16.9063 25.0841 17.4226 24.8486 17.8568C24.5843 18.344 24.2091 18.7332 23.8199 18.9423C23.7311 18.9903 23.638 19.018 23.5453 19.0308C23.5282 19.0696 23.5109 19.1082 23.4935 19.1469C23.1108 19.9942 22.6453 20.7975 22.1323 21.4486L22.1321 23.7209C23.335 24.1497 24.5537 24.5804 25.7467 25.0385Z" fill="white"/>
</svg>
