<svg width="22" height="24" viewBox="0 0 22 24" fill="none" xmlns="http://www.w3.org/2000/svg">
<path fill-rule="evenodd" clip-rule="evenodd" d="M0.0743821 14.7305C0.652925 19.5449 4.71822 23.3934 9.7908 23.9327C15.85 24.575 21.0827 20.5401 21.9815 15.1619C22.1262 14.2942 21.403 13.5146 20.4783 13.5146C19.7345 13.5146 19.0888 14.0245 18.97 14.7256C18.3295 18.5006 14.7497 21.3539 10.5398 21.099C6.56749 20.8588 3.32868 17.7995 3.06524 14.0294C2.75531 9.64645 6.39186 5.97928 10.9324 5.91064V8.72966C10.9324 8.88164 11.139 8.96989 11.2785 8.87184L17.4048 4.60164C17.5081 4.5281 17.5081 4.38592 17.4048 4.31238L11.2785 0.0421881C11.139 -0.0558646 10.9324 0.0274802 10.9324 0.184365V3.00828C4.47027 3.07692 -0.684955 8.4355 0.0743821 14.7305ZM14.5809 15.4652C14.8603 15.1087 15 14.594 15 13.9211V13.0254C14.9933 12.3725 14.8491 11.8723 14.5675 11.5247C14.2859 11.1749 13.8792 11 13.3472 11C12.8153 11 12.4074 11.176 12.1236 11.5281C11.842 11.8801 11.7012 12.3959 11.7012 13.0755V13.9713C11.7079 14.6241 11.852 15.1254 12.1336 15.4753C12.4152 15.8251 12.822 16 13.3539 16C13.8926 16 14.3016 15.8217 14.5809 15.4652ZM13.8635 12.0595C13.9753 12.2422 14.0311 12.5352 14.0311 12.9385V14.0949C14.0267 14.4759 13.9719 14.7589 13.8669 14.9439C13.7618 15.1288 13.5908 15.2213 13.3539 15.2213C13.1148 15.2213 12.9405 15.1254 12.8309 14.9338C12.7237 14.74 12.67 14.4447 12.67 14.0481V12.865C12.6767 12.4929 12.7337 12.2199 12.841 12.0461C12.9505 11.8701 13.1193 11.7821 13.3472 11.7821C13.5819 11.7821 13.754 11.8746 13.8635 12.0595ZM9.15661 15.9332H10.1255V11.0602H10.0216L8 11.7821V12.5675L9.15661 12.2099V15.9332Z" fill="white"/>
</svg>
