<svg width="40" height="40" viewBox="0 0 40 40" fill="none" xmlns="http://www.w3.org/2000/svg">
<path fill-rule="evenodd" clip-rule="evenodd" d="M9.07438 22.7305C9.65293 27.5449 13.7182 31.3934 18.7908 31.9327C24.85 32.575 30.0827 28.5401 30.9815 23.1619C31.1262 22.2942 30.403 21.5146 29.4783 21.5146C28.7345 21.5146 28.0888 22.0245 27.97 22.7256C27.3295 26.5006 23.7497 29.3539 19.5398 29.099C15.5675 28.8588 12.3287 25.7995 12.0652 22.0294C11.7553 17.6465 15.3919 13.9793 19.9324 13.9106V16.7297C19.9324 16.8816 20.139 16.9699 20.2785 16.8718L26.4048 12.6016C26.5081 12.5281 26.5081 12.3859 26.4048 12.3124L20.2785 8.04219C20.139 7.94414 19.9324 8.02748 19.9324 8.18436V11.0083C13.4703 11.0769 8.31504 16.4355 9.07438 22.7305ZM23.5809 23.4652C23.8603 23.1087 24 22.594 24 21.9211V21.0254C23.9933 20.3725 23.8491 19.8723 23.5675 19.5247C23.2859 19.1749 22.8792 19 22.3472 19C21.8153 19 21.4074 19.176 21.1236 19.5281C20.842 19.8801 20.7012 20.3959 20.7012 21.0755V21.9713C20.7079 22.6241 20.852 23.1254 21.1336 23.4753C21.4152 23.8251 21.822 24 22.3539 24C22.8926 24 23.3016 23.8217 23.5809 23.4652ZM22.8635 20.0595C22.9753 20.2422 23.0311 20.5352 23.0311 20.9385V22.0949C23.0267 22.4759 22.9719 22.7589 22.8669 22.9439C22.7618 23.1288 22.5908 23.2213 22.3539 23.2213C22.1148 23.2213 21.9405 23.1254 21.8309 22.9338C21.7237 22.74 21.67 22.4447 21.67 22.0481V20.865C21.6767 20.4929 21.7337 20.2199 21.841 20.0461C21.9505 19.8701 22.1193 19.7821 22.3472 19.7821C22.5819 19.7821 22.754 19.8746 22.8635 20.0595ZM18.1566 23.9332H19.1255V19.0602H19.0216L17 19.7821V20.5675L18.1566 20.2099V23.9332Z" fill="white"/>
</svg>
