<svg width="34" height="40" viewBox="0 0 34 40" fill="none" xmlns="http://www.w3.org/2000/svg">
<g clip-path="url(#clip0)">
<path d="M19.5199 0.139648C11.4799 0.139648 8.63991 12.5997 5.99991 22.6397C5.03991 21.6797 2.09991 18.7397 2.09991 18.7597C1.49991 18.1797 0.819906 18.3597 0.419905 18.7797C-9.45628e-05 19.1997 -0.0600946 19.9797 0.419905 20.4397C0.439905 20.4597 4.39991 24.3997 5.77991 25.7597C6.15991 26.1197 6.69991 26.3397 7.25991 26.0197C7.81991 25.6797 7.89991 25.0597 7.91991 25.0597C12.5999 4.05965 16.7999 2.49965 19.5199 2.49965C21.8199 2.49965 24.4599 4.17965 24.4599 7.55965C27.8799 7.55965 30.0199 12.0397 27.2599 14.7997C29.5399 15.8997 30.5599 17.2597 30.5599 18.9597C30.5599 20.6797 29.1199 22.4197 27.0199 22.4197C24.9399 22.4197 23.8799 21.0797 22.2599 21.0797C21.5199 21.0797 21.0799 21.6797 21.0799 22.2597V26.4997H17.9999V22.2797C17.9999 21.6197 17.4999 21.0997 16.8999 21.0997C16.8999 21.0997 16.6399 21.0997 16.6399 21.1197L12.5399 21.6197C12.0399 21.6997 11.5799 22.2397 11.5799 22.7797C11.5799 23.4197 12.1199 23.9597 12.8399 23.9597C12.9399 23.9597 13.0599 23.9597 13.0399 23.9397L15.6399 23.5997V27.7997C15.6399 28.3197 16.2399 28.8397 16.7799 28.8397H22.2399C22.8799 28.8397 23.4199 28.2997 23.4199 27.6597V23.8397C24.5599 24.5397 26.1399 24.7997 26.9599 24.7997C30.0199 24.7997 32.9399 22.3997 32.9199 18.8797C32.8999 15.6997 30.4599 14.0997 30.4599 14.0997C31.8999 10.2797 29.5799 6.59965 26.5599 5.57965C25.4999 1.65965 22.1399 0.139648 19.5199 0.139648Z" fill="#AAAAAA"/>
<path d="M19.5199 0.139648C11.4799 0.139648 8.63991 12.5997 5.99991 22.6397C5.03991 21.6797 2.09991 18.7397 2.09991 18.7597C1.49991 18.1797 0.819906 18.3597 0.419905 18.7797C-9.45628e-05 19.1997 -0.0600946 19.9797 0.419905 20.4397C0.439905 20.4597 4.39991 24.3997 5.77991 25.7597C6.15991 26.1197 6.69991 26.3397 7.25991 26.0197C7.81991 25.6797 7.89991 25.0597 7.91991 25.0597C12.5999 4.05965 16.7999 2.49965 19.5199 2.49965C21.8199 2.49965 24.4599 4.17965 24.4599 7.55965C27.8799 7.55965 30.0199 12.0397 27.2599 14.7997C29.5399 15.8997 30.5599 17.2597 30.5599 18.9597C30.5599 20.6797 29.1199 22.4197 27.0199 22.4197C24.9399 22.4197 23.8799 21.0797 22.2599 21.0797C21.5199 21.0797 21.0799 21.6797 21.0799 22.2597V26.4997H17.9999V22.2797C17.9999 21.6197 17.4999 21.0997 16.8999 21.0997C16.8999 21.0997 16.6399 21.0997 16.6399 21.1197L12.5399 21.6197C12.0399 21.6997 11.5799 22.2397 11.5799 22.7797C11.5799 23.4197 12.1199 23.9597 12.8399 23.9597C12.9399 23.9597 13.0599 23.9597 13.0399 23.9397L15.6399 23.5997V27.7997C15.6399 28.3197 16.2399 28.8397 16.7799 28.8397H22.2399C22.8799 28.8397 23.4199 28.2997 23.4199 27.6597V23.8397C24.5599 24.5397 26.1399 24.7997 26.9599 24.7997C30.0199 24.7997 32.9399 22.3997 32.9199 18.8797C32.8999 15.6997 30.4599 14.0997 30.4599 14.0997C31.8999 10.2797 29.5799 6.59965 26.5599 5.57965C25.4999 1.65965 22.1399 0.139648 19.5199 0.139648Z" fill="#AAAAAA"/>
<path d="M16.1004 33.5206C16.1004 34.5006 17.2004 35.1006 19.0203 35.9606C20.4603 36.6406 21.2804 37.3406 21.2804 37.9206C21.2804 38.8406 20.2803 39.1806 19.3403 39.1806C17.9003 39.1806 17.0404 38.6006 16.5604 37.3206L16.5204 37.2206H16.4004C16.1404 37.2206 15.9404 37.2406 15.8404 37.3606C15.7404 37.5006 15.7604 37.6606 15.8004 37.8406L16.1204 39.1606C16.2004 39.4806 16.3204 39.5406 16.8404 39.6406C17.0604 39.6806 18.2404 39.8806 19.2204 39.8806C21.9803 39.8806 23.2203 38.7606 23.2203 37.6406C23.2203 36.8406 22.4203 36.0606 20.6804 35.2006L19.9004 34.8206C18.7204 34.2606 18.0004 33.9206 18.0004 33.3206C18.0004 32.7406 18.7404 32.3406 19.8004 32.3406C21.1803 32.3406 21.5603 33.1206 21.7203 33.7806L21.7604 33.9006H21.9003C22.2003 33.9006 22.4003 33.8806 22.5203 33.7606C22.5803 33.6806 22.6203 33.6006 22.6003 33.4806L22.5003 32.3406C22.4603 31.9806 22.1803 31.9206 21.8003 31.8406C21.3403 31.7606 20.7803 31.6606 19.9403 31.6606C17.5203 31.6406 16.1004 32.3406 16.1004 33.5206Z" fill="#AAAAAA"/>
<path d="M24.0605 35.8403C24.0605 37.8403 25.8005 39.8603 29.1206 39.8603C30.8006 39.8603 31.7405 39.4803 32.4405 39.1003L32.6206 39.0003L32.3206 38.6603L32.3406 38.6803C32.2606 38.5803 32.2006 38.5603 32.1006 38.5603L31.9405 38.6203C31.6805 38.7403 30.9206 39.1003 29.5206 39.1003C27.8005 39.1003 25.9605 37.9803 25.9605 35.5203C25.9605 33.1803 27.9605 32.3603 29.6805 32.3603C30.9205 32.3603 31.5606 32.8003 31.7006 33.7003L31.7206 33.8403H31.8805C32.0205 33.8403 32.4206 33.8403 32.4206 33.5403V32.1803C32.4206 31.8403 32.0405 31.8003 31.8805 31.7803L31.7206 31.7603C31.3206 31.7003 30.9405 31.6603 29.9405 31.6603C26.5205 31.6403 24.0605 33.4003 24.0605 35.8403Z" fill="#AAAAAA"/>
<path d="M11.5395 31.7407L8.53945 31.7607L6.53945 31.7207H6.23945C6.05945 31.7207 5.93945 31.8407 5.93945 32.0407C5.93945 32.1207 5.93945 32.4007 6.27945 32.4007C7.47945 32.4007 7.53945 32.5007 7.53945 32.9607L7.55945 33.2607L7.57945 34.4807V37.1207C7.57945 37.5607 7.55945 38.2607 7.53945 38.8207C7.53945 38.9807 7.51945 39.1407 6.45945 39.1407C6.15945 39.1407 5.97945 39.2007 5.97945 39.5007C5.97945 39.5807 5.97945 39.8207 6.25945 39.8207H6.31945C6.43945 39.8207 6.77945 39.8007 8.45945 39.8007C10.2395 39.8007 10.5995 39.8207 10.7195 39.8207H10.7795C11.0195 39.8207 11.2194 39.8007 11.2194 39.5007C11.2194 39.1807 10.9595 39.1407 10.4995 39.1407C9.43945 39.1407 9.41945 38.9807 9.41945 38.8207C9.39945 38.3007 9.37945 37.6007 9.37945 37.1207V36.1607H10.2795C11.6595 36.1607 11.7994 36.2007 11.9994 37.2607C12.0594 37.4807 12.2394 37.5207 12.3994 37.5207C12.7194 37.5207 12.7594 37.3407 12.7594 37.2607L12.7394 36.8607C12.7194 36.6407 12.6994 36.3607 12.6994 35.9607V34.3407C12.6994 34.1007 12.3994 34.1007 12.2394 34.1007C11.9795 34.1007 11.9194 34.2607 11.7594 35.0407C11.6795 35.3407 11.1195 35.5007 10.1995 35.5007H9.39945V33.1207C9.39945 32.4807 9.51945 32.4607 9.65945 32.4607C10.1795 32.4407 11.4595 32.4007 11.8395 32.4007C12.1995 32.4007 12.5394 32.4807 12.7594 32.6207C13.4394 33.0407 13.7794 33.3207 13.9994 33.5007C14.1994 33.6607 14.3194 33.7607 14.4794 33.7607C14.5794 33.7607 14.8594 33.7607 14.8594 33.5207C14.8594 33.4607 14.8394 33.4007 14.7394 33.2007C14.6394 32.9607 14.4394 32.5607 14.1994 31.9407C14.1394 31.7407 13.8994 31.7407 13.4794 31.7407H11.5395Z" fill="#AAAAAA"/>
<path d="M30.52 2.55969H30.94C31.14 2.55969 31.26 2.51969 31.34 2.47969C31.42 2.41969 31.46 2.33969 31.46 2.23969C31.46 2.13969 31.42 2.05969 31.36 1.99969C31.28 1.93969 31.14 1.91969 30.92 1.91969H30.52V2.55969ZM31.98 3.75969H31.56C31.3 3.27969 31.12 2.99969 31.04 2.93969C30.96 2.87969 30.86 2.83969 30.74 2.83969H30.54V3.73969H30.2V1.61969H30.94C31.16 1.61969 31.32 1.63969 31.46 1.67969C31.58 1.69969 31.68 1.77969 31.76 1.87969C31.84 1.97969 31.88 2.09969 31.88 2.21969C31.88 2.35969 31.82 2.49969 31.72 2.61969C31.62 2.73969 31.46 2.79969 31.26 2.81969C31.38 2.85969 31.56 3.03969 31.76 3.35969L31.98 3.75969ZM31.04 4.31969C31.5 4.31969 31.88 4.15969 32.22 3.83969C32.54 3.51969 32.72 3.11969 32.72 2.65969C32.72 2.19969 32.56 1.81969 32.22 1.47969C31.9 1.15969 31.5 0.999687 31.04 0.999687C30.58 0.999687 30.18 1.15969 29.86 1.47969C29.54 1.79969 29.38 2.19969 29.38 2.65969C29.38 3.11969 29.54 3.51969 29.86 3.83969C30.18 4.15969 30.58 4.31969 31.04 4.31969ZM31.04 0.679688C31.58 0.679688 32.06 0.879688 32.44 1.25969C32.84 1.65969 33.02 2.11969 33.02 2.65969C33.02 3.19969 32.82 3.67969 32.44 4.05969C32.04 4.43969 31.58 4.63969 31.04 4.63969C30.48 4.63969 30.02 4.43969 29.62 4.05969C29.22 3.65969 29.04 3.19969 29.04 2.63969C29.04 2.09969 29.24 1.61969 29.62 1.23969C30.02 0.859687 30.5 0.679688 31.04 0.679688Z" fill="#AAAAAA"/>
<path d="M31.0395 4.76055C30.4595 4.76055 29.9595 4.56055 29.5595 4.14055C29.1395 3.74055 28.9395 3.24055 28.9395 2.66055C28.9395 2.08055 29.1395 1.58055 29.5595 1.18055C29.9595 0.780547 30.4795 0.560547 31.0395 0.560547C31.5995 0.560547 32.0995 0.760547 32.5195 1.18055C32.9395 1.58055 33.1395 2.08055 33.1395 2.66055C33.1395 3.24055 32.9395 3.74055 32.5195 4.14055C32.1195 4.54055 31.6195 4.76055 31.0395 4.76055ZM31.0395 0.780547C30.5195 0.780547 30.0595 0.960547 29.6995 1.34055C29.3195 1.72055 29.1395 2.14055 29.1395 2.66055C29.1395 3.18055 29.3195 3.62055 29.6995 4.00055C30.0595 4.36055 30.5195 4.56055 31.0395 4.56055C31.5595 4.56055 31.9995 4.38055 32.3795 4.00055C32.7395 3.64055 32.9395 3.18055 32.9395 2.66055C32.9395 2.14055 32.7595 1.70055 32.3795 1.32055C31.9995 0.960547 31.5595 0.780547 31.0395 0.780547Z" fill="#AAAAAA"/>
<path d="M31.0398 4.44039C30.5598 4.44039 30.1398 4.26039 29.7798 3.92039C29.4398 3.58039 29.2598 3.16039 29.2598 2.66039C29.2598 2.18039 29.4398 1.76039 29.7798 1.42039C30.1198 1.08039 30.5398 0.900391 31.0398 0.900391C31.5198 0.900391 31.9398 1.08039 32.2998 1.42039C32.6398 1.76039 32.8198 2.18039 32.8198 2.66039C32.8198 3.14039 32.6398 3.56039 32.2998 3.92039C31.9398 4.26039 31.5198 4.44039 31.0398 4.44039ZM31.0398 1.10039C30.6198 1.10039 30.2398 1.26039 29.9398 1.56039C29.6398 1.86039 29.4798 2.22039 29.4798 2.66039C29.4798 3.08039 29.6398 3.46039 29.9398 3.76039C30.2398 4.06039 30.6198 4.22039 31.0398 4.22039C31.4798 4.22039 31.8398 4.06039 32.1398 3.76039C32.4398 3.46039 32.5998 3.10039 32.5998 2.66039C32.5998 2.22039 32.4398 1.88039 32.1398 1.56039C31.8398 1.26039 31.4598 1.10039 31.0398 1.10039Z" fill="#AAAAAA"/>
<path d="M32.16 3.86051H31.48L31.44 3.80051C31.08 3.14051 30.96 3.02051 30.94 3.02051C30.88 2.98051 30.8 2.96051 30.7 2.96051H30.6V3.86051H30.04V1.52051H30.9C31.14 1.52051 31.32 1.54051 31.44 1.58051C31.6 1.60051 31.72 1.68051 31.8 1.80051C31.88 1.92051 31.94 2.06051 31.94 2.20051C31.94 2.38051 31.88 2.54051 31.76 2.66051C31.68 2.74051 31.6 2.80051 31.48 2.84051C31.58 2.94051 31.68 3.08051 31.82 3.28051L32.16 3.86051ZM31.62 3.66051H31.8L31.64 3.40051C31.38 2.98051 31.24 2.92051 31.2 2.92051L31.14 2.90051C31.24 3.02051 31.4 3.26051 31.62 3.66051ZM30.28 3.66051H30.42V2.76051H30.74C30.88 2.76051 31.02 2.80051 31.1 2.88051C31.1 2.88051 31.12 2.88051 31.12 2.90051V2.74051L31.22 2.72051C31.4 2.70051 31.52 2.66051 31.6 2.56051C31.7 2.46051 31.74 2.36051 31.74 2.24051C31.74 2.14051 31.7 2.06051 31.64 1.98051C31.58 1.90051 31.5 1.80051 31.4 1.78051C31.3 1.74051 31.14 1.74051 30.92 1.74051H30.28V3.66051Z" fill="#AAAAAA"/>
<path d="M30.9404 2.6598H30.4004V1.7998H30.9004C31.1404 1.7998 31.3004 1.8398 31.4004 1.8998C31.5004 1.9798 31.5604 2.0798 31.5604 2.2198C31.5604 2.3598 31.5004 2.4598 31.4004 2.5398C31.3004 2.6398 31.1604 2.6598 30.9404 2.6598ZM30.6204 2.4598H30.9404C31.1404 2.4598 31.2404 2.4198 31.2804 2.3998C31.3204 2.3598 31.3404 2.3198 31.3404 2.2398C31.3404 2.1798 31.3204 2.1198 31.2804 2.0798C31.2604 2.0598 31.1804 2.0198 30.9004 2.0198H30.6004V2.4598H30.6204Z" fill="#AAAAAA"/>
</g>
<defs>
<clipPath id="clip0">
<rect width="33.36" height="40" fill="white"/>
</clipPath>
</defs>
</svg>
