<svg width="40" height="40" viewBox="0 0 40 40" fill="none" xmlns="http://www.w3.org/2000/svg">
<path d="M31.7631 17.75C31.9164 18.5524 32 19.3925 32 20.2699C32.0001 27.125 27.3169 32.0001 20.2452 32.0001C13.4798 32.0001 8 26.6299 8 20C8 13.3701 13.4798 8 20.2452 8C23.5516 8 26.314 9.1924 28.4343 11.1274L24.9821 14.5101V14.5024C23.6965 13.3023 22.0666 12.6874 20.2452 12.6874C16.2045 12.6874 12.9212 16.0324 12.9212 19.9927C12.9212 23.9521 16.2044 27.3051 20.2452 27.3051C23.9112 27.3051 26.4059 25.25 26.9194 22.4302H20.2452V17.75H31.7631Z" fill="white"/>
</svg>
