<svg width="40" height="40" viewBox="0 0 40 40" fill="none" xmlns="http://www.w3.org/2000/svg">
<path fill-rule="evenodd" clip-rule="evenodd" d="M20 8C16.685 8 14 10.685 14 14C14 17.315 16.685 20 20 20C23.315 20 26 17.315 26 14C26 10.685 23.315 8 20 8ZM23 14C23 12.35 21.65 11 20 11C18.35 11 17 12.35 17 14C17 15.65 18.35 17 20 17C21.65 17 23 15.65 23 14ZM29 29C28.7 27.935 24.05 26 20 26C15.965 26 11.345 27.92 11 29H29ZM8 29C8 25.01 15.995 23 20 23C24.005 23 32 25.01 32 29V32H8V29Z" fill="#2A2B2B"/>
</svg>
