<svg width="40" height="40" viewBox="0 0 40 40" fill="none" xmlns="http://www.w3.org/2000/svg">
<path d="M28.6991 18.2472C28.0819 17.7425 27.2077 17.581 26.4718 17.8356C26.2746 17.9039 26.0915 17.9996 25.9274 18.1203C25.5091 18.4281 24.5802 19.352 23.8441 20.2665V13.2178C23.8441 12.6187 23.5978 12.0331 23.1684 11.6111C22.7421 11.1921 22.1822 10.9662 21.5946 10.9771C21.3278 10.9819 21.0722 11.0348 20.836 11.1273V10.4388C20.836 9.78678 20.5679 9.14939 20.1003 8.68979C19.6369 8.23423 19.0304 7.98868 18.389 8.0004C17.1102 8.02256 16.0661 9.06205 16.0278 10.3328C15.7508 10.2072 15.45 10.1367 15.1385 10.1274C14.4888 10.1083 13.8454 10.3597 13.3737 10.8177C12.9117 11.2661 12.6572 11.8581 12.6572 12.4828L12.6556 13.1504C12.4562 13.0849 12.2436 13.049 12.0226 13.049C10.9073 13.049 10 13.9563 10 15.0714L10.0007 25.3176L10.0024 25.3661C10.0956 26.7109 10.377 27.8622 10.8392 28.7884C11.2724 29.6567 11.8768 30.3558 12.6356 30.8663C14.1288 31.8712 15.9735 32.0001 17.4136 32.0001C20.2416 32.0001 22.7859 30.594 24.0583 28.3293C24.213 28.08 24.6208 27.4387 25.0612 26.7471C25.49 26.0733 25.889 25.4524 26.2407 24.9045C26.4341 24.6033 26.6101 24.3294 26.7628 24.0906C27.3317 23.2009 27.9379 22.3383 28.5649 21.5266C28.7974 21.2256 28.869 21.1439 28.8853 21.126C29.1789 20.8057 29.3638 20.4137 29.4202 19.992C29.509 19.3304 29.2461 18.6943 28.6991 18.2472ZM28.0249 19.8052C28.0068 19.94 27.9455 20.0678 27.8475 20.1747C27.7964 20.2306 27.705 20.3368 27.4509 20.666C26.7985 21.5105 26.1679 22.4075 25.5766 23.3322C25.4243 23.5704 25.249 23.8433 25.056 24.1437C24.7036 24.6927 24.304 25.3151 23.8736 25.9911C23.4229 26.699 23.0058 27.3547 22.8531 27.6013L22.8372 27.6284C21.816 29.4565 19.7379 30.5922 17.4138 30.5922C16.1736 30.5922 14.5989 30.4905 13.4217 29.6984C12.2205 28.8902 11.5621 27.4492 11.4086 25.2929L11.4079 15.0716C11.4079 14.7326 11.6837 14.4569 12.0226 14.4569C12.3635 14.4569 12.6409 14.7326 12.6409 15.0716V18.906C12.6409 18.9173 12.6422 18.9283 12.6426 18.9397C12.6433 18.9521 12.6433 18.9648 12.6446 18.9772C12.6457 18.9884 12.6479 18.9992 12.6495 19.0102C12.6514 19.0224 12.6527 19.0349 12.655 19.0472C12.6574 19.0582 12.6607 19.069 12.6635 19.0798C12.6664 19.0913 12.6688 19.1032 12.6724 19.1145C12.6757 19.1255 12.6801 19.1362 12.6841 19.1468C12.688 19.1576 12.6915 19.1686 12.696 19.1792C12.7004 19.1898 12.7058 19.1999 12.7107 19.2101C12.7156 19.2204 12.7202 19.2308 12.7255 19.2409C12.7308 19.2508 12.7372 19.2603 12.7431 19.27C12.749 19.2797 12.7545 19.2896 12.7607 19.2989C12.7671 19.3083 12.7742 19.3171 12.781 19.326C12.7878 19.3352 12.794 19.3445 12.8012 19.3531C12.8083 19.3617 12.8162 19.3696 12.8235 19.3779C12.8312 19.3863 12.8385 19.3953 12.8466 19.4033C12.8544 19.411 12.8627 19.418 12.8709 19.4255C12.8793 19.4332 12.8876 19.4414 12.8965 19.4487C12.905 19.4557 12.9139 19.4619 12.9227 19.4685C12.9321 19.4755 12.941 19.4828 12.9506 19.4894C12.9595 19.4954 12.9691 19.5005 12.9782 19.506C12.9883 19.5123 12.9982 19.5188 13.0086 19.5247C13.0181 19.5298 13.0282 19.534 13.0379 19.5388C13.0485 19.5441 13.0591 19.5496 13.0701 19.5544C13.0802 19.5588 13.091 19.5621 13.1013 19.5659C13.1124 19.5699 13.1234 19.5745 13.1348 19.5782C13.1456 19.5815 13.1569 19.5838 13.1679 19.5868C13.1794 19.5897 13.1906 19.5932 13.2022 19.5956C13.2139 19.5979 13.2256 19.5992 13.2373 19.6011C13.249 19.6027 13.2604 19.6051 13.2721 19.6064C13.2838 19.6075 13.2959 19.6077 13.3078 19.6082C13.3195 19.6088 13.3312 19.61 13.3431 19.61C13.3437 19.61 13.3444 19.61 13.345 19.61C13.3693 19.61 13.3933 19.6088 13.4169 19.6064C13.4272 19.6055 13.4373 19.6033 13.4475 19.6018C13.4605 19.6 13.4739 19.5985 13.4867 19.5958C13.5002 19.593 13.5132 19.5892 13.5264 19.5857C13.5356 19.5831 13.5451 19.5813 13.5541 19.5785C13.5687 19.574 13.583 19.5683 13.5973 19.5628C13.6043 19.56 13.6118 19.5578 13.6187 19.5549C13.633 19.5489 13.6465 19.5417 13.6603 19.535C13.6669 19.5317 13.6736 19.5289 13.6802 19.5254C13.6931 19.5185 13.7051 19.5104 13.7174 19.5027C13.7244 19.4985 13.7315 19.4947 13.7381 19.4901C13.7495 19.4826 13.7603 19.474 13.7711 19.4656C13.7782 19.4603 13.7855 19.4553 13.7923 19.4496C13.8024 19.4416 13.8115 19.4324 13.821 19.4236C13.8282 19.4172 13.8355 19.411 13.8425 19.4044C13.8513 19.3956 13.8591 19.3861 13.8674 19.3769C13.8741 19.3694 13.8815 19.3621 13.8879 19.3544C13.8952 19.3454 13.9018 19.3359 13.9088 19.3266C13.9153 19.3178 13.9223 19.3094 13.9283 19.3002C13.9348 19.2909 13.9401 19.2812 13.9459 19.2715C13.9518 19.2618 13.9582 19.2522 13.9637 19.2424C13.969 19.2325 13.9734 19.2222 13.9783 19.2121C13.9833 19.2017 13.9888 19.1915 13.9934 19.1808C13.9977 19.1706 14.001 19.1598 14.0049 19.1493C14.0091 19.1384 14.0135 19.1276 14.0172 19.1162C14.0205 19.1054 14.0228 19.0944 14.0256 19.0834C14.0285 19.0719 14.032 19.0605 14.0346 19.0488C14.0367 19.0378 14.038 19.0263 14.0397 19.0149C14.0417 19.003 14.0439 18.9911 14.0452 18.9791C14.0465 18.9677 14.0465 18.956 14.047 18.9444C14.0477 18.9322 14.049 18.9203 14.049 18.908L14.0653 12.4847C14.0653 12.2422 14.168 12.009 14.3544 11.8279C14.5548 11.6336 14.8257 11.5263 15.0969 11.5347C15.6049 11.5499 16.0181 11.9917 16.0181 12.5207L16.0262 18.8688C16.0262 18.8816 16.0275 18.8941 16.0282 18.9065C16.0288 18.9177 16.0288 18.9292 16.0299 18.9402C16.0311 18.9534 16.0337 18.9661 16.0357 18.9789C16.0374 18.9893 16.0385 18.9999 16.0405 19.0102C16.0434 19.0241 16.0474 19.0376 16.0511 19.0512C16.0535 19.06 16.0553 19.069 16.0579 19.0776C16.0624 19.0922 16.0683 19.1065 16.0738 19.1208C16.0765 19.1279 16.0786 19.1352 16.0815 19.1422C16.0881 19.1574 16.0956 19.1722 16.1031 19.1869C16.106 19.1924 16.1082 19.1982 16.1112 19.2035C16.1194 19.2187 16.1287 19.2332 16.1379 19.2475C16.1408 19.2522 16.1434 19.257 16.1465 19.2616C16.1562 19.276 16.1668 19.2896 16.1774 19.3031C16.1807 19.3074 16.1837 19.3118 16.187 19.3158C16.1989 19.3302 16.2117 19.3438 16.2247 19.3572C16.2274 19.3601 16.2296 19.363 16.2324 19.3658C16.2457 19.3791 16.26 19.3916 16.2745 19.4039C16.2772 19.4062 16.2796 19.4088 16.2824 19.4112C16.2968 19.4231 16.3118 19.4339 16.327 19.4445C16.3303 19.4469 16.3333 19.4494 16.3366 19.4516C16.3519 19.4621 16.368 19.4714 16.3842 19.4806C16.3876 19.4826 16.3909 19.485 16.3946 19.487C16.4114 19.496 16.4288 19.504 16.4464 19.5119C16.4497 19.5134 16.4528 19.5152 16.4561 19.5166C16.4741 19.5242 16.4926 19.5306 16.5112 19.5368C16.5145 19.5377 16.5175 19.5392 16.5208 19.5403C16.5393 19.5459 16.5581 19.5505 16.577 19.5547C16.5808 19.5555 16.5845 19.5567 16.5883 19.5577C16.6341 19.567 16.6815 19.5719 16.73 19.5719C16.7304 19.5719 16.7308 19.5719 16.7311 19.5719C16.7434 19.5719 16.7555 19.5707 16.7676 19.5701C16.7793 19.5694 16.791 19.5694 16.8026 19.5683C16.8154 19.5668 16.8276 19.5644 16.8403 19.5624C16.8509 19.5608 16.8619 19.5597 16.8725 19.5575C16.8851 19.5549 16.8974 19.5513 16.9099 19.548C16.9199 19.5452 16.93 19.5432 16.9399 19.5401C16.9525 19.5362 16.9646 19.5313 16.9769 19.5265C16.986 19.5231 16.9956 19.5203 17.0045 19.5165C17.0172 19.511 17.0294 19.5046 17.0417 19.4985C17.0498 19.4945 17.0582 19.491 17.066 19.4868C17.0781 19.4802 17.0897 19.4725 17.1014 19.4654C17.1089 19.4606 17.1168 19.4564 17.1241 19.4515C17.1353 19.444 17.1457 19.4355 17.1563 19.4273C17.1636 19.4218 17.1712 19.4167 17.1783 19.4108C17.1884 19.4026 17.1979 19.3932 17.2076 19.3843C17.2144 19.378 17.2215 19.372 17.2283 19.3654C17.2373 19.3562 17.2457 19.3464 17.2543 19.3368C17.2607 19.3297 17.2675 19.3229 17.2737 19.3154C17.2814 19.3059 17.2883 19.2958 17.2955 19.2861C17.3017 19.2777 17.3083 19.2696 17.3142 19.2612C17.3207 19.2515 17.3262 19.2413 17.3323 19.2312C17.338 19.2218 17.3442 19.2127 17.3493 19.2032C17.3548 19.1931 17.3592 19.1825 17.3641 19.1722C17.3691 19.162 17.3746 19.1521 17.379 19.1415C17.3832 19.1314 17.3867 19.1208 17.3903 19.1103C17.3945 19.0992 17.3991 19.0882 17.4026 19.0768C17.4059 19.0658 17.4083 19.0547 17.4112 19.0435C17.4141 19.0322 17.4176 19.021 17.4198 19.0094C17.4222 18.9979 17.4235 18.986 17.4253 18.9745C17.4269 18.9628 17.4293 18.9512 17.4304 18.9395C17.4317 18.9276 17.4317 18.9155 17.4323 18.9034C17.433 18.8915 17.4341 18.88 17.4341 18.8679V10.4051C17.4341 9.8646 17.8735 9.41746 18.4135 9.40812C18.6741 9.40446 18.9216 9.50516 19.1137 9.69395C19.3137 9.89042 19.4283 10.162 19.4283 10.4388V18.9067C19.4283 18.9195 19.4296 18.932 19.4303 18.9446C19.4309 18.9558 19.4309 18.9671 19.432 18.9783C19.4332 18.9908 19.4358 19.0029 19.4376 19.0151C19.4395 19.0263 19.4406 19.0375 19.4428 19.0483C19.4453 19.0605 19.449 19.0724 19.4521 19.0845C19.4548 19.095 19.4569 19.1054 19.4602 19.1156C19.4642 19.1286 19.4693 19.1413 19.4741 19.1539C19.4774 19.1627 19.4801 19.1717 19.4838 19.1803C19.4895 19.1935 19.496 19.2061 19.5025 19.2189C19.5061 19.2264 19.5094 19.2343 19.5134 19.2418C19.5204 19.2548 19.5285 19.2671 19.5363 19.2795C19.5405 19.2861 19.5442 19.2933 19.5488 19.2999C19.5572 19.3123 19.5665 19.3242 19.5759 19.3361C19.5805 19.342 19.5845 19.3482 19.5892 19.3539C19.5995 19.3665 19.6109 19.3782 19.622 19.3901C19.6264 19.3945 19.6303 19.3995 19.6347 19.4039C19.6462 19.4156 19.6586 19.4262 19.6711 19.437C19.6757 19.441 19.6799 19.4454 19.6846 19.4493C19.6986 19.4608 19.7132 19.4712 19.7279 19.4817C19.7315 19.4842 19.735 19.4872 19.7388 19.4899C19.7546 19.5005 19.7711 19.5102 19.7877 19.5196C19.7908 19.5212 19.7936 19.5234 19.7967 19.5251C19.815 19.535 19.8337 19.5437 19.8529 19.5522C19.8547 19.5529 19.8564 19.554 19.8582 19.5547C19.8782 19.5632 19.8987 19.5705 19.9196 19.5771C19.9207 19.5776 19.9218 19.578 19.923 19.5784C19.9668 19.5921 20.0124 19.6014 20.0595 19.6064C20.0598 19.6064 20.06 19.6064 20.0604 19.6064C20.084 19.6088 20.108 19.61 20.1323 19.61C20.1325 19.61 20.1327 19.61 20.1331 19.61C20.1455 19.61 20.1578 19.6088 20.1702 19.6082C20.1818 19.6075 20.1933 19.6075 20.2047 19.6064C20.2177 19.6051 20.2303 19.6025 20.2431 19.6005C20.2536 19.5989 20.2642 19.5978 20.2746 19.5956C20.2883 19.5928 20.3015 19.5888 20.3149 19.5853C20.3239 19.5829 20.3332 19.5811 20.342 19.5784C20.3563 19.5738 20.37 19.5683 20.3839 19.563C20.3914 19.56 20.3991 19.5577 20.4066 19.5546C20.4207 19.5485 20.4343 19.5416 20.448 19.5346C20.4546 19.5313 20.4616 19.5286 20.4682 19.5249C20.4815 19.5176 20.4943 19.5093 20.5073 19.5011C20.5136 19.4972 20.52 19.4938 20.5262 19.4895C20.5394 19.4808 20.5516 19.4709 20.5641 19.4612C20.5694 19.4571 20.5751 19.4533 20.5804 19.4491C20.5927 19.4388 20.6042 19.4277 20.6159 19.4167C20.6207 19.4123 20.6258 19.4083 20.6302 19.4037C20.6416 19.3923 20.6522 19.3802 20.6626 19.368C20.667 19.3632 20.6716 19.3586 20.6758 19.3537C20.6859 19.3414 20.695 19.3284 20.7042 19.3156C20.708 19.3101 20.7124 19.305 20.7163 19.2995C20.7249 19.2867 20.7326 19.2733 20.7402 19.2599C20.7439 19.2537 20.7481 19.2479 20.7516 19.2414C20.7589 19.2279 20.7651 19.2138 20.7716 19.1997C20.7747 19.1931 20.7783 19.1867 20.7811 19.1799C20.7869 19.1662 20.7917 19.1519 20.7966 19.1378C20.7992 19.1303 20.8025 19.123 20.8049 19.1151C20.8089 19.1017 20.812 19.0876 20.8155 19.0739C20.8175 19.0651 20.8203 19.0565 20.8221 19.0477C20.8248 19.0342 20.8265 19.0201 20.8285 19.0063C20.8298 18.9968 20.8318 18.9875 20.8327 18.9778C20.8342 18.965 20.8342 18.9518 20.8347 18.9386C20.8353 18.9278 20.8364 18.9172 20.8364 18.906V13.0957C20.8822 12.7029 21.2156 12.3918 21.6193 12.3849C21.8268 12.3814 22.0271 12.4631 22.1818 12.6152C22.3437 12.7741 22.4365 12.9939 22.4365 13.2178V21.527L22.4369 21.5585C22.4407 22.0146 22.7403 22.4 23.1821 22.5176C23.621 22.6342 24.0695 22.4498 24.3002 22.0547L24.3046 22.0468C24.8565 21.0826 26.3316 19.5712 26.7622 19.2544C26.812 19.2176 26.8693 19.1882 26.9325 19.1662C27.213 19.0693 27.5648 19.138 27.8083 19.3372C27.9229 19.4311 28.0539 19.5886 28.0249 19.8052Z" fill="black"/>
</svg>
