<svg width="20" height="24" viewBox="0 0 20 24" fill="none" xmlns="http://www.w3.org/2000/svg">
<path d="M17.454 10.0468C17.3212 10.0951 17.1956 10.1614 17.0817 10.2451C16.4932 10.6781 15.3961 11.861 15.3961 11.861C15.4298 11.8293 14.606 12.6264 13.8507 13.3627C13.6388 13.5694 13.2827 13.4209 13.2801 13.1248V3.58463C13.2801 2.64951 12.5239 2.00443 11.6087 2.19669C10.8785 2.35014 10.4888 3.02946 10.4888 3.84171L10.4953 11.0433L9.38215 11.0458V1.30002C9.38215 0.407751 8.66584 -0.178004 7.80287 0.0490469C7.2107 0.204687 6.93348 0.76206 6.93348 1.46482V11.0592L5.82368 11.0616L5.81727 3.26603C5.81727 2.4871 5.44996 1.80009 4.67139 1.77702C3.86225 1.75303 3.4726 2.4318 3.4726 3.23564L3.46106 11.0744L2.37616 11.0766V5.93864C2.37616 5.12931 1.9997 4.51792 1.18598 4.51792C0.376465 4.51792 0 5.12931 0 5.93864L0.000915526 17.3448C0.406861 23.209 3.72199 24 7.18745 24C10.0585 24 12.3554 22.5758 13.6269 20.2993C13.7906 20.0352 14.233 19.3394 14.7576 18.5153C15.5037 17.3432 16.1809 16.2945 16.656 15.5515C17.2824 14.5717 17.8559 13.8063 18.5653 12.8848C18.7627 12.6284 18.9262 12.422 19.0042 12.3367C19.2179 12.1034 19.3587 11.8132 19.4008 11.4999V11.4408C19.4008 10.3097 18.5162 9.65862 17.454 10.0468Z" fill="white"/>
</svg>
