<svg width="20" height="24" viewBox="0 0 20 24" fill="none" xmlns="http://www.w3.org/2000/svg">
<path d="M18.6991 10.2472C18.0819 9.74254 17.2077 9.58104 16.4718 9.83556C16.2746 9.90385 16.0915 9.99962 15.9274 10.1203C15.5091 10.4281 14.5802 11.352 13.8441 12.2665V5.21781C13.8441 4.61869 13.5978 4.03312 13.1684 3.61106C12.7421 3.19212 12.1822 2.96616 11.5946 2.97715C11.3278 2.98191 11.0722 3.03483 10.836 3.1273V2.43882C10.836 1.78678 10.5679 1.14939 10.1003 0.689794C9.63685 0.234227 9.03041 -0.0113179 8.38899 0.000400918C7.11018 0.0225567 6.06611 1.06205 6.02784 2.3328C5.7508 2.20719 5.44996 2.13669 5.13849 2.12736C4.48884 2.10831 3.8454 2.35972 3.37372 2.81766C2.91175 3.26609 2.65723 3.85807 2.65723 4.48283L2.65558 5.15043C2.45618 5.08488 2.24359 5.04899 2.02259 5.04899C0.907289 5.04899 0 5.95628 0 7.07139L0.000732423 17.3176L0.00238036 17.3661C0.0955811 18.7109 0.377015 19.8622 0.839173 20.7884C1.2724 21.6567 1.87683 22.3558 2.63562 22.8663C4.12885 23.8712 5.97346 24.0001 7.41358 24.0001C10.2416 24.0001 12.7859 22.594 14.0583 20.3293C14.213 20.08 14.6208 19.4387 15.0612 18.7471C15.49 18.0733 15.889 17.4524 16.2407 16.9045C16.4341 16.6033 16.6101 16.3294 16.7628 16.0906C17.3317 15.2009 17.9379 14.3383 18.5649 13.5266C18.7974 13.2256 18.869 13.1439 18.8853 13.126C19.1789 12.8057 19.3638 12.4137 19.4202 11.992C19.509 11.3304 19.2461 10.6943 18.6991 10.2472ZM18.0249 11.8052C18.0068 11.94 17.9455 12.0678 17.8475 12.1747C17.7964 12.2306 17.705 12.3368 17.4509 12.666C16.7985 13.5105 16.1679 14.4075 15.5766 15.3322C15.4243 15.5704 15.249 15.8433 15.056 16.1437C14.7036 16.6927 14.304 17.3151 13.8736 17.9911C13.4229 18.699 13.0058 19.3547 12.8531 19.6013L12.8372 19.6284C11.816 21.4565 9.73793 22.5922 7.41377 22.5922C6.17359 22.5922 4.59888 22.4905 3.4217 21.6984C2.22052 20.8902 1.56207 19.4492 1.40863 17.2929L1.4079 7.07158C1.4079 6.73265 1.68366 6.45689 2.02259 6.45689C2.36353 6.45689 2.64093 6.73265 2.64093 7.07158V10.906C2.64093 10.9173 2.64221 10.9283 2.64258 10.9397C2.64331 10.9521 2.64331 10.9648 2.6446 10.9772C2.64569 10.9884 2.64789 10.9992 2.64954 11.0102C2.65137 11.0224 2.65265 11.0349 2.65503 11.0472C2.65741 11.0582 2.66071 11.069 2.66346 11.0798C2.66638 11.0913 2.66877 11.1032 2.67243 11.1145C2.67572 11.1255 2.68012 11.1362 2.68415 11.1468C2.68799 11.1576 2.69147 11.1686 2.69605 11.1792C2.70044 11.1898 2.70575 11.1999 2.7107 11.2101C2.71564 11.2204 2.72022 11.2308 2.72553 11.2409C2.73084 11.2508 2.73725 11.2603 2.74311 11.27C2.74897 11.2797 2.75446 11.2896 2.76068 11.2989C2.76709 11.3083 2.77423 11.3171 2.78101 11.326C2.78778 11.3352 2.79401 11.3445 2.80115 11.3531C2.80829 11.3617 2.81617 11.3696 2.82349 11.3779C2.83118 11.3863 2.8385 11.3953 2.84656 11.4033C2.85443 11.411 2.86267 11.418 2.87091 11.4255C2.87934 11.4332 2.88758 11.4414 2.89655 11.4487C2.90497 11.4557 2.91394 11.4619 2.92273 11.4685C2.93207 11.4755 2.94104 11.4828 2.95056 11.4894C2.95954 11.4954 2.96906 11.5005 2.97821 11.506C2.98828 11.5123 2.99817 11.5188 3.00861 11.5247C3.01813 11.5298 3.0282 11.534 3.03791 11.5388C3.04853 11.5441 3.05915 11.5496 3.07013 11.5544C3.0802 11.5588 3.09101 11.5621 3.10126 11.5659C3.11243 11.5699 3.12342 11.5745 3.13477 11.5782C3.14557 11.5815 3.15692 11.5838 3.16791 11.5868C3.17945 11.5897 3.19062 11.5932 3.20215 11.5956C3.21387 11.5979 3.22559 11.5992 3.23731 11.6011C3.24903 11.6027 3.26038 11.6051 3.2721 11.6064C3.28382 11.6075 3.2959 11.6077 3.3078 11.6082C3.31952 11.6088 3.33124 11.61 3.34314 11.61C3.34369 11.61 3.34443 11.61 3.34497 11.61C3.36933 11.61 3.39331 11.6088 3.41693 11.6064C3.42719 11.6055 3.43726 11.6033 3.44751 11.6018C3.46051 11.6 3.47388 11.5985 3.4867 11.5958C3.50025 11.593 3.51325 11.5892 3.52643 11.5857C3.53559 11.5831 3.54511 11.5813 3.55408 11.5785C3.56873 11.574 3.58301 11.5683 3.59729 11.5628C3.60425 11.56 3.61176 11.5578 3.61872 11.5549C3.633 11.5489 3.64655 11.5417 3.66028 11.535C3.66687 11.5317 3.67365 11.5289 3.68024 11.5254C3.69306 11.5185 3.70514 11.5104 3.71741 11.5027C3.72437 11.4985 3.73151 11.4947 3.7381 11.4901C3.74945 11.4826 3.76026 11.474 3.77106 11.4656C3.7782 11.4603 3.78553 11.4553 3.7923 11.4496C3.80237 11.4416 3.81153 11.4324 3.82105 11.4236C3.82819 11.4172 3.83551 11.411 3.84247 11.4044C3.85126 11.3956 3.85914 11.3861 3.86737 11.3769C3.87415 11.3694 3.88147 11.3621 3.88788 11.3544C3.89521 11.3454 3.9018 11.3359 3.90876 11.3266C3.91535 11.3178 3.92231 11.3094 3.92835 11.3002C3.93476 11.2909 3.94007 11.2812 3.94593 11.2715C3.95179 11.2618 3.9582 11.2522 3.96369 11.2424C3.969 11.2325 3.97339 11.2222 3.97834 11.2121C3.98328 11.2017 3.98877 11.1915 3.99335 11.1808C3.99775 11.1706 4.00104 11.1598 4.00489 11.1493C4.0091 11.1384 4.01349 11.1276 4.01716 11.1162C4.02045 11.1054 4.02283 11.0944 4.02558 11.0834C4.02851 11.0719 4.03199 11.0605 4.03455 11.0488C4.03675 11.0378 4.03803 11.0263 4.03968 11.0149C4.04169 11.003 4.04389 10.9911 4.04517 10.9791C4.04645 10.9677 4.04645 10.956 4.047 10.9444C4.04773 10.9322 4.04902 10.9203 4.04902 10.908L4.06531 4.48466C4.06531 4.24223 4.16803 4.00895 4.35444 3.82786C4.55475 3.63358 4.82575 3.52628 5.09693 3.53471C5.60486 3.5499 6.01813 3.99174 6.01813 4.52073L6.02619 10.8688C6.02619 10.8816 6.02747 10.8941 6.0282 10.9065C6.02875 10.9177 6.02875 10.9292 6.02985 10.9402C6.03113 10.9534 6.0337 10.9661 6.03571 10.9789C6.03736 10.9893 6.03846 10.9999 6.04047 11.0102C6.0434 11.0241 6.04743 11.0376 6.05109 11.0512C6.05347 11.06 6.0553 11.069 6.05787 11.0776C6.06245 11.0922 6.06831 11.1065 6.0738 11.1208C6.07654 11.1279 6.07856 11.1352 6.08149 11.1422C6.08808 11.1574 6.09559 11.1722 6.1031 11.1869C6.10602 11.1924 6.10822 11.1982 6.11115 11.2035C6.11939 11.2187 6.12873 11.2332 6.13789 11.2475C6.14081 11.2522 6.14338 11.257 6.14649 11.2616C6.1562 11.276 6.16682 11.2896 6.17744 11.3031C6.18073 11.3074 6.18366 11.3118 6.18696 11.3158C6.19886 11.3302 6.21168 11.3438 6.22468 11.3572C6.22742 11.3601 6.22962 11.363 6.23237 11.3658C6.24573 11.3791 6.26002 11.3916 6.27448 11.4039C6.27723 11.4062 6.27961 11.4088 6.28236 11.4112C6.29682 11.4231 6.31184 11.4339 6.32703 11.4445C6.33033 11.4469 6.33326 11.4494 6.33656 11.4516C6.35194 11.4621 6.36805 11.4714 6.38416 11.4806C6.38764 11.4826 6.39094 11.485 6.3946 11.487C6.41145 11.496 6.42884 11.504 6.44642 11.5119C6.44971 11.5134 6.45283 11.5152 6.45612 11.5166C6.47407 11.5242 6.49256 11.5306 6.51124 11.5368C6.51453 11.5377 6.51746 11.5392 6.52076 11.5403C6.53925 11.5459 6.55811 11.5505 6.57697 11.5547C6.58082 11.5555 6.58448 11.5567 6.58833 11.5577C6.6341 11.567 6.68153 11.5719 6.73005 11.5719C6.73042 11.5719 6.73078 11.5719 6.73115 11.5719C6.74342 11.5719 6.7555 11.5707 6.76759 11.5701C6.7793 11.5694 6.79102 11.5694 6.80256 11.5683C6.81538 11.5668 6.82764 11.5644 6.84028 11.5624C6.8509 11.5608 6.86189 11.5597 6.87251 11.5575C6.88514 11.5549 6.89741 11.5513 6.90986 11.548C6.91993 11.5452 6.93 11.5432 6.93989 11.5401C6.95252 11.5362 6.96461 11.5313 6.97688 11.5265C6.98603 11.5231 6.99555 11.5203 7.00452 11.5165C7.01716 11.511 7.02943 11.5046 7.04169 11.4985C7.04975 11.4945 7.05817 11.491 7.06605 11.4868C7.07813 11.4802 7.08967 11.4725 7.10139 11.4654C7.10889 11.4606 7.11677 11.4564 7.12409 11.4515C7.13526 11.444 7.1457 11.4355 7.15632 11.4273C7.16364 11.4218 7.17115 11.4167 7.17829 11.4108C7.18836 11.4026 7.19788 11.3932 7.20759 11.3843C7.21436 11.378 7.2215 11.372 7.22828 11.3654C7.23725 11.3562 7.24567 11.3464 7.25428 11.3368C7.26069 11.3297 7.26746 11.3229 7.27369 11.3154C7.28138 11.3059 7.28834 11.2958 7.29548 11.2861C7.3017 11.2777 7.3083 11.2696 7.31416 11.2612C7.32075 11.2515 7.32624 11.2413 7.33228 11.2312C7.33796 11.2218 7.34419 11.2127 7.34931 11.2032C7.35481 11.1931 7.3592 11.1825 7.36414 11.1722C7.36909 11.162 7.37458 11.1521 7.37898 11.1415C7.38319 11.1314 7.38667 11.1208 7.39033 11.1103C7.39454 11.0992 7.39912 11.0882 7.4026 11.0768C7.40589 11.0658 7.40827 11.0547 7.4112 11.0435C7.41413 11.0322 7.41761 11.021 7.41981 11.0094C7.42219 10.9979 7.42347 10.986 7.4253 10.9745C7.42695 10.9628 7.42933 10.9512 7.43043 10.9395C7.43171 10.9276 7.43171 10.9155 7.43226 10.9034C7.43299 10.8915 7.43409 10.88 7.43409 10.8679V2.40513C7.43409 1.8646 7.87354 1.41746 8.41352 1.40812C8.67408 1.40446 8.92164 1.50516 9.11372 1.69395C9.31367 1.89042 9.42829 2.16196 9.42829 2.43882V10.9067C9.42829 10.9195 9.42958 10.932 9.43031 10.9446C9.43086 10.9558 9.43086 10.9671 9.43196 10.9783C9.43324 10.9908 9.4358 11.0029 9.43763 11.0151C9.43946 11.0263 9.44056 11.0375 9.44276 11.0483C9.44532 11.0605 9.44899 11.0724 9.4521 11.0845C9.45484 11.095 9.45686 11.1054 9.46015 11.1156C9.46418 11.1286 9.46931 11.1413 9.47407 11.1539C9.47737 11.1627 9.48011 11.1717 9.48378 11.1803C9.48945 11.1935 9.49604 11.2061 9.50245 11.2189C9.50611 11.2264 9.50941 11.2343 9.51344 11.2418C9.5204 11.2548 9.52845 11.2671 9.53633 11.2795C9.54054 11.2861 9.5442 11.2933 9.54878 11.2999C9.5572 11.3123 9.56654 11.3242 9.57588 11.3361C9.58045 11.342 9.58448 11.3482 9.58924 11.3539C9.5995 11.3665 9.61085 11.3782 9.62202 11.3901C9.62641 11.3945 9.63026 11.3995 9.63465 11.4039C9.64619 11.4156 9.65864 11.4262 9.67109 11.437C9.67567 11.441 9.67988 11.4454 9.68464 11.4493C9.69856 11.4608 9.71321 11.4712 9.72785 11.4817C9.73152 11.4842 9.735 11.4872 9.73884 11.4899C9.75459 11.5005 9.77107 11.5102 9.78773 11.5196C9.79084 11.5212 9.79359 11.5234 9.7967 11.5251C9.81501 11.535 9.83369 11.5437 9.85292 11.5522C9.85475 11.5529 9.85639 11.554 9.85823 11.5547C9.87819 11.5632 9.89869 11.5705 9.91957 11.5771C9.92067 11.5776 9.92176 11.578 9.92305 11.5784C9.96681 11.5921 10.0124 11.6014 10.0595 11.6064C10.0598 11.6064 10.06 11.6064 10.0604 11.6064C10.084 11.6088 10.108 11.61 10.1323 11.61C10.1325 11.61 10.1327 11.61 10.1331 11.61C10.1455 11.61 10.1578 11.6088 10.1702 11.6082C10.1818 11.6075 10.1933 11.6075 10.2047 11.6064C10.2177 11.6051 10.2303 11.6025 10.2431 11.6005C10.2536 11.5989 10.2642 11.5978 10.2746 11.5956C10.2883 11.5928 10.3015 11.5888 10.3149 11.5853C10.3239 11.5829 10.3332 11.5811 10.342 11.5784C10.3563 11.5738 10.37 11.5683 10.3839 11.563C10.3914 11.56 10.3991 11.5577 10.4066 11.5546C10.4207 11.5485 10.4343 11.5416 10.448 11.5346C10.4546 11.5313 10.4616 11.5286 10.4682 11.5249C10.4815 11.5176 10.4943 11.5093 10.5073 11.5011C10.5136 11.4972 10.52 11.4938 10.5262 11.4895C10.5394 11.4808 10.5516 11.4709 10.5641 11.4612C10.5694 11.4571 10.5751 11.4533 10.5804 11.4491C10.5927 11.4388 10.6042 11.4277 10.6159 11.4167C10.6207 11.4123 10.6258 11.4083 10.6302 11.4037C10.6416 11.3923 10.6522 11.3802 10.6626 11.368C10.667 11.3632 10.6716 11.3586 10.6758 11.3537C10.6859 11.3414 10.695 11.3284 10.7042 11.3156C10.708 11.3101 10.7124 11.305 10.7163 11.2995C10.7249 11.2867 10.7326 11.2733 10.7402 11.2599C10.7439 11.2537 10.7481 11.2479 10.7516 11.2414C10.7589 11.2279 10.7651 11.2138 10.7716 11.1997C10.7747 11.1931 10.7783 11.1867 10.7811 11.1799C10.7869 11.1662 10.7917 11.1519 10.7966 11.1378C10.7992 11.1303 10.8025 11.123 10.8049 11.1151C10.8089 11.1017 10.812 11.0876 10.8155 11.0739C10.8175 11.0651 10.8203 11.0565 10.8221 11.0477C10.8248 11.0342 10.8265 11.0201 10.8285 11.0063C10.8298 10.9968 10.8318 10.9875 10.8327 10.9778C10.8342 10.965 10.8342 10.9518 10.8347 10.9386C10.8353 10.9278 10.8364 10.9172 10.8364 10.906V5.09568C10.8822 4.70292 11.2156 4.39182 11.6193 4.38487C11.8268 4.38139 12.0271 4.46305 12.1818 4.61521C12.3437 4.77415 12.4365 4.99388 12.4365 5.21781V13.527L12.4369 13.5585C12.4407 14.0146 12.7403 14.4 13.1821 14.5176C13.621 14.6342 14.0695 14.4498 14.3002 14.0547L14.3046 14.0468C14.8565 13.0826 16.3316 11.5712 16.7622 11.2544C16.812 11.2176 16.8693 11.1882 16.9325 11.1662C17.213 11.0693 17.5648 11.138 17.8083 11.3372C17.9229 11.4311 18.0539 11.5886 18.0249 11.8052Z" fill="white"/>
</svg>
