<svg width="40" height="40" viewBox="0 0 40 40" fill="none" xmlns="http://www.w3.org/2000/svg">
<path d="M27.454 18.0468C27.3212 18.0951 27.1956 18.1614 27.0817 18.2451C26.4932 18.6781 25.3961 19.861 25.3961 19.861C25.4298 19.8293 24.606 20.6264 23.8507 21.3627C23.6388 21.5694 23.2827 21.4209 23.2801 21.1248V11.5846C23.2801 10.6495 22.5239 10.0044 21.6087 10.1967C20.8785 10.3501 20.4888 11.0295 20.4888 11.8417L20.4953 19.0433L19.3822 19.0458V9.30002C19.3822 8.40775 18.6658 7.822 17.8029 8.04905C17.2107 8.20469 16.9335 8.76206 16.9335 9.46482V19.0592L15.8237 19.0616L15.8173 11.266C15.8173 10.4871 15.45 9.80009 14.6714 9.77702C13.8622 9.75303 13.4726 10.4318 13.4726 11.2356L13.4611 19.0744L12.3762 19.0766V13.9386C12.3762 13.1293 11.9997 12.5179 11.186 12.5179C10.3765 12.5179 10 13.1293 10 13.9386L10.0009 25.3448C10.4069 31.209 13.722 32 17.1874 32C20.0585 32 22.3554 30.5758 23.6269 28.2993C23.7906 28.0352 24.233 27.3394 24.7576 26.5153C25.5037 25.3432 26.1809 24.2945 26.656 23.5515C27.2824 22.5717 27.8559 21.8063 28.5653 20.8848C28.7627 20.6284 28.9262 20.422 29.0042 20.3367C29.2179 20.1034 29.3587 19.8132 29.4008 19.4999V19.4408C29.4008 18.3097 28.5162 17.6586 27.454 18.0468Z" fill="black"/>
</svg>
