<svg width="20" height="20" viewBox="0 0 20 20" fill="none" xmlns="http://www.w3.org/2000/svg">
<path d="M10.1413 1.66641C11.3132 0.721799 12.527 0.293918 14.1805 0.422842L14.4372 0.446418L14.6102 0.468556C17.1292 0.82803 19.2261 3.08402 19.5782 6.37876L19.6004 6.61585L19.598 7.68201C19.3072 11.4293 16.6137 15.0488 11.4061 18.845L11.0703 19.0876L10.8088 19.2895C10.3781 19.6749 9.76076 19.7006 9.27881 19.3943L9.17773 19.3236L8.89926 19.1052C3.59922 15.271 0.816201 11.6515 0.422291 7.86222L0.400391 7.62011L0.403001 6.55128C0.681447 3.11295 2.91221 0.727595 5.57988 0.44527C7.36525 0.275382 8.65163 0.700377 9.86944 1.67703L9.99879 1.78322L10.1413 1.66641ZM14.2589 2.03698C12.7494 1.87282 11.8013 2.26738 10.7168 3.28674L10.5608 3.43662L10.0004 3.98682L9.43995 3.43662C8.31222 2.3295 7.33052 1.88591 5.73987 2.03723C3.91397 2.2305 2.30943 3.89596 2.02228 6.39335L2.00039 6.61585L1.99799 7.55821C2.24481 10.7385 4.66119 13.9994 9.5392 17.592L9.86083 17.8268L9.97319 17.9144L10.1122 17.8066C15.1117 14.2274 17.6411 10.9583 17.9813 7.82431L18.0004 7.62011L18.003 6.68043C17.7918 4.07187 16.2335 2.33744 14.4217 2.05809L14.2589 2.03698Z" fill="#fff"/>
</svg>
