<svg width="24" height="24" viewBox="0 0 24 24" fill="none" xmlns="http://www.w3.org/2000/svg">
<circle cx="12" cy="12" r="11" stroke="black" stroke-width="2"/>
<path d="M16.8417 13.0204C16.738 12.9161 16.6008 12.859 16.4548 12.859H13.7197C13.4182 12.859 13.1736 13.1037 13.1736 13.4053V13.8687C13.1736 14.0144 13.2302 14.1546 13.3339 14.2582C13.4374 14.3617 13.5742 14.4219 13.7197 14.4219H14.4431C13.8018 15.0471 12.9198 15.4401 11.9956 15.4401C10.5352 15.4401 9.23012 14.5131 8.74797 13.1358C8.63835 12.8226 8.34193 12.6116 8.01039 12.6116C7.92264 12.6116 7.83571 12.626 7.75219 12.6552C7.55515 12.7242 7.39682 12.8656 7.30631 13.0536C7.21572 13.2416 7.20384 13.4537 7.2728 13.6506C7.97412 15.654 9.86882 16.9998 11.9924 16.9998C13.2962 16.9998 14.5021 16.513 15.4398 15.6244V16.1371C15.4398 16.4387 15.6916 16.6882 15.9933 16.6882H16.4566C16.7583 16.6882 17.0027 16.4387 17.0027 16.1371V13.4071C17.0027 13.2611 16.9458 13.1238 16.8417 13.0204Z" fill="black"/>
<path d="M16.7306 10.3491C16.0293 8.34586 14.1342 7 12.0107 7C10.7068 7 9.50062 7.48695 8.56291 8.37555V7.86282C8.56291 7.56128 8.31195 7.31162 8.01025 7.31162H7.5468C7.24518 7.31162 7 7.56128 7 7.86282V10.5927C7 10.7387 7.05741 10.8746 7.1615 10.9782C7.26511 11.0825 7.40262 11.1395 7.54867 11.1395L7.54705 11.1407H10.2836C10.5853 11.1407 10.8291 10.8962 10.8291 10.5946V10.1311C10.8291 9.82949 10.5853 9.5778 10.2836 9.5778H9.56031C10.2016 8.9526 11.0837 8.55974 12.0079 8.55974C13.4683 8.55974 14.7733 9.48672 15.2555 10.8641C15.3651 11.1773 15.6614 11.3882 15.9931 11.3882C16.0809 11.3882 16.1677 11.3739 16.2513 11.3447C16.4484 11.2756 16.6066 11.1343 16.6971 10.9463C16.7876 10.7582 16.7996 10.5462 16.7306 10.3491Z" fill="black"/>
</svg>
