<svg width="20px" height="20px" viewBox="0 0 20 20" version="1.1" xmlns="http://www.w3.org/2000/svg" xmlns:xlink="http://www.w3.org/1999/xlink">
    <g id="Page-1" stroke="none" stroke-width="1" fill-rule="evenodd">
        <path class="v_heart_stroke" style="fill:#fff"  d="M10.1264114,1.45827197 C11.3249877,0.492145312 12.5665194,0.0547373589 14.2574865,0.186548846 L14.5201276,0.210603829 L14.6971036,0.233186058 C17.2734413,0.600883652 19.4180167,2.90819833 19.7781051,6.2778596 L19.8006873,6.5203731 L19.7982327,7.61070201 C19.5009818,11.443299 16.7461954,15.1450663 11.4199804,19.0277369 L11.0765832,19.2758959 L10.8092784,19.482327 C10.3686794,19.8765341 9.73735886,19.9027982 9.24447717,19.5895925 L9.14113893,19.5171821 L8.85616102,19.2938144 C3.43568974,15.3723613 0.589347079,11.670594 0.186548846,7.79504173 L0.163966618,7.54737359 L0.166666667,6.45434462 C0.451399116,2.93789887 2.7329406,0.498281787 5.46146294,0.209376534 C7.2874325,0.0355915562 8.60284732,0.47029946 9.84855179,1.46931762 L9.9808542,1.57781051 L10.1264114,1.45827197 Z M14.3377516,1.83726068 C12.7938144,1.66936672 11.8242514,2.07290133 10.7150221,3.11561119 L10.5554737,3.26877761 L9.98232695,3.83161512 L9.40918017,3.26877761 C8.25576829,2.13647521 7.25184094,1.68286696 5.62493864,1.83750614 C3.7574865,2.0353461 2.11659303,3.73858616 1.8227786,6.2928326 L1.80044183,6.5203731 L1.79798724,7.48429062 C2.0503191,10.7368679 4.52184585,14.0719195 9.5108002,17.7461954 L9.83971527,17.9862543 L9.95459008,18.0758468 L10.0967108,17.9656357 C15.2098675,14.3051055 17.7970054,10.9617084 18.1448208,7.7562592 L18.1644575,7.54737359 L18.1669121,6.58640157 C17.9509082,3.91850761 16.3573883,2.14457536 14.5041728,1.85886107 L14.3377516,1.83726068 L14.3377516,1.83726068 Z" id="Shape"></path>
        <path class="v_heart_fill" style="fill:transparent" d="M10.2692685,2.56995582 C11.2884143,1.74840452 12.3441335,1.37628866 13.7820324,1.48846343 L14.0054001,1.50883652 L14.1558665,1.52822779 C16.3465881,1.8406971 18.1701031,3.80265096 18.4764359,6.66813942 L18.4955817,6.87432499 L18.4936181,7.80142366 C18.2405498,11.0603829 15.8981345,14.2081492 11.3694158,17.5095729 L11.0773196,17.7206676 L10.8497791,17.8961708 C10.4752086,18.2312224 9.93838979,18.2535592 9.51939126,17.9872361 L9.43127148,17.9258714 L9.1892489,17.7358861 C4.58001964,14.4013255 2.15954836,11.2538046 1.81713304,7.95827197 L1.79798724,7.74766814 L1.80044183,6.5203731 C1.9945999,3.18728522 3.98232695,1.75355916 6.3024055,1.50785469 C7.85517919,1.36008837 8.97373589,1.72974963 10.0328915,2.5790378 L10.1453117,2.67157585 L10.2692685,2.56995582 Z" id="Path"></path>
    </g>
</svg>