<svg width="24" height="24" viewBox="0 0 24 24" fill="none" xmlns="http://www.w3.org/2000/svg">
<circle cx="12" cy="12" r="11" stroke="black" stroke-width="2"/>
<path d="M12.0002 7.19995C12.442 7.19995 12.8002 7.55812 12.8002 7.99995V11.2H16.0002C16.442 11.2 16.8002 11.5581 16.8002 12C16.8002 12.4418 16.442 12.8 16.0002 12.8H12.8002V16C12.8002 16.4418 12.442 16.8 12.0002 16.8C11.5584 16.8 11.2002 16.4418 11.2002 16V12.7996L8.0002 12.8C7.55837 12.8 7.2002 12.4418 7.2002 12C7.2002 11.5581 7.55837 11.2 8.0002 11.2L11.2002 11.1996V7.99995C11.2002 7.55812 11.5584 7.19995 12.0002 7.19995Z" fill="black"/>
</svg>
