<svg width="30" height="30" viewBox="0 0 40 40" fill="none" xmlns="http://www.w3.org/2000/svg">
<path fill-rule="evenodd" clip-rule="evenodd" d="M8.00494 8.68226L8.10801 16.108C8.11782 16.7019 8.83929 16.9964 9.25647 16.5792L11.3227 14.5129L14.7583 17.9485L17.9485 14.7583L14.5129 11.3228L16.5792 9.2565C17.0012 8.83441 16.7068 8.11785 16.1129 8.10803L8.68715 8.00006C8.30923 7.99515 8.00003 8.30435 8.00494 8.68226ZM30.7438 16.6231L28.6775 14.5568L25.2419 17.9875L22.0518 14.7973L25.4873 11.3618L23.426 9.30532C23.0039 8.88324 23.2984 8.16668 23.8922 8.15686L31.318 8.04889C31.6959 8.04398 32.0051 8.35318 32.0002 8.73109L31.8922 16.1568C31.8824 16.7507 31.1659 17.0452 30.7438 16.6231ZM23.4206 30.4537C22.9985 30.8758 23.293 31.5924 23.8869 31.6022L31.3126 31.7102C31.6905 31.7151 31.9997 31.4059 31.9948 31.0279L31.8868 23.6022C31.877 23.0083 31.1605 22.7138 30.7384 23.1359L28.6721 25.2022L25.2366 21.7666L22.0464 24.9568L25.482 28.3924L23.4206 30.4537ZM16.1129 31.5534L8.68712 31.6613C8.3092 31.6662 8 31.357 8 30.9791L8.10798 23.5534C8.11779 22.9595 8.83435 22.665 9.25644 23.0871L11.3227 25.1534L14.7583 21.7178L17.9484 24.908L14.5129 28.3435L16.5791 30.4049C17.0012 30.827 16.7067 31.5435 16.1129 31.5534Z" fill="#ffffff"/>
</svg>
