<svg width="20" height="20" viewBox="0 0 20 20" fill="none" xmlns="http://www.w3.org/2000/svg">
<path d="M10.1413 1.66592C11.3132 0.721311 12.527 0.293429 14.1805 0.422353L14.4372 0.44593L14.6102 0.468068C17.1292 0.827542 19.2261 3.08354 19.5782 6.37827L19.6004 6.61536L19.598 7.68153C19.3072 11.4288 16.6137 15.0483 11.4061 18.8445L11.0703 19.0871L10.8088 19.289C10.3781 19.6744 9.76076 19.7001 9.27881 19.3938L9.17773 19.3231L8.89926 19.1047C3.59922 15.2705 0.816201 11.6511 0.422291 7.86173L0.400391 7.61963L0.403001 6.55079C0.681447 3.11246 2.91221 0.727106 5.57988 0.444782C7.36525 0.274894 8.65163 0.699889 9.86944 1.67654L9.99879 1.78273L10.1413 1.66592ZM14.2589 2.03649C12.7494 1.87233 11.8013 2.26689 10.7168 3.28625L10.5608 3.43613L10.0004 3.98633L9.43995 3.43613C8.31222 2.32901 7.33052 1.88543 5.73987 2.03674C3.91397 2.23001 2.30943 3.89548 2.02228 6.39286L2.00039 6.61536L1.99799 7.55773C2.24481 10.738 4.66119 13.9989 9.5392 17.5915L9.86083 17.8263L9.97319 17.9139L10.1122 17.8061C15.1117 14.2269 17.6411 10.9578 17.9813 7.82383L18.0004 7.61963L18.003 6.67994C17.7918 4.07138 16.2335 2.33695 14.4217 2.0576L14.2589 2.03649Z" fill="black
"/>
</svg>
