<svg width="20px" height="20px" viewBox="0 0 20 20" xmlns="http://www.w3.org/2000/svg">
<path d="M10.1413,1.66592 C11.3132,0.721311 12.527,0.293429 14.1805,0.422353 L14.4372,0.44593 L14.6102,0.468068 C17.1292,0.827542 19.2261,3.08354 19.5782,6.37827 L19.6004,6.61536 L19.598,7.68153 C19.3072,11.4288 16.6137,15.0483 11.4061,18.8445 L11.0703,19.0871 L10.8088,19.289 C10.3781,19.6744 9.76076,19.7001 9.27881,19.3938 L9.17773,19.3231 L8.89926,19.1047 C3.59922,15.2705 0.816201,11.6511 0.422291,7.86173 L0.400391,7.61963 L0.403001,6.55079 C0.681447,3.11246 2.91221,0.727106 5.57988,0.444782 C7.36525,0.274894 8.65163,0.699889 9.86944,1.67654 L9.99879,1.78273 L10.1413,1.66592 Z" fill="#FFFFFF"></path>
</svg>