<svg width="32" height="32" viewBox="0 0 40 40" fill="none" xmlns="http://www.w3.org/2000/svg">
<path d="M18.0203 28C18.0203 29.1046 18.9065 30 19.9997 30C21.0929 30 21.9792 29.1046 21.9792 28H18.0203ZM19.9997 14C17.3388 14 14.9482 15.6157 13.9245 18.0792L13.8297 18.3202L11.2293 25.3244C11.1333 25.5829 11.2629 25.8712 11.5188 25.9681C11.5744 25.9892 11.6333 26 11.6926 26H28.3059C28.5793 26 28.8008 25.7761 28.8008 25.5C28.8008 25.44 28.7901 25.3806 28.7693 25.3244L26.1697 18.3202C25.2354 15.8028 22.8988 14.1085 20.2564 14.005L19.9997 14ZM19.9997 10C19.4531 10 19.01 10.4477 19.01 11C19.01 11.5523 19.4531 12 19.9997 12C20.5463 12 20.9895 11.5523 20.9895 11C20.9895 10.4477 20.5463 10 19.9997 10ZM19.9997 32C17.8133 32 16.0409 30.2091 16.0409 28H10.9794C9.88622 28 9 27.1046 9 26C9 25.7602 9.04269 25.5223 9.12603 25.2978L11.9763 17.618C12.9127 15.0951 14.9321 13.2079 17.3819 12.4134C17.1573 11.9933 17.0306 11.5116 17.0306 11C17.0306 9.34315 18.3599 8 19.9997 8C21.6396 8 22.9689 9.34315 22.9689 11C22.9689 11.5116 22.8421 11.9933 22.6186 12.4148C25.0674 13.2079 27.0868 15.0951 28.0231 17.618L30.8734 25.2978C31.2573 26.332 30.7387 27.4848 29.7151 27.8727C29.4928 27.9569 29.2574 28 29.02 28H23.9586C23.9586 30.2091 22.1862 32 19.9997 32Z" fill="black"/>
</svg>
