<svg width="24" height="24" viewBox="0 0 24 24" fill="none" xmlns="http://www.w3.org/2000/svg">
<path d="M12.5712 19.2C12.9437 19.2 13.2898 19.0877 13.5775 18.8952C13.7897 19.0846 14.0708 19.2 14.379 19.2H17.9946C18.6602 19.2 19.1998 18.6621 19.1998 17.9986V8.38786C19.1998 7.72438 18.6602 7.18652 17.9946 7.18652H14.379C13.946 7.18652 13.5662 7.41421 13.3538 7.75605L11.9136 5.60258C11.3598 4.7745 10.2374 4.55074 9.40668 5.10279C8.78548 5.5156 8.48276 6.26659 8.64472 6.99307L8.95566 8.38786H7.21019C5.87897 8.38786 4.7998 9.46358 4.7998 10.7906C4.7998 10.984 4.82324 11.1767 4.8696 11.3646L6.35218 17.3713C6.61723 18.4451 7.58336 19.2 8.69277 19.2H12.5712ZM12.5712 17.9986H8.69277C8.1707 17.9986 7.71208 17.6643 7.54944 17.1773L7.52248 17.0843L6.0399 11.0776C6.01672 10.9836 6.005 10.8873 6.005 10.7906C6.005 10.1572 6.49664 9.63836 7.12025 9.5925L7.21019 9.58921H10.4581L9.82121 6.73246C9.76723 6.4903 9.86813 6.23997 10.0752 6.10237C10.3323 5.93149 10.6733 5.9836 10.8685 6.21292L10.9108 6.26896L13.1314 9.58921L13.1738 9.58981V17.3979C13.1738 17.706 12.9412 17.9599 12.6415 17.9946L12.5712 17.9986ZM17.9946 17.9986H14.379V8.38786H17.9946V17.9986Z" fill="white"/>
</svg>
