<svg width="32" height="32" viewBox="0 0 32 32" fill="none" xmlns="http://www.w3.org/2000/svg">
<path fill-rule="evenodd" clip-rule="evenodd" d="M16.0004 6.40039C13.3484 6.40039 11.2004 8.54839 11.2004 11.2004C11.2004 13.8524 13.3484 16.0004 16.0004 16.0004C18.6524 16.0004 20.8004 13.8524 20.8004 11.2004C20.8004 8.54839 18.6524 6.40039 16.0004 6.40039ZM19.2004 11.2004C19.2004 9.44039 17.7604 8.00039 16.0004 8.00039C14.2404 8.00039 12.8004 9.44039 12.8004 11.2004C12.8004 12.9604 14.2404 14.4004 16.0004 14.4004C17.7604 14.4004 19.2004 12.9604 19.2004 11.2004ZM24.0004 24.0004C24.0004 24.0004 24.0004 20.0004 16.0004 20.0004C8.00039 20.0004 8.00039 24.0004 8.00039 24.0004H24.0004ZM6.40039 24.0004C6.40039 24.0004 6.40039 18.4004 16.0004 18.4004C25.6004 18.4004 25.6004 24.0004 25.6004 24.0004V25.6004H6.40039V24.0004Z" fill="white"/>
</svg>
