<svg width="20" height="20" viewBox="0 0 20 20" fill="none" xmlns="http://www.w3.org/2000/svg">
<path fill-rule="evenodd" clip-rule="evenodd" d="M10.0004 0.400391C7.34839 0.400391 5.20039 2.54839 5.20039 5.20039C5.20039 7.85239 7.34839 10.0004 10.0004 10.0004C12.6524 10.0004 14.8004 7.85239 14.8004 5.20039C14.8004 2.54839 12.6524 0.400391 10.0004 0.400391ZM13.2004 5.20039C13.2004 3.44039 11.7604 2.00039 10.0004 2.00039C8.24039 2.00039 6.80039 3.44039 6.80039 5.20039C6.80039 6.96039 8.24039 8.40039 10.0004 8.40039C11.7604 8.40039 13.2004 6.96039 13.2004 5.20039ZM18.0004 18.0004C18.0004 18.0004 18.0004 14.0004 10.0004 14.0004C2.00039 14.0004 2.00039 18.0004 2.00039 18.0004H18.0004ZM0.400391 18.0004C0.400391 18.0004 0.400391 12.4004 10.0004 12.4004C19.6004 12.4004 19.6004 18.0004 19.6004 18.0004V19.6004H0.400391V18.0004Z" fill="#2A2B2B"/>
</svg>
