<svg width="20" height="20" viewBox="0 0 20 20" fill="none" xmlns="http://www.w3.org/2000/svg">
<path fill-rule="evenodd" clip-rule="evenodd" d="M17.3793 0.40039L12.9699 0.40039C11.7456 0.40039 10.7496 1.39643 10.7496 2.62069L10.7496 7.03009C10.7496 8.25435 11.7456 9.25039 12.9699 9.25039L17.3793 9.25039C18.6036 9.25039 19.5996 8.25435 19.5996 7.03009L19.5996 2.62069C19.5996 1.39643 18.6036 0.400391 17.3793 0.40039ZM12.9699 7.75039C12.5727 7.75039 12.2496 7.42725 12.2496 7.03009L12.2496 2.62069C12.2496 2.22353 12.5727 1.90039 12.9699 1.90039L17.3793 1.90039C17.7765 1.90039 18.0996 2.22353 18.0996 2.62069L18.0996 7.03009C18.0996 7.42725 17.7765 7.75039 17.3793 7.75039L12.9699 7.75039ZM6.99961 0.40039L2.64961 0.400389C1.40896 0.400389 0.399609 1.40974 0.399608 2.65039L0.399608 7.00039C0.399608 8.24104 1.40896 9.25039 2.64961 9.25039L6.99961 9.25039C8.24026 9.25039 9.24961 8.24104 9.24961 7.00039L9.24961 2.65039C9.24961 1.40974 8.24026 0.40039 6.99961 0.40039ZM2.64961 7.75039C2.23606 7.75039 1.89961 7.41394 1.89961 7.00039L1.89961 2.65039C1.89961 2.23684 2.23606 1.90039 2.64961 1.90039L6.99961 1.90039C7.41316 1.90039 7.74961 2.23684 7.74961 2.65039L7.74961 7.00039C7.74961 7.41394 7.41316 7.75039 6.99961 7.75039L2.64961 7.75039ZM12.9699 10.7504L17.3793 10.7504C18.6036 10.7504 19.5996 11.7464 19.5996 12.9707L19.5996 17.3801C19.5996 18.6044 18.6036 19.6004 17.3793 19.6004L12.9699 19.6004C11.7456 19.6004 10.7496 18.6044 10.7496 17.3801L10.7496 12.9707C10.7496 11.7464 11.7456 10.7504 12.9699 10.7504ZM12.2496 17.3801C12.2496 17.7773 12.5727 18.1004 12.9699 18.1004L17.3793 18.1004C17.7765 18.1004 18.0996 17.7773 18.0996 17.3801L18.0996 12.9707C18.0996 12.5735 17.7765 12.2504 17.3793 12.2504L12.9699 12.2504C12.5727 12.2504 12.2496 12.5735 12.2496 12.9707L12.2496 17.3801ZM6.99961 10.7504L2.64961 10.7504C1.40896 10.7504 0.399608 11.7597 0.399608 13.0004L0.399607 17.3504C0.399607 18.591 1.40896 19.6004 2.64961 19.6004L6.99961 19.6004C8.24026 19.6004 9.24961 18.591 9.24961 17.3504L9.24961 13.0004C9.24961 11.7597 8.24026 10.7504 6.99961 10.7504ZM2.64961 18.1004C2.23606 18.1004 1.89961 17.7639 1.89961 17.3504L1.89961 13.0004C1.89961 12.5868 2.23606 12.2504 2.64961 12.2504L6.99961 12.2504C7.41316 12.2504 7.74961 12.5868 7.74961 13.0004L7.74961 17.3504C7.74961 17.7639 7.41316 18.1004 6.99961 18.1004L2.64961 18.1004Z" fill="#2A2B2B"/>
</svg>
