<svg width="32" height="32" viewBox="0 0 40 40" fill="none" xmlns="http://www.w3.org/2000/svg">
<path fill-rule="evenodd" clip-rule="evenodd" d="M25.2051 13.1303C23.9341 12.5176 22.5761 12.1378 21.1688 12.0014C21.0915 11.9937 21.0152 12.0174 20.9555 12.0665C20.8959 12.1156 20.8582 12.1863 20.8508 12.2633L20.5138 15.7422C20.4983 15.9023 20.6155 16.0446 20.7756 16.0601C21.7032 16.15 22.5977 16.4001 23.4345 16.8034C23.4743 16.8226 23.5175 16.8324 23.5609 16.8324C23.5933 16.8324 23.6258 16.8269 23.657 16.8161C23.7299 16.7906 23.7898 16.7372 23.8233 16.6676L25.3409 13.5191C25.4108 13.3742 25.35 13.2001 25.2051 13.1303ZM15.9004 16.8199C15.9528 16.9185 16.0537 16.9747 16.158 16.9747C16.2041 16.9747 16.2508 16.9638 16.2942 16.9407C17.1162 16.5047 18.0006 16.2203 18.9226 16.0952C19.082 16.0736 19.1937 15.9268 19.1721 15.7674L18.7024 12.304C18.6808 12.1447 18.5336 12.0331 18.3746 12.0546C16.9743 12.2445 15.6315 12.6764 14.3836 13.3383C14.2415 13.4137 14.1874 13.5899 14.2627 13.7321L15.9004 16.8199ZM14.8708 17.7921C14.8757 17.715 14.8499 17.639 14.7989 17.581L12.4914 14.9559C12.4405 14.8979 12.3685 14.8625 12.2914 14.8576C12.2139 14.8526 12.1383 14.8785 12.0803 14.9294C11.0201 15.8614 10.14 16.9606 9.46443 18.1963C9.42741 18.2641 9.41874 18.3438 9.44047 18.4179C9.46219 18.492 9.51247 18.5545 9.58027 18.5915L12.6471 20.2679C12.6915 20.2922 12.7394 20.3036 12.7866 20.3036C12.8896 20.3036 12.9895 20.2488 13.0424 20.152C13.4889 19.3353 14.071 18.6086 14.7724 17.9921C14.8305 17.9411 14.8659 17.8692 14.8708 17.7921ZM8.77521 20.5915L12.1484 21.5068C12.3036 21.5489 12.3954 21.7089 12.3534 21.8641C12.1705 22.5383 12.0777 23.2384 12.0777 23.9451C12.0777 24.0643 12.0807 24.186 12.0867 24.317C12.0903 24.3942 12.0631 24.4696 12.011 24.5267C11.9591 24.5838 11.8864 24.6179 11.8093 24.6214L8.31788 24.7827C8.31333 24.7829 8.3087 24.783 8.30416 24.783C8.14941 24.783 8.02067 24.6614 8.01341 24.5052C8.00435 24.3109 8 24.1277 8 23.9451C8 22.8779 8.14063 21.8185 8.41784 20.7964C8.43812 20.7219 8.4871 20.6584 8.55412 20.62C8.62114 20.5815 8.70066 20.5714 8.77521 20.5915ZM30.3064 17.7957C30.346 17.8621 30.3577 17.9413 30.3388 18.0163C30.3199 18.0912 30.2721 18.1555 30.2058 18.1952L27.2058 19.9884C27.159 20.0164 27.1075 20.0298 27.0567 20.0298C26.9575 20.0298 26.861 19.9791 26.8064 19.8879C26.3283 19.0881 25.7187 18.384 24.9944 17.795C24.9345 17.7462 24.8963 17.6757 24.8885 17.5988C24.8805 17.522 24.9035 17.4452 24.9522 17.3852L27.1575 14.6737C27.2063 14.6138 27.2768 14.5757 27.3536 14.5678C27.4308 14.56 27.5073 14.5829 27.5672 14.6316C28.6619 15.5219 29.5835 16.5865 30.3064 17.7957ZM31.4526 20.3536C31.4045 20.2 31.241 20.1145 31.0876 20.1627L27.7524 21.2077C27.5989 21.2558 27.5135 21.4192 27.5615 21.5727C27.8009 22.3368 27.9223 23.135 27.9223 23.945C27.9223 24.0642 27.9193 24.1859 27.9133 24.3169C27.9097 24.394 27.9369 24.4695 27.989 24.5266C28.041 24.5837 28.1136 24.6178 28.1907 24.6213L31.6821 24.7826L31.6892 24.7828L31.6958 24.7829C31.8505 24.7829 31.9793 24.6612 31.9866 24.5051C31.9956 24.3108 32 24.1276 32 23.945C31.9999 22.7209 31.8158 21.5126 31.4526 20.3536ZM19.8397 23.331C19.8894 23.3284 19.9394 23.3267 19.9896 23.3267C20.7193 23.3267 21.4054 23.6109 21.9214 24.1269C22.4373 24.6428 22.7215 25.3288 22.7215 26.0585C22.7215 26.7883 22.4374 27.4743 21.9214 27.9902C21.4054 28.5061 20.7194 28.7904 19.9897 28.7904C19.26 28.7904 18.5739 28.5062 18.0579 27.9902C17.542 27.4743 17.2578 26.7883 17.2578 26.0585C17.2578 25.9636 17.2629 25.8696 17.2724 25.7764L14.6914 20.9389C14.6281 20.8204 14.6514 20.6742 14.7485 20.5813C14.8455 20.4882 14.9925 20.4711 15.1083 20.5395L19.8397 23.331Z" />
</svg>
