<svg width="24" height="24" viewBox="0 0 24 24" fill="none" xmlns="http://www.w3.org/2000/svg">
<path d="M12.5712 19.2002C12.9437 19.2002 13.2898 19.0879 13.5775 18.8955C13.7897 19.0849 14.0708 19.2002 14.379 19.2002H17.9946C18.6602 19.2002 19.1998 18.6623 19.1998 17.9989V8.38811C19.1998 7.72462 18.6602 7.18676 17.9946 7.18676H14.379C13.946 7.18676 13.5662 7.41446 13.3538 7.7563L11.9136 5.60282C11.3598 4.77475 10.2374 4.55098 9.40668 5.10303C8.78548 5.51584 8.48276 6.26683 8.64472 6.99331L8.95566 8.38811H7.21019C5.87897 8.38811 4.7998 9.46383 4.7998 10.7908C4.7998 10.9842 4.82324 11.177 4.8696 11.3648L6.35218 17.3715C6.61723 18.4454 7.58336 19.2002 8.69277 19.2002H12.5712ZM12.5712 17.9989H8.69277C8.1707 17.9989 7.71208 17.6645 7.54944 17.1776L7.52248 17.0845L6.0399 11.0778C6.01672 10.9839 6.005 10.8875 6.005 10.7908C6.005 10.1575 6.49664 9.63861 7.12025 9.59275L7.21019 9.58945H10.4581L9.82121 6.73271C9.76723 6.49055 9.86813 6.24021 10.0752 6.10261C10.3323 5.93174 10.6733 5.98385 10.8685 6.21316L10.9108 6.26921L13.1314 9.58945L13.1738 9.59005V17.3982C13.1738 17.7062 12.9412 17.9601 12.6415 17.9948L12.5712 17.9989ZM17.9946 17.9989H14.379V8.38811H17.9946V17.9989Z" fill="#777676"/>
</svg>
