<svg width="40" height="40" viewBox="0 0 40 40" fill="none" xmlns="http://www.w3.org/2000/svg">
<path fill-rule="evenodd" clip-rule="evenodd" d="M12.1094 8H27.1312C28.2943 8 29.2405 8.94629 29.2407 10.1094V29.8906C29.2407 31.0537 28.2944 32 27.1313 32H12.1094C10.9463 32 10 31.0537 10 29.8906V10.1094C10 8.94629 10.9463 8 12.1094 8ZM27.1312 30.5938C27.519 30.5938 27.8343 30.2783 27.8343 29.8906H27.8345V10.1094C27.8345 9.72174 27.519 9.40625 27.1313 9.40625H12.1094C11.7217 9.40625 11.4062 9.72174 11.4062 10.1094V29.8906C11.4062 30.2783 11.7217 30.5938 12.1094 30.5938H27.1312ZM21.9989 12.0111C21.2231 11.9531 20.6145 12.1239 20.0558 12.4973L19.9967 12.5377L19.95 12.5053C19.3602 12.1134 18.708 11.9431 17.8635 12.0235C16.3743 12.1811 15.1519 13.4882 15.0027 15.3299L15 15.3972V15.8726L15.0025 15.9371L15.0142 16.0652C15.2165 17.9847 16.6095 19.7956 19.2116 21.678L19.3299 21.7712L19.3951 21.8177C19.7716 22.0664 20.2605 22.0648 20.6225 21.7875L20.6421 21.7709L20.7855 21.6596L20.9567 21.5359C23.4987 19.6809 24.8462 17.8675 24.996 15.9371L24.9985 15.8726V15.3972L24.9958 15.3299L24.9842 15.2079C24.7922 13.4307 23.5914 12.1776 22.1439 12.0244L21.9989 12.0111ZM20.6579 14.1444C21.077 13.7522 21.4044 13.6202 21.9661 13.6813L22.0374 13.6909C22.6556 13.7941 23.2111 14.3981 23.3241 15.3565L23.3321 15.4393V15.8305L23.3257 15.9024C23.1829 17.1931 22.157 18.568 20.0966 20.1001L19.9872 20.1807L19.7463 19.999C17.785 18.4954 16.8115 17.157 16.6728 15.9022L16.6664 15.8351V15.4352L16.6744 15.3565C16.7916 14.3626 17.3848 13.7498 18.0301 13.6815C18.6288 13.6246 18.9696 13.7786 19.4155 14.2164L19.9992 14.7894L20.5829 14.2164L20.6579 14.1444ZM15.4999 25C15.4999 25.2761 15.2761 25.5 14.9999 25.5C14.7238 25.5 14.5 25.2761 14.5 25C14.5 24.7239 14.7238 24.5 14.9999 24.5C15.2761 24.5 15.4999 24.7239 15.4999 25ZM16.5 24.5C16.2239 24.5 16 24.7239 16 25C16 25.2761 16.2239 25.5 16.5 25.5H24.5C24.7761 25.5 25 25.2761 25 25C25 24.7239 24.7761 24.5 24.5 24.5H16.5ZM15.4999 28C15.4999 28.2761 15.2761 28.5 14.9999 28.5C14.7238 28.5 14.5 28.2761 14.5 28C14.5 27.7239 14.7238 27.5 14.9999 27.5C15.2761 27.5 15.4999 27.7239 15.4999 28ZM16.5 27.5C16.2239 27.5 16 27.7239 16 28C16 28.2761 16.2239 28.5 16.5 28.5H24.5C24.7761 28.5 25 28.2761 25 28C25 27.7239 24.7761 27.5 24.5 27.5H16.5Z" fill="#FFFFFF"/>
</svg>
