<svg width="24" height="24" viewBox="0 0 24 24" fill="none" xmlns="http://www.w3.org/2000/svg">
<path fill-rule="evenodd" clip-rule="evenodd" d="M8.3998 19.2002H12.5998H12.7198C13.3798 19.1401 13.9198 18.5988 13.9198 17.8771V8.67519H13.8598C13.6198 8.5549 13.3798 8.37447 13.1998 8.1339L11.3398 5.36732L11.2798 5.30718C10.8598 4.76589 10.1398 4.64561 9.5398 5.00647C9.1198 5.30718 8.8798 5.84847 8.9998 6.38975L9.2998 7.7129V7.77304C9.2998 8.19404 9.0598 8.5549 8.6398 8.67519H8.4598H6.7798H6.6598C5.6398 8.73533 4.7998 9.63747 4.7998 10.6599C4.7998 10.8403 4.7998 10.9606 4.8598 11.141L6.4798 17.6966V17.8169C6.7798 18.6589 7.4998 19.2002 8.3998 19.2002ZM15.0597 7.35204C14.8197 7.41218 14.5797 7.65275 14.5797 8.01361V18.5386V18.5988C14.6397 18.9596 14.8797 19.2002 15.1197 19.2002H18.6597H18.7197C18.9597 19.1401 19.1997 18.8995 19.1997 18.5386V8.01361V7.95347C19.1397 7.59261 18.8997 7.35204 18.6597 7.35204H15.1197H15.0597Z" fill="#5F99B6"/>
</svg>
