<svg width="32" height="32" viewBox="0 0 40 40" fill="none" xmlns="http://www.w3.org/2000/svg">
<path fill-rule="evenodd" clip-rule="evenodd" d="M15.8982 12.1014C15.8982 9.83627 17.7345 8 19.9996 8C22.2648 8 24.1011 9.83627 24.1011 12.1014V14H26.3201C27.3325 14 28.1853 14.7566 28.3058 15.7619L29.9848 29.7619C30.1276 30.9523 29.198 32 27.999 32H12.0003C10.8013 32 9.87174 30.9523 10.0145 29.7619L11.6934 15.7619C11.814 14.7566 12.6668 14 13.6792 14H15.8982V12.1014ZM15.8982 16V18C15.8982 18.5523 16.3573 19 16.9236 19C17.4899 19 17.9489 18.5523 17.9489 18H17.9493V16H22.0507V18C22.0507 18.5523 22.5098 19 23.0761 19C23.6424 19 24.1014 18.5523 24.1014 18C24.1014 17.9911 24.1013 17.9822 24.1011 17.9733V16H25.5913C26.0963 16 26.522 16.3764 26.5838 16.8776L28.064 28.8776C28.1376 29.4739 27.6724 30 27.0716 30H12.9277C12.3269 30 11.8617 29.4739 11.9353 28.8776L13.4155 16.8776C13.4773 16.3764 13.903 16 14.4079 16H15.8982ZM22.0507 14H17.9493V12.0507C17.9493 10.9181 18.8674 10 20 10C21.1326 10 22.0507 10.9181 22.0507 12.0507V14Z"/>
</svg>
