<svg width="24" height="24" viewBox="0 0 24 24" fill="none" xmlns="http://www.w3.org/2000/svg">
<path fill-rule="evenodd" clip-rule="evenodd" d="M8.3998 19.2H12.5998H12.7198C13.3798 19.1398 13.9198 18.5985 13.9198 17.8768V8.67494H13.8598C13.6198 8.55466 13.3798 8.37423 13.1998 8.13365L11.3398 5.36708L11.2798 5.30694C10.8598 4.76565 10.1398 4.64536 9.5398 5.00622C9.1198 5.30694 8.8798 5.84822 8.9998 6.38951L9.2998 7.71265V7.7728C9.2998 8.1938 9.0598 8.55466 8.6398 8.67494H8.4598H6.7798H6.6598C5.6398 8.73508 4.7998 9.63723 4.7998 10.6597C4.7998 10.8401 4.7998 10.9604 4.8598 11.1408L6.4798 17.6964V17.8167C6.7798 18.6587 7.4998 19.2 8.3998 19.2ZM15.0597 7.3518C14.8197 7.41194 14.5797 7.65251 14.5797 8.01337V18.5384V18.5985C14.6397 18.9594 14.8797 19.2 15.1197 19.2H18.6597H18.7197C18.9597 19.1398 19.1997 18.8992 19.1997 18.5384V8.01337V7.95323C19.1397 7.59237 18.8997 7.3518 18.6597 7.3518H15.1197H15.0597Z" fill="white"/>
</svg>
