<svg width="26px" height="26px" viewBox="0 0 26 26" version="1.1" xmlns="http://www.w3.org/2000/svg" >
    <g id="Page-1" stroke="none" stroke-width="1" fill="none" fill-rule="evenodd">
        <g id="icon_navigation" fill-rule="nonzero">
            <path class="v-icon-navigation-path center" d="M16.0005385,9 C16.5528271,9 17,9.44798622 17,10.0002154 L17,10.0002154 L17,15.9997846 C17,16.5520138 16.5528271,17 16.0005385,17 L16.0005385,17 L10.0003231,17 C9.44803446,17 9,16.5520138 9,15.9997846 L9,15.9997846 L9,10.0002154 C9,9.44798622 9.44803446,9 10.0003231,9 L10.0003231,9 L16.0005385,9 Z M16,10 L10,10 L10,16 L16,16 L16,10 Z" id="Shape"></path>
            <path class="v-icon-navigation-path top" d="M12.419,0.232 C12.652,-0.077 13.348,-0.077 13.58,0.232 L13.58,0.232 L17.527,6.268 C17.813,6.651 17.54,7.197 17.062,7.197 L17.062,7.197 L8.937,7.197 C8.459,7.197 8.186,6.651 8.473,6.268 L8.473,6.268 L12.419,0.232 Z" id="Shape"></path>
            <path class="v-icon-navigation-path bottom" d="M17.062,18.803 C17.54,18.803 17.813,19.349 17.527,19.732 L13.58,25.768 C13.348,26.077 12.652,26.077 12.419,25.768 L8.473,19.732 C8.186,19.349 8.459,18.803 8.937,18.803 L17.062,18.803 Z" id="Shape"></path>
            <path class="v-icon-navigation-path left" d="M7.196,8.937 L7.196,17.061 C7.196,17.54 6.65,17.813 6.268,17.526 L0.232,13.58 C-0.077,13.348 -0.077,12.651 0.232,12.419 L6.268,8.473 C6.65,8.186 7.196,8.459 7.196,8.937 Z" id="Shape"></path>
            <path class="v-icon-navigation-path right" d="M18.804,8.937 C18.804,8.459 19.35,8.186 19.732,8.473 L19.732,8.473 L25.768,12.419 C26.077,12.651 26.077,13.348 25.768,13.58 L25.768,13.58 L19.732,17.526 C19.35,17.813 18.804,17.54 18.804,17.061 L18.804,17.061 L18.804,8.937 Z" id="Shape"></path>
        </g>
    </g>
</svg>