<svg width="10" height="9" viewBox="0 0 10 9" fill="none" xmlns="http://www.w3.org/2000/svg">
<path fill-rule="evenodd" clip-rule="evenodd" d="M0.200195 3.86074C0.200195 1.94964 1.74945 0.400391 3.66055 0.400391H6.33985C8.25095 0.400391 9.8002 1.94964 9.8002 3.86074C9.8002 5.77184 8.25094 7.32109 6.33984 7.32109H5.86686L4.69173 7.97345C3.73775 8.50304 2.59775 7.99212 2.28376 7.03637C1.0577 6.50408 0.200195 5.28255 0.200195 3.86074ZM1.0002 3.86074C1.0002 2.39931 2.18492 1.21459 3.64635 1.21459H6.35404C7.81547 1.21459 9.0002 2.39931 9.0002 3.86074C9.0002 5.32217 7.81547 6.50689 6.35404 6.50689H5.54572L3.74442 7.5152C3.41113 7.70176 3.0002 7.46085 3.0002 7.0789V6.42744C1.85109 6.13907 1.0002 5.09928 1.0002 3.86074Z" fill="white"/>
</svg>
