<svg width="352" height="228" viewBox="0 0 352 228" fill="none" xmlns="http://www.w3.org/2000/svg">
<path fill-rule="evenodd" clip-rule="evenodd" d="M194.931 228C194.682 228 194.424 227.954 194.161 227.86C193.293 227.547 192.82 226.866 192.743 225.983C192.686 225.332 192.737 224.656 192.846 224.01C193.343 221.05 193.973 218.116 194.981 215.285C196.177 211.916 197.065 208.464 197.894 204.996C198.838 201.047 199.69 197.072 200.549 193.101C201.355 189.374 202.165 185.646 202.885 181.901C203.667 177.83 204.366 173.743 205.062 169.656C205.341 168.015 205.744 166.412 206.26 164.835C209.616 154.591 213.01 144.362 216.3 134.098C217.386 130.706 218.213 127.23 219.144 123.789C221.075 116.657 223.26 109.615 226.369 102.89C226.821 101.913 227.242 100.918 227.621 99.9103C230.019 93.5366 233.039 87.4511 236.136 81.4016C237.574 78.5916 238.715 75.6796 239.486 72.5914C240.365 69.0579 241.358 65.539 242.903 62.2108C243.284 61.3874 243.583 60.5147 243.819 59.6364C245.13 54.7456 246.217 49.8155 246.581 44.7419C246.793 41.7659 247.127 38.7966 247.478 35.8319C247.888 32.3645 247.87 28.8827 247.953 25.4019C247.995 23.5802 248.145 21.7607 248.236 19.9401C248.256 19.5744 248.02 19.3164 247.736 19.3164C247.634 19.3164 247.525 19.349 247.42 19.423C245.321 20.8914 243.074 22.1735 241.516 24.3115C240.714 25.4131 240.21 26.5674 240.06 27.9426C239.646 31.7341 239.148 35.5155 238.674 39.3003C238.011 44.5781 236.777 49.737 235.487 54.888C234.155 60.204 232.496 65.4156 230.674 70.579C229.02 75.2679 227.577 80.0342 225.596 84.6064C222.761 91.1484 220.037 97.7532 216.346 103.872C212.617 110.058 208.409 115.908 203.399 121.152C199.38 125.358 194.999 129.156 190.481 132.802C189.297 133.758 188.349 134.822 187.649 136.194C186.029 139.367 184.32 142.496 182.599 145.617C181.036 148.448 179.319 151.182 177.392 153.788C173.549 158.987 169.638 164.142 165.963 169.46C163.605 172.87 161.263 176.285 158.753 179.586C154.619 185.015 149.906 189.9 144.78 194.387C141.276 197.456 137.368 199.981 133.408 202.407C128.108 205.657 122.736 208.794 117.423 212.022C115.37 213.271 113.398 214.651 111.378 215.955C110.756 216.356 110.131 216.809 109.441 217.047C109.186 217.136 108.938 217.176 108.703 217.176C107.507 217.176 106.642 216.114 106.896 214.758C107.07 213.836 107.573 213.072 108.13 212.343C109.591 210.432 111 208.477 112.541 206.633C114.24 204.599 116.031 202.638 117.838 200.7C120.947 197.366 124.087 194.065 127.233 190.767C129.922 187.949 132.645 185.165 135.336 182.35C136.768 180.852 138.158 179.317 139.58 177.81C142.991 174.192 146.434 170.606 149.816 166.961C151.901 164.715 153.897 162.385 155.926 160.086C156.421 159.528 156.828 158.878 157.377 158.383C159.7 156.295 161.033 153.479 162.862 151.028C162.96 150.898 163.052 150.746 163.085 150.59C163.115 150.443 163.117 150.234 163.033 150.133C162.979 150.068 162.838 150.023 162.723 150.023C162.679 150.023 162.638 150.03 162.608 150.043C161.789 150.442 160.973 150.849 160.176 151.288C153.713 154.852 147.323 158.545 141.11 162.532C138.45 164.239 135.562 165.514 132.829 167.085C131.752 167.704 130.672 168.323 129.567 168.892C129.099 169.133 128.622 169.297 128.154 169.297C127.687 169.297 127.23 169.134 126.801 168.724C126.069 168.02 126.099 166.91 126.937 165.787C127.477 165.059 128.084 164.36 128.755 163.751C134.707 158.344 140.582 152.847 146.679 147.61C151.581 143.4 156.746 139.492 161.98 135.693C164.06 134.183 166.204 132.762 168.28 131.246C173.127 127.706 177.495 123.665 181.035 118.784C181.96 117.508 182.826 116.2 183.557 114.795C185.01 112 186.509 109.229 188.029 106.47C188.835 105.012 189.499 103.497 190.059 101.935C191.373 98.2659 192.723 94.6101 193.797 90.859C194.85 87.1886 196.249 83.6395 197.647 80.0891C200.108 73.841 202.632 67.6165 204.532 61.1619C205.422 58.1355 206.121 55.0653 206.796 51.9861C206.868 51.6664 206.95 51.3332 206.621 50.9664C204.81 51.3747 203.357 52.2542 202.47 54.0411C199.629 59.7631 196.328 65.2305 193.032 70.6934C190.808 74.3817 188.354 77.9309 186.084 81.5934C180.786 90.1377 174.722 98.1268 168.409 105.926C165.075 110.045 161.481 113.955 158.024 117.976C156.348 119.924 154.624 121.826 152.886 123.72C145.3 131.994 137.029 139.502 128.02 146.199C117.101 154.318 105.792 161.87 94.3164 169.165C89.0005 172.543 83.4523 175.552 78.0152 178.739C73.0796 181.632 68.1551 184.545 63.2172 187.436C62.5049 187.853 61.7623 188.235 60.9961 188.543C60.7314 188.649 60.4667 188.703 60.2065 188.703C59.7432 188.703 59.2978 188.531 58.9041 188.18C58.2086 187.559 58.092 186.775 58.3275 185.909C58.5261 185.168 59.0118 184.593 59.4336 183.979C62.1751 179.982 65.675 176.689 69.1703 173.379C75.1436 167.723 81.7899 162.887 88.1558 157.712C93.3854 153.462 99.1309 149.987 104.828 146.428C110.944 142.606 117.139 138.895 122.919 134.565C127.429 131.185 131.882 127.724 136.309 124.235C139.635 121.615 142.592 118.582 145.626 115.638C149.556 111.827 153.22 107.773 156.901 103.724C161.486 98.6787 165.559 93.2382 169.57 87.7529C171.618 84.953 173.287 81.8727 175.1 78.9034C175.423 78.3762 175.617 77.7694 175.891 77.1513C175.831 77.1445 175.775 77.1423 175.721 77.1423C175.192 77.1423 174.936 77.4384 174.647 77.6606C170.179 81.1009 165.653 84.4617 161.009 87.662C156.77 90.5819 152.371 93.2393 147.821 95.6421C141.003 99.2429 134.188 102.852 127.351 106.415C125.735 107.257 124.056 107.984 122.369 108.672C115.842 111.333 109.326 114.053 102.483 115.813C94.2132 117.939 85.9976 120.297 77.6137 121.958C70.6196 123.344 63.6267 124.794 56.5126 125.409C51.4748 125.843 46.4214 126.122 41.369 126.309C35.7917 126.516 30.2099 126.686 24.6281 126.686C22.913 126.686 21.1989 126.671 19.4849 126.635C14.3462 126.526 9.19964 126.56 4.07215 126.086C3.24991 126.009 2.41422 125.952 1.61217 125.764C0.603726 125.526 0.00920038 124.731 0.000112012 123.815C-0.00874752 123.013 0.508375 122.27 1.39904 121.957C1.94084 121.766 2.52192 121.643 3.09401 121.586C10.1296 120.88 16.9868 119.283 23.835 117.589C28.9053 116.337 34.0306 115.32 39.1244 114.16C42.3584 113.424 45.5812 112.641 48.7994 111.842C53.476 110.681 58.2153 109.902 62.9985 109.343C67.3632 108.835 71.7267 108.289 76.0813 107.695C83.44 106.691 90.4587 104.536 97.3126 101.671C103.895 98.921 110.404 96.019 116.898 93.0755C117.654 92.7334 118.403 92.3745 119.156 92.029C122.472 90.5079 125.795 89.0025 129.104 87.4657C130.834 86.6625 132.547 85.8224 134.255 84.9766C138.344 82.9541 142.4 80.8676 146.515 78.9034C151.607 76.4715 156.62 73.896 161.442 70.9637C162.198 70.5038 163.036 70.1325 163.69 69.2822C163.476 69.2071 163.28 69.1768 163.097 69.1768C162.557 69.1768 162.131 69.4404 161.7 69.584C159.103 70.4444 156.543 71.427 153.921 72.1999C144.784 74.8898 135.414 75.8747 125.914 75.9903C125.579 75.9948 125.246 75.997 124.912 75.997C117.754 75.997 110.689 75.0704 103.643 73.9801C98.7193 73.2184 93.7757 72.7148 88.8199 72.2683C80.2206 71.4955 71.7144 70.1852 63.2879 68.2469C57.4436 66.9008 51.8315 64.9377 46.2273 62.8636C41.1705 60.9926 36.1495 59.0385 31.2531 56.7827C26.8099 54.7366 22.4171 52.5806 17.9492 50.5906C14.4662 49.0393 10.9361 47.6001 7.5967 45.738C6.28538 45.0066 5.07277 44.144 3.91625 43.2006C3.47541 42.8394 3.04015 42.4187 2.74289 41.9386C2.01375 40.7619 2.54547 39.3295 3.85231 38.9324C4.48048 38.7417 5.15463 38.671 5.8131 38.6306C6.22814 38.6059 6.6432 38.5936 7.05712 38.5936C8.7173 38.5936 10.364 38.7921 11.9883 39.1657C13.524 39.519 15.063 39.8713 16.5706 40.3233C23.9641 42.5365 31.4954 44.2045 38.9999 45.9702C43.3612 46.9966 47.6912 48.1239 51.9919 49.3724C54.6224 50.1363 57.2776 50.778 59.9653 51.3108C62.3221 51.7786 64.6665 52.3204 67.0087 52.8644C71.6965 53.9514 76.4235 54.8443 81.2066 55.3838C83.1169 55.5992 85.0508 55.6923 86.9757 55.6923C87.1216 55.6923 87.2674 55.6912 87.4132 55.6901C96.8662 55.6261 106.318 55.4882 115.77 55.4074C117.004 55.3973 118.239 55.385 119.473 55.385C121.225 55.385 122.976 55.4096 124.724 55.5016C128.657 55.708 132.591 55.7462 136.528 55.7462C137.686 55.7462 138.847 55.7428 140.006 55.7394C141.163 55.7361 142.318 55.7327 143.475 55.7327C145.266 55.7327 147.057 55.7406 148.849 55.7686C151.418 55.809 153.988 55.8707 156.557 55.92C156.708 55.9234 156.858 55.9234 157.012 55.9234C157.269 55.9234 157.531 55.9212 157.81 55.9212C157.685 55.2358 157.169 55.3614 156.837 55.3076C146.657 53.6597 136.754 50.898 126.982 47.6853C115.714 43.9802 104.632 39.7793 93.7825 34.9591C85.9796 31.493 78.0422 28.3296 70.2046 24.9386C63.1993 21.9065 56.4273 18.3966 49.8168 14.5793C44.7219 11.6381 39.6225 8.70024 34.5701 5.68612C31.4573 3.82851 28.3759 1.91818 25.3 0H47.5296C49.6823 0.966943 51.8259 1.95071 53.9751 2.92663C60.1627 5.73884 66.4108 8.42766 72.6903 11.0312C79.128 13.7021 85.4199 16.6848 91.7241 19.6406C107.27 26.9297 122.934 33.9361 139.204 39.491C147.37 42.2785 155.65 44.6589 164.099 46.4705C169.38 47.6034 174.688 48.4492 180.076 48.8329C180.685 48.8766 181.29 48.899 181.891 48.899C184.86 48.899 187.726 48.3561 190.525 47.1559C193.196 46.0106 195.814 44.7677 198.402 43.4552C198.845 43.2286 199.282 42.9863 199.691 42.7048C199.874 42.5803 200.072 42.3537 200.095 42.1529C200.127 41.887 199.842 41.7502 199.599 41.7109C198.863 41.5931 198.125 41.4821 197.383 41.4024C191.279 40.7384 185.21 39.8455 179.212 38.5128C168.676 36.1706 158.349 33.1071 148.181 29.485C135.907 25.1125 123.85 20.2284 112.154 14.4705C107.094 11.9791 102.238 9.13436 97.4326 6.17632C94.2581 4.22224 91.1666 2.15599 88.1412 0H112.29C113.678 0.880569 115.069 1.75665 116.461 2.63273C126.619 9.01994 137.653 13.5832 148.749 18.0062C153.909 20.0624 159.043 22.1982 164.265 24.0793C173.719 27.4861 183.369 30.2231 193.284 31.9372C197.941 32.7426 202.615 33.4381 207.362 33.5031C207.463 33.5042 207.563 33.5054 207.664 33.5054C210.954 33.5054 214.011 32.765 216.828 30.9758C218.843 29.6959 220.932 28.5327 223.161 27.2157C222.62 26.868 222.125 26.8254 221.66 26.8254C221.585 26.8254 221.511 26.8265 221.437 26.8276C221.363 26.8287 221.289 26.8299 221.216 26.8299C221.189 26.8299 221.162 26.8299 221.135 26.8287C215.157 26.7435 209.205 26.2522 203.284 25.4726C198.599 24.8556 193.922 24.1523 189.272 23.3233C183.142 22.2307 177.161 20.4999 171.191 18.76C167.182 17.5912 163.548 15.5676 159.954 13.4957C155.142 10.7205 150.518 7.6458 145.87 4.60812C143.556 3.09601 141.264 1.55586 138.982 0H166.535C171.442 2.35342 176.615 3.8745 181.876 5.17012C190.817 7.37098 199.672 9.87359 208.429 12.7194C213.965 14.5187 219.617 15.8155 225.397 16.5166C226.957 16.7061 228.54 16.6871 230.108 16.8048C230.316 16.8194 230.52 16.8273 230.723 16.8273C232.746 16.8273 234.516 16.069 236.092 14.8014C237.769 13.4508 239.452 12.0924 241.008 10.6072C242.804 8.89206 244.464 7.03558 246.177 5.23518C246.397 5.00522 246.673 4.79433 246.632 4.40397C246.467 4.19308 246.269 4.13587 246.061 4.13587C245.872 4.13587 245.676 4.1841 245.492 4.20878C240.94 4.82125 236.38 5.02765 231.816 5.02765C227.267 5.02765 222.715 4.82238 218.167 4.61261C211.695 4.3131 205.317 3.13191 199.036 1.53791C197.206 1.07463 195.396 0.558628 193.601 0H266.335C264.631 1.83293 263.171 3.86329 261.446 5.67154C260.792 6.3558 260.589 7.27787 260.494 8.19321C260.407 9.00984 260.359 9.82984 260.303 10.651C260.305 11.3778 260.271 12.1081 260.214 12.8294C260.189 13.1738 260.159 13.5181 260.133 13.8614C259.927 19.2603 259.76 24.6615 259.494 30.056C259.187 36.2671 258.957 42.4905 258.141 48.6612C257.066 56.8051 255.472 64.8559 253.496 72.8314C252.939 75.0839 252.458 77.3566 251.982 79.6281C250.32 87.5846 248.419 95.4794 246.12 103.281C244.948 107.254 243.927 111.279 243.005 115.32C241.125 123.565 239.383 131.842 237.538 140.096C235.932 147.296 234.634 154.574 232.484 161.643C229.022 173.028 224.429 183.927 218.542 194.284C217.1 196.816 215.432 199.193 213.773 201.557C211.203 205.222 208.813 209.021 206.075 212.557C202.91 216.639 200.252 221.016 197.722 225.493C197.359 226.137 196.946 226.774 196.443 227.31C196.022 227.759 195.501 228 194.931 228ZM228.826 36.8201C228.254 36.8201 227.729 37.5055 227.195 37.7938C225.886 38.5027 224.605 39.2655 223.319 40.0182C222.675 40.394 222.024 40.763 221.421 41.1972C219.816 42.3582 218.689 43.8288 218.489 45.8849C218.4 46.7902 218.263 47.692 218.129 48.5939C217.639 51.8683 217.286 55.173 216.611 58.4092C215.346 64.489 213.888 70.5274 212.522 76.5859C212.142 78.2753 211.804 79.9747 211.361 82.0813C212.397 81.5137 212.673 80.8901 213.025 80.3449C213.833 79.0941 214.63 77.8355 215.383 76.55C217.014 73.7636 218.603 70.9637 219.741 67.916C223.273 58.4417 226.107 48.7409 229.089 39.0905C229.299 38.4074 229.914 37.4685 229.318 37.0052C229.15 36.874 228.986 36.8201 228.826 36.8201ZM259.508 188.842C258.611 188.842 257.991 188.326 257.583 187.575C257.349 187.144 257.208 186.655 257.08 186.178C256.866 185.377 256.653 184.572 256.51 183.755C255.255 176.568 254.108 169.386 254.03 162.039C253.973 156.71 254.374 151.443 254.96 146.168C255.761 138.983 255.86 131.773 255.62 124.554C255.456 119.583 255.317 114.611 255.181 109.638C255.156 108.727 255.155 107.811 255.225 106.902C255.733 100.205 255.892 93.476 256.785 86.8151C257.522 81.3118 258.264 75.8029 259.39 70.3591C259.675 68.9805 260.014 67.6086 260.411 66.258C262.566 58.9286 264.119 51.4667 265.358 43.9331C265.72 41.7244 266.166 39.5325 266.779 37.3731C267.842 33.6231 268.696 29.8204 269.517 26.0099C270.899 19.607 272.291 13.2063 273.779 6.82805C274.315 4.52848 275.012 2.26704 275.686 0H285.898C285.892 0.0381393 285.886 0.0762786 285.88 0.114418C284.571 8.23023 284.148 16.4403 283.064 24.5752C282.398 29.5871 281.568 34.58 280.717 39.565C279.741 45.2859 278.745 51.0068 277.601 56.6963C276.066 64.3499 275.055 72.072 274.253 79.8278C273.605 86.0972 272.915 92.361 272.294 98.6315C272.059 101.023 271.994 103.43 271.795 105.826C271.234 112.602 270.655 119.376 270.064 126.15C269.575 131.771 268.543 137.322 267.846 142.916C267.188 148.182 266.668 153.465 266.025 158.732C265.313 164.577 264.542 170.412 263.767 176.247C263.613 177.396 263.372 178.539 263.079 179.658C262.639 181.348 262.292 183.046 262.064 184.778C261.949 185.677 261.732 186.576 261.434 187.431C261.143 188.261 260.511 188.816 259.569 188.842C259.549 188.842 259.528 188.842 259.508 188.842ZM302.895 146.289C302.271 146.289 301.64 145.968 301.221 145.32C300.916 144.847 300.715 144.264 300.629 143.708C300.466 142.644 300.326 141.563 300.34 140.492C300.413 134.94 300.235 129.388 300.779 123.84C301.363 117.89 301.224 111.914 300.992 105.944C300.811 101.305 300.69 96.6629 300.516 92.0234C300.463 90.6156 300.294 89.2134 300.216 87.8067C300.115 85.9873 299.952 84.1622 299.99 82.3427C300.123 75.7121 300.039 69.077 300.564 62.4564C300.891 58.315 301.405 54.2206 302.501 50.1947C303.35 47.0773 304.025 43.9107 304.702 40.7496C306.906 30.4452 308.516 20.0388 309.93 9.60213C310.32 6.73158 310.502 3.82627 310.645 0.929925C310.66 0.620324 310.675 0.309601 310.69 0H325.541C326.245 5.61208 326.907 11.2298 327.611 16.8407C328.584 24.5808 328.944 32.3668 328.186 40.173C327.753 44.6297 327.563 49.1054 327.623 53.5902C327.644 54.998 327.591 56.4102 327.49 57.8147C326.871 66.5014 326.3 75.1994 324.78 83.783C323.841 89.0866 322.608 94.3521 320.532 99.354C315.921 110.465 311.927 121.803 307.957 133.151C306.86 136.285 306.116 139.521 305.356 142.752C305.166 143.555 304.99 144.385 304.637 145.122C304.265 145.895 303.584 146.289 302.895 146.289ZM334.048 69.0747C333.329 69.0747 332.761 68.598 332.585 67.723C332.47 67.161 332.47 66.5699 332.46 65.9911C332.321 56.9128 333.343 47.9444 335.191 39.0715C335.951 35.4224 337.053 31.8441 337.877 28.2074C339.269 22.0546 341.049 16.0129 342.909 9.99025C343.595 7.77144 344.084 5.50215 344.576 3.23062C344.811 2.15038 345.068 1.07351 345.336 0H362.185C361.568 5.69173 360.451 11.2971 358.718 16.7824C358.342 17.967 357.953 19.1504 357.516 20.3137C355.713 25.1271 353.823 29.9102 352.086 34.7482C349.702 41.3946 346.798 47.8098 343.64 54.1152C341.784 57.8214 339.902 61.5131 338 65.1957C337.583 66 337.046 66.7471 336.531 67.4964C336.153 68.0495 335.649 68.4802 335.05 68.7977C334.7 68.985 334.359 69.0747 334.048 69.0747Z" fill="#F5F7F9"/>
</svg>
