<svg width="208" height="139" viewBox="0 0 208 139" fill="none" xmlns="http://www.w3.org/2000/svg">
    <path fill-rule="evenodd" clip-rule="evenodd" d="M179.921 173H162.429C158.187 170.922 153.906 168.919 149.604 166.97C144.804 164.794 140.122 162.386 135.429 159.997C123.858 154.11 112.191 148.432 100.03 143.835C93.9259 141.529 87.7262 139.527 81.3865 137.951C77.4218 136.966 73.4309 136.198 69.3687 135.775C68.7113 135.707 68.0599 135.671 67.4135 135.671C65.3743 135.671 63.3886 136.022 61.43 136.787C59.3833 137.587 57.3746 138.462 55.3864 139.392C55.0462 139.552 54.7103 139.725 54.3948 139.926C54.2531 140.017 54.0971 140.184 54.075 140.334C54.0445 140.535 54.2565 140.645 54.4397 140.681C54.9928 140.787 55.5475 140.889 56.1065 140.969C60.7031 141.62 65.2683 142.442 69.769 143.596C77.6754 145.624 85.4054 148.192 93.0005 151.177C102.17 154.782 111.164 158.768 119.862 163.406C123.625 165.413 127.226 167.682 130.786 170.035C132.236 170.993 133.661 171.983 135.064 173H117.432C117.062 172.749 116.69 172.499 116.318 172.248C108.796 167.172 100.57 163.453 92.2914 159.84C88.4421 158.158 84.614 156.42 80.713 154.87C73.6514 152.065 66.4245 149.759 58.9727 148.221C55.4729 147.5 51.957 146.86 48.3715 146.695C48.1195 146.683 47.8702 146.677 47.6216 146.677C45.3297 146.677 43.1752 147.18 41.1555 148.373C39.6016 149.291 37.9933 150.119 36.2773 151.06C36.8304 151.442 37.3351 151.379 37.7982 151.401C42.3151 151.612 46.8005 152.129 51.2572 152.863C54.7824 153.444 58.3001 154.09 61.7948 154.83C66.4007 155.806 70.8794 157.26 75.3487 158.721C78.3498 159.703 81.0463 161.321 83.7123 162.974C87.2817 165.189 90.7001 167.626 94.1397 170.035C95.5325 171.012 96.9142 172.002 98.2901 173H78.382C74.7388 171.108 70.8751 169.836 66.9402 168.731C60.2374 166.849 53.6059 164.741 47.0567 162.376C42.9173 160.88 38.677 159.762 34.3256 159.091C33.1525 158.91 31.9547 158.885 30.7715 158.758C30.5484 158.734 30.3295 158.723 30.1132 158.723C28.6636 158.723 27.37 159.246 26.2003 160.127C24.9 161.107 23.5954 162.092 22.3833 163.176C20.9837 164.429 19.6833 165.791 18.344 167.11C18.1726 167.278 17.9589 167.431 17.9809 167.727C18.1073 167.9 18.2676 167.944 18.4347 167.944C18.5687 167.944 18.707 167.916 18.8376 167.902C21.2186 167.66 23.5979 167.564 25.9755 167.564C30.4898 167.564 34.9974 167.911 39.4989 168.264C44.3839 168.649 49.1739 169.698 53.8833 171.056C55.8707 171.629 57.8259 172.283 59.7565 173H0.419922C1.14686 172.32 1.87549 171.642 2.59479 170.954C4.09702 169.517 5.33883 167.858 6.81561 166.407C7.32624 165.905 7.50183 165.213 7.59683 164.524C7.68166 163.909 7.73849 163.289 7.80126 162.671C7.81652 162.122 7.86149 161.571 7.92086 161.027C7.9497 160.767 7.97939 160.508 8.00823 160.249C8.29578 156.174 8.55365 152.096 8.88785 148.025C9.27125 143.339 9.59697 138.641 10.3638 133.997C11.3757 127.868 12.777 121.822 14.4658 115.843C14.9425 114.154 15.3616 112.449 15.7764 110.743C17.2268 104.771 18.8563 98.8499 20.7852 93.0106C21.7683 90.0359 22.6377 87.0187 23.4334 83.988C25.056 77.8018 26.5744 71.5893 28.1699 65.3964C29.561 59.9931 30.7189 54.5245 32.5163 49.2341C35.4113 40.7144 39.1495 32.5892 43.8529 24.9059C45.0031 23.0279 46.3221 21.272 47.6344 19.5255C49.6659 16.8188 51.5659 14.0052 53.7213 11.4011C56.2126 8.39329 58.3289 5.15048 60.3494 1.82794C60.6403 1.35039 60.9686 0.877928 61.3613 0.485195C61.6777 0.169652 62.0594 0 62.4717 0C62.6753 0 62.8856 0.040717 63.1002 0.126389C63.7474 0.383404 64.0884 0.910155 64.1257 1.57941C64.1529 2.07224 64.0978 2.58202 63.9994 3.06721C63.5515 5.29213 63.0035 7.49416 62.1723 9.60966C61.1849 12.1255 60.4308 14.7143 59.7192 17.3142C58.9091 20.2762 58.1686 23.2594 57.4221 26.2393C56.7223 29.0376 56.0183 31.8343 55.383 34.6479C54.6917 37.7049 54.064 40.7763 53.4388 43.8495C53.1869 45.0828 52.8434 46.2839 52.415 47.4638C49.6277 55.1225 46.8124 62.7719 44.0752 70.4484C43.1701 72.9855 42.4618 75.5913 41.6738 78.1699C40.041 83.5129 38.2173 88.7813 35.7022 93.7885C35.3367 94.5162 34.994 95.2576 34.6827 96.01C32.7148 100.768 30.2846 105.293 27.795 109.79C26.6397 111.879 25.7058 114.052 25.0493 116.368C24.2977 119.017 23.4614 121.651 22.2128 124.129C21.9032 124.742 21.6563 125.394 21.457 126.052C20.3458 129.716 19.4043 133.415 19.0056 137.242C18.7723 139.486 18.4475 141.721 18.1099 143.953C17.7154 146.564 17.6433 149.196 17.4957 151.825C17.4185 153.201 17.2616 154.572 17.1471 155.945C17.1242 156.227 17.3023 156.43 17.5229 156.43C17.5967 156.43 17.6756 156.408 17.7527 156.357C19.3746 155.297 21.1041 154.384 22.3341 152.806C22.9668 151.993 23.3757 151.133 23.5233 150.097C23.9287 147.243 24.397 144.396 24.8482 141.547C25.4785 137.575 26.5371 133.706 27.6372 129.844C28.7747 125.859 30.1548 121.961 31.6579 118.104C33.0244 114.6 34.2305 111.033 35.8396 107.626C38.1426 102.75 40.3624 97.8244 43.3016 93.2914C46.2713 88.7075 49.5938 84.3892 53.5092 80.5475C56.6494 77.4667 60.0534 74.7032 63.5566 72.0584C64.4752 71.3654 65.2183 70.5842 65.7806 69.5646C67.0818 67.2056 68.4509 64.8823 69.8284 62.5667C71.0779 60.4647 72.4427 58.44 73.9619 56.5179C76.9943 52.6822 80.0751 48.8812 82.9837 44.9522C84.849 42.4338 86.7024 39.9094 88.6804 37.4767C91.9368 33.4739 95.6182 29.8969 99.6023 26.6312C102.326 24.3969 105.341 22.5842 108.393 20.8471C112.479 18.5212 116.615 16.2819 120.709 13.9713C122.291 13.0772 123.815 12.0823 125.374 11.1475C125.855 10.8583 126.337 10.5317 126.865 10.3688C127.042 10.3137 127.213 10.2882 127.377 10.2882C128.307 10.2882 128.961 11.1238 128.732 12.1611C128.579 12.8533 128.178 13.4191 127.741 13.956C126.59 15.3641 125.477 16.8078 124.268 18.1633C122.934 19.6595 121.532 21.0973 120.119 22.5181C117.688 24.9618 115.234 27.3802 112.775 29.7959C110.675 31.8605 108.549 33.898 106.446 35.9601C105.327 37.0568 104.239 38.1824 103.127 39.2877C100.461 41.9376 97.771 44.5637 95.1262 47.2365C93.4959 48.8829 91.93 50.5955 90.3396 52.2826C89.9528 52.6923 89.6288 53.1741 89.2012 53.5338C87.3954 55.0555 86.3189 57.1507 84.877 58.9582C84.7998 59.0549 84.7251 59.1686 84.6971 59.2848C84.67 59.3959 84.664 59.5529 84.7243 59.6317C84.7658 59.6843 84.8778 59.7225 84.9669 59.7225C84.9965 59.7225 85.0237 59.7183 85.044 59.7089C85.6734 59.429 86.3003 59.1406 86.9127 58.8285C91.8851 56.2922 96.804 53.6576 101.597 50.7965C103.649 49.5708 105.864 48.6777 107.967 47.558C108.796 47.1161 109.628 46.6749 110.477 46.2712C110.819 46.1083 111.167 45.9998 111.505 45.9998C111.875 45.9998 112.234 46.1304 112.562 46.4663C113.1 47.0159 113.049 47.8549 112.389 48.6827C111.962 49.2188 111.487 49.7328 110.965 50.1773C106.334 54.1174 101.76 58.1287 97.0237 61.9381C93.216 64.9994 89.2174 67.8266 85.1679 70.5697C83.5588 71.6606 81.9039 72.6827 80.2982 73.7777C76.5481 76.3343 73.1484 79.2811 70.3535 82.8844C69.6223 83.8251 68.9369 84.7938 68.35 85.8371C67.1836 87.9144 65.9825 89.9714 64.7662 92.0199C64.1223 93.1022 63.5829 94.2312 63.1214 95.3976C62.0382 98.1391 60.9296 100.868 60.0254 103.677C59.1398 106.425 57.9964 109.074 56.8521 111.723C54.8401 116.385 52.7797 121.028 51.1868 125.859C50.4403 128.125 49.8364 130.429 49.2511 132.738C49.19 132.979 49.1196 133.229 49.3588 133.514C50.7372 133.249 51.8569 132.621 52.5711 131.291C54.8579 127.037 57.4866 122.985 60.1102 118.937C61.8822 116.203 63.8238 113.58 65.6288 110.869C69.842 104.541 74.6201 98.6505 79.5814 92.9097C82.2025 89.8781 85.0144 87.0119 87.7253 84.0575C89.0392 82.6249 90.3896 81.2303 91.7485 79.8409C97.6845 73.7735 104.119 68.3016 111.091 63.4607C119.542 57.5917 128.274 52.1596 137.126 46.9277C141.225 44.5035 145.492 42.3659 149.68 40.0893C153.48 38.0238 157.273 35.9423 161.076 33.8793C161.625 33.5808 162.195 33.3102 162.781 33.0964C162.969 33.0277 163.155 32.9938 163.337 32.9938C163.703 32.9938 164.052 33.1337 164.353 33.4213C164.865 33.9082 164.933 34.5028 164.735 35.1526C164.565 35.7065 164.185 36.1297 163.851 36.5835C161.681 39.5379 158.956 41.9401 156.233 44.3567C151.58 48.4851 146.439 51.9781 141.501 55.7333C137.445 58.8175 133.018 61.3036 128.625 63.8542C123.909 66.5932 119.136 69.2456 114.663 72.3773C111.171 74.8228 107.721 77.3285 104.29 79.8579C101.712 81.7562 99.403 83.9769 97.0381 86.1272C93.9751 88.912 91.1055 91.8859 88.2249 94.8555C84.636 98.5564 81.4255 102.569 78.2599 106.617C76.644 108.683 75.3072 110.97 73.8643 113.171C73.6065 113.561 73.4453 114.015 73.2239 114.474C73.2816 114.483 73.335 114.486 73.3859 114.486C73.7634 114.486 73.9593 114.276 74.1765 114.12C77.6373 111.63 81.1405 109.2 84.7285 106.895C88.0027 104.791 91.3922 102.892 94.8904 101.186C100.132 98.6319 105.37 96.0702 110.625 93.5442C111.865 92.9479 113.152 92.4398 114.445 91.9605C119.443 90.1097 124.434 88.2122 129.649 87.0492C135.952 85.6446 142.218 84.0634 148.595 83.0125C153.916 82.1363 159.236 81.2117 164.627 80.9216C168.444 80.7155 172.271 80.6289 176.094 80.6103C177.139 80.606 178.183 80.6027 179.227 80.6027C183.701 80.6027 188.174 80.6612 192.642 80.8995C196.523 81.1073 200.414 81.2075 204.276 81.6918C204.897 81.7698 205.527 81.8326 206.128 81.9946C206.885 82.1982 207.315 82.8148 207.3 83.507C207.287 84.1135 206.878 84.6623 206.197 84.8769C205.783 85.0084 205.341 85.0873 204.906 85.1161C199.572 85.4775 194.35 86.5174 189.133 87.6294C185.271 88.4522 181.371 89.096 177.493 89.8476C175.032 90.3251 172.577 90.8375 170.125 91.3625C166.562 92.1259 162.961 92.5992 159.332 92.9046C156.021 93.1828 152.71 93.489 149.405 93.83C143.818 94.4094 138.461 95.8666 133.21 97.8634C128.169 99.7821 123.178 101.816 118.197 103.882C117.619 104.122 117.045 104.374 116.466 104.617C113.923 105.686 111.375 106.743 108.837 107.823C107.51 108.387 106.195 108.982 104.883 109.579C101.743 111.006 98.6268 112.485 95.4689 113.869C91.5602 115.582 87.7092 117.406 83.9922 119.505C83.4104 119.833 82.7682 120.094 82.2525 120.72C82.4289 120.789 82.5893 120.815 82.7394 120.815C83.1279 120.815 83.4451 120.636 83.7641 120.542C85.7472 119.955 87.7067 119.275 89.7059 118.755C95.9506 117.134 102.301 116.551 108.719 116.551C109.467 116.551 110.217 116.558 110.968 116.574C116.639 116.687 122.204 117.595 127.749 118.638C131.452 119.334 135.176 119.836 138.91 120.293C145.391 121.089 151.787 122.287 158.108 123.958C162.494 125.117 166.688 126.738 170.871 128.443C174.648 129.98 178.395 131.581 182.041 133.405C185.349 135.06 188.615 136.797 191.943 138.41C194.538 139.667 197.171 140.842 199.648 142.33C200.623 142.916 201.518 143.597 202.368 144.338C202.693 144.621 203.011 144.951 203.224 145.321C203.747 146.228 203.311 147.298 202.312 147.566C201.833 147.694 201.323 147.731 200.824 147.745C200.68 147.75 200.535 147.751 200.391 147.751C198.962 147.751 197.553 147.555 196.17 147.19C195.018 146.886 193.863 146.582 192.734 146.204C187.201 144.35 181.549 142.905 175.921 141.388C172.651 140.505 169.404 139.547 166.184 138.499C164.216 137.857 162.225 137.307 160.206 136.838C158.437 136.428 156.678 135.96 154.922 135.493C151.404 134.555 147.854 133.765 144.253 133.241C142.704 133.015 141.132 132.897 139.569 132.857C132.423 132.675 125.276 132.549 118.13 132.378C115.875 132.325 113.613 132.279 111.366 132.088C105.3 131.572 99.213 131.588 93.1387 131.297C91.1988 131.203 89.2581 131.094 87.3165 130.994C87.012 130.978 86.7066 130.973 86.369 130.962C86.4479 131.483 86.8415 131.401 87.09 131.45C94.7445 132.945 102.161 135.273 109.469 137.941C117.894 141.016 126.166 144.462 134.248 148.37C140.061 151.181 145.983 153.765 151.823 156.52C157.043 158.982 162.076 161.801 166.978 164.847C170.757 167.196 174.54 169.539 178.285 171.941C178.831 172.293 179.376 172.645 179.921 173ZM46.5359 109.881C45.7402 110.286 45.5163 110.751 45.2373 111.154C44.5951 112.079 43.9615 113.011 43.3618 113.965C42.0606 116.03 40.79 118.107 39.8569 120.383C36.9551 127.457 34.5775 134.718 32.0871 141.94C31.9115 142.452 31.4237 143.146 31.8631 143.511C31.9938 143.619 32.1218 143.663 32.2482 143.663C32.674 143.663 33.0821 143.168 33.4867 142.967C34.4944 142.463 35.4809 141.918 36.4707 141.38C36.9661 141.111 37.4683 140.849 37.9339 140.536C39.1749 139.697 40.063 138.613 40.2649 137.065C40.354 136.382 40.4795 135.704 40.6025 135.026C41.0538 132.563 41.4015 130.074 41.9902 127.645C43.0946 123.081 44.3449 118.553 45.5248 114.007C45.8539 112.739 46.1499 111.462 46.5359 109.881Z" fill="#F5F7F9"/>
</svg>
