<svg width="398" height="248" viewBox="0 0 398 248" fill="none" xmlns="http://www.w3.org/2000/svg">
    <path opacity="0.7" fill-rule="evenodd" clip-rule="evenodd" d="M332.893 248H357.947C357.167 247.492 356.385 246.987 355.603 246.484C350.675 243.323 345.702 240.233 340.729 237.142L340.727 237.141L340.723 237.139L339.41 236.323C332.388 231.96 325.18 227.923 317.704 224.398C314.105 222.699 310.484 221.047 306.863 219.394L306.863 219.394L306.862 219.393L306.859 219.392C302.066 217.204 297.274 215.017 292.533 212.724C280.957 207.127 269.109 202.191 257.043 197.787C246.575 193.966 235.954 190.631 224.991 188.491C224.965 188.486 224.938 188.482 224.911 188.478C224.902 188.477 224.894 188.476 224.885 188.475C224.849 188.471 224.812 188.467 224.774 188.464C224.44 188.434 224.05 188.399 223.958 187.792C224.09 187.796 224.219 187.8 224.346 187.803L224.348 187.803L224.35 187.803C224.684 187.812 225 187.82 225.315 187.837C226.333 187.89 227.351 187.944 228.369 187.998L228.39 187.999L228.405 188L228.408 188C230.157 188.093 231.906 188.187 233.654 188.271C236.844 188.424 240.036 188.518 243.229 188.612C248.743 188.774 254.257 188.936 259.759 189.404C262.813 189.664 265.886 189.736 268.952 189.808L268.954 189.808L269.448 189.82C273.957 189.927 278.468 190.023 282.978 190.118L282.979 190.118L282.981 190.118C288.705 190.239 294.429 190.36 300.152 190.506C302.391 190.563 304.644 190.732 306.861 191.055C312.019 191.806 317.104 192.938 322.142 194.281C324.658 194.95 327.176 195.62 329.71 196.208C332.602 196.879 335.453 197.667 338.273 198.586C342.884 200.088 347.534 201.459 352.218 202.724C353.446 203.055 354.674 203.384 355.903 203.712L355.903 203.712L355.904 203.713C362.741 205.542 369.581 207.371 376.298 209.622C377.915 210.163 379.569 210.599 381.219 211.034C383.2 211.557 385.218 211.838 387.265 211.838C387.472 211.838 387.678 211.836 387.885 211.83C388.599 211.809 389.33 211.756 390.017 211.572C391.447 211.188 392.071 209.656 391.323 208.357C391.018 207.827 390.562 207.355 390.097 206.949C388.878 205.888 387.597 204.912 386.201 204.074C383.378 202.378 380.416 200.967 377.451 199.554L377.444 199.551C376.684 199.188 375.923 198.826 375.165 198.459C372.302 197.071 369.47 195.62 366.639 194.168L366.638 194.167L366.635 194.166C364.754 193.201 362.873 192.237 360.982 191.291C355.761 188.678 350.395 186.385 344.985 184.184C338.993 181.742 332.987 179.42 326.706 177.76C317.653 175.366 308.491 173.651 299.21 172.511C293.861 171.857 288.527 171.137 283.224 170.14C275.281 168.647 267.312 167.347 259.189 167.184C258.114 167.162 257.04 167.151 255.969 167.151C246.777 167.151 237.681 167.986 228.737 170.308C226.928 170.778 225.142 171.34 223.356 171.902C222.315 172.23 221.273 172.558 220.227 172.867C220.093 172.907 219.959 172.957 219.823 173.008C219.495 173.131 219.152 173.259 218.759 173.259C218.544 173.259 218.315 173.221 218.062 173.122C218.662 172.394 219.382 172.011 220.078 171.641C220.238 171.556 220.398 171.471 220.554 171.383C225.877 168.376 231.393 165.764 236.991 163.31C239.911 162.031 242.806 160.695 245.701 159.358L245.705 159.356L245.71 159.354C247.296 158.622 248.883 157.889 250.474 157.166C252.353 156.311 254.236 155.459 256.138 154.652C258.561 153.62 260.99 152.603 263.42 151.587C264.635 151.078 265.85 150.57 267.064 150.059C267.226 149.991 267.388 149.923 267.549 149.854C267.75 149.769 267.95 149.683 268.151 149.597C268.615 149.398 269.078 149.2 269.544 149.007C276.677 146.048 283.826 143.135 291.046 140.386C298.566 137.527 306.239 135.44 314.24 134.61C318.974 134.121 323.716 133.683 328.459 133.284C333.656 132.847 338.813 132.169 343.916 131.076C347.428 130.324 350.944 129.59 354.47 128.906C356.554 128.502 358.643 128.12 360.731 127.738L360.732 127.737C364.209 127.101 367.685 126.465 371.14 125.729C378.613 124.136 386.091 122.647 393.731 122.129C394.354 122.088 394.987 121.975 395.58 121.787C396.555 121.479 397.141 120.693 397.16 119.825C397.181 118.833 396.566 117.95 395.481 117.659C394.739 117.458 393.966 117.364 393.197 117.27C393.074 117.255 392.951 117.24 392.829 117.225C388.509 116.683 384.165 116.477 379.82 116.271L379.816 116.271C378.599 116.213 377.382 116.155 376.166 116.09C369.767 115.749 363.36 115.665 356.953 115.665C355.457 115.665 353.962 115.67 352.466 115.676C346.991 115.703 341.509 115.827 336.042 116.122C328.86 116.508 321.765 117.681 314.676 118.853L314.676 118.853C314.144 118.941 313.612 119.029 313.08 119.116C306.226 120.246 299.462 121.803 292.698 123.36C290.448 123.878 288.199 124.396 285.946 124.898C278.904 126.468 272.15 128.973 265.401 131.475L265.119 131.58L264.169 131.932C262.318 132.619 260.475 133.346 258.698 134.2C252.447 137.205 246.212 140.246 239.977 143.285L239.974 143.287L238.176 144.164L236.162 145.145C231.152 147.588 226.298 150.308 221.608 153.322C216.469 156.623 211.452 160.104 206.495 163.67C206.443 163.707 206.392 163.747 206.34 163.787C206.083 163.986 205.813 164.194 205.363 164.194C205.29 164.194 205.214 164.19 205.131 164.177C205.231 163.969 205.323 163.762 205.413 163.559C205.608 163.118 205.795 162.693 206.048 162.31C206.622 161.436 207.183 160.552 207.745 159.667C209.208 157.365 210.672 155.062 212.344 152.924C216.878 147.127 221.476 141.379 226.616 136.079L227.093 135.586L227.094 135.586C231.059 131.497 235.021 127.412 239.239 123.577C239.836 123.035 240.43 122.489 241.025 121.943C243.803 119.391 246.583 116.838 249.625 114.598C254.539 110.976 259.481 107.387 264.481 103.884C269.897 100.093 275.62 96.7917 281.341 93.4917L281.347 93.4883C282.392 92.8856 283.436 92.2829 284.479 91.6772C285.073 91.3324 285.668 90.9883 286.262 90.6442L286.267 90.641L286.268 90.6409C291.966 87.3419 297.662 84.045 302.92 80.0461C304.989 78.473 307.082 76.932 309.176 75.3909C314.241 71.6634 319.305 67.9355 324.02 63.7521L324.204 63.589C328.042 60.1827 331.872 56.784 334.931 52.619C335.018 52.5006 335.107 52.3836 335.197 52.2667L335.197 52.2665C335.598 51.7418 335.998 51.2182 336.197 50.5695C336.481 49.6389 336.382 48.7873 335.65 48.09C335.219 47.6781 334.719 47.4777 334.194 47.4777C333.933 47.4777 333.667 47.5263 333.399 47.6247C332.559 47.9308 331.743 48.3184 330.956 48.746C328.022 50.3374 325.093 51.9366 322.164 53.5357C319.654 54.9055 317.145 56.2752 314.634 57.6401C312.684 58.7003 310.721 59.7395 308.759 60.7785L308.757 60.7798L308.756 60.7801C304.685 62.9361 300.615 65.0918 296.654 67.4344C283.976 74.9278 271.469 82.7078 259.365 91.1136C249.38 98.0468 240.164 105.884 231.663 114.574C229.716 116.564 227.782 118.561 225.9 120.613C224.554 122.081 223.19 123.533 221.826 124.985L221.825 124.986C219.257 127.721 216.688 130.456 214.236 133.292C207.131 141.514 200.287 149.95 194.253 159.013C193.101 160.743 191.911 162.448 190.72 164.153L190.719 164.155L190.718 164.156C189.237 166.277 187.756 168.398 186.349 170.569L186.294 170.654L186.293 170.655C182.554 176.424 178.81 182.2 175.551 188.264C174.528 190.167 172.925 191.067 170.95 191.446C170.616 191.048 170.704 190.697 170.79 190.358L170.796 190.335C171.634 187.028 172.499 183.728 173.568 180.483C175.637 174.209 178.257 168.156 180.875 162.103C181.145 161.481 181.414 160.859 181.683 160.236C183.322 156.442 184.959 152.649 186.227 148.713C187.374 145.15 188.751 141.676 190.129 138.201L190.137 138.181L190.145 138.161C190.317 137.725 190.49 137.29 190.662 136.855C191.323 135.184 192.095 133.567 193.017 132.017C194.76 129.083 196.48 126.137 198.15 123.162C198.991 121.668 199.973 120.28 201.02 118.933C205.023 113.772 209.892 109.552 215.263 105.89C216.449 105.081 217.654 104.3 218.858 103.519L218.859 103.519L218.86 103.518L218.861 103.517C219.992 102.784 221.122 102.051 222.238 101.295C228.037 97.3665 233.764 93.3173 239.218 88.9328C244.23 84.902 249.114 80.7133 253.999 76.5246L253.999 76.5242L254.001 76.5232L254.003 76.5212C255.729 75.0413 257.454 73.5615 259.186 72.0886C259.933 71.452 260.613 70.7158 261.225 69.948C262.169 68.7623 262.243 67.5608 261.473 66.7735C261.003 66.2924 260.489 66.1054 259.958 66.1054C259.475 66.1054 258.977 66.2608 258.486 66.4941C257.27 67.0724 256.079 67.7041 254.891 68.3371C253.67 68.9875 252.422 69.5846 251.174 70.1817C249.345 71.0568 247.515 71.932 245.769 72.9755C238.903 77.0732 231.858 80.8466 224.737 84.4791C223.859 84.9262 222.962 85.3392 222.06 85.7402C222.031 85.7535 221.992 85.7596 221.95 85.7596C221.822 85.7596 221.662 85.7049 221.602 85.6296C221.516 85.5166 221.524 85.2919 221.563 85.1327C221.603 84.9663 221.71 84.8035 221.821 84.665C222.511 83.8005 223.142 82.8902 223.773 81.9798C225.032 80.1637 226.291 78.3476 228.014 76.8959C228.397 76.5736 228.722 76.1829 229.048 75.7919C229.242 75.5578 229.437 75.3236 229.645 75.1039C230.276 74.4347 230.904 73.7627 231.532 73.0906L231.532 73.0902L231.532 73.0901C233.172 71.3358 234.812 69.5814 236.5 67.8766C238.994 65.3565 241.516 62.8653 244.037 60.3743L244.04 60.3717L244.04 60.3715L244.04 60.3712C245.348 59.0795 246.655 57.7877 247.959 56.4921C248.635 55.8197 249.306 55.1421 249.976 54.4646L249.979 54.462L249.983 54.4574C250.888 53.5423 251.793 52.6274 252.713 51.7261C254.142 50.3244 255.579 48.9306 257.016 47.5368L257.018 47.5355L257.02 47.5327C258.61 45.9913 260.199 44.4498 261.778 42.8976C265.299 39.4376 268.815 35.974 272.295 32.4739C274.319 30.439 276.327 28.3798 278.238 26.2368C279.474 24.8509 280.64 23.4006 281.806 21.9505L281.806 21.9502L281.807 21.9497L281.807 21.9493L281.807 21.9488C282.274 21.3681 282.741 20.7875 283.212 20.211C283.839 19.442 284.413 18.6317 284.632 17.6403C284.96 16.1545 284.023 14.9579 282.691 14.9579C282.457 14.9579 282.211 14.9943 281.957 15.0733C281.323 15.269 280.735 15.6298 280.156 15.9855C280.045 16.0538 279.934 16.1219 279.823 16.1885C278.987 16.6897 278.158 17.203 277.329 17.7163L277.328 17.7166C275.943 18.5743 274.558 19.4319 273.141 20.2329C270.485 21.7319 267.816 23.21 265.148 24.6881L265.147 24.6888L265.146 24.689C261.924 26.4738 258.702 28.2587 255.501 30.0806C251.131 32.5687 246.812 35.1649 242.911 38.3649C237.205 43.0421 231.932 48.1653 227.268 53.8983C224.656 57.1108 222.196 60.4348 219.734 63.7608L219.734 63.7614L219.109 64.605C215.848 69.0104 212.436 73.3034 209.024 77.5958C208.077 78.7864 207.131 79.9769 206.188 81.1698C204.012 83.9227 202.057 86.8226 200.268 89.8331C198.295 93.1497 196.334 96.4772 194.47 99.8558C193.665 101.316 192.601 102.435 191.285 103.428C186.268 107.215 181.392 111.174 176.895 115.586C171.287 121.088 166.528 127.273 162.275 133.838C158.51 139.645 155.569 145.903 152.629 152.156C152.283 152.894 151.936 153.632 151.588 154.368C149.938 157.861 148.585 161.47 147.231 165.08L147.23 165.082C146.692 166.516 146.155 167.949 145.598 169.376C143.446 174.9 141.469 180.483 139.84 186.19C138.264 191.721 136.748 197.263 135.845 202.953C135.708 203.818 135.57 204.684 135.432 205.55L135.432 205.55C134.918 208.764 134.405 211.977 133.948 215.197C133.736 216.682 133.151 217.914 132.245 219.078C130.799 220.932 128.871 222.146 126.942 223.361C126.521 223.626 126.099 223.891 125.683 224.163C125.572 224.236 125.459 224.268 125.354 224.268C125.038 224.268 124.783 223.977 124.816 223.574C124.872 222.891 124.937 222.209 125.001 221.527C125.122 220.243 125.243 218.959 125.315 217.672C125.355 216.958 125.391 216.244 125.427 215.53C125.582 212.479 125.737 209.428 126.194 206.398C126.678 203.202 127.143 200 127.477 196.786C128.048 191.306 129.397 186.007 130.988 180.759C131.274 179.816 131.627 178.883 132.071 178.005C133.859 174.456 135.057 170.683 136.133 166.889C137.074 163.572 138.411 160.46 140.066 157.469C143.632 151.028 147.112 144.546 149.931 137.732C150.377 136.654 150.867 135.593 151.391 134.55C154.993 127.379 157.605 119.833 159.944 112.181C160.268 111.118 160.584 110.052 160.899 108.986L160.899 108.985L160.9 108.984C161.68 106.347 162.46 103.709 163.383 101.122C166.272 93.0192 169.222 84.9379 172.172 76.8567C173.225 73.9722 174.277 71.0876 175.328 68.2022C175.941 66.5123 176.433 64.7921 176.794 63.0256C177.689 58.6242 178.588 54.2251 179.578 49.8467C180.434 46.0596 181.376 42.2939 182.318 38.5275L182.318 38.527L182.318 38.5263L182.499 37.8036L182.765 36.7396L182.766 36.7379L182.767 36.7319C183.746 32.8208 184.726 28.908 185.789 25.0207C186.808 21.2971 187.888 17.5893 189.302 13.986C190.493 10.9561 191.278 7.80226 191.919 4.61564C192.06 3.92073 192.139 3.1906 192.1 2.48475C192.047 1.52622 191.558 0.771782 190.631 0.403675C190.324 0.280973 190.023 0.222656 189.731 0.222656C189.141 0.222656 188.594 0.465639 188.141 0.917572C187.578 1.48006 187.108 2.15674 186.692 2.84071C183.798 7.59938 180.767 12.2439 177.199 16.5518C175.158 19.0166 173.278 21.6125 171.397 24.2087C170.432 25.5409 169.467 26.8732 168.481 28.1879C166.601 30.6893 164.712 33.2041 163.065 35.8938C156.328 46.8982 150.974 58.5355 146.828 70.7377C144.942 76.2893 143.547 81.9779 142.153 87.6663L142.153 87.6677C141.644 89.7427 141.135 91.8176 140.603 93.8859C139.631 97.658 138.679 101.435 137.727 105.212L137.727 105.213L137.727 105.214C136.441 110.318 135.155 115.422 133.819 120.514C132.679 124.854 131.434 129.176 130.026 133.436C127.264 141.799 124.93 150.279 122.852 158.833C122.258 161.276 121.658 163.718 120.975 166.138C118.557 174.701 116.55 183.36 115.1 192.139C114.13 198.015 113.653 203.952 113.176 209.884L113.176 209.889L113.175 209.893C113.113 210.672 113.05 211.451 112.986 212.229C112.642 216.427 112.354 220.629 112.066 224.832C111.954 226.467 111.842 228.102 111.726 229.737C111.707 229.914 111.687 230.09 111.667 230.267L111.649 230.431C111.633 230.571 111.617 230.711 111.601 230.852C111.516 231.631 111.452 232.421 111.43 233.207C111.414 233.362 111.399 233.517 111.383 233.672C111.31 234.403 111.237 235.134 111.137 235.861C111.001 236.848 110.75 237.839 110.018 238.557C109.007 239.551 108.073 240.613 107.138 241.675L107.137 241.676C106.117 242.835 105.096 243.996 103.973 245.07C103.128 245.878 102.274 246.676 101.42 247.475L100.858 248H185.842C183.077 246.974 180.277 246.037 177.431 245.216C170.686 243.271 163.825 241.768 156.829 241.217C150.381 240.711 143.926 240.214 137.46 240.214C134.055 240.214 130.647 240.351 127.237 240.699C127.175 240.705 127.113 240.714 127.05 240.722C126.921 240.74 126.789 240.758 126.66 240.758C126.42 240.758 126.191 240.695 126.01 240.448C125.982 240.079 126.211 239.865 126.432 239.657L126.433 239.656C126.465 239.626 126.498 239.595 126.53 239.564C127.072 239.03 127.609 238.492 128.147 237.953L128.148 237.951C129.513 236.584 130.877 235.216 132.315 233.929C134.051 232.377 135.919 230.966 137.782 229.563C139.457 228.301 141.31 227.553 143.386 227.553C143.696 227.553 144.009 227.568 144.329 227.602C144.999 227.674 145.672 227.723 146.344 227.772C147.374 227.848 148.403 227.923 149.419 228.08C155.652 229.041 161.725 230.642 167.653 232.784C177.033 236.171 186.531 239.19 196.131 241.886C201.767 243.469 207.301 245.291 212.519 248H241.032C239.061 246.57 237.082 245.152 235.087 243.754C234.535 243.367 233.984 242.98 233.433 242.593C229.061 239.525 224.692 236.458 220.153 233.64C216.335 231.272 212.472 228.956 208.174 227.549C201.773 225.457 195.359 223.375 188.762 221.976C183.756 220.917 178.718 219.991 173.669 219.159C167.286 218.108 160.862 217.367 154.393 217.065C154.352 217.063 154.311 217.061 154.27 217.06C154.204 217.058 154.138 217.057 154.071 217.056H154.069C153.496 217.047 152.88 217.036 152.215 216.577C152.997 216.148 153.764 215.735 154.518 215.329C156.132 214.461 157.685 213.625 159.201 212.729C162.094 211.019 165.18 210.299 168.462 210.299C168.818 210.299 169.175 210.307 169.536 210.324C174.672 210.561 179.707 211.477 184.72 212.511C195.393 214.714 205.743 218.016 215.857 222.033C220.145 223.737 224.372 225.6 228.597 227.463L228.599 227.463L228.604 227.466C229.882 228.029 231.16 228.592 232.44 229.151C244.297 234.327 256.079 239.653 266.853 246.924C267.385 247.282 267.917 247.641 268.448 248H293.701C291.691 246.543 289.651 245.126 287.574 243.753C282.475 240.383 277.318 237.133 271.928 234.26C259.47 227.617 246.589 221.908 233.456 216.745C222.578 212.469 211.507 208.791 200.183 205.886C193.737 204.234 187.198 203.056 180.615 202.124C179.814 202.01 179.02 201.864 178.228 201.711C177.965 201.66 177.661 201.502 177.705 201.214C177.737 200.999 177.96 200.761 178.163 200.631C178.615 200.342 179.096 200.094 179.583 199.866C182.431 198.534 185.308 197.28 188.239 196.135C191.044 195.039 193.889 194.536 196.809 194.536C197.735 194.536 198.668 194.587 199.609 194.685C205.427 195.29 211.143 196.391 216.822 197.801C225.902 200.059 234.781 202.926 243.523 206.229C260.941 212.812 277.651 220.945 294.224 229.377L295.842 230.201L295.844 230.202L295.844 230.202C302.024 233.35 308.203 236.498 314.526 239.364C320.687 242.155 326.819 245.024 332.893 248ZM165.208 159.182C165.549 158.665 165.922 158.1 166.907 157.599C166.73 158.326 166.566 159.008 166.409 159.659L166.409 159.66C166.077 161.037 165.779 162.275 165.459 163.508C164.909 165.628 164.348 167.745 163.787 169.862C162.625 174.247 161.464 178.632 160.397 183.041C159.807 185.474 159.386 187.95 158.965 190.425L158.965 190.426L158.965 190.426L158.965 190.427C158.784 191.49 158.603 192.553 158.409 193.613L158.376 193.798C158.21 194.707 158.045 195.616 157.926 196.532C157.637 198.749 156.365 200.303 154.587 201.503C153.999 201.899 153.371 202.238 152.744 202.576L152.492 202.712L151.941 203.012L151.94 203.013C150.707 203.685 149.474 204.357 148.218 204.985C148.007 205.09 147.796 205.251 147.583 205.412C147.21 205.695 146.832 205.982 146.444 205.982C146.263 205.982 146.08 205.919 145.892 205.765C145.407 205.362 145.712 204.677 145.992 204.048C146.075 203.863 146.156 203.682 146.213 203.515C146.842 201.69 147.466 199.864 148.091 198.038L148.092 198.034L148.093 198.03L148.093 198.03L148.093 198.03C151.007 189.506 153.92 180.982 157.341 172.64C158.678 169.381 160.498 166.405 162.361 163.447C163.22 162.082 164.128 160.747 165.047 159.421C165.069 159.39 165.09 159.359 165.111 159.328C165.143 159.28 165.176 159.231 165.208 159.182ZM82.5999 247.998H93.2325C93.4293 247.281 93.6395 246.567 93.8691 245.859C94.1491 244.992 94.4381 244.127 94.727 243.262L94.7271 243.262L94.7272 243.261C95.4351 241.143 96.143 239.025 96.7192 236.871C98.5537 230.019 100.282 223.138 102.003 216.256C103.027 212.16 104.083 208.075 105.365 204.052C106.104 201.737 106.664 199.38 107.133 197.001C108.738 188.889 110.681 180.868 113.271 173.009C113.747 171.56 114.162 170.088 114.518 168.605C115.929 162.751 116.924 156.814 117.914 150.883C118.728 146.013 119.178 141.096 119.628 136.18L119.628 136.179L119.628 136.178C119.841 133.848 120.054 131.519 120.306 129.194C120.413 128.215 120.443 127.221 120.449 126.236C120.476 120.847 120.5 115.46 120.497 110.073C120.489 102.251 120.849 94.4498 121.967 86.7014C122.788 81.0109 123.405 75.3241 123.53 69.5522C123.703 61.5984 122.713 53.7831 121.606 45.9593C121.48 45.0701 121.278 44.1917 121.073 43.317C120.951 42.7958 120.815 42.2625 120.578 41.7874C120.153 40.9407 119.48 40.3527 118.472 40.3466H118.457C117.445 40.3466 116.746 40.9249 116.405 41.8093C116.052 42.7241 115.787 43.6887 115.629 44.657C115.324 46.523 114.888 48.3502 114.352 50.164C113.996 51.3668 113.693 52.595 113.488 53.8329C112.443 60.1211 111.405 66.4118 110.43 72.7121C110.014 75.4011 109.627 78.0946 109.239 80.7882C108.809 83.7839 108.378 86.7796 107.907 89.7689C107.545 92.0611 107.131 94.3448 106.717 96.6286C106.042 100.353 105.368 104.078 104.917 107.84C104.042 115.153 103.176 122.464 102.331 129.78C102.201 130.91 102.098 132.042 101.995 133.175L101.995 133.176L101.995 133.176C101.863 134.636 101.731 136.096 101.54 137.549C100.985 141.756 100.402 145.96 99.819 150.164L99.8174 150.175C99.4633 152.728 99.1092 155.281 98.7614 157.835C97.6219 166.202 96.2563 174.525 94.3259 182.757C92.8911 188.875 91.6119 195.033 90.3545 201.192C89.2587 206.559 88.1859 211.933 87.2881 217.335C86.6654 221.08 86.173 224.845 85.6805 228.61C85.0202 233.659 84.3597 238.709 83.3848 243.714C83.1065 245.139 82.8454 246.568 82.5999 247.998ZM56.1206 247.998H40.9687C40.4953 243.183 40.0666 238.364 39.6378 233.546L39.6378 233.545L39.6377 233.545C39.359 230.412 39.0802 227.279 38.7892 224.147C38.008 215.736 37.8914 207.295 38.9848 198.872C39.608 194.062 39.9713 189.223 40.0624 184.368C40.0916 182.844 40.1973 181.316 40.3552 179.8L40.4956 178.445C41.4208 169.514 42.3465 160.578 44.199 151.785C45.4006 146.077 46.9192 140.419 49.3416 135.079C54.7211 123.212 59.4421 111.079 64.1376 98.9351C65.3707 95.7431 66.2608 92.4422 67.151 89.1412L67.2878 88.6342L67.3485 88.4083C67.5609 87.6168 67.7776 86.8092 68.1503 86.0927C68.567 85.2921 69.2862 84.89 70.0127 84.89C70.7088 84.89 71.4098 85.2593 71.8545 85.9991C72.1679 86.5203 72.3647 87.1594 72.4388 87.7656C72.5785 88.9209 72.6915 90.0969 72.6393 91.2559C72.5687 92.8058 72.5163 94.3563 72.4639 95.9068C72.3132 100.365 72.1625 104.823 71.5811 109.264C70.7392 115.686 70.6809 122.157 70.7246 128.63C70.7418 131.266 70.741 133.902 70.7402 136.538C70.7394 138.93 70.7387 141.322 70.7514 143.713C70.7561 144.562 70.7996 145.412 70.8431 146.261V146.261L70.8432 146.261C70.8778 146.937 70.9125 147.613 70.9275 148.289C70.9383 148.748 70.9525 149.207 70.9668 149.666V149.666V149.666C71.014 151.183 71.0612 152.701 70.981 154.212C70.8824 156.095 70.8 157.979 70.7176 159.863L70.7175 159.864V159.865C70.4861 165.155 70.2547 170.447 69.6653 175.718C69.166 180.19 68.465 184.603 67.1371 188.922C66.1306 192.198 65.3035 195.531 64.4778 198.859L64.4776 198.86L64.4255 199.07C61.6775 210.146 59.5721 221.356 57.6745 232.602C57.1533 235.696 56.852 238.834 56.5981 241.965L56.5976 241.971C56.435 243.979 56.2723 245.988 56.1206 247.998ZM0 247.996H17.2281L17.2609 247.878C17.5901 246.689 17.9346 245.503 18.279 244.317C18.8613 242.313 19.4435 240.308 19.9519 238.285L19.9926 238.122C20.5924 235.735 21.191 233.352 21.9929 231.027C24.2173 224.572 26.3555 218.095 28.0782 211.483C28.5358 209.729 29.0536 207.989 29.5714 206.25C30.207 204.115 30.8427 201.98 31.3669 199.817C33.6763 190.278 35.0965 180.606 35.2642 170.773C35.265 170.723 35.2658 170.672 35.2667 170.622C35.2764 170.044 35.2863 169.459 35.1913 168.895C35.0261 167.918 34.4028 167.38 33.5962 167.38C33.2742 167.38 32.9219 167.466 32.5587 167.644C31.899 167.966 31.3389 168.416 30.9113 169.001C30.8378 169.101 30.7639 169.201 30.6899 169.301C30.1761 169.995 29.6593 170.692 29.2408 171.442C27.0516 175.359 24.8855 179.291 22.7473 183.237C19.1088 189.952 15.7411 196.794 12.9251 203.905C11.6083 207.233 10.2237 210.533 8.83919 213.834C8.07002 215.668 7.30086 217.501 6.54332 219.34C6.03064 220.584 5.56655 221.851 5.11948 223.12C2.60104 230.272 1.06544 237.65 0.287925 245.179L0 247.996Z" fill="#F5F7F9"/>
</svg>
