<svg width="519" height="327" viewBox="0 0 519 327" fill="none" xmlns="http://www.w3.org/2000/svg">
    <path opacity="0.7" fill-rule="evenodd" clip-rule="evenodd" d="M279.188 326.551C278.832 326.551 278.462 326.485 278.084 326.35C276.843 325.902 276.165 324.926 276.054 323.662C275.972 322.73 276.046 321.761 276.202 320.836C276.913 316.596 277.816 312.395 279.259 308.34C280.973 303.515 282.244 298.57 283.431 293.604C284.784 287.947 286.003 282.255 287.234 276.568C288.389 271.229 289.549 265.89 290.581 260.526C291.7 254.695 292.701 248.842 293.697 242.988C294.098 240.637 294.674 238.342 295.413 236.083C300.22 221.411 305.082 206.761 309.794 192.06C311.349 187.202 312.533 182.224 313.867 177.295C316.632 167.081 319.761 156.994 324.215 147.363C324.862 145.963 325.465 144.538 326.008 143.096C329.443 133.967 333.768 125.251 338.204 116.587C340.263 112.562 341.897 108.391 343.001 103.968C344.261 98.9075 345.682 93.8675 347.895 89.1007C348.441 87.9215 348.87 86.6716 349.207 85.4136C351.085 78.4088 352.642 71.3478 353.163 64.0811C353.466 59.8188 353.945 55.5661 354.448 51.3198C355.034 46.3538 355.009 41.3669 355.128 36.3816C355.189 33.7725 355.402 31.1665 355.534 28.559C355.561 28.0353 355.224 27.6658 354.818 27.6658C354.671 27.6658 354.516 27.7123 354.364 27.8184C351.359 29.9214 348.141 31.7578 345.909 34.82C344.76 36.3977 344.039 38.0508 343.824 40.0205C343.231 45.4509 342.517 50.8667 341.838 56.2874C340.888 63.8465 339.121 71.2353 337.273 78.6128C335.366 86.2265 332.99 93.6908 330.381 101.086C328.011 107.802 325.945 114.628 323.108 121.177C319.046 130.546 315.146 140.006 309.86 148.77C304.518 157.629 298.492 166.007 291.316 173.518C285.56 179.543 279.285 184.983 272.815 190.204C271.118 191.573 269.761 193.098 268.758 195.063C266.438 199.606 263.99 204.089 261.525 208.558C259.287 212.613 256.828 216.529 254.067 220.261C248.563 227.707 242.962 235.091 237.699 242.707C234.322 247.591 230.968 252.483 227.372 257.21C221.452 264.986 214.701 271.982 207.36 278.409C202.341 282.804 196.744 286.421 191.072 289.896C183.481 294.55 175.787 299.042 168.178 303.666C165.238 305.456 162.414 307.432 159.52 309.299C158.629 309.874 157.734 310.523 156.746 310.864C156.381 310.991 156.026 311.049 155.688 311.049C153.976 311.049 152.737 309.527 153.1 307.585C153.349 306.264 154.071 305.17 154.867 304.126C156.961 301.39 158.979 298.589 161.186 295.948C163.619 293.035 166.184 290.227 168.773 287.451C173.225 282.676 177.723 277.948 182.228 273.224C186.079 269.188 189.98 265.201 193.834 261.168C195.884 259.023 197.875 256.826 199.912 254.666C204.798 249.485 209.728 244.349 214.572 239.129C217.559 235.911 220.417 232.574 223.323 229.282C224.032 228.482 224.615 227.552 225.402 226.843C228.728 223.852 230.638 219.819 233.257 216.309C233.398 216.122 233.53 215.904 233.577 215.68C233.62 215.47 233.623 215.171 233.503 215.027C233.426 214.933 233.223 214.869 233.058 214.869C232.995 214.869 232.937 214.879 232.894 214.898C231.721 215.468 230.551 216.052 229.411 216.681C220.153 221.786 211.002 227.074 202.103 232.784C198.294 235.23 194.157 237.056 190.243 239.306C188.701 240.192 187.154 241.079 185.571 241.894C184.901 242.239 184.217 242.474 183.547 242.474C182.879 242.474 182.223 242.241 181.609 241.653C180.56 240.645 180.604 239.055 181.804 237.447C182.578 236.404 183.447 235.403 184.408 234.531C192.933 226.787 201.347 218.913 210.08 211.413C217.101 205.384 224.498 199.786 231.994 194.345C234.973 192.182 238.045 190.147 241.017 187.976C247.959 182.906 254.215 177.119 259.286 170.127C260.611 168.3 261.851 166.427 262.897 164.414C264.979 160.412 267.126 156.442 269.303 152.491C270.456 150.402 271.407 148.232 272.211 145.995C274.092 140.74 276.025 135.504 277.564 130.132C279.073 124.875 281.076 119.792 283.078 114.707C286.603 105.758 290.218 96.843 292.939 87.5986C294.213 83.2639 295.214 78.8667 296.181 74.4565C296.284 73.9987 296.401 73.5215 295.931 72.9961C293.338 73.5809 291.255 74.8405 289.986 77.3998C285.917 85.5951 281.188 93.4257 276.468 101.25C273.282 106.532 269.769 111.616 266.517 116.861C258.929 129.099 250.244 140.541 241.202 151.712C236.427 157.611 231.279 163.21 226.328 168.97C223.927 171.761 221.458 174.484 218.969 177.197C208.104 189.048 196.258 199.801 183.356 209.392C167.717 221.021 151.519 231.836 135.084 242.284C127.47 247.123 119.524 251.432 111.737 255.997C104.667 260.14 97.6145 264.312 90.5422 268.453C89.522 269.05 88.4584 269.598 87.3611 270.038C86.9819 270.191 86.6028 270.268 86.2301 270.268C85.5666 270.268 84.9287 270.022 84.3648 269.519C83.3687 268.629 83.2016 267.506 83.539 266.266C83.8233 265.206 84.5191 264.381 85.1231 263.503C89.0497 257.777 94.0623 253.061 99.0685 248.32C107.624 240.22 117.143 233.294 126.26 225.881C133.75 219.795 141.979 214.818 150.139 209.72C158.898 204.246 167.772 198.932 176.049 192.73C182.509 187.888 188.887 182.931 195.227 177.935C199.991 174.182 204.226 169.838 208.571 165.622C214.199 160.163 219.448 154.356 224.719 148.558C231.287 141.332 237.121 133.539 242.864 125.683C245.798 121.673 248.189 117.261 250.785 113.009C251.248 112.254 251.526 111.384 251.918 110.499C251.833 110.489 251.752 110.486 251.675 110.486C250.917 110.486 250.55 110.91 250.136 111.229C243.737 116.156 237.254 120.969 230.603 125.553C224.531 129.735 218.232 133.541 211.716 136.982C201.951 142.14 192.189 147.308 182.397 152.412C180.083 153.617 177.678 154.658 175.262 155.645C165.913 159.456 156.582 163.352 146.78 165.872C134.936 168.917 123.169 172.294 111.161 174.673C101.144 176.658 91.1286 178.735 80.9395 179.615C73.7243 180.237 66.4865 180.637 59.2504 180.905C51.2623 181.201 43.2678 181.445 35.2734 181.445C32.8169 181.445 30.362 181.423 27.9071 181.371C20.5472 181.215 13.1761 181.264 5.83229 180.586C4.65465 180.475 3.45774 180.393 2.30902 180.125C0.86468 179.784 0.0131771 178.645 0.000160428 177.332C-0.0125285 176.184 0.728115 175.12 2.00376 174.672C2.77975 174.399 3.612 174.222 4.43137 174.14C14.508 173.129 24.3292 170.842 34.1375 168.416C41.3993 166.623 48.7399 165.165 56.0355 163.504C60.6674 162.45 65.2831 161.329 69.8925 160.185C76.5904 158.522 83.3783 157.406 90.2289 156.605C96.4802 155.878 102.73 155.095 108.967 154.245C119.506 152.807 129.559 149.721 139.375 145.618C148.803 141.679 158.126 137.522 167.426 133.307C168.509 132.816 169.581 132.302 170.66 131.808C175.41 129.629 180.168 127.473 184.908 125.272C187.385 124.122 189.838 122.918 192.285 121.707C198.141 118.81 203.951 115.822 209.844 113.009C217.138 109.526 224.318 105.837 231.223 101.637C232.306 100.978 233.506 100.447 234.443 99.2288C234.137 99.1211 233.856 99.0778 233.594 99.0778C232.82 99.0778 232.211 99.4553 231.593 99.661C227.873 100.893 224.207 102.301 220.452 103.408C207.365 107.26 193.945 108.671 180.339 108.836C179.86 108.843 179.383 108.846 178.904 108.846C168.652 108.846 158.534 107.519 148.441 105.957C141.39 104.866 134.309 104.145 127.211 103.506C114.895 102.399 102.712 100.522 90.6434 97.7459C82.273 95.818 74.2352 93.0064 66.2085 90.0358C58.966 87.356 51.7748 84.5573 44.762 81.3264C38.3982 78.3959 32.1067 75.308 25.7076 72.4579C20.7191 70.236 15.6632 68.1747 10.8803 65.5077C9.00217 64.4602 7.26542 63.2248 5.60901 61.8736C4.97762 61.3563 4.35422 60.7538 3.92847 60.0662C2.88418 58.3808 3.64573 56.3292 5.51742 55.7605C6.41712 55.4873 7.38267 55.3861 8.32575 55.3283C8.92019 55.2929 9.51465 55.2753 10.1075 55.2753C12.4853 55.2753 14.8438 55.5596 17.1701 56.0946C19.3696 56.6007 21.5739 57.1052 23.7331 57.7527C34.3223 60.9225 45.109 63.3115 55.8572 65.8403C62.1037 67.3104 68.3052 68.925 74.4649 70.7131C78.2324 71.8072 82.0352 72.7262 85.8847 73.4894C89.2601 74.1593 92.6179 74.9353 95.9725 75.7145C102.687 77.2713 109.457 78.5502 116.307 79.3229C119.043 79.6314 121.813 79.7648 124.57 79.7648C124.779 79.7648 124.988 79.7632 125.197 79.7616C138.736 79.67 152.273 79.4724 165.81 79.3567C167.577 79.3422 169.346 79.3246 171.113 79.3246C173.623 79.3246 176.131 79.3599 178.634 79.4916C184.268 79.7873 189.903 79.8419 195.54 79.8419C197.2 79.8419 198.863 79.8371 200.522 79.8322C202.179 79.8274 203.834 79.8226 205.49 79.8226C208.056 79.8226 210.622 79.8338 213.187 79.874C216.866 79.9318 220.547 80.0202 224.228 80.0909C224.443 80.0957 224.658 80.0957 224.878 80.0957C225.246 80.0957 225.622 80.0925 226.022 80.0925C225.842 79.1109 225.103 79.2908 224.628 79.2137C210.048 76.8536 195.865 72.8981 181.868 68.2968C165.73 62.9902 149.858 56.9735 134.319 50.0699C123.143 45.1055 111.775 40.5748 100.55 35.7181C90.5165 31.3754 80.8174 26.3483 71.3497 20.8811C64.0525 16.6685 56.7489 12.4608 49.5127 8.14388C45.0544 5.48335 40.641 2.7473 36.2357 0H68.0738C71.1569 1.38489 74.2271 2.79389 77.3053 4.19163C86.1674 8.21939 95.1162 12.0704 104.11 15.7994C113.33 19.6247 122.342 23.8967 131.371 28.1301C153.637 38.5698 176.071 48.6046 199.374 56.5606C211.07 60.553 222.928 63.9622 235.029 66.5569C242.593 68.1795 250.195 69.3909 257.912 69.9404C258.784 70.003 259.65 70.0352 260.511 70.0352C264.764 70.0352 268.869 69.2576 272.878 67.5385C276.703 65.8981 280.453 64.118 284.159 62.2383C284.794 61.9138 285.42 61.5667 286.005 61.1635C286.267 60.9851 286.551 60.6606 286.583 60.373C286.63 59.9923 286.222 59.7963 285.873 59.74C284.819 59.5713 283.762 59.4123 282.7 59.2982C273.957 58.3471 265.265 57.0682 256.675 55.1596C241.584 51.805 226.794 47.4174 212.231 42.2296C194.652 35.9671 177.382 28.9719 160.632 20.7252C153.385 17.1569 146.43 13.0826 139.547 8.84597C135 6.04726 130.572 3.0879 126.239 0H160.826C162.814 1.26119 164.806 2.51594 166.8 3.7707C181.349 12.9187 197.152 19.4544 213.044 25.7892C220.435 28.7341 227.788 31.7931 235.267 34.4874C248.807 39.3667 262.629 43.2868 276.83 45.7417C283.499 46.8952 290.193 47.8913 296.993 47.9845C297.137 47.9861 297.28 47.9877 297.425 47.9877C302.137 47.9877 306.515 46.9273 310.549 44.3648C313.436 42.5317 316.428 40.8656 319.62 38.9795C318.846 38.4814 318.136 38.4204 317.47 38.4204C317.363 38.4204 317.257 38.422 317.151 38.4236C317.045 38.4252 316.939 38.4268 316.834 38.4268C316.796 38.4268 316.757 38.4268 316.719 38.4252C308.157 38.3031 299.632 37.5994 291.151 36.4828C284.442 35.5992 277.742 34.5918 271.083 33.4045C262.303 31.8397 253.736 29.3607 245.186 26.8689C239.444 25.1948 234.24 22.2965 229.093 19.3291C222.2 15.3543 215.578 10.9506 208.92 6.59994C205.607 4.43423 202.323 2.22836 199.056 0H238.519C245.546 3.37066 252.956 5.54922 260.491 7.40485C273.295 10.557 285.978 14.1413 298.521 18.2173C306.449 20.7943 314.545 22.6515 322.822 23.6557C325.057 23.9272 327.324 23.8999 329.57 24.0686C329.867 24.0894 330.159 24.1007 330.45 24.1007C333.348 24.1007 335.884 23.0146 338.141 21.1992C340.543 19.2648 342.953 17.3192 345.181 15.1921C347.753 12.7356 350.131 10.0766 352.584 7.49803C352.899 7.16867 353.294 6.86663 353.237 6.30753C353 6.00549 352.716 5.92356 352.419 5.92356C352.147 5.92356 351.866 5.99264 351.603 6.02799C345.083 6.90519 338.552 7.20081 332.017 7.20081C325.5 7.20081 318.981 6.9068 312.467 6.60636C303.197 6.1774 294.064 4.48564 285.067 2.20266C282.446 1.53913 279.853 0.80009 277.283 0H381.455C379.015 2.62519 376.924 5.53315 374.454 8.123C373.517 9.10303 373.226 10.4237 373.09 11.7346C372.966 12.9043 372.897 14.0787 372.816 15.2547C372.82 16.2958 372.77 17.3417 372.689 18.3748C372.652 18.868 372.611 19.3612 372.572 19.8528C372.278 27.5854 372.039 35.3212 371.658 43.0474C371.218 51.9432 370.888 60.8566 369.72 69.6946C368.18 81.3585 365.897 92.8891 363.067 104.312C362.269 107.538 361.58 110.793 360.899 114.047C358.518 125.442 355.796 136.749 352.502 147.923C350.824 153.614 349.362 159.379 348.041 165.165C345.348 176.974 342.853 188.829 340.212 200.651C337.911 210.963 336.052 221.387 332.973 231.512C328.015 247.817 321.435 263.427 313.004 278.261C310.94 281.887 308.551 285.291 306.174 288.678C302.494 293.927 299.07 299.368 295.148 304.433C290.616 310.279 286.808 316.548 283.185 322.96C282.665 323.882 282.074 324.795 281.354 325.563C280.75 326.205 280.004 326.551 279.188 326.551ZM327.733 52.7352C326.914 52.7352 326.162 53.7169 325.397 54.1298C323.523 55.1451 321.688 56.2376 319.847 57.3157C318.924 57.8539 317.991 58.3825 317.128 59.0042C314.829 60.667 313.214 62.7733 312.928 65.7182C312.802 67.0147 312.606 68.3064 312.413 69.5982C311.711 74.2878 311.206 79.0209 310.239 83.656C308.427 92.3638 306.338 101.012 304.383 109.689C303.838 112.109 303.355 114.543 302.72 117.56C304.203 116.747 304.598 115.854 305.103 115.073C306.26 113.282 307.402 111.479 308.48 109.638C310.816 105.647 313.092 101.637 314.722 97.2719C319.781 83.7026 323.839 69.8086 328.111 55.987C328.411 55.0086 329.292 53.6638 328.439 53.0003C328.198 52.8123 327.963 52.7352 327.733 52.7352ZM371.677 270.467C370.394 270.467 369.505 269.728 368.92 268.652C368.586 268.035 368.384 267.334 368.201 266.652C367.894 265.504 367.588 264.351 367.384 263.181C365.587 252.888 363.943 242.601 363.832 232.079C363.75 224.446 364.324 216.903 365.164 209.347C366.311 199.057 366.453 188.731 366.109 178.391C365.874 171.272 365.675 164.15 365.481 157.028C365.445 155.723 365.444 154.411 365.543 153.11C366.271 143.518 366.499 133.88 367.778 124.34C368.834 116.458 369.896 108.568 371.509 100.771C371.917 98.7966 372.402 96.8317 372.971 94.8974C376.057 84.3998 378.282 73.7127 380.056 62.9227C380.575 59.7593 381.214 56.62 382.091 53.5273C383.614 48.1564 384.837 42.71 386.013 37.2524C387.992 28.0819 389.986 18.9146 392.116 9.77941C392.884 6.48587 393.884 3.24695 394.848 0H409.474C409.466 0.0546246 409.457 0.109249 409.449 0.163874C407.574 11.7877 406.968 23.5464 405.416 35.1975C404.462 42.3758 403.273 49.5268 402.053 56.6666C400.656 64.8603 399.229 73.054 397.592 81.2027C395.392 92.1645 393.945 103.224 392.796 114.332C391.867 123.312 390.879 132.283 389.991 141.264C389.654 144.689 389.56 148.137 389.276 151.569C388.473 161.273 387.642 170.975 386.797 180.677C386.097 188.728 384.618 196.677 383.619 204.69C382.678 212.233 381.932 219.798 381.012 227.343C379.991 235.713 378.888 244.071 377.778 252.428C377.557 254.073 377.212 255.711 376.793 257.314C376.161 259.734 375.665 262.166 375.339 264.647C375.173 265.933 374.863 267.222 374.436 268.446C374.02 269.635 373.114 270.43 371.766 270.467C371.737 270.467 371.706 270.467 371.677 270.467ZM433.817 209.521C432.924 209.521 432.021 209.061 431.42 208.133C430.983 207.456 430.696 206.621 430.572 205.824C430.339 204.301 430.138 202.752 430.159 201.218C430.264 193.267 430.008 185.314 430.787 177.369C431.624 168.846 431.425 160.288 431.093 151.737C430.834 145.093 430.661 138.444 430.411 131.8C430.334 129.783 430.093 127.775 429.981 125.76C429.836 123.154 429.603 120.54 429.658 117.935C429.848 108.438 429.727 98.9348 430.479 89.4526C430.948 83.521 431.684 77.6569 433.254 71.8908C434.47 67.426 435.437 62.8906 436.406 58.3632C439.563 43.6049 441.868 28.7004 443.894 13.7525C444.453 9.64124 444.713 5.48013 444.918 1.33188C444.94 0.888453 444.961 0.443423 444.982 0H466.253C467.261 8.03785 468.208 16.0837 469.217 24.12C470.61 35.2056 471.126 46.357 470.042 57.5374C469.421 63.9204 469.148 70.3308 469.235 76.754C469.264 78.7703 469.189 80.793 469.044 82.8045C468.157 95.246 467.339 107.704 465.162 119.997C463.818 127.593 462.052 135.135 459.078 142.299C452.475 158.212 446.754 174.452 441.068 190.704C439.497 195.193 438.432 199.828 437.342 204.455C437.071 205.605 436.819 206.794 436.313 207.85C435.781 208.957 434.806 209.521 433.817 209.521ZM478.436 98.9316C477.406 98.9316 476.593 98.2488 476.341 96.9956C476.177 96.1907 476.177 95.344 476.163 94.515C475.964 81.5127 477.427 68.6679 480.073 55.9597C481.163 50.7334 482.74 45.6083 483.921 40.3997C485.915 31.5875 488.465 22.9343 491.128 14.3084C492.11 11.1306 492.81 7.8804 493.516 4.62702C493.852 3.07986 494.219 1.53752 494.603 0H518.736C517.853 8.15192 516.252 16.1801 513.77 24.0364C513.232 25.733 512.674 27.428 512.048 29.094C509.466 35.988 506.759 42.8385 504.272 49.7678C500.856 59.287 496.698 68.4751 492.174 77.5059C489.517 82.8141 486.821 88.1014 484.096 93.3759C483.5 94.5279 482.731 95.5979 481.993 96.6711C481.452 97.4631 480.73 98.0801 479.872 98.5347C479.371 98.803 478.883 98.9316 478.436 98.9316Z" fill="#F5F7F9"/>
</svg>
