<svg width="217" height="139" viewBox="0 0 217 139" fill="none" xmlns="http://www.w3.org/2000/svg">
<path fill-rule="evenodd" clip-rule="evenodd" d="M171.429 173H188.921C188.376 172.645 187.831 172.293 187.285 171.941C183.844 169.734 180.371 167.577 176.899 165.419L176.898 165.418L176.896 165.417L175.978 164.847C171.076 161.801 166.043 158.982 160.823 156.52C158.31 155.335 155.782 154.181 153.254 153.027L153.254 153.027L153.253 153.026L153.251 153.026C149.905 151.498 146.559 149.971 143.248 148.37C135.166 144.462 126.894 141.016 118.469 137.941C111.161 135.273 103.744 132.945 96.09 131.45C96.0794 131.448 96.0686 131.446 96.0576 131.444C96.0445 131.442 96.0311 131.441 96.0175 131.439C95.9921 131.436 95.9658 131.434 95.939 131.432C95.7058 131.411 95.4332 131.386 95.369 130.962C95.4614 130.965 95.5513 130.968 95.6396 130.97L95.641 130.97L95.6428 130.97C95.8757 130.976 96.0963 130.982 96.3165 130.994C97.0275 131.03 97.7384 131.068 98.4491 131.106L98.4637 131.107L98.4743 131.108L98.4763 131.108C99.6974 131.173 100.918 131.238 102.139 131.297C104.366 131.404 106.595 131.469 108.824 131.535C112.674 131.648 116.524 131.761 120.366 132.088C122.498 132.269 124.644 132.32 126.784 132.37L126.786 132.37L127.13 132.378C130.279 132.453 133.428 132.52 136.577 132.586H136.578H136.579C140.576 132.671 144.572 132.755 148.569 132.857C150.132 132.897 151.704 133.015 153.253 133.241C156.854 133.765 160.404 134.555 163.922 135.493C165.678 135.96 167.437 136.428 169.206 136.838C171.225 137.307 173.216 137.857 175.184 138.499C178.404 139.547 181.651 140.505 184.921 141.388C185.777 141.619 186.633 141.848 187.49 142.077L187.494 142.078L187.494 142.078C192.268 143.355 197.044 144.632 201.734 146.204C202.863 146.582 204.018 146.886 205.17 147.19C206.553 147.555 207.962 147.751 209.391 147.751C209.535 147.751 209.68 147.75 209.824 147.745C210.323 147.731 210.833 147.694 211.312 147.566C212.311 147.298 212.747 146.228 212.224 145.321C212.011 144.951 211.693 144.621 211.368 144.338C210.518 143.597 209.623 142.916 208.648 142.33C206.677 141.146 204.609 140.161 202.539 139.175L202.534 139.172C202.003 138.919 201.472 138.666 200.943 138.41C198.944 137.441 196.967 136.428 194.99 135.414L194.989 135.414L194.987 135.413C193.674 134.739 192.361 134.066 191.041 133.405C187.395 131.581 183.648 129.98 179.871 128.443C175.688 126.738 171.494 125.117 167.108 123.958C160.787 122.287 154.391 121.089 147.91 120.293C144.176 119.836 140.452 119.334 136.749 118.638C131.204 117.595 125.639 116.687 119.968 116.574C119.217 116.558 118.467 116.551 117.719 116.551C111.301 116.551 104.951 117.134 98.7059 118.755C97.443 119.083 96.1959 119.475 94.9487 119.868C94.2216 120.097 93.4944 120.326 92.7641 120.542C92.6704 120.569 92.577 120.604 92.4818 120.64C92.2527 120.726 92.0139 120.815 91.7394 120.815C91.5893 120.815 91.429 120.789 91.2525 120.72C91.6716 120.211 92.174 119.944 92.6598 119.686C92.7719 119.626 92.8831 119.567 92.9922 119.505C96.7092 117.406 100.56 115.582 104.469 113.869C106.507 112.976 108.527 112.043 110.548 111.11L110.549 111.11L110.55 111.11C111.66 110.597 112.77 110.085 113.883 109.579C115.195 108.982 116.51 108.387 117.837 107.823C119.529 107.103 121.225 106.393 122.922 105.683C123.77 105.328 124.618 104.973 125.466 104.617C125.719 104.511 125.972 104.403 126.224 104.294L126.226 104.294C126.55 104.155 126.873 104.017 127.197 103.882C132.178 101.816 137.169 99.7821 142.21 97.8634C147.461 95.8666 152.818 94.4094 158.405 93.83C161.71 93.489 165.021 93.1828 168.332 92.9046C171.961 92.5992 175.562 92.1259 179.125 91.3625C181.577 90.8375 184.032 90.3251 186.493 89.8476C187.949 89.5655 189.407 89.2987 190.865 89.0318L190.866 89.0317C193.293 88.5875 195.72 88.1434 198.133 87.6294C203.35 86.5174 208.572 85.4775 213.906 85.1161C214.341 85.0873 214.783 85.0084 215.197 84.8769C215.878 84.6623 216.287 84.1135 216.3 83.507C216.315 82.8148 215.885 82.1982 215.128 81.9946C214.61 81.8549 214.07 81.789 213.533 81.7234C213.447 81.713 213.362 81.7025 213.276 81.6918C210.26 81.3136 207.227 81.1696 204.194 81.0258H204.193C203.343 80.9854 202.492 80.9451 201.642 80.8995C197.174 80.6612 192.701 80.6027 188.227 80.6027C187.183 80.6027 186.139 80.606 185.094 80.6103C181.271 80.6289 177.444 80.7155 173.627 80.9216C168.612 81.1914 163.659 82.0103 158.709 82.8285L158.709 82.8285C158.338 82.8899 157.966 82.9513 157.595 83.0125C152.809 83.8011 148.086 84.8883 143.364 85.9755C141.793 86.3371 140.222 86.6986 138.649 87.0492C133.733 88.1454 129.017 89.8943 124.305 91.6416L124.108 91.7148L123.445 91.9605C122.152 92.4398 120.865 92.9479 119.625 93.5442C115.261 95.6421 110.908 97.7646 106.555 99.8869L106.553 99.8881C105.665 100.321 104.778 100.753 103.89 101.186C100.392 102.892 97.0027 104.791 93.7285 106.895C90.1405 109.2 86.6373 111.63 83.1765 114.12C83.14 114.146 83.1042 114.174 83.068 114.202C82.8885 114.341 82.7001 114.486 82.3859 114.486C82.335 114.486 82.2816 114.483 82.2239 114.474C82.2938 114.329 82.3577 114.185 82.4205 114.042L82.4206 114.042C82.5567 113.734 82.6879 113.438 82.8643 113.171C83.2647 112.56 83.6569 111.943 84.0492 111.325C85.0706 109.718 86.0924 108.11 87.2599 106.617C90.4255 102.569 93.636 98.5564 97.2249 94.8555L97.5582 94.5119L97.5585 94.5116C100.327 91.6565 103.093 88.8045 106.038 86.1272C106.455 85.7481 106.87 85.3668 107.285 84.9855L107.286 84.9854C109.226 83.2038 111.166 81.4215 113.29 79.8579C116.721 77.3285 120.171 74.8228 123.663 72.3773C127.444 69.73 131.44 67.4252 135.434 65.1211L135.438 65.1188C136.168 64.6979 136.897 64.2771 137.625 63.8542C138.04 63.6134 138.455 63.3732 138.87 63.133L138.874 63.1307L138.874 63.1306C142.853 60.8273 146.83 58.5253 150.501 55.7333C151.945 54.6349 153.407 53.559 154.869 52.483C158.405 49.8804 161.941 47.2776 165.233 44.3567L165.361 44.2429C168.041 41.8645 170.715 39.4915 172.851 36.5835C172.912 36.5008 172.974 36.4192 173.037 36.3375L173.037 36.3374C173.317 35.971 173.596 35.6055 173.735 35.1526C173.933 34.5028 173.865 33.9082 173.353 33.4213C173.052 33.1337 172.703 32.9938 172.337 32.9938C172.155 32.9938 171.969 33.0277 171.781 33.0964C171.195 33.3102 170.625 33.5808 170.076 33.8793C168.027 34.9905 165.982 36.107 163.937 37.2235C162.185 38.1799 160.433 39.1363 158.68 40.0893C157.318 40.8295 155.948 41.5551 154.578 42.2805L154.576 42.2814L154.576 42.2816C151.734 43.787 148.892 45.2921 146.126 46.9277C137.274 52.1596 128.542 57.5917 120.091 63.4607C113.119 68.3016 106.684 73.7735 100.749 79.8409C99.3896 81.2303 98.0392 82.6249 96.7253 84.0575C95.7852 85.0821 94.8328 86.0961 93.8806 87.1101C92.087 89.0198 90.2935 90.9295 88.5814 92.9097C83.6201 98.6505 78.842 104.541 74.6288 110.869C73.8244 112.077 72.9929 113.268 72.1614 114.459L72.1609 114.459L72.1605 114.46C71.1264 115.941 70.0922 117.422 69.1102 118.937L69.0716 118.996L69.0713 118.997C66.4606 123.025 63.8466 127.058 61.5711 131.291C60.8569 132.621 59.7372 133.249 58.3588 133.514C58.125 133.235 58.187 132.991 58.2469 132.754L58.2511 132.738C58.8364 130.429 59.4403 128.125 60.1868 125.859C61.6312 121.478 63.46 117.252 65.2886 113.026C65.4766 112.592 65.6646 112.157 65.8521 111.723C66.9964 109.074 68.1398 106.425 69.0254 103.677C69.8262 101.189 70.7874 98.7641 71.7493 96.3375L71.7549 96.3233L71.7604 96.3092C71.8809 96.0054 72.0013 95.7016 72.1214 95.3976C72.5829 94.2312 73.1223 93.1022 73.7661 92.0199C74.9825 89.9714 76.1836 87.9144 77.3499 85.8371C77.9369 84.7938 78.6223 83.8251 79.3535 82.8844C82.1484 79.2811 85.5481 76.3343 89.2982 73.7777C90.1264 73.2129 90.9678 72.6674 91.8093 72.1219C92.599 71.6099 93.3888 71.0979 94.1679 70.5697C98.2173 67.8266 102.216 64.9994 106.024 61.9381C109.523 59.1237 112.933 56.1992 116.344 53.2746L116.344 53.2743L116.345 53.2736L116.347 53.2722C117.552 52.2389 118.756 51.2057 119.965 50.1773C120.487 49.7328 120.962 49.2188 121.389 48.6827C122.049 47.8549 122.1 47.0159 121.562 46.4663C121.234 46.1304 120.875 45.9998 120.505 45.9998C120.167 45.9998 119.819 46.1083 119.477 46.2712C118.628 46.6749 117.796 47.1161 116.967 47.558C116.114 48.0121 115.243 48.429 114.371 48.8459C113.094 49.4569 111.817 50.068 110.597 50.7965C105.804 53.6576 100.885 56.2922 95.9127 58.8285C95.3003 59.1406 94.6734 59.429 94.044 59.7089C94.0237 59.7183 93.9966 59.7225 93.9669 59.7225C93.8778 59.7225 93.7658 59.6843 93.7243 59.6317C93.664 59.5529 93.67 59.3959 93.6971 59.2848C93.7251 59.1686 93.7998 59.0549 93.877 58.9582C94.3584 58.3547 94.7991 57.7191 95.2399 57.0835C96.1191 55.8155 96.9983 54.5474 98.2012 53.5338C98.4687 53.3088 98.6956 53.036 98.9228 52.7629C99.0587 52.5995 99.1948 52.436 99.3396 52.2826C99.779 51.8165 100.216 51.3485 100.654 50.8805L100.654 50.8801L100.657 50.877C101.802 49.652 102.947 48.4269 104.126 47.2365C105.867 45.4769 107.628 43.7375 109.388 41.9983L109.39 41.9965L109.39 41.9963L109.391 41.9962C110.304 41.0942 111.217 40.1924 112.127 39.2877C112.6 38.817 113.07 38.3426 113.539 37.8684L113.539 37.8679L113.54 37.8668L113.542 37.8654L113.542 37.8648C114.174 37.2266 114.805 36.5886 115.446 35.9601C116.445 34.9806 117.449 34.0067 118.453 33.0327C119.563 31.9563 120.673 30.8799 121.775 29.7959C124.234 27.3802 126.688 24.9618 129.119 22.5181C130.532 21.0973 131.934 19.6595 133.268 18.1633C134.131 17.1956 134.945 16.183 135.759 15.1705L135.759 15.1704L135.76 15.1697L135.76 15.1694C136.086 14.764 136.412 14.3585 136.741 13.956C137.178 13.4191 137.579 12.8533 137.732 12.1611C137.961 11.1238 137.307 10.2882 136.377 10.2882C136.213 10.2882 136.042 10.3137 135.865 10.3688C135.422 10.5055 135.011 10.7574 134.607 11.0058L134.606 11.0063C134.529 11.0537 134.451 11.1011 134.374 11.1475C133.791 11.4974 133.212 11.8557 132.633 12.2141C131.666 12.813 130.699 13.4119 129.709 13.9713C127.855 15.0178 125.992 16.0497 124.129 17.0816L124.129 17.0817C121.879 18.3281 119.628 19.5746 117.393 20.8471C114.341 22.5842 111.326 24.3969 108.602 26.6312C104.618 29.8969 100.937 33.4739 97.6805 37.4767C95.8566 39.7197 94.1388 42.0407 92.4199 44.363L92.4193 44.3638L91.9837 44.9522C89.7067 48.028 87.3242 51.0254 84.9419 54.0224L84.9386 54.0265C84.2789 54.8565 83.6192 55.6864 82.9619 56.5179C81.4427 58.44 80.0779 60.4647 78.8284 62.5667C77.4509 64.8823 76.0818 67.2056 74.7806 69.5646C74.2183 70.5842 73.4752 71.3654 72.5566 72.0584C69.0534 74.7032 65.6494 77.4667 62.5092 80.5475C58.5938 84.3892 55.2713 88.7075 52.3016 93.2914C49.6726 97.346 47.6192 101.715 45.5669 106.081C45.3248 106.596 45.0827 107.111 44.8396 107.626C43.6882 110.064 42.743 112.584 41.7978 115.104L41.7978 115.104L41.7977 115.104C41.4221 116.106 41.0465 117.108 40.6579 118.104C39.1548 121.961 37.7747 125.859 36.6372 129.844C35.5371 133.706 34.4785 137.575 33.8482 141.547C33.7524 142.152 33.6559 142.757 33.5594 143.361L33.5593 143.361C33.201 145.605 32.8427 147.848 32.5233 150.097C32.3757 151.133 31.9668 151.993 31.3341 152.806C30.3246 154.101 28.9785 154.949 27.6317 155.797L27.6312 155.797L27.6307 155.797C27.3369 155.982 27.0431 156.167 26.7527 156.357C26.6756 156.408 26.5967 156.43 26.5229 156.43C26.3023 156.43 26.1242 156.227 26.1471 155.945C26.1868 155.469 26.2317 154.993 26.2765 154.517C26.3609 153.62 26.4453 152.723 26.4957 151.825C26.5237 151.326 26.549 150.828 26.5743 150.329C26.6823 148.199 26.7902 146.069 27.1099 143.953C27.4474 141.721 27.7723 139.486 28.0056 137.242C28.4043 133.415 29.3458 129.716 30.457 126.052C30.6563 125.394 30.9032 124.742 31.2128 124.129C32.4614 121.651 33.2977 119.017 34.0493 116.368C34.7058 114.052 35.6397 111.879 36.795 109.79C39.2846 105.293 41.7148 100.768 43.6827 96.01C43.994 95.2576 44.3367 94.5162 44.7022 93.7885C47.2173 88.7813 49.041 83.5129 50.6738 78.1699C50.9007 77.4276 51.1209 76.683 51.3411 75.9385L51.3412 75.9384L51.3412 75.9382C51.886 74.0965 52.4307 72.2551 53.0752 70.4484C55.0924 64.7911 57.1521 59.1484 59.2117 53.5059L59.2119 53.5053C59.9469 51.4917 60.6819 49.4781 61.415 47.4638C61.8434 46.2839 62.1869 45.0828 62.4388 43.8495C63.064 40.7763 63.6917 37.7049 64.383 34.6479C64.9802 32.0031 65.6381 29.3733 66.2961 26.743L66.2963 26.7424L66.4221 26.2393L66.6081 25.4964L66.6084 25.4952L66.6095 25.491C67.293 22.7602 67.9769 20.0283 68.7192 17.3142C69.4308 14.7143 70.1849 12.1255 71.1723 9.60966C72.0035 7.49416 72.5515 5.29213 72.9994 3.06721C73.0977 2.58202 73.1529 2.07224 73.1257 1.57941C73.0884 0.910155 72.7474 0.383404 72.1002 0.126389C71.8856 0.040717 71.6753 0 71.4717 0C71.0594 0 70.6777 0.169652 70.3613 0.485195C69.9686 0.877928 69.6403 1.35039 69.3494 1.82794C67.3289 5.15048 65.2126 8.39329 62.7213 11.4011C61.2969 13.1221 59.984 14.9345 58.671 16.7471L58.6709 16.7473C57.9971 17.6774 57.3233 18.6076 56.6344 19.5255C55.3221 21.272 54.0031 23.0279 52.8529 24.9059C48.1495 32.5892 44.4113 40.7144 41.5163 49.2341C40.1993 53.1103 39.2258 57.0821 38.2522 61.0538L38.2522 61.0538L38.2522 61.0539L38.252 61.0546L38.2518 61.0553C37.8967 62.5039 37.5417 63.9525 37.1699 65.3964C36.4917 68.0288 35.8274 70.6648 35.1632 73.3008L35.1621 73.3049L35.1619 73.306C34.2639 76.8695 33.3658 80.4331 32.4334 83.988C31.6377 87.0187 30.7683 90.0359 29.7852 93.0106C27.8563 98.8499 26.2268 104.771 24.7764 110.743C24.3616 112.449 23.9425 114.154 23.4658 115.843C21.777 121.822 20.3757 127.868 19.3638 133.997C18.6863 138.1 18.3531 142.245 18.0202 146.387L18.02 146.39L18.0197 146.393C17.976 146.937 17.9323 147.481 17.8878 148.025C17.6473 150.955 17.4463 153.889 17.2453 156.822L17.2452 156.824L17.2446 156.833C17.1666 157.972 17.0886 159.11 17.0082 160.249C16.9945 160.372 16.9806 160.495 16.9667 160.618L16.9538 160.733C16.9428 160.831 16.9317 160.929 16.9209 161.027C16.8615 161.571 16.8165 162.122 16.8013 162.671C16.7903 162.779 16.7794 162.888 16.7686 162.996C16.7177 163.506 16.6668 164.017 16.5968 164.524C16.5018 165.213 16.3262 165.905 15.8156 166.407C15.1095 167.101 14.4572 167.842 13.8044 168.584L13.8042 168.584C13.0917 169.394 12.3787 170.204 11.5948 170.954C11.0048 171.518 10.4085 172.076 9.81201 172.633L9.41992 173H68.7565C66.8259 172.283 64.8707 171.629 62.8833 171.056C58.1739 169.698 53.3839 168.649 48.4989 168.264C43.9974 167.911 39.4898 167.564 34.9755 167.564C32.5979 167.564 30.2186 167.66 27.8376 167.902C27.7948 167.907 27.7512 167.913 27.7071 167.919L27.7065 167.919C27.6164 167.931 27.5246 167.944 27.4347 167.944C27.2676 167.944 27.1073 167.9 26.9809 167.727C26.9617 167.47 27.1211 167.32 27.2757 167.175L27.2762 167.174C27.2991 167.153 27.3219 167.132 27.344 167.11C27.7223 166.737 28.0976 166.361 28.4728 165.985L28.4742 165.984C29.4268 165.029 30.3795 164.074 31.3833 163.176C32.5954 162.092 33.9 161.107 35.2003 160.127C36.37 159.246 37.6636 158.723 39.1132 158.723C39.3295 158.723 39.5484 158.734 39.7715 158.758C40.2391 158.808 40.7089 158.843 41.1786 158.877C41.8975 158.929 42.616 158.982 43.3256 159.091C47.677 159.762 51.9173 160.88 56.0567 162.376C62.6059 164.741 69.2374 166.849 75.9402 168.731C79.8752 169.836 83.7388 171.108 87.382 173H107.29C105.914 172.002 104.532 171.012 103.14 170.035C102.755 169.766 102.37 169.495 101.985 169.225L101.984 169.224L101.983 169.224C98.9317 167.082 95.8815 164.941 92.7123 162.974C90.0463 161.321 87.3498 159.703 84.3487 158.721C79.8794 157.26 75.4007 155.806 70.7948 154.83C67.3001 154.09 63.7824 153.444 60.2572 152.863C55.8005 152.129 51.3151 151.612 46.7982 151.401C46.7244 151.397 46.6496 151.396 46.5736 151.395H46.5724C46.1721 151.388 45.7418 151.381 45.2773 151.06C45.8238 150.761 46.3594 150.472 46.8857 150.189C48.0122 149.582 49.0965 148.999 50.1555 148.373C52.1752 147.18 54.3297 146.677 56.6216 146.677C56.8702 146.677 57.1195 146.683 57.3715 146.695C60.957 146.86 64.4729 147.5 67.9727 148.221C75.4245 149.759 82.6514 152.065 89.713 154.87C92.7069 156.059 95.6578 157.36 98.6083 158.661L98.6095 158.661L98.6131 158.663C99.5055 159.056 100.398 159.449 101.291 159.84C109.57 163.453 117.796 167.172 125.318 172.248C125.69 172.499 126.062 172.749 126.432 173H144.064C142.661 171.983 141.236 170.993 139.786 170.035C136.226 167.682 132.625 165.413 128.862 163.406C120.164 158.768 111.17 154.782 102 151.177C94.4054 148.192 86.6754 145.624 78.769 143.596C74.2683 142.442 69.7031 141.62 65.1065 140.969C64.5475 140.889 63.9928 140.787 63.4397 140.681C63.2565 140.645 63.0445 140.535 63.075 140.334C63.0971 140.184 63.2531 140.017 63.3948 139.926C63.7103 139.725 64.0462 139.552 64.3864 139.392C66.3746 138.462 68.3833 137.587 70.4301 136.787C72.3886 136.022 74.3743 135.671 76.4135 135.671C77.0598 135.671 77.7113 135.707 78.3687 135.775C82.4309 136.198 86.4218 136.966 90.3865 137.951C96.7262 139.527 102.926 141.529 109.03 143.835C121.191 148.432 132.858 154.11 144.429 159.997L145.559 160.573L145.56 160.573L145.56 160.573C149.876 162.772 154.19 164.969 158.604 166.97C162.906 168.919 167.187 170.922 171.429 173ZM54.3494 110.986C54.5876 110.626 54.8482 110.231 55.5359 109.881C55.4127 110.386 55.2987 110.859 55.1898 111.312L55.1895 111.313L55.188 111.319C54.9565 112.281 54.7483 113.146 54.5248 114.007C54.1406 115.487 53.7489 116.965 53.3573 118.444C52.5461 121.505 51.735 124.567 50.9902 127.645C50.5784 129.344 50.2845 131.073 49.9906 132.801C49.8643 133.544 49.7381 134.286 49.6025 135.026L49.5791 135.155C49.4637 135.79 49.3483 136.425 49.2649 137.065C49.063 138.613 48.1749 139.697 46.9339 140.536C46.5235 140.812 46.0846 141.049 45.6471 141.284L45.6469 141.284L45.4707 141.38L45.0866 141.589C44.2252 142.058 43.364 142.528 42.4867 142.967C42.3396 143.04 42.1921 143.152 42.0435 143.265C41.7831 143.463 41.5193 143.663 41.2482 143.663C41.1218 143.663 40.9938 143.619 40.8631 143.511C40.524 143.23 40.7372 142.751 40.9329 142.313C40.9907 142.183 41.047 142.057 41.0871 141.94C41.527 140.664 41.9634 139.387 42.3998 138.111C44.4339 132.159 46.4677 126.208 48.8569 120.383C49.79 118.107 51.0606 116.03 52.3618 113.965C52.9615 113.011 53.5951 112.079 54.2373 111.154C54.2541 111.129 54.2707 111.105 54.2872 111.08C54.308 111.049 54.3286 111.018 54.3494 110.986ZM-3.32812 172.998H4.09563C4.23304 172.498 4.37978 171.999 4.5401 171.505C4.73558 170.899 4.93733 170.295 5.1391 169.692L5.13917 169.691L5.13924 169.691C5.63345 168.212 6.12773 166.733 6.53005 165.229C7.81089 160.445 9.01792 155.641 10.219 150.836C10.9341 147.976 11.6712 145.124 12.5669 142.315C13.0827 140.698 13.4737 139.053 13.8011 137.392C14.9216 131.728 16.278 126.127 18.0864 120.64C18.4189 119.629 18.709 118.601 18.9575 117.565C19.9423 113.479 20.637 109.333 21.3284 105.192C21.8969 101.792 22.2109 98.3589 22.5249 94.9263L22.525 94.9256L22.5251 94.9249C22.6739 93.2982 22.8226 91.6717 22.9985 90.0486C23.0732 89.3649 23.0944 88.671 23.0986 87.9831C23.1173 84.2204 23.1343 80.4593 23.1317 76.6982C23.1266 71.2364 23.3777 65.7899 24.1581 60.3799C24.7315 56.4067 25.1624 52.4362 25.2497 48.4062C25.3702 42.8528 24.6789 37.3961 23.9061 31.9335C23.8179 31.3126 23.6771 30.6993 23.5338 30.0886C23.4489 29.7247 23.3539 29.3523 23.1885 29.0206C22.8917 28.4294 22.4217 28.0189 21.7177 28.0146H21.7075C21.0009 28.0146 20.5132 28.4184 20.2749 29.0359C20.028 29.6746 19.8431 30.3481 19.7328 31.0242C19.5199 32.3271 19.2154 33.6028 18.8413 34.8692C18.5928 35.709 18.3816 36.5665 18.2382 37.4309C17.5088 41.8214 16.7835 46.2135 16.1032 50.6125C15.8125 52.4898 15.5421 54.3704 15.2717 56.251C14.9709 58.3427 14.6702 60.4344 14.3414 62.5217C14.0887 64.1221 13.7998 65.7166 13.5108 67.3112C13.0396 69.9118 12.5684 72.5126 12.2539 75.1392C11.6432 80.2447 11.0384 85.3494 10.4481 90.4574C10.3573 91.2464 10.2856 92.0374 10.2139 92.8283L10.2139 92.8285L10.2139 92.8286C10.1215 93.8481 10.0291 94.8674 9.89585 95.8819C9.5087 98.8193 9.10154 101.754 8.69435 104.69L8.69325 104.698C8.44599 106.48 8.19872 108.263 7.95593 110.046C7.16029 115.888 6.20688 121.699 4.85903 127.446C3.85726 131.718 2.96408 136.018 2.08615 140.318C1.32104 144.065 0.572052 147.818 -0.0547943 151.589C-0.489609 154.204 -0.833408 156.833 -1.17724 159.462C-1.63831 162.987 -2.09944 166.512 -2.78017 170.007C-2.97441 171.002 -3.15678 172 -3.32812 172.998ZM-21.8162 172.998H-32.3954C-32.7259 169.637 -33.0252 166.272 -33.3246 162.908L-33.3246 162.907L-33.3247 162.907C-33.5193 160.72 -33.7139 158.532 -33.9171 156.346C-34.4625 150.473 -34.5439 144.579 -33.7805 138.698C-33.3454 135.34 -33.0918 131.962 -33.0281 128.571C-33.0078 127.508 -32.934 126.44 -32.8237 125.382L-32.7257 124.436C-32.0797 118.201 -31.4334 111.961 -30.1399 105.822C-29.301 101.837 -28.2407 97.8864 -26.5493 94.1575C-22.7933 85.872 -19.4971 77.4006 -16.2187 68.9217C-15.3577 66.693 -14.7362 64.3884 -14.1147 62.0837L-14.0192 61.7295L-13.9768 61.5718C-13.8285 61.0191 -13.6772 60.4552 -13.417 59.955C-13.126 59.396 -12.6239 59.1152 -12.1166 59.1152C-11.6306 59.1152 -11.1411 59.3731 -10.8307 59.8897C-10.6118 60.2536 -10.4744 60.6997 -10.4227 61.123C-10.3251 61.9297 -10.2463 62.7508 -10.2827 63.56C-10.332 64.6421 -10.3686 65.7247 -10.4052 66.8073C-10.5104 69.92 -10.6156 73.0325 -11.0215 76.1334C-11.6094 80.6171 -11.6501 85.1357 -11.6196 89.6551C-11.6075 91.4953 -11.6081 93.336 -11.6087 95.1765C-11.6092 96.8466 -11.6098 98.5165 -11.6009 100.186C-11.5976 100.779 -11.5672 101.372 -11.5368 101.965L-11.5368 101.965C-11.5126 102.437 -11.4884 102.909 -11.4779 103.381C-11.4704 103.701 -11.4604 104.022 -11.4505 104.342V104.342C-11.4175 105.401 -11.3846 106.462 -11.4406 107.516C-11.5094 108.831 -11.5669 110.147 -11.6245 111.462L-11.6245 111.463C-11.7861 115.157 -11.9477 118.852 -12.3592 122.532C-12.7078 125.654 -13.1973 128.736 -14.1244 131.751C-14.8272 134.038 -15.4047 136.366 -15.9812 138.69L-15.9813 138.69L-16.0176 138.837C-17.9364 146.57 -19.4063 154.397 -20.7313 162.249C-21.0952 164.409 -21.3055 166.6 -21.4828 168.786L-21.4832 168.79C-21.5967 170.193 -21.7103 171.595 -21.8162 172.998ZM-61 172.997H-48.9712L-48.9483 172.915C-48.7185 172.084 -48.478 171.256 -48.2375 170.428C-47.8309 169.029 -47.4244 167.629 -47.0694 166.216L-47.041 166.103C-46.6222 164.436 -46.2043 162.772 -45.6444 161.149C-44.0913 156.642 -42.5984 152.12 -41.3956 147.503C-41.0761 146.278 -40.7146 145.064 -40.353 143.85C-39.9092 142.359 -39.4654 140.868 -39.0994 139.358C-37.4869 132.697 -36.4953 125.945 -36.3783 119.079C-36.3778 119.044 -36.3772 119.009 -36.3766 118.974C-36.3698 118.57 -36.3629 118.162 -36.4292 117.768C-36.5446 117.086 -36.9797 116.71 -37.5429 116.71C-37.7677 116.71 -38.0137 116.77 -38.2673 116.895C-38.7279 117.12 -39.1189 117.433 -39.4175 117.842C-39.4689 117.912 -39.5204 117.982 -39.5721 118.051C-39.9308 118.536 -40.2917 119.023 -40.5838 119.546C-42.1124 122.281 -43.6248 125.027 -45.1177 127.782C-47.6581 132.47 -50.0094 137.247 -51.9756 142.212C-52.895 144.536 -53.8617 146.84 -54.8284 149.145C-55.3655 150.425 -55.9025 151.705 -56.4314 152.989C-56.7894 153.858 -57.1134 154.742 -57.4255 155.629C-59.1839 160.622 -60.2561 165.774 -60.799 171.03L-61 172.997Z" fill="#F5F7F9"/>
</svg>
