<svg width="217" height="139" viewBox="0 0 217 139" fill="none" xmlns="http://www.w3.org/2000/svg">
<g opacity="0.6">
<path fill-rule="evenodd" clip-rule="evenodd" d="M188.921 173H171.429C167.188 170.922 162.906 168.919 158.604 166.97C153.804 164.794 149.123 162.386 144.429 159.997C132.858 154.11 121.191 148.432 109.03 143.835C102.926 141.529 96.7264 139.527 90.3867 137.951C86.422 136.966 82.4311 136.198 78.3689 135.775C77.7115 135.707 77.06 135.671 76.4137 135.671C74.3745 135.671 72.3888 136.022 70.4302 136.787C68.3834 137.587 66.3748 138.462 64.3866 139.392C64.0464 139.552 63.7105 139.725 63.395 139.926C63.2533 140.017 63.0972 140.184 63.0752 140.334C63.0446 140.535 63.2567 140.645 63.4399 140.681C63.993 140.787 64.5477 140.889 65.1067 140.969C69.7033 141.62 74.2685 142.442 78.7692 143.596C86.6756 145.624 94.4056 148.192 102.001 151.177C111.17 154.782 120.164 158.768 128.863 163.406C132.625 165.413 136.226 167.682 139.786 170.035C141.237 170.993 142.661 171.983 144.065 173H126.432C126.062 172.749 125.69 172.499 125.319 172.248C117.797 167.172 109.57 163.453 101.292 159.84C97.4423 158.158 93.6142 156.42 89.7131 154.87C82.6516 152.065 75.4246 149.759 67.9729 148.221C64.4731 147.5 60.9571 146.86 57.3716 146.695C57.1197 146.683 56.8703 146.677 56.6218 146.677C54.3299 146.677 52.1754 147.18 50.1557 148.373C48.6018 149.291 46.9935 150.119 45.2775 151.06C45.8306 151.442 46.3353 151.379 46.7984 151.401C51.3153 151.612 55.8007 152.129 60.2573 152.863C63.7826 153.444 67.3002 154.09 70.795 154.83C75.4009 155.806 79.8796 157.26 84.3489 158.721C87.35 159.703 90.0465 161.321 92.7125 162.974C96.2819 165.189 99.7003 167.626 103.14 170.035C104.533 171.012 105.914 172.002 107.29 173H87.3822C83.739 171.108 79.8753 169.836 75.9404 168.731C69.2376 166.849 62.6061 164.741 56.0569 162.376C51.9175 160.88 47.6772 159.762 43.3257 159.091C42.1526 158.91 40.9549 158.885 39.7716 158.758C39.5485 158.734 39.3297 158.723 39.1134 158.723C37.6638 158.723 36.3702 159.246 35.2005 160.127C33.9001 161.107 32.5956 162.092 31.3834 163.176C29.9838 164.429 28.6835 165.791 27.3441 167.11C27.1728 167.278 26.959 167.431 26.9811 167.727C27.1075 167.9 27.2678 167.944 27.4349 167.944C27.5689 167.944 27.7072 167.916 27.8378 167.902C30.2188 167.66 32.5981 167.564 34.9757 167.564C39.49 167.564 43.9975 167.911 48.4991 168.264C53.3841 168.649 58.1741 169.698 62.8835 171.056C64.8709 171.629 66.8261 172.283 68.7567 173H9.4201C10.147 172.32 10.8757 171.642 11.595 170.954C13.0972 169.517 14.339 167.858 15.8158 166.407C16.3264 165.905 16.502 165.213 16.597 164.524C16.6818 163.909 16.7387 163.289 16.8014 162.671C16.8167 162.122 16.8617 161.571 16.921 161.027C16.9499 160.767 16.9796 160.508 17.0084 160.249C17.296 156.174 17.5538 152.096 17.888 148.025C18.2714 143.339 18.5971 138.641 19.3639 133.997C20.3759 127.868 21.7772 121.822 23.466 115.843C23.9427 114.154 24.3617 112.449 24.7765 110.743C26.227 104.771 27.8565 98.8499 29.7854 93.0106C30.7685 90.0359 31.6379 87.0187 32.4335 83.988C34.0562 77.8018 35.5746 71.5893 37.1701 65.3964C38.5612 59.9931 39.719 54.5245 41.5164 49.2341C44.4115 40.7144 48.1496 32.5892 52.8531 24.9059C54.0033 23.0279 55.3223 21.272 56.6345 19.5255C58.6661 16.8188 60.5661 14.0052 62.7215 11.4011C65.2127 8.39329 67.3291 5.15048 69.3496 1.82794C69.6405 1.35039 69.9688 0.877928 70.3615 0.485195C70.6779 0.169652 71.0596 0 71.4719 0C71.6754 0 71.8858 0.040717 72.1004 0.126389C72.7476 0.383404 73.0886 0.910155 73.1259 1.57941C73.153 2.07224 73.0979 2.58202 72.9995 3.06721C72.5517 5.29213 72.0037 7.49416 71.1724 9.60966C70.1851 12.1255 69.431 14.7143 68.7193 17.3142C67.9093 20.2762 67.1688 23.2594 66.4223 26.2393C65.7225 29.0376 65.0185 31.8343 64.3832 34.6479C63.6918 37.7049 63.0641 40.7763 62.439 43.8495C62.1871 45.0828 61.8435 46.2839 61.4152 47.4638C58.6279 55.1225 55.8126 62.7719 53.0753 70.4484C52.1703 72.9855 51.462 75.5913 50.674 78.1699C49.0411 83.5129 47.2174 88.7813 44.7024 93.7885C44.3368 94.5162 43.9941 95.2576 43.6828 96.01C41.7149 100.768 39.2847 105.293 36.7952 109.79C35.6399 111.879 34.706 114.052 34.0494 116.368C33.2979 119.017 32.4615 121.651 31.2129 124.129C30.9033 124.742 30.6565 125.394 30.4572 126.052C29.346 129.716 28.4044 133.415 28.0058 137.242C27.7725 139.486 27.4476 141.721 27.11 143.953C26.7156 146.564 26.6435 149.196 26.4959 151.825C26.4187 153.201 26.2618 154.572 26.1473 155.945C26.1244 156.227 26.3025 156.43 26.523 156.43C26.5968 156.43 26.6757 156.408 26.7529 156.357C28.3747 155.297 30.1043 154.384 31.3342 152.806C31.967 151.993 32.3759 151.133 32.5235 150.097C32.9289 147.243 33.3971 144.396 33.8484 141.547C34.4786 137.575 35.5372 133.706 36.6374 129.844C37.7749 125.859 39.155 121.961 40.658 118.104C42.0245 114.6 43.2307 111.033 44.8398 107.626C47.1428 102.75 49.3626 97.8244 52.3018 93.2914C55.2714 88.7075 58.594 84.3892 62.5094 80.5475C65.6496 77.4667 69.0535 74.7032 72.5568 72.0584C73.4754 71.3654 74.2184 70.5842 74.7808 69.5646C76.082 67.2056 77.4511 64.8823 78.8286 62.5667C80.078 60.4647 81.4428 58.44 82.962 56.5179C85.9945 52.6822 89.0753 48.8812 91.9839 44.9522C93.8491 42.4338 95.7025 39.9094 97.6806 37.4767C100.937 33.4739 104.618 29.8969 108.602 26.6312C111.326 24.3969 114.342 22.5842 117.393 20.8471C121.48 18.5212 125.615 16.2819 129.709 13.9713C131.291 13.0772 132.815 12.0823 134.374 11.1475C134.855 10.8583 135.337 10.5317 135.865 10.3688C136.042 10.3137 136.213 10.2882 136.377 10.2882C137.307 10.2882 137.962 11.1238 137.733 12.1611C137.579 12.8533 137.179 13.4191 136.741 13.956C135.59 15.3641 134.477 16.8078 133.268 18.1633C131.934 19.6595 130.532 21.0973 129.119 22.5181C126.689 24.9618 124.234 27.3802 121.776 29.7959C119.675 31.8605 117.549 33.898 115.446 35.9601C114.327 37.0568 113.239 38.1824 112.127 39.2877C109.461 41.9376 106.771 44.5637 104.126 47.2365C102.496 48.8829 100.93 50.5955 99.3398 52.2826C98.953 52.6923 98.6289 53.1741 98.2014 53.5338C96.3955 55.0555 95.3191 57.1507 93.8771 58.9582C93.7999 59.0549 93.7253 59.1686 93.6973 59.2848C93.6702 59.3959 93.6642 59.5529 93.7244 59.6317C93.766 59.6843 93.878 59.7225 93.967 59.7225C93.9967 59.7225 94.0239 59.7183 94.0442 59.7089C94.6736 59.429 95.3005 59.1406 95.9129 58.8285C100.885 56.2922 105.804 53.6576 110.598 50.7965C112.649 49.5708 114.864 48.6777 116.967 47.558C117.797 47.1161 118.628 46.6749 119.477 46.2712C119.82 46.1083 120.167 45.9998 120.505 45.9998C120.876 45.9998 121.234 46.1304 121.563 46.4663C122.1 47.0159 122.049 47.8549 121.39 48.6827C120.962 49.2188 120.487 49.7328 119.965 50.1773C115.334 54.1174 110.76 58.1287 106.024 61.9381C102.216 64.9994 98.2175 67.8266 94.1681 70.5697C92.559 71.6606 90.9041 72.6827 89.2983 73.7777C85.5483 76.3343 82.1486 79.2811 79.3536 82.8844C78.6225 83.8251 77.9371 84.7938 77.3501 85.8371C76.1838 87.9144 74.9827 89.9714 73.7663 92.0199C73.1225 93.1022 72.583 94.2312 72.1216 95.3976C71.0384 98.1391 69.9298 100.868 69.0255 103.677C68.14 106.425 66.9966 109.074 65.8523 111.723C63.8403 116.385 61.7799 121.028 60.1869 125.859C59.4405 128.125 58.8365 130.429 58.2513 132.738C58.1902 132.979 58.1198 133.229 58.359 133.514C59.7374 133.249 60.857 132.621 61.5713 131.291C63.8581 127.037 66.4868 122.985 69.1104 118.937C70.8823 116.203 72.8239 113.58 74.629 110.869C78.8422 104.541 83.6203 98.6505 88.5816 92.9097C91.2026 89.8781 94.0145 87.0119 96.7255 84.0575C98.0394 82.6249 99.3898 81.2303 100.749 79.8409C106.685 73.7735 113.119 68.3016 120.091 63.4607C128.542 57.5917 137.275 52.1596 146.126 46.9277C150.225 44.5035 154.492 42.3659 158.68 40.0893C162.481 38.0238 166.273 35.9423 170.076 33.8793C170.625 33.5808 171.195 33.3102 171.782 33.0964C171.969 33.0277 172.155 32.9938 172.337 32.9938C172.704 32.9938 173.052 33.1337 173.353 33.4213C173.865 33.9082 173.934 34.5028 173.735 35.1526C173.565 35.7065 173.185 36.1297 172.851 36.5835C170.681 39.5379 167.956 41.9401 165.233 44.3567C160.581 48.4851 155.439 51.9781 150.501 55.7333C146.446 58.8175 142.018 61.3036 137.626 63.8542C132.909 66.5932 128.136 69.2456 123.663 72.3773C120.172 74.8228 116.721 77.3285 113.29 79.8579C110.712 81.7562 108.403 83.9769 106.038 86.1272C102.975 88.912 100.106 91.8859 97.2251 94.8555C93.6362 98.5564 90.4257 102.569 87.26 106.617C85.6442 108.683 84.3073 110.97 82.8645 113.171C82.6066 113.561 82.4455 114.015 82.2241 114.474C82.2818 114.483 82.3352 114.486 82.3861 114.486C82.7636 114.486 82.9595 114.276 83.1767 114.12C86.6375 111.63 90.1407 109.2 93.7287 106.895C97.0029 104.791 100.392 102.892 103.891 101.186C109.132 98.6319 114.37 96.0702 119.625 93.5442C120.865 92.9479 122.152 92.4398 123.445 91.9605C128.444 90.1097 133.434 88.2122 138.649 87.0492C144.952 85.6446 151.218 84.0634 157.595 83.0125C162.916 82.1363 168.236 81.2117 173.627 80.9216C177.444 80.7155 181.272 80.6289 185.095 80.6103C186.139 80.606 187.183 80.6027 188.227 80.6027C192.701 80.6027 197.174 80.6612 201.642 80.8995C205.523 81.1073 209.414 81.2075 213.276 81.6918C213.897 81.7698 214.527 81.8326 215.128 81.9946C215.886 82.1982 216.315 82.8148 216.3 83.507C216.287 84.1135 215.878 84.6623 215.197 84.8769C214.783 85.0084 214.341 85.0873 213.906 85.1161C208.572 85.4775 203.35 86.5174 198.133 87.6294C194.271 88.4522 190.371 89.096 186.493 89.8476C184.032 90.3251 181.577 90.8375 179.125 91.3625C175.562 92.1259 171.961 92.5992 168.333 92.9046C165.021 93.1828 161.71 93.489 158.405 93.83C152.818 94.4094 147.461 95.8666 142.21 97.8634C137.169 99.7821 132.178 101.816 127.197 103.882C126.619 104.122 126.045 104.374 125.466 104.617C122.923 105.686 120.375 106.743 117.837 107.823C116.51 108.387 115.195 108.982 113.883 109.579C110.743 111.006 107.627 112.485 104.469 113.869C100.56 115.582 96.7094 117.406 92.9924 119.505C92.4105 119.833 91.7684 120.094 91.2527 120.72C91.4291 120.789 91.5894 120.815 91.7396 120.815C92.1281 120.815 92.4453 120.636 92.7642 120.542C94.7474 119.955 96.7068 119.275 98.7061 118.755C104.951 117.134 111.302 116.551 117.719 116.551C118.467 116.551 119.217 116.558 119.968 116.574C125.639 116.687 131.204 117.595 136.749 118.638C140.452 119.334 144.176 119.836 147.911 120.293C154.391 121.089 160.788 122.287 167.109 123.958C171.494 125.117 175.688 126.738 179.871 128.443C183.648 129.98 187.395 131.581 191.041 133.405C194.349 135.06 197.615 136.797 200.943 138.41C203.539 139.667 206.171 140.842 208.648 142.33C209.623 142.916 210.518 143.597 211.369 144.338C211.694 144.621 212.012 144.951 212.225 145.321C212.747 146.228 212.311 147.298 211.313 147.566C210.833 147.694 210.323 147.731 209.824 147.745C209.68 147.75 209.536 147.751 209.391 147.751C207.962 147.751 206.553 147.555 205.17 147.19C204.018 146.886 202.863 146.582 201.734 146.204C196.201 144.35 190.55 142.905 184.922 141.388C181.651 140.505 178.405 139.547 175.185 138.499C173.216 137.857 171.225 137.307 169.206 136.838C167.437 136.428 165.678 135.96 163.922 135.493C160.404 134.555 156.854 133.765 153.253 133.241C151.705 133.015 150.132 132.897 148.569 132.857C141.423 132.675 134.276 132.549 127.13 132.378C124.875 132.325 122.613 132.279 120.366 132.088C114.3 131.572 108.213 131.588 102.139 131.297C100.199 131.203 98.2583 131.094 96.3167 130.994C96.0121 130.978 95.7068 130.973 95.3692 130.962C95.4481 131.483 95.8416 131.401 96.0902 131.45C103.745 132.945 111.161 135.273 118.469 137.941C126.894 141.016 135.167 144.462 143.249 148.37C149.061 151.181 154.983 153.765 160.823 156.52C166.043 158.982 171.076 161.801 175.979 164.847C179.758 167.196 183.54 169.539 187.285 171.941C187.831 172.293 188.376 172.645 188.921 173ZM55.5361 109.881C54.7404 110.286 54.5165 110.751 54.2374 111.154C53.5953 112.079 52.9617 113.011 52.362 113.965C51.0608 116.03 49.7901 118.107 48.8571 120.383C45.9553 127.457 43.5777 134.718 41.0872 141.94C40.9117 142.452 40.4239 143.146 40.8633 143.511C40.9939 143.619 41.122 143.663 41.2484 143.663C41.6742 143.663 42.0822 143.168 42.4868 142.967C43.4945 142.463 44.481 141.918 45.4709 141.38C45.9663 141.111 46.4684 140.849 46.9341 140.536C48.1751 139.697 49.0632 138.613 49.2651 137.065C49.3541 136.382 49.4797 135.704 49.6027 135.026C50.0539 132.563 50.4017 130.074 50.9904 127.645C52.0948 123.081 53.3451 118.553 54.525 114.007C54.8541 112.739 55.1501 111.462 55.5361 109.881Z" fill="#343535"/>
<path fill-rule="evenodd" clip-rule="evenodd" d="M4.09527 172.998H-3.32848C-3.15713 172 -2.97477 171.003 -2.78052 170.008C-1.59214 163.906 -1.07303 157.712 -0.0551438 151.589C0.571702 147.818 1.32069 144.065 2.0858 140.319C2.96373 136.018 3.85691 131.718 4.85868 127.447C6.20652 121.699 7.15994 115.888 7.95558 110.046C8.59855 105.324 9.27289 100.606 9.8955 95.8821C10.1322 94.0804 10.2399 92.2635 10.4477 90.4576C11.0381 85.3496 11.6429 80.2449 12.2536 75.1393C12.7608 70.9024 13.6761 66.7325 14.3411 62.5219C14.9654 58.5581 15.4888 54.5782 16.1029 50.6127C16.7832 46.2137 17.5084 41.8215 18.2379 37.4311C18.3812 36.5667 18.5925 35.7092 18.841 34.8694C19.2151 33.603 19.5196 32.3272 19.7325 31.0244C19.8427 30.3483 20.0277 29.6748 20.2745 29.0361C20.5129 28.4186 21.0006 28.0148 21.7072 28.0148C21.7106 28.0148 21.7139 28.0148 21.7173 28.0148C22.4214 28.0191 22.8913 28.4296 23.1882 29.0208C23.3536 29.3525 23.4486 29.7249 23.5334 30.0888C23.6768 30.6995 23.8176 31.3128 23.9058 31.9337C24.6785 37.3963 25.3698 42.853 25.2494 48.4064C25.162 52.4363 24.7311 56.4069 24.1577 60.3801C23.3773 65.7901 23.1263 71.2366 23.1314 76.6984C23.1339 80.4595 23.1169 84.2205 23.0983 87.9833C23.094 88.6712 23.0728 89.3651 22.9982 90.0488C22.4511 95.0975 22.1661 100.18 21.328 105.192C20.6367 109.333 19.942 113.479 18.9572 117.565C18.7087 118.601 18.4186 119.629 18.0861 120.64C16.2776 126.128 14.9213 131.728 13.8008 137.392C13.4734 139.053 13.0823 140.699 12.5666 142.315C11.6709 145.124 10.9337 147.976 10.2187 150.836C9.01757 155.641 7.81054 160.445 6.5297 165.23C5.96308 167.348 5.2141 169.416 4.53975 171.505C4.37943 171.999 4.23269 172.498 4.09527 172.998Z" fill="#343535"/>
</g>
</svg>