<svg width="40" height="40" viewBox="0 0 40 40" fill="none" xmlns="http://www.w3.org/2000/svg">
<path fill-rule="evenodd" clip-rule="evenodd" d="M10.1175 29.0001H29.8823C30.9915 29.0001 31.8991 28.0744 31.9999 26.8401V13.1601C31.9999 11.9258 30.9915 11.0001 29.8823 11.0001H10.1175C8.90747 11.0001 7.9999 12.0287 7.9999 13.1601V26.8401C7.9999 28.0744 9.00831 29.0001 10.1175 29.0001ZM10.0167 13.1601C10.0167 13.1601 10.0167 13.0572 10.1175 13.0572H29.8823C29.8823 13.0572 29.9831 13.0572 29.9831 13.1601V22.6223L27.5638 20.7715C27.1604 20.463 26.6562 20.463 26.3537 20.7715L23.4421 23.1473L16.5722 16.7601C16.1688 16.4515 15.6646 16.4515 15.2612 16.7601L10.0167 21.6375V13.1601ZM26.9587 22.8287L29.9831 25.1877V26.8401C29.9831 26.8401 29.9831 26.943 29.8823 26.943H27.5246L24.895 24.4981L26.9587 22.8287ZM10.0167 24.2947L15.8663 18.8172L24.5718 26.943H10.1175C10.1175 26.943 10.0167 26.943 10.0167 26.8401V24.2947ZM20.3033 16.863C20.3033 18.8172 21.8159 20.3601 23.7318 20.3601C25.547 20.3601 27.1604 18.8172 27.1604 16.863C27.1604 14.9087 25.6478 13.3658 23.7318 13.3658C21.8159 13.3658 20.3033 14.9087 20.3033 16.863ZM22.2192 16.863C22.2192 16.0401 22.9251 15.3201 23.7318 15.3201C24.5386 15.3201 25.1436 16.0401 25.2444 16.863C25.2444 17.6858 24.5386 18.4058 23.7318 18.4058C22.9251 18.4058 22.2192 17.6858 22.2192 16.863Z" fill="#2A2B2B"/>
</svg>
