<svg width="40" height="40" viewBox="0 0 40 40" fill="none" xmlns="http://www.w3.org/2000/svg">
<path fill-rule="evenodd" clip-rule="evenodd" d="M26.502 29.4277C27 29.4277 27.5 30 27.5 30V10C27.5 10 27 10.5723 26.495 10.5723C25.99 10.5723 25.4124 10.1986 25.1394 9.92668C24.8944 9.68068 24.772 9.57225 24.49 9.57225C24.209 9.57225 24.088 9.68025 23.843 9.92625L23.8398 9.9294C23.5661 10.2011 23.1923 10.5723 22.488 10.5723C21.782 10.5723 21.409 10.1993 21.1362 9.92641L21.135 9.92525C20.891 9.68025 20.771 9.57225 20.491 9.57225C20.21 9.57225 20.09 9.68025 19.845 9.92625L19.8434 9.92783C19.5705 10.1997 19.1966 10.5723 18.491 10.5723C17.7864 10.5723 17.4135 10.2007 17.1407 9.92897L17.138 9.92625C16.894 9.68025 16.773 9.57225 16.493 9.57225C16.214 9.57225 16.095 9.68025 15.851 9.92525L15.8498 9.9264C15.5769 10.1993 15.204 10.5723 14.498 10.5723C14.3074 10.5723 13.5 10 13.5 10V30C13.5 30 13.855 29.4277 14.505 29.4277C15.155 29.4277 15.5876 29.8013 15.8606 30.0733C16.1056 30.3193 16.228 30.4277 16.51 30.4277C16.791 30.4277 16.912 30.3197 17.157 30.0737L17.1602 30.0706C17.4339 29.7989 17.8077 29.4277 18.512 29.4277C19.218 29.4277 19.5909 29.8007 19.8638 30.0736L19.865 30.0747C20.109 30.3197 20.229 30.4277 20.509 30.4277C20.79 30.4277 20.91 30.3197 21.155 30.0737L21.1566 30.0722C21.4295 29.8003 21.8034 29.4277 22.509 29.4277C23.2136 29.4277 23.5865 29.7993 23.8593 30.071L23.862 30.0737C24.106 30.3197 24.227 30.4277 24.507 30.4277C24.786 30.4277 24.905 30.3197 25.15 30.0747C25.422 29.8017 26.004 29.4277 26.502 29.4277ZM27.145 8.644C27.4188 8.37217 27.7937 8 28.5 8C28.776 8 29 8.224 29 8.5V31.5C29 31.776 28.776 32 28.5 32C27.7954 32 27.4225 31.6285 27.1497 31.3567L27.147 31.354C26.902 31.108 26.782 31 26.502 31C26.222 31 26.103 31.108 25.857 31.354C25.586 31.626 25.213 32 24.507 32C23.8024 32 23.4295 31.6285 23.1567 31.3567L23.154 31.354C22.909 31.108 22.789 31 22.509 31C22.228 31 22.108 31.108 21.863 31.354L21.8614 31.3556C21.5886 31.6274 21.2146 32 20.509 32C19.8054 32 19.4325 31.6285 19.1597 31.3567L19.157 31.354C18.912 31.108 18.792 31 18.512 31C18.231 31 18.11 31.108 17.865 31.354L17.8618 31.3571C17.5881 31.6289 17.2143 32 16.51 32C15.802 32 15.428 31.627 15.155 31.354C14.908 31.108 14.788 31 14.505 31C14.223 31 14.102 31.108 13.857 31.354L13.855 31.356C13.5812 31.6278 13.2063 32 12.5 32C12.224 32 12 31.776 12 31.5V8.5C12 8.224 12.224 8 12.5 8C13.2046 8 13.5775 8.37152 13.8503 8.64328L13.853 8.646C14.098 8.892 14.218 9 14.498 9C14.778 9 14.897 8.892 15.143 8.646C15.414 8.374 15.787 8 16.493 8C17.1976 8 17.5705 8.37151 17.8433 8.64328L17.846 8.646C18.091 8.892 18.211 9 18.491 9C18.772 9 18.892 8.892 19.137 8.646L19.1386 8.64442C19.4114 8.37256 19.7854 8 20.491 8C21.1946 8 21.5675 8.37151 21.8403 8.64328L21.843 8.646C22.088 8.892 22.208 9 22.488 9C22.769 9 22.89 8.892 23.135 8.646L23.1382 8.64285C23.4119 8.37113 23.7857 8 24.49 8C25.198 8 25.572 8.373 25.845 8.646C26.092 8.892 26.212 9 26.495 9C26.777 9 26.898 8.892 27.143 8.646L27.145 8.644ZM16 26.5C17 26.5 24 26.5 25 26.5C26 26.5 26 28 25 28C24 28 17 28 16 28C15 28 15 26.5 16 26.5ZM21.4658 14.5131C21.8024 14.5442 22.439 14.5597 22.8049 14.6217C23.1707 14.6734 23.5 14.751 23.7927 14.8544C24.1 14.9475 24.3488 15.0716 24.539 15.2267C24.7439 15.3715 24.8463 15.5525 24.8463 15.7697C24.8463 15.9248 24.7805 16.0593 24.6488 16.173C24.5317 16.2868 24.3415 16.3437 24.078 16.3437C23.8878 16.3437 23.6683 16.323 23.4195 16.2816L22.6293 16.142C22.3512 16.08 22.0439 16.0282 21.7073 15.9869C21.3854 15.9455 21.0415 15.9248 20.6756 15.9248C20.061 15.9248 19.5561 15.992 19.161 16.1265C18.7805 16.2609 18.5902 16.473 18.5902 16.7625C18.5902 16.928 18.6561 17.0676 18.7878 17.1814C18.9341 17.2952 19.1244 17.3986 19.3585 17.4917C19.6073 17.5744 19.8927 17.6468 20.2146 17.7088C20.5512 17.7709 20.9024 17.8329 21.2683 17.895C21.7219 17.9777 22.1683 18.0708 22.6073 18.1742C23.061 18.2776 23.4634 18.4224 23.8146 18.6086C24.1658 18.7844 24.4512 19.0119 24.6707 19.2912C24.8902 19.5601 25 19.8962 25 20.2995C25 20.9511 24.7 21.494 24.1 21.9284C23.5 22.3524 22.6219 22.6213 21.4658 22.7351V23.9606C21.4658 24.2088 21.4366 24.4002 21.378 24.5346C21.3341 24.6691 21.2683 24.7725 21.1805 24.8449C21.0927 24.9173 20.9902 24.9586 20.8732 24.969C20.7561 24.9897 20.6244 25 20.478 25C20.3463 25 20.2219 24.9845 20.1049 24.9535C19.9878 24.9328 19.8854 24.8811 19.7976 24.7983C19.7098 24.7259 19.6366 24.6225 19.578 24.4881C19.5195 24.3536 19.4829 24.183 19.4683 23.9761V22.7816C19.1024 22.7713 18.7146 22.7403 18.3049 22.6885C17.8951 22.6368 17.5219 22.5593 17.1854 22.4559C16.8488 22.3421 16.5634 22.2025 16.3293 22.037C16.1098 21.8612 16 21.6492 16 21.401C16 21.1941 16.0658 21.039 16.1976 20.9356C16.3439 20.8218 16.5195 20.7649 16.7244 20.7649C16.8854 20.7649 17.0537 20.8011 17.2293 20.8735C17.4049 20.9459 17.6171 21.0235 17.8658 21.1062C18.1146 21.1889 18.4146 21.2665 18.7658 21.3389C19.1171 21.4113 19.5488 21.4475 20.061 21.4475C20.2512 21.4475 20.5 21.4423 20.8073 21.432C21.1146 21.4113 21.4146 21.3648 21.7073 21.2924C22.0146 21.22 22.2707 21.1217 22.4756 20.9976C22.6951 20.8632 22.8049 20.677 22.8049 20.4391C22.8049 20.253 22.7317 20.0979 22.5854 19.9738C22.439 19.8393 22.2415 19.7255 21.9927 19.6325C21.7439 19.5394 21.4512 19.4618 21.1146 19.3998C20.7927 19.3274 20.4488 19.255 20.0829 19.1826C19.6585 19.0998 19.2268 19.0068 18.7878 18.9033C18.3634 18.7999 17.9756 18.6655 17.6244 18.5C17.2732 18.3345 16.9878 18.1277 16.7683 17.8795C16.5488 17.6209 16.439 17.3055 16.439 16.9332C16.439 16.3333 16.7244 15.8162 17.2951 15.3819C17.8658 14.9475 18.6415 14.6579 19.6219 14.5131C19.6366 13.6444 19.6219 14.605 19.6219 13C19.6219 11.395 21.4658 11.395 21.4658 13C21.4658 14.605 21.4658 14.5131 21.4658 14.5131Z" fill="black"/>
</svg>
