<svg width="40" height="40" viewBox="0 0 40 40" fill="none" xmlns="http://www.w3.org/2000/svg">
<path d="M12.5478 15.407C12.8816 15.407 13.1994 15.4778 13.488 15.605C13.8389 14.7038 14.6996 14.065 15.7039 14.065C16.077 14.065 16.4303 14.1532 16.745 14.3101C17.1433 13.5298 17.9415 12.9954 18.8598 12.9954C19.1297 12.9954 19.3889 13.0422 19.6311 13.1273V10.4405C19.631 9.09487 20.7009 8 22.0159 8C23.3309 8 24.4006 9.09487 24.4006 10.4405V20.1086L26.1182 18.1115C26.1302 18.0979 26.1424 18.0845 26.1552 18.0716C26.6061 17.6129 27.2064 17.3586 27.8452 17.3555C27.8493 17.3555 27.8532 17.3555 27.8574 17.3555C28.4947 17.3555 29.0915 17.6056 29.5387 18.0605C30.3273 18.8622 30.3709 20.0521 29.6581 21.3258C28.7354 22.9734 27.7324 24.527 26.8474 25.898C26.2006 26.8998 25.5897 27.8461 25.1431 28.6285C24.7558 29.3074 23.7277 31.5094 23.7172 31.5316C23.5838 31.8177 23.3 32.0001 22.9887 32.0001H12.7899C12.4395 32.0001 12.1294 31.7704 12.0219 31.4316C11.8318 30.8305 10.1631 25.5005 10.1631 23.442V17.8478C10.1632 16.5018 11.2329 15.407 12.5478 15.407ZM13.3191 17.8477C13.3191 17.4058 12.973 17.0464 12.5478 17.0464C12.1224 17.0464 11.7763 17.4058 11.7763 17.8477V23.442C11.7763 24.8099 12.8108 28.4874 13.3816 30.3606H22.48C22.8145 29.6534 23.4412 28.3433 23.7477 27.806C24.2166 26.9843 24.8394 26.0197 25.4987 24.9984C26.3706 23.6481 27.3587 22.1174 28.2562 20.515C28.4904 20.0963 28.7051 19.5319 28.3977 19.2195C28.2544 19.0735 28.0613 18.9972 27.853 18.9949C27.6497 18.996 27.4585 19.0739 27.3119 19.2148L24.2012 22.8314C23.9802 23.0886 23.6249 23.1793 23.3105 23.0593C22.9958 22.9392 22.7874 22.6334 22.7874 22.2919V10.4405C22.7874 9.99871 22.4413 9.63944 22.0159 9.63944C21.5903 9.63944 21.2441 9.99871 21.2441 10.4405V18.0939C21.2441 18.5466 20.8829 18.9136 20.4376 18.9136C19.9923 18.9136 19.631 18.5466 19.631 18.0939V15.4356C19.631 14.9941 19.285 14.6349 18.8597 14.6349C18.4343 14.6349 18.0882 14.9941 18.0882 15.4356V19.1631C18.0882 19.616 17.7271 19.9829 17.2818 19.9829C16.8364 19.9829 16.4751 19.6161 16.4751 19.1631V16.5055C16.4751 16.0637 16.1291 15.7043 15.7038 15.7043C15.2783 15.7043 14.9321 16.0637 14.9321 16.5055V20.2331C14.9321 20.6857 14.571 21.0529 14.1255 21.0529C13.68 21.0529 13.3189 20.6857 13.3189 20.2331V17.8477H13.3191Z" fill="white"/>
</svg>
