<svg width="32" height="32" viewBox="0 0 40 40" fill="none" xmlns="http://www.w3.org/2000/svg">
<path d="M20.9524 32C21.5732 32 22.1501 31.8129 22.6295 31.4921C22.9831 31.8078 23.4517 32 23.9654 32H29.9913C31.1007 32 32 31.1036 32 29.9978V13.9799C32 12.8741 31.1007 11.9776 29.9913 11.9776H23.9654C23.2436 11.9776 22.6107 12.3571 22.2566 12.9268L19.8564 9.33772C18.9333 7.95759 17.0627 7.58465 15.6781 8.50473C14.6428 9.19275 14.1383 10.4444 14.4082 11.6552L14.9264 13.9799H12.0173C9.79861 13.9799 8 15.7727 8 17.9843C8 18.3067 8.03906 18.628 8.11633 18.941L10.5873 28.9522C11.029 30.742 12.6393 32 14.4883 32H20.9524ZM20.9524 29.9978H14.4883C13.6182 29.9978 12.8538 29.4406 12.5827 28.629L12.5378 28.4739L10.0668 18.4627C10.0282 18.3061 10.0087 18.1455 10.0087 17.9843C10.0087 16.9288 10.8281 16.064 11.8674 15.9876L12.0173 15.9821H17.4305L16.369 11.2208C16.279 10.8173 16.4472 10.4 16.7923 10.1707C17.2209 9.88591 17.7891 9.97275 18.1145 10.3549L18.1851 10.4484L21.8861 15.9821L21.9567 15.9831V28.9966C21.9567 29.5101 21.569 29.9332 21.0695 29.991L20.9524 29.9978ZM29.9913 29.9978H23.9654V13.9799H29.9913V29.9978Z" fill="white"/>
</svg>
