<svg width="40" height="40" viewBox="0 0 40 40" fill="none" xmlns="http://www.w3.org/2000/svg">
<path fill-rule="evenodd" clip-rule="evenodd" d="M14 32H21H21.2C22.3 31.8998 23.2 30.9976 23.2 29.7948V14.4583H23.1C22.7 14.2578 22.3 13.9571 22 13.5562L18.9 8.94522L18.8 8.84498C18.1 7.94283 16.9 7.74236 15.9 8.34379C15.2 8.84498 14.8 9.74712 15 10.6493L15.5 12.8545V12.9547C15.5 13.6564 15.1 14.2578 14.4 14.4583H14.1H11.3H11.1C9.4 14.5586 8 16.0621 8 17.7662C8 18.0669 8 18.2674 8.1 18.5681L10.8 29.494V29.6945C11.3 31.0979 12.5 32 14 32ZM25.0998 12.2531C24.6998 12.3533 24.2998 12.7543 24.2998 13.3557V30.8974V30.9976C24.3998 31.599 24.7998 32 25.1998 32H31.0998H31.1998C31.5998 31.8998 31.9998 31.4988 31.9998 30.8974V13.3557V13.2555C31.8998 12.654 31.4998 12.2531 31.0998 12.2531H25.1998H25.0998Z" fill="#2A2B2B"/>
</svg>
