<svg width="40" height="40" viewBox="0 0 40 40" fill="none" xmlns="http://www.w3.org/2000/svg">
<path fill-rule="evenodd" clip-rule="evenodd" d="M11.5146 28.2764C11.7404 28.5019 12.0362 28.6145 12.3322 28.6145C12.6285 28.6145 12.9251 28.5013 13.151 28.2749C13.6026 27.8224 13.6017 27.0899 13.1495 26.6383C11.3213 24.8135 10.3141 22.3874 10.3141 19.8071C10.3141 17.2268 11.3213 14.8009 13.1495 12.9762C13.6017 12.5245 13.6026 11.7921 13.151 11.3398C12.6996 10.8873 11.9668 10.8867 11.5146 11.3381C9.24818 13.6001 8 16.6078 8 19.8074C8 23.0067 9.24818 26.0143 11.5146 28.2764ZM26.849 28.2749C27.0749 28.5013 27.3715 28.6145 27.6681 28.6145C27.9638 28.6145 28.2596 28.5019 28.4854 28.2767C30.7518 26.0146 32 23.0067 32 19.8074C32.0003 16.6081 30.7518 13.6004 28.4854 11.3384C28.0332 10.8867 27.3007 10.8876 26.849 11.3398C26.3974 11.7924 26.3983 12.5248 26.8505 12.9765C28.6787 14.8012 29.6859 17.2271 29.6859 19.8074C29.6859 22.3877 28.6787 24.8135 26.8505 26.6383C26.3983 27.0899 26.3974 27.8224 26.849 28.2749ZM25.0506 25.2076C24.754 25.2076 24.4574 25.0944 24.2316 24.8677C23.7799 24.4154 23.7808 23.6827 24.233 23.2313C25.1495 22.3166 25.6541 21.1006 25.6541 19.8074C25.6541 18.5142 25.1495 17.2982 24.233 16.3834C23.7808 15.9318 23.7799 15.1993 24.2316 14.7468C24.6829 14.2946 25.4157 14.2937 25.8679 14.7453C27.2226 16.0974 27.9685 17.8949 27.9685 19.8074C27.9685 21.7196 27.2226 23.5174 25.8679 24.8694C25.6421 25.0949 25.3464 25.2076 25.0506 25.2076ZM21.7247 21.5256C20.7737 22.4746 19.2324 22.4746 18.2815 21.5256C17.3308 20.5767 17.3308 19.0381 18.2815 18.0891C19.2324 17.1402 20.7737 17.1402 21.7247 18.0891C22.6754 19.0381 22.6754 20.5767 21.7247 21.5256ZM14.9497 25.2076C14.6539 25.2076 14.3582 25.0949 14.1321 24.8694C12.7774 23.5174 12.0315 21.7196 12.0315 19.8074C12.0315 17.8949 12.7774 16.0974 14.1321 14.7453C14.5843 14.2937 15.3171 14.2943 15.7684 14.7468C16.2201 15.199 16.2192 15.9318 15.767 16.3834C14.8505 17.2982 14.3459 18.5142 14.3459 19.8074C14.3459 21.1006 14.8505 22.3166 15.767 23.2313C16.2192 23.6827 16.2201 24.4154 15.7684 24.8677C15.5426 25.0941 15.246 25.2076 14.9497 25.2076Z" fill="#272525"/>
</svg>
