<svg width="40" height="40" viewBox="0 0 40 40" fill="none" xmlns="http://www.w3.org/2000/svg">
<path d="M20.0063 25.1854C21.2715 26.3149 22.9706 27 24.8187 27C28.7877 27 32.0001 23.8636 32.0001 20.0059C32.0001 16.1366 28.7877 13 24.8187 13C22.9706 13 21.2715 13.685 20.0063 14.8146C18.5551 16.1004 17.6372 17.951 17.6372 20.0059C17.6374 22.0608 18.5551 23.9116 20.0063 25.1854Z" fill="#E9B040"/>
<path d="M31.0454 23.8995C31.0454 23.7793 31.1447 23.6832 31.2686 23.6832C31.405 23.6832 31.5041 23.7794 31.5041 23.8995C31.5041 24.0319 31.4048 24.1279 31.2686 24.1279C31.1447 24.1279 31.0454 24.0319 31.0454 23.8995ZM31.2686 24.08C31.3679 24.08 31.4544 23.9957 31.4544 23.8996C31.4544 23.8036 31.3677 23.7315 31.2686 23.7315C31.1816 23.7315 31.095 23.8036 31.095 23.8996C31.095 23.9957 31.1818 24.08 31.2686 24.08ZM31.2438 24.0078H31.1942V23.8034H31.2809C31.2934 23.8034 31.3182 23.8034 31.3305 23.8156C31.3553 23.8275 31.3553 23.8397 31.3553 23.8637C31.3553 23.8877 31.3431 23.9118 31.3182 23.9118L31.3679 24.008H31.3057L31.2809 23.9237H31.2438V24.0078V23.8876H31.2934C31.3057 23.8876 31.3057 23.8754 31.3057 23.8636C31.3057 23.8514 31.3057 23.8514 31.2934 23.8395H31.2438V24.0078Z" fill="#E9B040"/>
<path d="M22.3257 19.261C22.3009 19.0087 22.2512 18.7684 22.2016 18.5159H17.8108C17.8605 18.2636 17.9349 18.0233 18.0092 17.7829H21.9908C21.9044 17.5299 21.805 17.2812 21.6931 17.0378H18.3194C18.4435 16.7833 18.5801 16.5346 18.7287 16.2927H21.2716C21.1079 16.0361 20.9256 15.7911 20.7259 15.5597H19.2746C19.4991 15.2941 19.7437 15.045 20.0064 14.8146C18.7289 13.697 17.042 13 15.1814 13C11.2248 13 8 16.1366 8 20.0059C8 23.8636 11.2248 27 15.1814 27C17.042 27 18.7287 26.3149 20.0064 25.1854C20.265 24.959 20.5056 24.7139 20.7259 24.4522H19.2746C19.076 24.2119 18.9025 23.9716 18.7287 23.7071H21.2716C21.4314 23.4695 21.5724 23.2204 21.6933 22.9621H18.3194C18.2077 22.7218 18.0962 22.4815 18.0092 22.2289H21.9908C22.0775 21.9886 22.1397 21.7364 22.2014 21.4838C22.2511 21.2435 22.3007 20.9913 22.3255 20.7387C22.3507 20.4951 22.3631 20.2504 22.3629 20.0055C22.3629 19.7536 22.3505 19.5013 22.3257 19.261Z" fill="#CC2131"/>
<path d="M31.0454 21.6283C31.0454 21.4962 31.1447 21.4001 31.2686 21.4001C31.405 21.4001 31.5041 21.4963 31.5041 21.6283C31.5041 21.7485 31.4048 21.8567 31.2686 21.8567C31.1447 21.8567 31.0454 21.7484 31.0454 21.6283ZM31.2686 21.7964C31.3679 21.7964 31.4544 21.7243 31.4544 21.6283C31.4544 21.5322 31.3677 21.4601 31.2686 21.4601C31.1816 21.4601 31.095 21.5322 31.095 21.6283C31.095 21.7243 31.1818 21.7964 31.2686 21.7964ZM31.2438 21.7243H31.1942V21.5321H31.3305C31.3553 21.5443 31.3553 21.5683 31.3553 21.5924C31.3553 21.6042 31.3431 21.6283 31.3182 21.6404L31.3679 21.7245H31.3057L31.2809 21.6523H31.2438V21.7243V21.6163H31.2686C31.2809 21.6163 31.2934 21.6163 31.2934 21.6041C31.3057 21.6041 31.3057 21.5922 31.3057 21.5801C31.3057 21.5801 31.3057 21.5682 31.2934 21.5682C31.2934 21.556 31.2809 21.5682 31.2686 21.5682H31.2438V21.7243Z" fill="white"/>
<path d="M17.5625 22.0249C17.3269 22.0849 17.1532 22.1211 16.9796 22.1211C16.6075 22.1211 16.3841 21.8927 16.3841 21.4841C16.3841 21.4001 16.3966 21.3159 16.409 21.2197L16.4586 20.9435L16.4958 20.7151L16.8307 18.7444H17.5749L17.488 19.177H17.9594L17.8477 19.898H17.3764L17.178 21.0756C17.1656 21.1359 17.1656 21.1718 17.1656 21.1958C17.1656 21.3521 17.24 21.4121 17.426 21.4121C17.5129 21.4121 17.5872 21.4002 17.6616 21.388L17.5625 22.0249ZM19.9688 22.0009C19.696 22.073 19.448 22.1089 19.175 22.1089C18.3315 22.1089 17.8477 21.6763 17.8477 20.8233C17.8477 19.8258 18.4184 19.1047 19.2121 19.1047C19.8446 19.1047 20.2539 19.5133 20.2539 20.1501C20.2539 20.3666 20.2291 20.5708 20.1672 20.8592H18.6167C18.6043 20.9073 18.6043 20.9313 18.6043 20.9554C18.6043 21.2919 18.84 21.46 19.2865 21.46C19.5717 21.46 19.8198 21.4001 20.0927 21.28L19.9688 22.0009ZM19.5099 20.2824V20.1382C19.5099 19.8979 19.3734 19.7656 19.1378 19.7656C18.8896 19.7656 18.716 19.9458 18.6416 20.2823H19.5099V20.2824ZM11.6089 22.0608H10.8399L11.2864 19.3331L10.2818 22.0608H9.74851L9.68647 19.3452L9.21511 22.0608H8.4585L9.06621 18.5159H10.1949L10.2197 20.7032L10.9763 18.5159H12.2167L11.6089 22.0608ZM13.4819 20.7752C13.4075 20.763 13.3827 20.763 13.333 20.763C12.8865 20.763 12.6633 20.9312 12.6633 21.1957C12.6633 21.376 12.775 21.4962 12.9485 21.4962C13.3206 21.4962 13.4694 21.1957 13.4819 20.7752ZM14.1021 22.0608H13.4323L13.4447 21.7606C13.271 21.9887 13.0354 22.1089 12.6261 22.1089C12.254 22.1089 11.9315 21.7846 11.9315 21.3159C11.9315 21.1838 11.9563 21.0637 11.9935 20.9435C12.1175 20.4987 12.5764 20.2225 13.2834 20.2103C13.3703 20.2103 13.5066 20.2103 13.6307 20.2225C13.6554 20.1263 13.6554 20.0901 13.6554 20.0301C13.6554 19.8378 13.4942 19.7777 13.1345 19.7777C12.9113 19.7777 12.6631 19.8137 12.4896 19.8738L12.3779 19.8979L12.3283 19.9098L12.4399 19.2609C12.7996 19.1527 13.0601 19.1047 13.3454 19.1047C14.0152 19.1047 14.3749 19.4051 14.3749 19.9579C14.3749 20.1021 14.3873 20.2103 14.3377 20.5227L14.1641 21.5562L14.1393 21.7365L14.1269 21.8808L14.1145 21.977L14.1021 22.0608ZM23.7146 19.2009C23.9378 19.2009 24.1364 19.261 24.4092 19.3931L24.5455 18.624C24.4711 18.5879 24.4463 18.5879 24.3472 18.5519L24.0372 18.4677C23.938 18.4437 23.814 18.4316 23.6774 18.4316C23.2928 18.4316 23.0696 18.4437 22.8341 18.5759C22.71 18.6601 22.5487 18.7683 22.375 18.9605L22.2757 18.9364L21.4819 19.4771L21.5193 19.1767H20.7005L20.217 22.0607H20.9985L21.2836 20.5107C21.2836 20.5107 21.3955 20.2942 21.445 20.2223C21.5938 20.042 21.7178 20.042 21.8789 20.042H21.9411C21.9151 20.2252 21.9026 20.4099 21.9038 20.5947C21.9038 21.532 22.4494 22.1209 23.2929 22.1209C23.5038 22.1209 23.6901 22.0969 23.9752 22.0248L24.1118 21.2077C23.8638 21.3398 23.6405 21.3999 23.4544 21.3999C22.9955 21.3999 22.7224 21.0634 22.7224 20.5348C22.7221 19.7536 23.1316 19.2009 23.7146 19.2009ZM30.3005 18.5159L30.1271 19.5254C29.9409 19.249 29.7176 19.1167 29.4199 19.1167C29.0105 19.1167 28.6261 19.345 28.3903 19.7777V19.7658L27.8943 19.4773L27.9439 19.1769H27.1129L26.6415 22.0608H27.4105L27.6711 20.5109C27.6711 20.5109 27.8695 20.2943 27.9191 20.2225C28.0432 20.0782 28.1671 20.054 28.2664 20.0422C28.1797 20.2824 28.1301 20.5708 28.1301 20.8954C28.1301 21.6165 28.5144 22.097 29.0849 22.097C29.3703 22.097 29.5935 22.0009 29.8043 21.7725L29.7672 22.0608H30.4992L31.0945 18.5159H30.3005ZM29.3456 21.376C29.0851 21.376 28.9487 21.1838 28.9487 20.8111C28.9487 20.2462 29.1967 19.8378 29.5563 19.8378C29.8291 19.8378 29.9658 20.0422 29.9658 20.4027C29.9658 20.9794 29.7177 21.376 29.3456 21.376ZM25.7613 20.7752C25.6868 20.763 25.662 20.763 25.6124 20.763C25.1655 20.763 24.9423 20.9312 24.9423 21.1957C24.9423 21.376 25.0541 21.4962 25.2277 21.4962C25.5998 21.4962 25.7487 21.1957 25.7613 20.7752ZM26.3814 22.0608H25.6991L25.7239 21.7606C25.5503 21.9887 25.3144 22.1089 24.9054 22.1089C24.5207 22.1089 24.186 21.7965 24.186 21.3159C24.186 20.6311 24.7191 20.2105 25.5626 20.2105C25.6496 20.2105 25.7858 20.2105 25.8976 20.2226C25.9224 20.1264 25.935 20.0902 25.935 20.0303C25.935 19.8379 25.7737 19.7778 25.4016 19.7778C25.1906 19.7778 24.9302 19.8139 24.7566 19.874L24.6574 19.898L24.6077 19.9099L24.7193 19.261C25.0791 19.1528 25.3397 19.1049 25.6248 19.1049C26.2945 19.1049 26.6418 19.4053 26.6418 19.958C26.6418 20.1023 26.6666 20.2105 26.6047 20.5229L26.4434 21.5563L26.4186 21.7367L26.3938 21.8809L26.3815 21.9771V22.0608H26.3814ZM15.7268 19.7897C15.8757 19.7897 16.0865 19.8017 16.3098 19.8378L16.4215 19.1648C16.1982 19.1408 15.9005 19.1047 15.7268 19.1047C14.8587 19.1047 14.5734 19.5614 14.5734 20.0901C14.5734 20.4387 14.7346 20.6909 15.1563 20.8831C15.4664 21.0274 15.516 21.0513 15.516 21.1837C15.516 21.3637 15.3548 21.4721 15.057 21.4721C14.8214 21.4721 14.5981 21.4358 14.3501 21.3518L14.2632 22.0126L14.2755 22.0248L14.4244 22.0488C14.474 22.0607 14.536 22.0729 14.6229 22.0847C14.8089 22.0969 14.9702 22.1088 15.0695 22.1088C15.9377 22.1088 16.2974 21.7845 16.2974 21.1475C16.2974 20.751 16.0989 20.5107 15.7144 20.3426C15.3795 20.1982 15.3423 20.1744 15.3423 20.042C15.3423 19.9099 15.4912 19.7897 15.7268 19.7897Z" fill="#1B3771"/>
<path d="M24.7566 18.3957L24.6199 19.1648C24.3471 19.0326 24.1486 18.9726 23.9254 18.9726C23.3423 18.9726 22.9331 19.5253 22.9331 20.3065C22.9331 20.8473 23.206 21.1716 23.6651 21.1716C23.8509 21.1716 24.0743 21.1117 24.3223 20.9916L24.1859 21.7965C23.9005 21.8686 23.7146 21.9048 23.5036 21.9048C22.6603 21.9048 22.1393 21.3159 22.1393 20.3667C22.1393 19.1049 22.8587 18.2155 23.8881 18.2155C24.0245 18.2155 24.1484 18.2275 24.2477 18.2516L24.5579 18.3237C24.6573 18.3598 24.6821 18.3718 24.7566 18.3957ZM22.251 18.9245H22.1765C21.9163 18.9245 21.7674 19.0447 21.5316 19.3931L21.606 18.9484H20.8989L20.4154 21.8326H21.197C21.4821 20.066 21.5566 19.7656 21.9287 19.7656H21.9783C22.0527 19.4171 22.1519 19.1647 22.2759 18.9364L22.251 18.9245ZM17.7611 21.7965C17.5503 21.8686 17.3766 21.8927 17.203 21.8927C16.8061 21.8927 16.5828 21.6764 16.5828 21.2559C16.5828 21.1838 16.5952 21.0878 16.6076 21.0035L16.6572 20.7151L16.6944 20.4869L17.0293 18.5159H17.7983L17.7115 18.9486H18.1084L18.0091 19.6576H17.6122L17.4014 20.8593C17.389 20.9074 17.389 20.9436 17.389 20.9796C17.389 21.1238 17.4635 21.1839 17.6494 21.1839C17.7363 21.1839 17.8106 21.1839 17.8602 21.1599L17.7611 21.7965ZM14.7719 19.8618C14.7719 20.2225 14.9455 20.4746 15.3548 20.667C15.6772 20.8113 15.7269 20.8592 15.7269 20.9794C15.7269 21.1597 15.5904 21.2438 15.2803 21.2438C15.0447 21.2438 14.8338 21.2078 14.5858 21.1357L14.4741 21.7965L14.5113 21.8086L14.6478 21.8327C14.6973 21.8446 14.7595 21.8567 14.8586 21.8567C15.0322 21.8808 15.1811 21.8808 15.2803 21.8808C16.0988 21.8808 16.4835 21.5802 16.4835 20.9195C16.4835 20.5227 16.3223 20.2943 15.9378 20.1143C15.6029 19.97 15.5657 19.9341 15.5657 19.8018C15.5657 19.6457 15.7022 19.5736 15.9502 19.5736C16.0991 19.5736 16.3099 19.5856 16.5085 19.6096L16.62 18.9487C16.4216 18.9126 16.1115 18.8886 15.9378 18.8886C15.0695 18.8885 14.7595 19.3331 14.7719 19.8618ZM30.6978 21.8327H29.9658L30.0032 21.5562C29.7923 21.7724 29.5689 21.8686 29.2835 21.8686C28.713 21.8686 28.3409 21.4002 28.3409 20.6792C28.3409 19.7177 28.924 18.9005 29.606 18.9005C29.9162 18.9005 30.1394 19.0327 30.3505 19.2971L30.5241 18.2876H31.2931L30.6978 21.8327ZM29.5565 21.1597C29.9163 21.1597 30.1644 20.7511 30.1644 20.1863C30.1644 19.8137 30.0277 19.6214 29.7549 19.6214C29.4076 19.6214 29.1473 20.018 29.1473 20.5828C29.1473 20.9675 29.2837 21.1597 29.5565 21.1597ZM20.1425 21.7724C19.8695 21.8567 19.6215 21.8927 19.3362 21.8927C18.4679 21.8927 18.0214 21.4481 18.0214 20.5949C18.0214 19.6095 18.592 18.8764 19.3734 18.8764C20.0184 18.8764 20.4276 19.285 20.4276 19.9219C20.4276 20.1383 20.4027 20.3427 20.3283 20.6429H18.7905C18.7781 20.6792 18.7781 20.7032 18.7781 20.7272C18.7781 21.0637 19.0139 21.2319 19.4603 21.2319C19.7455 21.2319 19.9936 21.1838 20.2665 21.0516L20.1425 21.7724ZM19.7083 20.054V19.9099C19.7083 19.6696 19.5718 19.5374 19.3362 19.5374C19.0882 19.5374 18.9145 19.7177 18.84 20.054H19.7083ZM11.8075 21.8327H11.0385L11.485 19.1047L10.4804 21.8327H9.94698L9.88494 19.1288L9.41372 21.8327H8.69434L9.30205 18.2876H10.4184L10.4556 20.4868L11.1996 18.2876H12.4152L11.8075 21.8327ZM13.73 20.5468C13.6556 20.5468 13.6184 20.5349 13.5563 20.5349C13.1222 20.5349 12.899 20.691 12.899 20.9794C12.899 21.1597 12.9982 21.2678 13.1718 21.2678C13.4943 21.2678 13.7176 20.9794 13.73 20.5468ZM14.3005 21.8327H13.6554L13.6678 21.5321C13.4693 21.7724 13.2089 21.8808 12.8492 21.8808C12.4275 21.8808 12.1422 21.5684 12.1422 21.0996C12.1422 20.3908 12.6383 19.9822 13.5065 19.9822C13.5934 19.9822 13.7051 19.9942 13.829 20.0061C13.8538 19.91 13.8538 19.874 13.8538 19.8259C13.8538 19.6337 13.7173 19.5615 13.3576 19.5615C13.1344 19.5615 12.8863 19.5856 12.7127 19.6337L12.601 19.6697L12.5266 19.6818L12.6383 19.0329C13.0228 18.9247 13.2832 18.8886 13.5686 18.8886C14.2383 18.8886 14.598 19.177 14.598 19.7297C14.598 19.874 14.5856 19.9822 14.536 20.3066L14.3623 21.3282L14.3375 21.5082L14.325 21.6525L14.3126 21.7608L14.3005 21.8327ZM26.0094 20.5468C25.9224 20.5468 25.8853 20.5349 25.8358 20.5349C25.3892 20.5349 25.1658 20.691 25.1658 20.9794C25.1658 21.1597 25.2776 21.2678 25.4511 21.2678C25.7613 21.2678 25.9968 20.9794 26.0094 20.5468ZM26.5799 21.8327H25.9349L25.9472 21.5321C25.7488 21.7724 25.4884 21.8808 25.1287 21.8808C24.7069 21.8808 24.4215 21.5684 24.4215 21.0996C24.4215 20.3908 24.9176 19.9822 25.7859 19.9822C25.8729 19.9822 25.9845 19.9942 26.0961 20.0061C26.1209 19.91 26.1334 19.874 26.1334 19.8259C26.1334 19.6337 25.9968 19.5615 25.6374 19.5615C25.4139 19.5615 25.1536 19.5856 24.9799 19.6337L24.8807 19.6697L24.8062 19.6818L24.9177 19.0329C25.3024 18.9247 25.5627 18.8886 25.8481 18.8886C26.5178 18.8886 26.8651 19.177 26.8651 19.7297C26.8651 19.874 26.8651 19.9822 26.8032 20.3066L26.6419 21.3282L26.6171 21.5082L26.5923 21.6525L26.58 21.7608V21.8327H26.5799ZM28.6636 18.9245H28.5891C28.3288 18.9245 28.1799 19.0447 27.9442 19.3931L28.0186 18.9484H27.3115L26.8401 21.8326H27.6091C27.8945 20.066 27.969 19.7656 28.3411 19.7656H28.3907C28.4652 19.4171 28.5643 19.1647 28.6884 18.9364L28.6636 18.9245Z" fill="white"/>
</svg>
