<svg width="40" height="40" viewBox="0 0 40 40" fill="none" xmlns="http://www.w3.org/2000/svg">
<path fill-rule="evenodd" clip-rule="evenodd" d="M12 10C12 8.89543 12.8954 8 14 8H26C27.1046 8 28 8.89543 28 10V30C28 31.1046 27.1046 32 26 32H14C12.8954 32 12 31.1046 12 30V10ZM14 10.92C14 10.3677 14.4477 9.92 15 9.92H25C25.5523 9.92 26 10.3677 26 10.92V25.24C26 25.7923 25.5523 26.24 25 26.24H15C14.4477 26.24 14 25.7923 14 25.24V10.92ZM20 30.08C20.5523 30.08 21 29.6502 21 29.12C21 28.5898 20.5523 28.16 20 28.16C19.4477 28.16 19 28.5898 19 29.12C19 29.6502 19.4477 30.08 20 30.08Z" fill="#2A2B2B"/>
</svg>
