<svg width="40" height="40" viewBox="0 0 40 40" fill="none" xmlns="http://www.w3.org/2000/svg">
<path fill-rule="evenodd" clip-rule="evenodd" d="M20 32C26.6274 32 32 26.6274 32 20C32 13.3726 26.6274 8 20 8C17.0153 8 14.2852 9.08965 12.1856 10.8928L12 11L12.0212 11.0367C9.55389 13.2345 8 16.4358 8 20C8 26.6274 13.3726 32 20 32ZM20 10C18.025 10 16.1837 10.5725 14.6331 11.5607L16.7322 15.1963L19.3305 13.6962L20.3305 15.4282L17.7322 16.9284L19.232 19.5263L17.5 20.5263L16.0001 17.9284L13.4023 19.4282L12.4023 17.6962L15.0001 16.1963L13.0468 12.813C11.168 14.6311 10 17.1791 10 20C10 25.5228 14.4772 30 20 30C21.9174 30 23.7088 29.4603 25.2306 28.5246L22.0145 22.9543L21.116 25.3971L19.5 24.5981L21.4641 20L26.4282 20.5981L26.3122 22.3971L23.7462 21.9536L26.8335 27.301C28.7822 25.4762 30 22.8803 30 20C30 14.4772 25.5228 10 20 10Z" fill="black"/>
</svg>
