<svg width="10" height="8" viewBox="0 0 10 8" fill="none" xmlns="http://www.w3.org/2000/svg">
<path d="M8.41488 1.07786C8.71481 0.727497 9.22041 0.706599 9.54416 1.03118C9.85088 1.33868 9.88435 1.84593 9.632 2.19637L9.58729 2.25326L5.58906 6.92371C5.28799 7.27539 4.78422 7.29231 4.46366 6.97434L4.417 6.92413L0.413456 2.25368C0.11331 1.90354 0.132287 1.35638 0.455842 1.03157C0.762369 0.723851 1.23229 0.726087 1.53611 1.02489L1.58515 1.07744L4.70934 4.72177C4.85942 4.89684 5.11223 4.9071 5.274 4.74469C5.28138 4.73727 5.2885 4.72956 5.29535 4.72157L8.41488 1.07786Z" fill="#2A2B2B"/>
</svg>
