<svg width="10" height="8" viewBox="0 0 10 8" fill="none" xmlns="http://www.w3.org/2000/svg">
<path d="M8.41488 6.92214C8.71481 7.2725 9.22041 7.2934 9.54416 6.96882C9.85088 6.66132 9.88435 6.15407 9.632 5.80363L9.58729 5.74674L5.58906 1.07629C5.28799 0.724613 4.78422 0.707691 4.46366 1.02566L4.417 1.07587L0.413456 5.74632C0.11331 6.09646 0.132287 6.64362 0.455842 6.96843C0.762369 7.27615 1.23229 7.27391 1.53611 6.97511L1.58515 6.92256L4.70934 3.27823C4.85942 3.10316 5.11223 3.0929 5.274 3.25531C5.28138 3.26273 5.2885 3.27044 5.29535 3.27843L8.41488 6.92214Z" fill="#2A2B2B"/>
</svg>
