<svg width="12" height="16" viewBox="0 0 12 16" fill="none" xmlns="http://www.w3.org/2000/svg">
<path d="M11.2941 7.85971C11.0996 8.68872 10.7671 9.32449 10.2776 9.8034C9.80903 10.2619 9.20664 10.5554 8.43601 10.7007C7.99233 10.7845 7.53618 10.7923 7.14864 10.7889C7.14384 10.7889 7.13912 10.7888 7.13437 10.7888C6.61267 10.7888 6.31784 11.0421 6.23332 11.5624C6.13725 12.1539 6.04462 12.7555 5.95505 13.3374C5.91084 13.6244 5.86664 13.9115 5.82191 14.1984C5.80808 14.287 5.79503 14.3706 5.77479 14.4473C5.75182 14.5342 5.6856 14.6273 5.56851 14.6281C4.86682 14.6333 4.14173 14.6334 3.35183 14.6283C3.33786 14.6283 3.32898 14.6263 3.32468 14.6249C3.32087 14.6158 3.31504 14.589 3.32179 14.5425C3.34997 14.3477 3.38112 14.1492 3.41125 13.9572C3.43038 13.8352 3.44951 13.7133 3.46809 13.5913C3.47545 13.5431 3.47922 13.4967 3.48256 13.4557C3.48361 13.4427 3.48469 13.4296 3.48589 13.4165C3.50521 13.302 3.52479 13.1875 3.54436 13.0729C3.5886 12.8142 3.63436 12.5467 3.67662 12.2824C3.75233 11.8089 3.82667 11.3274 3.89855 10.8618L3.94664 10.5505C3.96133 10.4555 3.97624 10.3604 3.99118 10.2654C4.0245 10.0532 4.05865 9.83559 4.09028 9.61766C4.10083 9.545 4.1111 9.47229 4.12093 9.39978C4.15328 9.16158 4.27115 9.05469 4.50314 9.05321C4.6395 9.05233 4.77814 9.05281 4.91472 9.05358C4.96029 9.05386 5.00557 9.05415 5.05053 9.05446C5.10045 9.05477 5.15068 9.05512 5.20108 9.05537C5.50892 9.05711 5.8241 9.05699 6.13678 9.04368C7.10105 9.00262 7.91758 8.77892 8.63307 8.3597C9.52451 7.83739 10.1521 7.0425 10.5517 5.92959C10.5656 5.89086 10.5788 5.85205 10.5914 5.81315C10.5956 5.80041 10.5994 5.78764 10.6034 5.7749C10.6117 5.74863 10.6199 5.72235 10.6277 5.69605C10.6322 5.68104 10.6364 5.66602 10.6407 5.65101C10.6477 5.62678 10.6545 5.60258 10.6611 5.57836C10.6653 5.56269 10.6695 5.54702 10.6736 5.53138C10.6799 5.50749 10.6861 5.48366 10.692 5.45981C10.6959 5.44434 10.6998 5.42887 10.7036 5.4134C10.7096 5.3888 10.7154 5.36424 10.7212 5.33967C10.7246 5.32525 10.728 5.31083 10.7313 5.29642C10.7376 5.26892 10.7438 5.24148 10.7498 5.21407C10.7523 5.20292 10.7549 5.19175 10.7573 5.18063C10.7656 5.14269 10.7738 5.10482 10.7818 5.06708C11.0835 5.30958 11.2794 5.6474 11.3773 6.09079C11.4885 6.59495 11.4629 7.14052 11.2941 7.85971ZM2.43296 13.0946C1.83748 13.0947 1.16256 13.0948 0.600204 13.0967H0.600009C0.583044 13.0967 0.572215 13.0881 0.566107 13.0809C0.560053 13.0736 0.553334 13.0614 0.555888 13.0443C0.721626 11.9313 1.12832 9.20474 1.32471 7.92801C1.41684 7.32885 1.50944 6.72971 1.60205 6.1306C1.8204 4.71781 2.04617 3.2569 2.26233 1.81883C2.30609 1.52791 2.39614 1.42577 2.53533 1.36949H7.37438C8.19341 1.36949 8.93094 1.65678 9.31365 1.9028C10.0935 2.40406 10.4361 3.13631 10.361 4.14131C10.3536 4.2404 10.3433 4.33854 10.3325 4.44241C10.3282 4.48435 10.3238 4.5263 10.3196 4.56827C10.3009 4.6532 10.283 4.73831 10.2651 4.82345C10.1981 5.14201 10.1348 5.44292 10.0305 5.7333C9.67786 6.71535 9.13056 7.41302 8.35729 7.86608C7.72088 8.23896 6.98699 8.43829 6.1137 8.47548C5.76318 8.49039 5.40269 8.48803 5.05408 8.48575C4.87263 8.48456 4.68498 8.4833 4.4997 8.4845C3.98885 8.48777 3.64163 8.80062 3.57091 9.32144C3.53231 9.60557 3.48686 9.89513 3.44288 10.1751C3.42791 10.2706 3.41292 10.3661 3.39815 10.4615L3.35003 10.773C3.27828 11.2378 3.20406 11.7186 3.12859 12.1905C3.0868 12.4517 3.04135 12.7176 2.99736 12.9748C2.99056 13.0147 2.98373 13.0545 2.97693 13.0944C2.80586 13.0945 2.62274 13.0945 2.43296 13.0946ZM11.9189 5.96545C11.7695 5.288 11.4231 4.78151 10.8895 4.45578C10.8987 4.36689 10.9078 4.27623 10.9147 4.1847C11.0057 2.96641 10.5664 2.03659 9.60889 1.4211C9.16371 1.13496 8.31139 0.800781 7.37438 0.800781H2.44345L2.40158 0.814743C2.25833 0.862486 1.8224 1.00776 1.71347 1.73227C1.4975 3.16918 1.27179 4.62949 1.05355 6.04171C0.960918 6.64096 0.868317 7.24022 0.776132 7.83952C0.579573 9.1175 0.172711 11.8452 0.00689017 12.9586C-0.0195713 13.1362 0.0309359 13.3161 0.145473 13.4521C0.25962 13.5878 0.425192 13.6654 0.600009 13.6654H0.602009C1.16353 13.6636 1.838 13.6634 2.43307 13.6633C2.59278 13.6632 2.74755 13.6632 2.89463 13.6631C2.88408 13.7311 2.87361 13.799 2.86295 13.8669C2.83257 14.0606 2.80114 14.2609 2.77246 14.4591C2.74214 14.6685 2.78878 14.8596 2.90382 14.997C3.01086 15.1248 3.16871 15.1959 3.34836 15.1971C3.73887 15.1995 4.11358 15.2008 4.47751 15.2008C4.85214 15.2008 5.21535 15.1995 5.57251 15.1968C5.91984 15.1943 6.21655 14.9528 6.31082 14.5958C6.33878 14.4901 6.35477 14.3874 6.37027 14.2881C6.41508 14.0008 6.45934 13.7134 6.5036 13.426C6.59298 12.8453 6.68544 12.2448 6.78113 11.6557C6.82392 11.3923 6.89711 11.3558 7.1439 11.3576C7.55778 11.3612 8.04694 11.3525 8.53661 11.2601C9.417 11.094 10.112 10.752 10.6612 10.2146C11.2302 9.65792 11.6138 8.93108 11.834 7.99259C11.9617 7.44839 12.0868 6.72619 11.9189 5.96545Z" fill="#2A2B2B"/>
</svg>
