<svg width="40" height="40" viewBox="0 0 40 40" fill="none" xmlns="http://www.w3.org/2000/svg">
<path d="M28.8235 19.7649C28.4993 21.1466 27.9451 22.2062 27.1294 23.0044C26.3484 23.7685 25.3444 24.2577 24.06 24.4999C23.3205 24.6395 22.5603 24.6525 21.9144 24.6468C21.9064 24.6468 21.8985 24.6468 21.8906 24.6468C21.0211 24.6468 20.5297 25.0688 20.3889 25.9361C20.2288 26.9219 20.0744 27.9246 19.9251 28.8943C19.8514 29.3727 19.7777 29.8512 19.7032 30.3294C19.6801 30.477 19.6584 30.6164 19.6246 30.7442C19.5864 30.889 19.476 31.0442 19.2809 31.0456C18.1114 31.0542 16.9029 31.0544 15.5864 31.0459C15.5631 31.0458 15.5483 31.0426 15.5411 31.0403C15.5348 31.025 15.5251 30.9804 15.5363 30.9028C15.5833 30.5782 15.6352 30.2473 15.6854 29.9273C15.7173 29.7241 15.7492 29.5209 15.7801 29.3176C15.7924 29.2372 15.7987 29.1599 15.8043 29.0916C15.806 29.0698 15.8078 29.048 15.8098 29.0263C15.842 28.8353 15.8746 28.6445 15.9073 28.4536C15.981 28.0224 16.0573 27.5766 16.1277 27.136C16.2539 26.3468 16.3778 25.5444 16.4976 24.7684L16.5777 24.2495C16.6022 24.0911 16.6271 23.9328 16.652 23.7744C16.7075 23.4208 16.7644 23.058 16.8171 22.6948C16.8347 22.5737 16.8518 22.4525 16.8682 22.3317C16.9221 21.9347 17.1186 21.7565 17.5052 21.754C17.7325 21.7526 17.9636 21.7534 18.1912 21.7547C18.2671 21.7551 18.3426 21.7556 18.4175 21.7561C18.5008 21.7567 18.5845 21.7572 18.6685 21.7577C19.1815 21.7605 19.7068 21.7604 20.228 21.7382C21.8351 21.6697 23.196 21.2969 24.3884 20.5982C25.8742 19.7277 26.9202 18.4029 27.5862 16.548C27.6094 16.4835 27.6313 16.4188 27.6524 16.3539C27.6593 16.3327 27.6657 16.3114 27.6724 16.2902C27.6862 16.2464 27.6999 16.2026 27.7129 16.1588C27.7203 16.1338 27.7274 16.1087 27.7346 16.0837C27.7461 16.0433 27.7575 16.003 27.7685 15.9626C27.7756 15.9365 27.7825 15.9104 27.7894 15.8843C27.7998 15.8445 27.8101 15.8048 27.8201 15.765C27.8265 15.7393 27.833 15.7135 27.8393 15.6877C27.8493 15.6467 27.8591 15.6058 27.8686 15.5648C27.8743 15.5408 27.88 15.5168 27.8855 15.4927C27.896 15.4469 27.9063 15.4012 27.9164 15.3555C27.9205 15.3369 27.9248 15.3183 27.9289 15.2997C27.9427 15.2365 27.9563 15.1734 27.9697 15.1105C28.4725 15.5147 28.7991 16.0777 28.9621 16.8167C29.1475 17.657 29.1048 18.5662 28.8235 19.7649ZM14.0549 28.4896C13.0625 28.4899 11.9376 28.4901 11.0003 28.4932H11C10.9717 28.4932 10.9537 28.4789 10.9435 28.4668C10.9334 28.4547 10.9222 28.4344 10.9265 28.4059C11.2027 26.5509 11.8805 22.0066 12.2079 19.8787C12.3614 18.8801 12.5157 17.8816 12.6701 16.883C13.034 14.5284 13.4103 12.0935 13.7706 9.69675C13.8435 9.21188 13.9936 9.04164 14.2256 8.94785H22.2906C23.6557 8.94785 24.8849 9.42666 25.5227 9.8367C26.8225 10.6721 27.3934 11.8925 27.2683 13.5675C27.2559 13.7327 27.2389 13.8963 27.2209 14.0694C27.2136 14.1393 27.2063 14.2092 27.1993 14.2791C27.1681 14.4207 27.1383 14.5626 27.1084 14.7044C26.9968 15.2354 26.8914 15.7369 26.7175 16.2209C26.1298 17.8576 25.2176 19.0204 23.9288 19.7755C22.8681 20.397 21.645 20.7292 20.1895 20.7912C19.6053 20.816 19.0045 20.8121 18.4235 20.8083C18.121 20.8063 17.8083 20.8042 17.4995 20.8062C16.6481 20.8116 16.0694 21.3331 15.9515 22.2011C15.8872 22.6747 15.8114 23.1572 15.7381 23.6239C15.7132 23.7831 15.6882 23.9421 15.6636 24.1013L15.5834 24.6204C15.4638 25.3951 15.3401 26.1963 15.2143 26.9828C15.1447 27.4183 15.0689 27.8614 14.9956 28.2901C14.9843 28.3565 14.9729 28.4229 14.9615 28.4893C14.6764 28.4895 14.3712 28.4895 14.0549 28.4896ZM29.8649 16.6078C29.6158 15.4787 29.0385 14.6345 28.1491 14.0917C28.1645 13.9435 28.1797 13.7924 28.1911 13.6399C28.3428 11.6094 27.6106 10.0597 26.0148 9.03387C25.2729 8.55696 23.8523 8 22.2906 8H14.0724L14.0026 8.02327C13.7639 8.10284 13.0373 8.34497 12.8558 9.55249C12.4958 11.9473 12.1197 14.3812 11.7559 16.7349C11.6015 17.7336 11.4472 18.7324 11.2936 19.7312C10.966 21.8612 10.2879 26.4073 10.0115 28.263C9.96738 28.559 10.0516 28.8588 10.2425 29.0856C10.4327 29.3117 10.7087 29.4411 11 29.4411H11.0033C11.9392 29.438 13.0633 29.4377 14.0551 29.4375C14.3213 29.4374 14.5793 29.4373 14.8244 29.4372C14.8068 29.5505 14.7893 29.6637 14.7716 29.7769C14.721 30.0997 14.6686 30.4335 14.6208 30.7639C14.5702 31.1129 14.648 31.4313 14.8397 31.6603C15.0181 31.8734 15.2812 31.9918 15.5806 31.9938C16.2314 31.9979 16.856 32 17.4625 32C18.0869 32 18.6922 31.9978 19.2875 31.9934C19.8664 31.9891 20.3609 31.5866 20.518 30.9917C20.5646 30.8155 20.5913 30.6444 20.6171 30.4789C20.6918 30 20.7656 29.521 20.8393 29.042C20.9883 28.0742 21.1424 27.0734 21.3019 26.0916C21.3732 25.6525 21.4952 25.5917 21.9065 25.5947C22.5963 25.6006 23.4116 25.5861 24.2277 25.4321C25.695 25.1554 26.8533 24.5854 27.7687 23.6897C28.717 22.7619 29.3564 21.5505 29.7234 19.9864C29.9362 19.0794 30.1447 17.8757 29.8649 16.6078Z" fill="#2A2B2B"/>
</svg>
