<svg width="24" height="24" viewBox="0 0 24 24" fill="none" xmlns="http://www.w3.org/2000/svg">
    <path d="M17.2941 11.8597C17.0996 12.6887 16.7671 13.3245 16.2776 13.8034C15.809 14.2619 15.2066 14.5554 14.436 14.7007C13.9923 14.7845 13.5362 14.7923 13.1486 14.7889C13.1438 14.7889 13.1391 14.7888 13.1344 14.7888C12.6127 14.7888 12.3178 15.0421 12.2333 15.5624C12.1373 16.1539 12.0446 16.7555 11.955 17.3374C11.9108 17.6244 11.8666 17.9115 11.8219 18.1984C11.8081 18.287 11.795 18.3706 11.7748 18.4473C11.7518 18.5342 11.6856 18.6273 11.5685 18.6281C10.8668 18.6333 10.1417 18.6334 9.35183 18.6283C9.33786 18.6283 9.32898 18.6263 9.32468 18.6249C9.32087 18.6158 9.31504 18.589 9.32179 18.5425C9.34997 18.3477 9.38112 18.1492 9.41125 17.9572C9.43038 17.8352 9.44951 17.7133 9.46809 17.5913C9.47545 17.5431 9.47922 17.4967 9.48256 17.4557C9.48361 17.4427 9.48469 17.4296 9.48589 17.4165C9.50521 17.302 9.52479 17.1875 9.54436 17.0729C9.5886 16.8142 9.63436 16.5467 9.67662 16.2824C9.75233 15.8089 9.82667 15.3274 9.89855 14.8618L9.94664 14.5505C9.96133 14.4555 9.97624 14.3604 9.99118 14.2654C10.0245 14.0532 10.0587 13.8356 10.0903 13.6177C10.1008 13.545 10.1111 13.4723 10.1209 13.3998C10.1533 13.1616 10.2712 13.0547 10.5031 13.0532C10.6395 13.0523 10.7781 13.0528 10.9147 13.0536C10.9603 13.0539 11.0056 13.0541 11.0505 13.0545C11.1005 13.0548 11.1507 13.0551 11.2011 13.0554C11.5089 13.0571 11.8241 13.057 12.1368 13.0437C13.1011 13.0026 13.9176 12.7789 14.6331 12.3597C15.5245 11.8374 16.1521 11.0425 16.5517 9.92959C16.5656 9.89086 16.5788 9.85205 16.5914 9.81315C16.5956 9.80041 16.5994 9.78764 16.6034 9.7749C16.6117 9.74863 16.6199 9.72235 16.6277 9.69605C16.6322 9.68104 16.6364 9.66602 16.6407 9.65101C16.6477 9.62678 16.6545 9.60258 16.6611 9.57836C16.6653 9.56269 16.6695 9.54702 16.6736 9.53138C16.6799 9.50749 16.6861 9.48366 16.692 9.45981C16.6959 9.44434 16.6998 9.42887 16.7036 9.4134C16.7096 9.3888 16.7154 9.36424 16.7212 9.33967C16.7246 9.32525 16.728 9.31083 16.7313 9.29642C16.7376 9.26892 16.7438 9.24148 16.7498 9.21407C16.7523 9.20292 16.7549 9.19175 16.7573 9.18063C16.7656 9.14269 16.7738 9.10482 16.7818 9.06708C17.0835 9.30958 17.2794 9.6474 17.3773 10.0908C17.4885 10.595 17.4629 11.1405 17.2941 11.8597ZM8.43296 17.0946C7.83748 17.0947 7.16256 17.0948 6.6002 17.0967H6.60001C6.58304 17.0967 6.57222 17.0881 6.56611 17.0809C6.56005 17.0736 6.55333 17.0614 6.55589 17.0443C6.72163 15.9313 7.12832 13.2047 7.32471 11.928C7.41684 11.3288 7.50944 10.7297 7.60205 10.1306C7.8204 8.71781 8.04617 7.2569 8.26233 5.81883C8.30609 5.52791 8.39614 5.42577 8.53533 5.36949H13.3744C14.1934 5.36949 14.9309 5.65678 15.3136 5.9028C16.0935 6.40406 16.4361 7.13631 16.361 8.14131C16.3536 8.2404 16.3433 8.33854 16.3325 8.44241C16.3282 8.48435 16.3238 8.5263 16.3196 8.56827C16.3009 8.6532 16.283 8.73831 16.2651 8.82345C16.1981 9.14201 16.1348 9.44292 16.0305 9.7333C15.6779 10.7154 15.1306 11.413 14.3573 11.8661C13.7209 12.239 12.987 12.4383 12.1137 12.4755C11.7632 12.4904 11.4027 12.488 11.0541 12.4858C10.8726 12.4846 10.685 12.4833 10.4997 12.4845C9.98885 12.4878 9.64163 12.8006 9.57091 13.3214C9.53231 13.6056 9.48686 13.8951 9.44288 14.1751C9.42791 14.2706 9.41292 14.3661 9.39815 14.4615L9.35003 14.773C9.27828 15.2378 9.20406 15.7186 9.12859 16.1905C9.0868 16.4517 9.04135 16.7176 8.99736 16.9748C8.99056 17.0147 8.98373 17.0545 8.97693 17.0944C8.80586 17.0945 8.62274 17.0945 8.43296 17.0946ZM17.9189 9.96545C17.7695 9.288 17.4231 8.78151 16.8895 8.45578C16.8987 8.36689 16.9078 8.27623 16.9147 8.1847C17.0057 6.96641 16.5664 6.03659 15.6089 5.4211C15.1637 5.13496 14.3114 4.80078 13.3744 4.80078H8.44345L8.40158 4.81474C8.25833 4.86249 7.8224 5.00776 7.71347 5.73227C7.4975 7.16918 7.27179 8.62949 7.05355 10.0417C6.96092 10.641 6.86832 11.2402 6.77613 11.8395C6.57957 13.1175 6.17271 15.8452 6.00689 16.9586C5.98043 17.1362 6.03094 17.3161 6.14547 17.4521C6.25962 17.5878 6.42519 17.6654 6.60001 17.6654H6.60201C7.16353 17.6636 7.838 17.6634 8.43307 17.6633C8.59278 17.6632 8.74755 17.6632 8.89463 17.6631C8.88408 17.7311 8.87361 17.799 8.86295 17.8669C8.83257 18.0606 8.80114 18.2609 8.77246 18.4591C8.74214 18.6685 8.78878 18.8596 8.90382 18.997C9.01086 19.1248 9.16871 19.1959 9.34836 19.1971C9.73887 19.1995 10.1136 19.2008 10.4775 19.2008C10.8521 19.2008 11.2153 19.1995 11.5725 19.1968C11.9198 19.1943 12.2166 18.9528 12.3108 18.5958C12.3388 18.4901 12.3548 18.3874 12.3703 18.2881C12.4151 18.0008 12.4593 17.7134 12.5036 17.426C12.593 16.8453 12.6854 16.2448 12.7811 15.6557C12.8239 15.3923 12.8971 15.3558 13.1439 15.3576C13.5578 15.3612 14.0469 15.3525 14.5366 15.2601C15.417 15.094 16.112 14.752 16.6612 14.2146C17.2302 13.6579 17.6138 12.9311 17.834 11.9926C17.9617 11.4484 18.0868 10.7262 17.9189 9.96545Z" fill="#2A2B2B"/>
</svg>
