<svg width="40" height="40" viewBox="0 0 40 40" fill="none" xmlns="http://www.w3.org/2000/svg">
<path fill-rule="evenodd" clip-rule="evenodd" d="M20 32C22.9537 32 25.6582 30.9328 27.7489 29.163L27.7782 29.1922L28.4504 28.52C28.4737 28.4969 28.4969 28.4737 28.52 28.4504L29.1924 27.778L29.1631 27.7488C30.9329 25.6581 32 22.9537 32 20C32 17.0463 30.9328 14.3418 29.163 12.2511L29.1922 12.2218L28.5199 11.5495C28.4969 11.5262 28.4737 11.5031 28.4505 11.4801L27.778 10.8076L27.7488 10.8369C25.6581 9.06713 22.9537 8 20 8C17.0463 8 14.3419 9.06713 12.2512 10.8369L12.2218 10.8075L10.8076 12.2217L10.837 12.2511C9.06718 14.3418 8 17.0463 8 20C8 22.9537 9.06713 25.6581 10.8369 27.7488L10.8075 27.7782L12.2217 29.1924L12.2511 29.163C14.3418 30.9328 17.0463 32 20 32ZM13.6712 27.7429C15.3951 29.1536 17.5987 30 20 30C22.4013 30 24.6049 29.1536 26.3288 27.7429L20 21.4141L13.6712 27.7429ZM12.257 26.3286L18.5858 19.9998L12.2571 13.6712C10.8464 15.3951 10 17.5987 10 20C10 22.4012 10.8463 24.6048 12.257 26.3286ZM20 18.5856L13.6714 12.257C15.3952 10.8463 17.5988 10 20 10C22.4012 10 24.6048 10.8463 26.3286 12.257L20 18.5856ZM21.4142 19.9998L27.7429 13.6712C29.1536 15.3951 30 17.5987 30 20C30 22.4012 29.1537 24.6048 27.743 26.3286L21.4142 19.9998Z" fill="black"/>
</svg>
