<svg width="33" height="32" viewBox="0 0 33 32" fill="none" xmlns="http://www.w3.org/2000/svg">
<path d="M11.3121 11.3477C10.9451 9.28513 8.96955 7.90518 6.90719 8.26919L2.45116 9.03132C1.76119 9.14933 1.29746 9.80437 1.41547 10.4944C1.53348 11.1844 2.18865 11.648 2.87856 11.5301L6.77514 10.8636L0.636381 20.7479C-0.172876 22.051 -0.212574 23.6263 0.530246 24.962C1.2817 26.3132 2.66076 27.12 4.21925 27.12H9.70272C10.4028 27.12 10.9702 26.5525 10.9702 25.8524C10.9702 25.1524 10.4028 24.5849 9.70272 24.5849H4.21925C3.59438 24.5849 3.04357 24.2653 2.74581 23.7299C2.60703 23.4804 2.33346 22.8204 2.79002 22.0854L8.89771 12.2509L9.64333 16.4412C9.75258 17.0554 10.287 17.4869 10.8898 17.4869C10.9634 17.4869 11.0382 17.4804 11.1133 17.4671C11.8025 17.3445 12.2618 16.6863 12.1393 15.9971L11.3121 11.3477Z" fill="#AAAAAA"/>
<path d="M31.8211 20.6536L29.4557 17.0454C29.0718 16.4599 28.2861 16.2965 27.7007 16.6802C27.1152 17.064 26.9518 17.8498 27.3356 18.4352L29.7031 22.0469C30.0413 22.5591 30.0698 23.1873 29.7793 23.7271C29.4832 24.2776 28.9296 24.6062 28.2987 24.6062H16.7047L19.799 21.5588C20.2978 21.0676 20.304 20.2651 19.8127 19.7663C19.3216 19.2675 18.519 19.2613 18.0202 19.7526L14.6889 23.0333C13.9644 23.752 13.5654 24.7082 13.5654 25.7258C13.5654 26.7435 13.9644 27.6997 14.6864 28.4157L17.9082 31.63C18.1556 31.8768 18.4795 32.0001 18.8034 32.0001C19.1283 32.0001 19.4532 31.876 19.7008 31.6278C20.1952 31.1322 20.1942 30.3297 19.6986 29.8352L16.9981 27.1412H28.2986C29.8545 27.1412 31.2772 26.2932 32.0117 24.9283C32.7517 23.5533 32.6796 21.9541 31.8211 20.6536Z" fill="#AAAAAA"/>
<path d="M14.4943 3.32514C14.8009 2.8313 15.3133 2.54339 15.8999 2.53526C16.4851 2.52585 17.0074 2.80094 17.3275 3.28582L23.2369 12.2502L19.6371 11.5524C18.95 11.4194 18.2848 11.8683 18.1515 12.5555C18.0183 13.2428 18.4675 13.9079 19.1547 14.0411L23.5181 14.8869C23.5228 14.8878 23.5275 14.8887 23.5322 14.8896C23.7617 14.9314 23.99 14.9515 24.2154 14.9515C26.0163 14.9515 27.6207 13.6634 27.9546 11.8307L28.7555 7.44733C28.8813 6.75869 28.425 6.09844 27.7363 5.97261C27.0478 5.8466 26.3874 6.30309 26.2616 6.99173L25.5119 11.0953L19.4436 1.88981C18.6492 0.686623 17.3101 -0.0191666 15.8647 0.000396273C14.4214 0.0204038 13.1064 0.760365 12.3454 1.98006L10.4056 5.01606C10.0287 5.606 10.2014 6.38979 10.7913 6.76669C11.3812 7.14359 12.165 6.97089 12.5419 6.38102L14.4856 3.33892C14.4885 3.33429 14.4914 3.32971 14.4943 3.32514Z" fill="#AAAAAA"/>
</svg>
