<svg width="40" height="40" viewBox="0 0 40 40" fill="none" xmlns="http://www.w3.org/2000/svg">
<path fill-rule="evenodd" clip-rule="evenodd" d="M31.1198 13H14.8949C14.6473 13 14.4111 13.1042 14.2442 13.2872L8.2295 19.8887C7.9235 20.2246 7.9235 20.7381 8.2295 21.0743L14.2442 27.6757C14.4111 27.8588 14.6473 27.963 14.8949 27.963H31.1198C31.606 27.963 32 27.569 32 27.0831V13.8802C32 13.394 31.606 13 31.1198 13ZM30.2396 26.2026H15.2837L10.0712 20.4813L15.2837 14.7601H30.2396V26.2026ZM26.5747 17.4493C26.2285 17.1077 25.6716 17.111 25.3298 17.4569L23.572 19.2364L21.7926 17.4787C21.4467 17.1371 20.8893 17.1407 20.5481 17.4863C20.2062 17.8323 20.2095 18.3894 20.5554 18.7312L22.3347 20.4889L20.5767 22.2686C20.2352 22.6145 20.2384 23.1717 20.5844 23.5135C20.756 23.6828 20.9793 23.7673 21.2028 23.7673C21.4296 23.7673 21.657 23.6799 21.8292 23.5059L23.5872 21.7262L25.3668 23.4842C25.5385 23.6536 25.7617 23.738 25.9853 23.738C26.212 23.738 26.4394 23.6506 26.6114 23.4763C26.9532 23.1304 26.95 22.5732 26.6041 22.2315L24.8245 20.4736L26.5823 18.6942C26.9239 18.3482 26.9206 17.7911 26.5747 17.4493Z" fill="black"/>
</svg>
