<svg width="22" height="24" viewBox="0 0 22 24" fill="none" xmlns="http://www.w3.org/2000/svg">
<path fill-rule="evenodd" clip-rule="evenodd" d="M21.9256 14.7305C21.3471 19.5449 17.2818 23.3934 12.2092 23.9327C6.15 24.575 0.917292 20.5401 0.0184849 15.1619C-0.126151 14.2942 0.597028 13.5146 1.52166 13.5146C2.2655 13.5146 2.9112 14.0245 3.03001 14.7256C3.67053 18.5006 7.25027 21.3539 11.4602 21.099C15.4325 20.8588 18.6713 17.7995 18.9348 14.0294C19.2447 9.64645 15.6081 5.97928 11.0676 5.91064V8.72966C11.0676 8.88164 10.861 8.96989 10.7215 8.87184L4.59517 4.60164C4.49186 4.5281 4.49186 4.38592 4.59517 4.31238L10.7215 0.0421881C10.861 -0.0558646 11.0676 0.0274802 11.0676 0.184365V3.00828C17.5297 3.07692 22.685 8.4355 21.9256 14.7305ZM13.5809 15.4652C13.8603 15.1087 14 14.594 14 13.9211V13.0254C13.9933 12.3725 13.8491 11.8723 13.5675 11.5247C13.2859 11.1749 12.8792 11 12.3472 11C11.8153 11 11.4074 11.176 11.1236 11.5281C10.842 11.8801 10.7011 12.3959 10.7011 13.0755V13.9713C10.7079 14.6241 10.852 15.1254 11.1336 15.4753C11.4152 15.8251 11.822 16 12.3539 16C12.8926 16 13.3016 15.8217 13.5809 15.4652ZM12.8635 12.0595C12.9753 12.2422 13.0311 12.5352 13.0311 12.9385V14.0949C13.0267 14.4759 12.9719 14.7589 12.8669 14.9439C12.7618 15.1288 12.5908 15.2213 12.3539 15.2213C12.1148 15.2213 11.9405 15.1254 11.8309 14.9338C11.7237 14.74 11.67 14.4447 11.67 14.0481V12.865C11.6767 12.4929 11.7337 12.2199 11.841 12.0461C11.9505 11.8701 12.1193 11.7821 12.3472 11.7821C12.5819 11.7821 12.754 11.8746 12.8635 12.0595ZM8.15661 15.9332H9.12548V11.0602H9.02155L7 11.7821V12.5675L8.15661 12.2099V15.9332Z" fill="white"/>
</svg>
