<svg width="40" height="40" viewBox="0 0 40 40" fill="none" xmlns="http://www.w3.org/2000/svg">
<path fill-rule="evenodd" clip-rule="evenodd" d="M30.9256 22.7305C30.3471 27.5449 26.2818 31.3934 21.2092 31.9327C15.15 32.575 9.91729 28.5401 9.01848 23.1619C8.87385 22.2942 9.59703 21.5146 10.5217 21.5146C11.2655 21.5146 11.9112 22.0245 12.03 22.7256C12.6705 26.5006 16.2503 29.3539 20.4602 29.099C24.4325 28.8588 27.6713 25.7995 27.9348 22.0294C28.2447 17.6465 24.6081 13.9793 20.0676 13.9106V16.7297C20.0676 16.8816 19.861 16.9699 19.7215 16.8718L13.5952 12.6016C13.4919 12.5281 13.4919 12.3859 13.5952 12.3124L19.7215 8.04219C19.861 7.94414 20.0676 8.02748 20.0676 8.18436V11.0083C26.5297 11.0769 31.685 16.4355 30.9256 22.7305ZM22.5809 23.4652C22.8603 23.1087 23 22.594 23 21.9211V21.0254C22.9933 20.3725 22.8491 19.8723 22.5675 19.5247C22.2859 19.1749 21.8792 19 21.3472 19C20.8153 19 20.4074 19.176 20.1236 19.5281C19.842 19.8801 19.7011 20.3959 19.7011 21.0755V21.9713C19.7079 22.6241 19.852 23.1254 20.1336 23.4753C20.4152 23.8251 20.822 24 21.3539 24C21.8926 24 22.3016 23.8217 22.5809 23.4652ZM21.8635 20.0595C21.9753 20.2422 22.0311 20.5352 22.0311 20.9385V22.0949C22.0267 22.4759 21.9719 22.7589 21.8669 22.9439C21.7618 23.1288 21.5908 23.2213 21.3539 23.2213C21.1148 23.2213 20.9405 23.1254 20.8309 22.9338C20.7237 22.74 20.67 22.4447 20.67 22.0481V20.865C20.6767 20.4929 20.7337 20.2199 20.841 20.0461C20.9505 19.8701 21.1193 19.7821 21.3472 19.7821C21.5819 19.7821 21.754 19.8746 21.8635 20.0595ZM17.1566 23.9332H18.1255V19.0602H18.0216L16 19.7821V20.5675L17.1566 20.2099V23.9332Z" fill="white"/>
</svg>
