<svg width="40" height="40" viewBox="0 0 40 40" fill="none" xmlns="http://www.w3.org/2000/svg">
<path d="M27.4522 15.407C27.1184 15.407 26.8006 15.4778 26.512 15.605C26.1611 14.7038 25.3004 14.065 24.2961 14.065C23.923 14.065 23.5697 14.1532 23.255 14.3101C22.8567 13.5298 22.0585 12.9954 21.1402 12.9954C20.8703 12.9954 20.6111 13.0422 20.3689 13.1273V10.4405C20.369 9.09487 19.2991 8 17.9841 8C16.6691 8 15.5994 9.09487 15.5994 10.4405V20.1086L13.8818 18.1115C13.8698 18.0979 13.8576 18.0845 13.8448 18.0716C13.3939 17.6129 12.7936 17.3586 12.1548 17.3555C12.1507 17.3555 12.1468 17.3555 12.1426 17.3555C11.5053 17.3555 10.9085 17.6056 10.4613 18.0605C9.67273 18.8622 9.62908 20.0521 10.3419 21.3258C11.2646 22.9734 12.2676 24.527 13.1526 25.898C13.7994 26.8998 14.4103 27.8461 14.8569 28.6285C15.2442 29.3074 16.2723 31.5094 16.2828 31.5316C16.4162 31.8177 16.7 32.0001 17.0113 32.0001H27.2101C27.5605 32.0001 27.8706 31.7704 27.9781 31.4316C28.1682 30.8305 29.8369 25.5005 29.8369 23.442V17.8478C29.8368 16.5018 28.7671 15.407 27.4522 15.407ZM26.6809 17.8477C26.6809 17.4058 27.027 17.0464 27.4522 17.0464C27.8776 17.0464 28.2237 17.4058 28.2237 17.8477V23.442C28.2237 24.8099 27.1892 28.4874 26.6184 30.3606H17.52C17.1855 29.6534 16.5588 28.3433 16.2523 27.806C15.7834 26.9843 15.1606 26.0197 14.5013 24.9984C13.6294 23.6481 12.6413 22.1174 11.7438 20.515C11.5096 20.0963 11.2949 19.5319 11.6023 19.2195C11.7456 19.0735 11.9387 18.9972 12.147 18.9949C12.3503 18.996 12.5415 19.0739 12.6881 19.2148L15.7988 22.8314C16.0198 23.0886 16.3751 23.1793 16.6895 23.0593C17.0042 22.9392 17.2126 22.6334 17.2126 22.2919V10.4405C17.2126 9.99871 17.5587 9.63944 17.9841 9.63944C18.4097 9.63944 18.7559 9.99871 18.7559 10.4405V18.0939C18.7559 18.5466 19.1171 18.9136 19.5624 18.9136C20.0077 18.9136 20.369 18.5466 20.369 18.0939V15.4356C20.369 14.9941 20.715 14.6349 21.1403 14.6349C21.5657 14.6349 21.9118 14.9941 21.9118 15.4356V19.1631C21.9118 19.616 22.2729 19.9829 22.7182 19.9829C23.1636 19.9829 23.5249 19.6161 23.5249 19.1631V16.5055C23.5249 16.0637 23.8709 15.7043 24.2962 15.7043C24.7217 15.7043 25.0679 16.0637 25.0679 16.5055V20.2331C25.0679 20.6857 25.429 21.0529 25.8745 21.0529C26.32 21.0529 26.6811 20.6857 26.6811 20.2331V17.8477H26.6809Z" fill="white"/>
</svg>
