<svg width="40" height="40" viewBox="0 0 40 40" fill="none" xmlns="http://www.w3.org/2000/svg">
<path d="M17.9882 24.4418C18.037 24.4418 18.0856 24.4485 18.1325 24.4619L23.8789 26.0908C24.1579 26.1699 24.3194 26.4584 24.2397 26.7352C24.2114 26.8334 24.1547 26.9212 24.0765 26.9877L18.3301 31.8745C18.1098 32.0619 17.7781 32.0365 17.5893 31.818C17.5077 31.7235 17.4628 31.6032 17.4628 31.4787V24.9631C17.4628 24.6752 17.698 24.4418 17.9882 24.4418ZM31.9445 8.28826C31.995 8.38831 32.0116 8.5018 31.992 8.61195L29.2189 24.2027C29.1181 24.7696 28.573 25.1482 28.0015 25.0481C27.9741 25.0433 27.9468 25.0374 27.9198 25.0305L22.2887 23.5781C21.9331 23.4863 21.6516 23.217 21.5463 22.8677L21.1668 21.6084C21.088 21.3468 20.8191 21.1899 20.5504 21.2486L17.1314 21.9957C16.6885 22.0924 16.2299 22.0933 15.7867 21.9981L8.41437 20.4153C8.13077 20.3544 7.95063 20.0769 8.012 19.7956C8.04567 19.6412 8.14811 19.5102 8.29053 19.4396L31.2397 8.05514C31.4992 7.9264 31.8148 8.03077 31.9445 8.28826ZM28.9105 11.5401L13.2356 19.317L15.5585 19.8157C16.1493 19.9425 16.7607 19.9414 17.3511 19.8124L22.0046 18.7959C22.2734 18.7372 22.5422 18.8942 22.621 19.1558L23.2197 21.1446C23.3248 21.494 23.6064 21.7635 23.9621 21.8552L27.3463 22.7281L29.2866 11.8185C29.3119 11.6768 29.2165 11.5416 29.0736 11.5165C29.0181 11.5068 28.9609 11.5151 28.9105 11.5401Z" fill="#2A2B2B"/>
</svg>
