<svg width="40" height="40" viewBox="0 0 40 40" fill="none" xmlns="http://www.w3.org/2000/svg">
<path fill-rule="evenodd" clip-rule="evenodd" d="M31.0814 16.7637L31.115 16.7974C31.7744 17.4584 32 18.3171 32 19.0153C32 19.7134 31.7744 20.5721 31.115 21.2332L31.0814 21.2669L24.4774 27.2861C24.0936 27.6548 23.5589 27.9639 22.8979 28.0212C22.2076 28.081 21.6018 27.846 21.1577 27.5056C20.32 26.8633 20.0112 25.8635 20.0112 25.0252V23.9397C17.3971 24.5143 15.1132 26.1985 13.6104 28.5955L13.5961 28.6183L13.5813 28.6406C12.6891 29.9823 11.1532 30.2049 10.0548 29.8486C8.9569 29.4925 7.70742 28.3086 8.06113 26.5355L8.06381 26.522L8.06668 26.5086C8.38046 25.0405 8.82376 23.4407 9.64058 21.9078C11.571 17.9641 15.3748 14.8612 20.0112 14.1573V13.0053C20.0112 12.1671 20.32 11.1672 21.1577 10.525C21.6018 10.1845 22.2076 9.9495 22.8979 10.0093C23.5589 10.0666 24.0937 10.3757 24.4774 10.7445L31.0814 16.7637Z" fill="black"/>
</svg>
