<svg width="68" height="17" viewBox="0 0 68 17" fill="none" xmlns="http://www.w3.org/2000/svg">
<path d="M17.3216 5.10493C16.7792 3.96736 15.7512 3.23253 14.202 3.23253C13.7265 3.24083 13.2593 3.35823 12.8364 3.57567C12.4134 3.79311 12.046 4.1048 11.7626 4.48668L11.7061 4.55557V0.0971527C11.7061 0.0713865 11.6959 0.0466769 11.6776 0.0284572C11.6594 0.0102376 11.6347 0 11.609 0H9.41857C9.39311 0.000462966 9.36888 0.0109021 9.35101 0.0290718C9.33321 0.0472415 9.32324 0.0716897 9.32324 0.0971527V12.886C9.32324 12.9113 9.33329 12.9355 9.35116 12.9534C9.36903 12.9713 9.39326 12.9814 9.41857 12.9814H11.7644C11.7899 12.9814 11.8143 12.9713 11.8325 12.9535C11.8506 12.9357 11.8611 12.9114 11.8615 12.886V7.43305C11.8615 6.37321 12.5681 5.62248 13.6986 5.62248C14.9351 5.62248 15.2477 6.63993 15.2477 7.6768V12.886C15.2477 12.9113 15.2578 12.9355 15.2756 12.9534C15.2936 12.9713 15.3178 12.9814 15.3431 12.9814H17.6836C17.7091 12.9814 17.7336 12.9713 17.7517 12.9535C17.7699 12.9357 17.7803 12.9114 17.7808 12.886V7.36592C17.7808 7.17692 17.7808 6.99145 17.756 6.81127C17.7158 6.22085 17.5686 5.64266 17.3216 5.10493Z" fill="#2A2B2B"/>
<path d="M5.60841 7.00062C5.60841 7.00062 4.41432 6.71975 3.97448 6.6067C3.53465 6.49366 2.76626 6.25342 2.76626 5.67228C2.76626 5.09112 3.38627 4.90565 4.01511 4.90565C4.64395 4.90565 5.34345 5.05756 5.39821 5.7553C5.40042 5.78044 5.412 5.80384 5.43065 5.82085C5.44929 5.83786 5.47365 5.84725 5.49889 5.84715L7.8111 5.83831C7.82475 5.83835 7.83817 5.83557 7.85067 5.83017C7.86317 5.82476 7.87437 5.81684 7.88373 5.80689C7.89301 5.79694 7.90014 5.78519 7.90466 5.77235C7.90919 5.75953 7.91103 5.7459 7.91003 5.73233C7.767 3.49959 5.80801 2.70117 4.00098 2.70117C1.85832 2.70117 0.291519 4.1143 0.291519 5.67228C0.291519 6.80984 0.613006 7.87677 3.14074 8.61863C3.58411 8.74755 4.18645 8.91544 4.71284 9.062C5.34522 9.23863 5.68613 9.50537 5.68613 9.92581C5.68613 10.4133 4.97957 10.7525 4.28537 10.7525C3.28028 10.7525 2.56666 10.3798 2.50836 9.7103C2.50533 9.68576 2.4934 9.66321 2.47484 9.64695C2.45627 9.63069 2.43237 9.62179 2.40768 9.62195L0.100746 9.63253C0.0872215 9.63253 0.0738352 9.63529 0.0613834 9.64058C0.0489316 9.6458 0.0376711 9.65354 0.028274 9.66328C0.0188768 9.67302 0.0115341 9.68453 0.00668713 9.69718C0.00184012 9.70976 -0.000412541 9.72326 6.20214e-05 9.73676C0.106047 11.8441 2.14095 12.9799 4.03808 12.9799C6.86433 12.9799 8.14142 11.3901 8.14142 9.90104C8.14495 9.20158 7.9842 7.60826 5.60841 7.00062Z" fill="#2A2B2B"/>
<path d="M35.3562 3.22814C34.1816 3.22814 33.1977 3.87818 32.5635 4.66246V3.31999C32.5636 3.295 32.5537 3.271 32.5362 3.25316C32.5187 3.23532 32.4949 3.22507 32.4699 3.22461H30.276C30.2507 3.22461 30.2265 3.23466 30.2086 3.25254C30.1907 3.27043 30.1807 3.29469 30.1807 3.31999V15.8615C30.1811 15.8865 30.1913 15.9103 30.2092 15.9278C30.2271 15.9453 30.251 15.9551 30.276 15.9551H32.6236C32.6484 15.9551 32.6722 15.9452 32.6898 15.9277C32.7074 15.9101 32.7172 15.8863 32.7172 15.8615V11.7387H32.7525C33.1253 12.3075 34.1445 12.9893 35.4763 12.9893C37.9811 12.9893 40.069 10.912 40.069 8.10523C40.0707 5.41142 37.9934 3.22814 35.3562 3.22814ZM35.139 10.5993C34.6444 10.6117 34.1576 10.4763 33.7404 10.2106C33.3231 9.94497 32.9945 9.56104 32.7965 9.10778C32.5985 8.65451 32.5399 8.15255 32.6284 7.6659C32.7169 7.17926 32.9484 6.73002 33.2934 6.37553C33.6384 6.02104 34.0811 5.77737 34.5651 5.67563C35.0492 5.57387 35.5526 5.61866 36.0111 5.80426C36.4695 5.98987 36.8624 6.30788 37.1393 6.7177C37.4162 7.12752 37.5648 7.61057 37.566 8.10523C37.5711 8.42849 37.5123 8.74969 37.393 9.05026C37.2737 9.35074 37.0962 9.62477 36.8706 9.85654C36.6452 10.0883 36.3761 10.2732 36.0789 10.4007C35.7817 10.5282 35.4623 10.5956 35.139 10.5993Z" fill="#2A2B2B"/>
<path d="M23.2324 2.67773C21.0438 2.67773 19.9522 3.42139 19.0761 4.01667L19.0495 4.03434C19.0044 4.06527 18.9726 4.11211 18.9605 4.16549C18.9484 4.21887 18.9568 4.27486 18.9842 4.32226L19.8497 5.81311C19.8659 5.841 19.8882 5.86497 19.9147 5.88329C19.9413 5.90162 19.9715 5.91384 20.0034 5.91909C20.0346 5.92472 20.0666 5.92335 20.0971 5.91511C20.1276 5.90685 20.156 5.89193 20.1801 5.87141L20.2489 5.81487C20.6994 5.43686 21.4218 4.93167 23.1706 4.79389C24.1439 4.71617 24.9847 4.97053 25.6047 5.54992C26.2866 6.17876 26.6946 7.19445 26.6946 8.26669C26.6946 10.2397 25.5323 11.4797 23.6652 11.5045C22.1267 11.4957 21.0933 10.6937 21.0933 9.50845C21.0933 8.87963 21.3777 8.46977 21.9323 8.06C21.9746 8.0297 22.0046 7.98507 22.0166 7.93445C22.0286 7.88383 22.0219 7.83053 21.9977 7.78443L21.2205 6.31477C21.2061 6.28847 21.1867 6.26525 21.1634 6.24646C21.1401 6.22767 21.1132 6.21367 21.0845 6.20526C21.0551 6.19649 21.0241 6.19401 20.9937 6.19797C20.9633 6.20192 20.934 6.21223 20.9078 6.22822C20.0352 6.74578 18.9648 7.69255 19.0231 9.51197C19.0937 11.8278 21.0191 13.5959 23.5221 13.6684H23.6475H23.8188C26.7935 13.5712 28.9414 11.3631 28.9414 8.36907C28.9414 5.62057 26.9383 2.67773 23.2324 2.67773Z" fill="#2A2B2B"/>
<path d="M49.3167 4.0918H47.8259C47.7908 4.09225 47.7574 4.10635 47.7327 4.1311C47.7079 4.15585 47.6938 4.18928 47.6934 4.22427V7.35258C47.6938 7.38742 47.708 7.42066 47.7328 7.44512C47.7576 7.46959 47.791 7.4833 47.8259 7.4833H49.3167C50.2247 7.4833 50.8941 6.7679 50.8941 5.78755C50.8941 4.80719 50.2247 4.0918 49.3167 4.0918Z" fill="#2A2B2B"/>
<path d="M53.8984 9.62489C53.8984 10.0788 54.2817 10.3315 54.9494 10.3315C55.8574 10.3315 56.3943 9.84041 56.3943 8.96954V8.71875L55.0342 8.78939C54.317 8.82474 53.8984 9.12324 53.8984 9.62489Z" fill="#2A2B2B"/>
<path d="M64.9385 0.0293125H44.9075C44.5788 0.0293123 44.2534 0.0940683 43.9499 0.219877C43.6463 0.345687 43.3705 0.530084 43.1382 0.762533C42.9059 0.994978 42.7217 1.27093 42.5961 1.57459C42.4705 1.87826 42.406 2.2037 42.4063 2.53231V13.4982C42.4063 14.1617 42.6697 14.7981 43.1388 15.2675C43.6077 15.7368 44.2439 16.0007 44.9075 16.0012H64.9385C65.2676 16.0021 65.5935 15.9382 65.8978 15.813C66.202 15.6879 66.4786 15.504 66.7118 15.2718C66.9449 15.0397 67.1299 14.7639 67.2564 14.4601C67.3829 14.1564 67.4481 13.8307 67.4486 13.5017V2.53585C67.4493 2.20619 67.3849 1.87965 67.2589 1.575C67.133 1.27034 66.948 0.993583 66.7148 0.760646C66.4815 0.527707 66.2045 0.343179 65.8997 0.21767C65.5948 0.0921609 65.2682 0.0281477 64.9385 0.0293125ZM49.3942 8.71477H47.8185C47.7834 8.71477 47.7497 8.72873 47.7249 8.75358C47.7 8.77843 47.686 8.81209 47.686 8.84722V11.0905C47.686 11.1257 47.6721 11.1594 47.6472 11.1843C47.6224 11.2091 47.5887 11.2231 47.5535 11.2231H46.4442C46.4092 11.2226 46.3758 11.2085 46.3511 11.1837C46.3263 11.159 46.3122 11.1256 46.3118 11.0905V2.99864C46.3118 2.96351 46.3257 2.92981 46.3506 2.90497C46.3754 2.88012 46.4091 2.86616 46.4442 2.86616H49.3942C51.0652 2.86616 52.261 4.08322 52.261 5.79134C52.261 7.49945 51.074 8.7183 49.403 8.7183L49.3942 8.71477ZM57.6963 11.0888C57.6965 11.1063 57.6932 11.1237 57.6867 11.14C57.6802 11.1563 57.6704 11.1711 57.6581 11.1836C57.6457 11.1961 57.6311 11.206 57.6149 11.2128C57.5987 11.2195 57.5813 11.2231 57.5638 11.2231H56.5163C56.4988 11.2231 56.4814 11.2195 56.4652 11.2128C56.449 11.206 56.4343 11.1961 56.422 11.1836C56.4097 11.1711 56.3999 11.1563 56.3934 11.14C56.3869 11.1237 56.3836 11.1063 56.3838 11.0888V10.8468C56.3856 10.8256 56.3804 10.8043 56.3692 10.7863C56.3579 10.7682 56.341 10.7542 56.3211 10.7465C56.3014 10.7388 56.2795 10.7377 56.2589 10.7433C56.2385 10.7489 56.2203 10.7611 56.2072 10.7779C55.8945 11.1188 55.3858 11.3661 54.5751 11.3661C53.3809 11.3661 52.5913 10.7443 52.5913 9.67038C52.5798 9.40847 52.6339 9.14786 52.7486 8.91226C52.8634 8.67658 53.0352 8.47326 53.2485 8.32087C53.6795 7.9976 54.3472 7.82979 55.3381 7.79091L56.3891 7.75555V7.44823C56.3891 6.82822 55.9723 6.56503 55.3028 6.56503C54.6333 6.56503 54.2111 6.80172 54.1122 7.18857C54.1044 7.21589 54.0876 7.23979 54.0645 7.25644C54.0414 7.27309 54.0135 7.28154 53.985 7.28042H52.9481C52.9291 7.28089 52.9102 7.27718 52.8927 7.26955C52.8752 7.26191 52.8595 7.25054 52.8469 7.23623C52.8343 7.22192 52.825 7.20502 52.8196 7.18672C52.8141 7.16841 52.8128 7.14915 52.8157 7.13027C52.9711 6.21174 53.7307 5.51401 55.3505 5.51401C57.071 5.51401 57.691 6.3142 57.691 7.84214L57.6963 11.0888ZM64.2214 5.83903L61.8897 12.0586C61.3598 13.5035 60.4324 13.8745 59.4168 13.8745C59.2254 13.8791 59.0344 13.8559 58.8498 13.8055C58.8209 13.7978 58.7955 13.7808 58.7773 13.7572C58.7591 13.7336 58.7492 13.7047 58.7491 13.6748V12.7298C58.749 12.71 58.7533 12.6905 58.7616 12.6726C58.7699 12.6546 58.7822 12.6388 58.7974 12.6261C58.8126 12.6135 58.8304 12.6043 58.8495 12.5993C58.8686 12.5944 58.8886 12.5937 58.9081 12.5973C59.0682 12.6277 59.2308 12.6431 59.3938 12.6432C59.6747 12.6573 59.9522 12.5767 60.1818 12.4144C60.4115 12.252 60.58 12.0172 60.6603 11.7477L60.7292 11.5304C60.7399 11.5013 60.7399 11.4694 60.7292 11.4403L58.5494 5.84079C58.5428 5.82078 58.5409 5.79946 58.5441 5.77859C58.5471 5.75772 58.5551 5.73788 58.5674 5.72067C58.5796 5.70346 58.5957 5.68938 58.6144 5.67956C58.633 5.66974 58.6537 5.66446 58.6748 5.66416H59.7347C59.7619 5.66441 59.7884 5.67279 59.8107 5.68822C59.8331 5.70365 59.8502 5.72541 59.8601 5.75071L61.3403 9.70037C61.3502 9.72622 61.3676 9.74846 61.3903 9.7641C61.413 9.77983 61.44 9.78819 61.4676 9.78819C61.4952 9.78819 61.5221 9.77983 61.5448 9.7641C61.5675 9.74846 61.5849 9.72622 61.5947 9.70037L62.8789 5.76131C62.8876 5.73445 62.9046 5.71106 62.9275 5.69453C62.9503 5.67801 62.9778 5.66923 63.0061 5.66946H64.0924C64.1135 5.66938 64.1342 5.67424 64.153 5.68362C64.1717 5.69301 64.188 5.70667 64.2006 5.7235C64.2131 5.74034 64.2215 5.75988 64.2251 5.78056C64.2287 5.80123 64.2274 5.82247 64.2214 5.84256V5.83903Z" fill="#2A2B2B"/>
</svg>
