<svg width="12" height="16" viewBox="0 0 12 16" fill="none" xmlns="http://www.w3.org/2000/svg">
<path d="M11.7485 12.0228C11.5331 12.5258 11.278 12.9889 10.9826 13.4147C10.5798 13.9951 10.25 14.3969 9.9959 14.62C9.60194 14.9862 9.17983 15.1738 8.72783 15.1844C8.40334 15.1844 8.01202 15.0911 7.5565 14.9018C7.09949 14.7133 6.6795 14.62 6.29547 14.62C5.89272 14.62 5.46077 14.7133 4.99874 14.9018C4.53601 15.0911 4.16324 15.1898 3.87824 15.1995C3.44479 15.2182 3.01275 15.0253 2.5815 14.62C2.30626 14.3773 1.96198 13.9614 1.54955 13.372C1.10705 12.7427 0.743251 12.013 0.458244 11.181C0.153012 10.2824 0 9.41217 0 8.5697C0 7.60467 0.206302 6.77234 0.619522 6.07485C0.944277 5.5146 1.37632 5.07265 1.91705 4.74822C2.45778 4.42378 3.04203 4.25846 3.67123 4.24788C4.01551 4.24788 4.46698 4.35552 5.02802 4.56707C5.58748 4.77933 5.94671 4.88697 6.10421 4.88697C6.22196 4.88697 6.62102 4.76111 7.29752 4.51018C7.93727 4.27748 8.47721 4.18112 8.91954 4.21908C10.1181 4.31685 11.0186 4.79444 11.6175 5.65486C10.5455 6.31137 10.0152 7.2309 10.0258 8.41051C10.0355 9.32932 10.3652 10.0939 11.0133 10.701C11.3071 10.9828 11.6351 11.2006 12 11.3552C11.9209 11.5872 11.8373 11.8094 11.7485 12.0228ZM8.99956 1.08886C8.99956 1.80903 8.73926 2.48144 8.22043 3.10382C7.59431 3.84371 6.83699 4.27126 6.01574 4.20379C6.00528 4.11739 5.99921 4.02646 5.99921 3.93091C5.99921 3.23955 6.29697 2.49966 6.82574 1.89471C7.08973 1.5884 7.42547 1.33372 7.83263 1.13055C8.2389 0.930414 8.62319 0.819735 8.98461 0.800781C8.99516 0.897056 8.99956 0.993337 8.99956 1.08885V1.08886Z" fill="#2A2B2B"/>
</svg>
