<svg width="12" height="12" viewBox="0 0 12 12" xmlns="http://www.w3.org/2000/svg">
<path d="M11.9402 4.51368C11.8201 4.21277 11.5793 4.03222 11.3396 3.97204L8.09648 3.49058L6.71513 0.481459C6.59501 0.180547 6.29472 0 5.99443 0C5.69414 0 5.39384 0.180547 5.27312 0.481459L3.89238 3.49058L0.649212 3.97204C0.348918 4.03222 0.108684 4.21277 0.0486254 4.51368C-0.0720924 4.81459 0.0486254 5.1155 0.228201 5.29605L2.57049 7.70335L2.02996 11.0736C1.9699 11.3745 2.09062 11.6754 2.33025 11.8559C2.57049 12.0365 2.87078 12.0365 3.17107 11.9161L5.99443 10.3514L8.81718 11.9161C9.05682 12.0365 9.41777 12.0365 9.6574 11.8559C9.89824 11.6754 10.0184 11.3745 9.9577 11.0736L9.41777 7.70335L11.7595 5.29605C12.0003 5.1155 12.0597 4.75441 11.9402 4.51368Z"/>
</svg>
