<svg width="24" height="24" viewBox="0 0 24 24"  xmlns="http://www.w3.org/2000/svg">
<path d="M23.8805 9.02736C23.6402 8.42553 23.1586 8.06444 22.6793 7.94408L16.193 6.98116L13.4303 0.962918C13.19 0.361094 12.5894 0 11.9889 0C11.3883 0 10.7877 0.361094 10.5462 0.962918L7.78475 6.98116L1.29842 7.94408C0.697837 8.06444 0.217368 8.42553 0.0972508 9.02736C-0.144185 9.62918 0.0972508 10.231 0.456401 10.5921L5.14097 15.4067L4.05992 22.1471C3.9398 22.7489 4.18124 23.3508 4.6605 23.7119C5.14097 24.073 5.74156 24.073 6.34215 23.8322L11.9889 20.7027L17.6344 23.8322C18.1136 24.073 18.8355 24.073 19.3148 23.7119C19.7965 23.3508 20.0367 22.7489 19.9154 22.1471L18.8355 15.4067L23.5189 10.5921C24.0006 10.231 24.1195 9.50882 23.8805 9.02736Z" />
</svg>
