<svg width="16" height="16" viewBox="0 0 16 16" xmlns="http://www.w3.org/2000/svg">
<path d="M15.1281 6.2172C14.9839 5.8561 14.6949 5.63945 14.4074 5.56723L10.5156 4.98948L8.85796 1.37853C8.71382 1.01744 8.35347 0.800781 7.99312 0.800781C7.63277 0.800781 7.27242 1.01744 7.12755 1.37853L5.47066 4.98948L1.57886 5.56723C1.21851 5.63945 0.930225 5.8561 0.858155 6.2172C0.713294 6.57829 0.858155 6.93939 1.07365 7.15604L3.88439 10.0448L3.23576 14.0891C3.16369 14.4501 3.30855 14.8112 3.59611 15.0279C3.88439 15.2446 4.24474 15.2446 4.60509 15.1001L7.99312 13.2224L11.3804 15.1001C11.668 15.2446 12.1011 15.2446 12.3887 15.0279C12.6777 14.8112 12.8218 14.4501 12.749 14.0891L12.1011 10.0448L14.9112 7.15604C15.2002 6.93939 15.2715 6.50607 15.1281 6.2172Z" />
</svg>
