<svg width="40" height="40" viewBox="0 0 40 40" fill="none" xmlns="http://www.w3.org/2000/svg">
<path fill-rule="evenodd" clip-rule="evenodd" d="M20.0224 8C25.1176 8 29.6646 11.2301 31.3473 16.0381C31.5128 16.511 31.4841 17.0198 31.2669 17.4712C31.0498 17.9225 30.6701 18.2617 30.1971 18.4274C29.9965 18.4976 29.7883 18.532 29.5776 18.532C28.7819 18.532 28.0709 18.0257 27.8079 17.2741C26.651 13.9682 23.5197 11.7434 20.0158 11.7434C17.7983 11.7434 15.6818 12.6863 14.1431 14.1868H15.8785C16.6024 14.1868 17.1874 14.7909 17.1874 15.5148V16.6273C17.1874 17.351 16.6024 17.9379 15.8785 17.9379H9.31256L9.31647 17.9349C8.96603 17.9349 8.63609 17.7981 8.38751 17.5479C8.13775 17.2993 8 16.9729 8 16.6226V10.0708C8 9.34709 8.58828 8.74791 9.31198 8.74791H10.424C11.1478 8.74791 11.75 9.34709 11.75 10.0708V11.3014C13.9999 9.1687 16.8939 8 20.0224 8ZM30.6854 22.0612C31.0359 22.0612 31.365 22.1982 31.6138 22.4484C31.8636 22.6967 32.0002 23.0261 32.0002 23.3767V29.9287C32.0002 30.6526 31.4138 31.2514 30.6899 31.2514H29.5781C28.8543 31.2514 28.2502 30.6526 28.2502 29.9287V28.6981C26.0003 30.8308 23.1068 31.9993 19.9785 31.9993C14.8834 31.9993 10.3373 28.7691 8.65461 23.961C8.48914 23.4885 8.51763 22.9793 8.73499 22.5281C8.95216 22.077 9.33206 21.7376 9.80483 21.5719C10.0052 21.5018 10.2138 21.4673 10.4243 21.4673C11.2198 21.4673 11.931 21.9738 12.1941 22.7254C13.3509 26.031 16.4824 28.2558 19.9863 28.2558C22.2038 28.2558 24.3201 27.3127 25.8588 25.8123H24.123C23.774 25.8123 23.4458 25.6676 23.1974 25.4194C22.9486 25.1707 22.8128 24.8342 22.8128 24.4845V23.3722C22.8128 22.6485 23.3997 22.0612 24.123 22.0612H30.6854Z" fill="black"/>
</svg>
