<svg width="20" height="20" viewBox="0 0 20 20" fill="none" xmlns="http://www.w3.org/2000/svg">
<path fill-rule="evenodd" clip-rule="evenodd" d="M3.5999 0.400391C1.83259 0.400391 0.399902 1.83308 0.399902 3.60039V16.4004C0.399902 18.1677 1.83259 19.6004 3.5999 19.6004H16.3999C18.1672 19.6004 19.5999 18.1677 19.5999 16.4004V3.60039C19.5999 1.83308 18.1672 0.400391 16.3999 0.400391H3.5999ZM3.5999 2.00039C2.71625 2.00039 1.9999 2.71674 1.9999 3.60039V16.4004C1.9999 17.284 2.71625 18.0004 3.5999 18.0004H16.3999C17.2836 18.0004 17.9999 17.284 17.9999 16.4004V3.60039C17.9999 2.71674 17.2836 2.00039 16.3999 2.00039H3.5999ZM3.5999 15.6004C3.5999 15.3795 3.77899 15.2004 3.9999 15.2004H15.9999C16.2208 15.2004 16.3999 15.3795 16.3999 15.6004C16.3999 15.8213 16.2208 16.0004 15.9999 16.0004H3.9999C3.77899 16.0004 3.5999 15.8213 3.5999 15.6004ZM4.7999 12.8004C4.57899 12.8004 4.3999 12.9795 4.3999 13.2004C4.3999 13.4213 4.57899 13.6004 4.7999 13.6004H15.1999C15.4208 13.6004 15.5999 13.4213 15.5999 13.2004C15.5999 12.9795 15.4208 12.8004 15.1999 12.8004H4.7999Z" fill="white"/>
</svg>
