<svg width="40" height="40" viewBox="0 0 40 40" fill="none" xmlns="http://www.w3.org/2000/svg">
<path fill-rule="evenodd" clip-rule="evenodd" d="M12 8C9.79086 8 8 9.79086 8 12V28C8 30.2091 9.79086 32 12 32H28C30.2091 32 32 30.2091 32 28V12C32 9.79086 30.2091 8 28 8H12ZM12 10C10.8954 10 10 10.8954 10 12V28C10 29.1046 10.8954 30 12 30H28C29.1046 30 30 29.1046 30 28V12C30 10.8954 29.1046 10 28 10H12ZM12 27C12 26.7239 12.2239 26.5 12.5 26.5H27.5C27.7761 26.5 28 26.7239 28 27C28 27.2761 27.7761 27.5 27.5 27.5H12.5C12.2239 27.5 12 27.2761 12 27ZM13.5 23.5C13.2239 23.5 13 23.7239 13 24C13 24.2761 13.2239 24.5 13.5 24.5H26.5C26.7761 24.5 27 24.2761 27 24C27 23.7239 26.7761 23.5 26.5 23.5H13.5Z" fill="white"/>
</svg>
