<svg width="20" height="20" viewBox="0 0 20 20" fill="none" xmlns="http://www.w3.org/2000/svg">
<path d="M11.4706 0.400391C12.5036 0.400391 13.4207 1.06142 13.7474 2.04144L14.2668 3.60039H18.8004C19.2422 3.60039 19.6004 3.95856 19.6004 4.40039C19.6004 4.84222 19.2422 5.20039 18.8004 5.20039H17.8404L16.6165 17.4392C16.4938 18.6661 15.4614 19.6004 14.2284 19.6004H5.77236C4.53936 19.6004 3.50696 18.6661 3.38427 17.4392L2.16039 5.20039H1.20039C0.758563 5.20039 0.400391 4.84222 0.400391 4.40039C0.400391 3.95856 0.758563 3.60039 1.20039 3.60039H5.73319L6.25337 2.04144C6.58005 1.06142 7.49718 0.400391 8.53021 0.400391H11.4706ZM16.2316 5.20039H3.76839L4.97633 17.28C5.01408 17.6575 5.31021 17.9519 5.67881 17.995L5.77236 18.0004H14.2284C14.6078 18.0004 14.9302 17.735 15.0097 17.3725L15.0245 17.28L16.2316 5.20039ZM10.0004 6.80039C10.4422 6.80039 10.8004 7.15856 10.8004 7.60039V15.6004C10.8004 16.0422 10.4422 16.4004 10.0004 16.4004C9.55856 16.4004 9.20039 16.0422 9.20039 15.6004V7.60039C9.20039 7.15856 9.55856 6.80039 10.0004 6.80039ZM13.2004 6.80039C13.6422 6.80039 14.0004 7.15856 14.0004 7.60039V15.6004C14.0004 16.0422 13.6422 16.4004 13.2004 16.4004C12.7586 16.4004 12.4004 16.0422 12.4004 15.6004V7.60039C12.4004 7.15856 12.7586 6.80039 13.2004 6.80039ZM6.80039 6.80039C7.24222 6.80039 7.60039 7.15856 7.60039 7.60039V15.6004C7.60039 16.0422 7.24222 16.4004 6.80039 16.4004C6.35856 16.4004 6.00039 16.0422 6.00039 15.6004V7.60039C6.00039 7.15856 6.35856 6.80039 6.80039 6.80039ZM11.4706 2.00039H8.53021C8.21717 2.00039 7.93606 2.18249 7.80573 2.46104L7.77127 2.54741L7.41959 3.60039H12.5804L12.2295 2.54741C12.1305 2.25043 11.8689 2.04133 11.5634 2.00577L11.4706 2.00039Z" />
</svg>
