<svg width="40" height="40" viewBox="0 0 40 40" fill="none" xmlns="http://www.w3.org/2000/svg">
<path d="M27.2192 29.995C28.1178 29.8374 29.0929 29.723 30.2107 29.7005C30.0882 27.0207 30.1923 26.0549 27.5602 24.8885C27.3839 25.3963 27.2897 26.0899 27.2423 26.8818C27.1852 27.8364 27.198 28.9176 27.2192 29.995ZM12.4394 24.8885C9.79617 26.0599 9.92143 27.0144 9.78903 29.7005C10.9068 29.723 11.882 29.8375 12.7805 29.995C12.8018 28.9176 12.8145 27.8364 12.7573 26.8818C12.71 26.0898 12.6158 25.3963 12.4394 24.8885ZM19.4278 26.4083C19.3733 26.4385 19.0596 26.6163 18.7514 26.7682C18.4526 26.9154 18.156 27.0403 18.0812 26.9943C17.7241 26.7737 17.5362 26.2169 17.4527 25.6696C17.3597 25.059 17.4 24.4695 17.5049 24.5017C17.8526 24.6082 18.2292 24.7516 18.5549 24.8736C18.8739 24.9928 19.1468 25.094 19.3063 25.1246C19.3779 24.7391 20.6274 24.7374 20.6914 25.1246C20.8503 25.094 21.1231 24.9931 21.4421 24.8736C21.7678 24.7514 22.1452 24.6081 22.4927 24.5017C22.5977 24.4695 22.6374 25.0593 22.5445 25.6696C22.4611 26.2169 22.2738 26.7737 21.917 26.9943C21.8421 27.0403 21.5449 26.9155 21.2461 26.7682C20.9379 26.6163 20.6241 26.4385 20.5702 26.4083C20.3893 26.7515 19.609 26.7515 19.4278 26.4083ZM19.9999 20.4024C18.8624 20.3645 18.028 20.137 18.0893 20.8777C18.1221 21.2759 18.4068 21.6366 18.7671 21.5517C19.2304 21.4424 19.3842 21.185 19.9999 21.185C20.6157 21.185 20.7694 21.4424 21.2329 21.5517C21.5931 21.6367 21.8778 21.2759 21.9105 20.8777C21.9719 20.1371 21.1374 20.3646 19.9999 20.4024ZM23.5961 22.4017C23.8157 22.5143 24.0987 22.644 24.4236 22.7847C24.5904 22.8568 24.7687 22.9319 24.9558 23.009C25.0569 22.9449 25.1865 22.9286 25.3062 22.9764C25.7023 23.1356 26.0807 23.2905 26.4423 23.4411C26.8392 23.6061 27.216 23.7656 27.5734 23.9193C27.671 23.9613 27.7491 24.0455 27.7842 24.1453C30.7702 25.429 30.8075 26.172 30.9797 29.6621L30.9995 30.0611C31.0107 30.2886 30.8416 30.4619 30.6149 30.4619C28.3271 30.4619 26.6317 30.8689 24.9976 31.2613C23.4316 31.6373 21.9205 32 19.9999 32C18.0795 32 16.5682 31.6373 15.0024 31.2613C13.3723 30.8699 11.6811 30.4639 9.40177 30.4619C9.39029 30.4623 9.37861 30.4623 9.36674 30.4619C9.15444 30.4519 8.99049 30.2724 9.00043 30.0611C9.00728 29.9238 9.01384 29.7908 9.02031 29.6617C9.19237 26.1726 9.22981 25.4293 12.2145 24.1456C12.2489 24.0475 12.3229 23.9635 12.4265 23.9194C12.7838 23.7657 13.1605 23.6064 13.5575 23.4412C13.9281 23.2869 14.3201 23.117 14.6939 22.977C14.8125 22.9326 14.9416 22.9448 15.0437 23.0093C15.2309 22.9321 15.4095 22.8569 15.5764 22.7848C15.9013 22.644 16.1842 22.5144 16.4039 22.4018C15.9849 22.1316 15.6371 21.876 15.4176 21.6812C15.1845 20.7317 15.1204 19.8034 15.0785 18.917C14.6146 18.7579 14.0575 18.0051 13.8423 17.5847C13.6198 17.1498 13.4639 16.644 13.4192 16.108C13.365 15.4613 13.6167 14.8277 14.2865 14.7482C14.36 12.6119 14.5941 10.5616 15.2831 9.62517C16.0737 8.5504 17.8175 8 20.0964 8C21.4875 8 22.8248 8.10922 23.6097 8.51294C23.9116 8.66826 23.5911 9.02329 23.4876 9.23317C24.1846 9.27274 24.6265 9.6903 24.9628 10.2986C25.4647 11.2061 25.6878 12.9205 25.715 14.7493C26.2847 14.8241 26.6092 15.3324 26.5925 15.9024C26.5603 17.0054 25.9791 18.3278 24.986 18.888C24.9648 18.8999 24.9432 18.9108 24.9214 18.9207C24.8796 19.806 24.8153 20.733 24.5826 21.6812C24.363 21.8759 24.0152 22.1316 23.5961 22.4017ZM17.155 22.8557C16.8901 23.0292 16.4387 23.2468 15.8839 23.4869C15.7475 23.5458 15.6051 23.6062 15.4582 23.6674C16.5402 25.6067 17.9709 27.7507 19.438 29.9491C19.6249 30.2292 19.8124 30.5103 19.9998 30.7918C20.1872 30.5102 20.3745 30.2294 20.5615 29.9494C22.0288 27.7507 23.4593 25.6066 24.5415 23.6673C24.3946 23.6061 24.2524 23.5457 24.116 23.4868C23.5613 23.2468 23.1098 23.029 22.8449 22.8557C21.9086 23.3863 20.8203 23.8756 20 23.9825C19.1796 23.8758 18.0915 23.3865 17.155 22.8557ZM19.9999 19.3779C21.0572 18.9698 21.5232 19.2578 22.3925 19.6599C22.5022 19.8524 22.5968 20.2113 22.6161 20.4348C23.3747 19.9564 23.9905 19.3168 24.3377 18.3328C24.5541 18.2426 24.9264 18.0186 25.136 17.7609C25.5705 17.2268 25.8159 16.4551 25.8248 15.8349C25.8269 15.6733 25.7559 15.5084 25.5681 15.5084C25.5072 15.5084 25.4376 15.5266 25.3615 15.5679C25.1954 16.0133 25.0384 16.6057 24.954 16.9716L24.2434 17.1102C24.5718 16.0337 24.589 14.5781 24.2389 13.5783C23.8836 12.563 23.2458 11.8253 22.4605 11.855C21.2461 11.9008 21.2026 12.9177 19.9997 12.9177C18.7968 12.9177 18.7533 11.9007 17.539 11.855C16.7536 11.8253 16.116 12.563 15.7606 13.5783C15.4105 14.5781 15.4278 16.0337 15.7561 17.1102L14.9429 16.9516C14.8712 16.6097 14.7549 16.0222 14.6216 15.5591C14.5518 15.5239 14.488 15.5084 14.4316 15.5084C14.1858 15.5084 14.169 15.7543 14.1783 15.9428C14.2021 16.4093 14.3344 16.8548 14.5296 17.2365C14.8913 17.9432 15.0442 17.9372 15.6619 18.3327C16.009 19.3168 16.6248 19.9565 17.3836 20.4348C17.4029 20.2113 17.4974 19.8524 17.6071 19.6599C18.4767 19.2577 18.9427 18.9698 19.9999 19.3779Z" fill="#2A2B2B"/>
</svg>
