<svg width="40" height="40" viewBox="0 0 40 40" fill="none" xmlns="http://www.w3.org/2000/svg">
<path d="M23.1683 12H10.155C8.96673 12 8 12.9667 8 14.1549V25.5898C8 26.7781 8.96673 27.7448 10.155 27.7448H23.1683C24.3566 27.7448 25.3234 26.7781 25.3234 25.5898V23.1658L28.4823 25.3365C29.2297 25.85 30.235 25.8585 30.992 25.3596C31.6172 24.9475 32 24.234 32 23.4855V16.2589C32 15.4714 31.5761 14.7267 30.8977 14.326C30.1499 13.8842 29.1983 13.9185 28.4822 14.4081L25.3235 16.5788V14.1548C25.3232 12.9667 24.3565 12 23.1683 12V12ZM23.43 25.5898C23.43 25.734 23.3127 25.8514 23.1683 25.8514H10.155C10.0107 25.8514 9.89339 25.734 9.89339 25.5898V14.1549C9.89339 14.0107 10.0108 13.8933 10.155 13.8933H23.1683C23.3127 13.8933 23.43 14.0107 23.43 14.1549V18.3781V21.3665V25.5898ZM29.5543 15.9686C29.7863 15.8093 30.1066 15.9788 30.1066 16.2591V23.4856C30.1066 23.7653 29.7869 23.9357 29.5545 23.7761L25.3234 20.8684V18.8762L29.5543 15.9686Z" fill="black"/>
</svg>
