<svg width="40" height="40" viewBox="0 0 40 40" fill="none" xmlns="http://www.w3.org/2000/svg">
<path d="M18.4042 22.8833H16.4459L17.6698 16.1208H19.6284L18.4042 22.8833ZM14.7984 16.1208L12.9314 20.7721L12.7105 19.7705L12.7107 19.7709L12.0517 16.7297C12.0517 16.7297 11.972 16.1208 11.1227 16.1208H8.03622L8 16.2353C8 16.2353 8.94386 16.4119 10.0485 17.0083L11.7499 22.8835H13.7903L16.906 16.1208H14.7984ZM30.2018 22.8833H32L30.4322 16.1207H28.8579C28.131 16.1207 27.9539 16.6246 27.9539 16.6246L25.0332 22.8833H27.0746L27.4829 21.8788H29.9724L30.2018 22.8833ZM28.0469 20.4912L29.0759 17.9605L29.6547 20.4912H28.0469ZM25.1863 17.7471L25.4658 16.2949C25.4658 16.2949 24.6034 16 23.7044 16C22.7326 16 20.4247 16.3819 20.4247 18.2387C20.4247 19.9858 23.1334 20.0075 23.1334 20.9252C23.1334 21.8428 20.7038 21.6784 19.902 21.0997L19.6109 22.6181C19.6109 22.6181 20.4853 23 21.8213 23C23.1577 23 25.1738 22.3779 25.1738 20.6848C25.1738 18.9265 22.4408 18.7628 22.4408 17.9983C22.441 17.2337 24.3483 17.3319 25.1863 17.7471Z" fill="#2566AF"/>
<path d="M12.7107 19.7739L12.0517 16.7295C12.0517 16.7295 11.972 16.1199 11.1227 16.1199H8.03622L8 16.2346C8 16.2346 9.4835 16.5113 10.9064 17.548C12.267 18.5389 12.7107 19.7739 12.7107 19.7739Z" fill="#E6A540"/>
</svg>
