<svg width="20" height="19" viewBox="0 0 20 19" fill="none" xmlns="http://www.w3.org/2000/svg">
<path fill-rule="evenodd" clip-rule="evenodd" d="M11.5582 0.263663C11.3354 0.157423 11.073 0.185583 10.881 0.340463L4.65511 5.32094H1.68039C0.975111 5.32094 0.400391 5.89566 0.400391 6.60094V11.7209C0.400391 12.4275 0.975111 13.0009 1.68039 13.0009H4.65511L10.8798 17.9814C10.9962 18.0736 11.1383 18.1209 11.2804 18.1209C11.3751 18.1209 11.4698 18.0992 11.5582 18.0569C11.7796 17.9507 11.9204 17.7267 11.9204 17.4809V0.840943C11.9204 0.595183 11.7796 0.371183 11.5582 0.263663ZM15.1599 4.63515C14.9078 4.38683 14.5033 4.39067 14.255 4.64027C14.0066 4.89243 14.0092 5.29691 14.2601 5.54651C15.2278 6.50139 15.7602 7.78523 15.7602 9.16123C15.7602 10.5372 15.2278 11.8211 14.2601 12.776C14.0092 13.023 14.0066 13.4288 14.255 13.6809C14.3804 13.8076 14.5455 13.8704 14.7094 13.8704C14.8719 13.8704 15.0345 13.8089 15.1599 13.6848C16.3733 12.4905 17.0402 10.8828 17.0402 9.16123C17.0402 7.43963 16.3733 5.83195 15.1599 4.63515ZM16.0602 2.83512C16.3098 2.58424 16.7143 2.58168 16.9664 2.83128C18.6663 4.51576 19.6007 6.76344 19.6007 9.16088C19.6007 11.5583 18.6663 13.806 16.9664 15.4892C16.841 15.6134 16.6772 15.6748 16.5146 15.6748C16.3508 15.6748 16.1869 15.6121 16.0602 15.4866C15.8119 15.2358 15.8144 14.83 16.064 14.5804C17.5194 13.1378 18.3207 11.214 18.3207 9.16088C18.3207 7.10776 17.5194 5.18264 16.064 3.74008C15.8144 3.49176 15.8119 3.086 16.0602 2.83512Z" fill="white"/>
</svg>
