<svg width="20" height="20" viewBox="0 0 20 20" fill="none" xmlns="http://www.w3.org/2000/svg">
<path fill-rule="evenodd" clip-rule="evenodd" d="M15.0988 0.472145C15.3319 0.581841 15.4827 0.828657 15.4827 1.08919V12.5798L8.29766 5.39475L14.3721 0.554417C14.5777 0.389873 14.852 0.348738 15.0988 0.472145ZM1.57037 0.604053L19.396 18.4296C19.6633 18.6984 19.6633 19.1317 19.396 19.4005C19.2616 19.5335 19.0861 19.6006 18.9105 19.6006C18.735 19.6006 18.5595 19.5335 18.4251 19.3991L15.4825 16.4565V18.915C15.4825 19.1756 15.3317 19.4224 15.0986 19.5321C15.0026 19.5732 14.8929 19.6006 14.797 19.6006C14.6461 19.6006 14.4953 19.5458 14.3719 19.4498L7.69414 14.1159H4.51296C3.7588 14.1159 3.14176 13.4988 3.14176 12.7447V7.25985C3.14176 6.93077 3.26517 6.61539 3.47085 6.38229C3.71766 6.08062 4.08789 5.88865 4.51296 5.88865H4.91472L0.600928 1.57349C0.333545 1.30611 0.333545 0.871437 0.600928 0.604053C0.868312 0.336669 1.30298 0.336669 1.57037 0.604053Z" fill="white"/>
</svg>
