<svg width="40" height="40" viewBox="0 0 40 40" fill="none" xmlns="http://www.w3.org/2000/svg">
<path fill-rule="evenodd" clip-rule="evenodd" d="M26.373 8.08969C26.6644 8.22681 26.8529 8.53533 26.8529 8.86099V23.2243L17.8716 14.2429L25.4646 8.19253C25.7217 7.98685 26.0645 7.93543 26.373 8.08969ZM9.46247 8.25458L31.7445 30.5366C32.0787 30.8725 32.0787 31.4141 31.7445 31.7501C31.5765 31.9163 31.3571 32.0003 31.1377 32.0003C30.9183 32.0003 30.6989 31.9163 30.5309 31.7484L26.8527 28.0701V31.1433C26.8527 31.469 26.6642 31.7775 26.3728 31.9146C26.2528 31.966 26.1157 32.0003 25.9957 32.0003C25.8072 32.0003 25.6186 31.9318 25.4644 31.8118L17.1172 25.1443H13.1407C12.198 25.1443 11.4267 24.373 11.4267 23.4303V16.5743C11.4267 16.163 11.581 15.7687 11.8381 15.4774C12.1466 15.1003 12.6094 14.8603 13.1407 14.8603H13.6429L8.25067 9.46638C7.91644 9.13215 7.91644 8.58881 8.25067 8.25458C8.5849 7.92035 9.12824 7.92035 9.46247 8.25458Z" fill="black"/>
</svg>
