<svg width="40" height="40" viewBox="0 0 40 40" fill="none" xmlns="http://www.w3.org/2000/svg">
<path fill-rule="evenodd" clip-rule="evenodd" d="M21.9472 9.07931C21.6688 8.9465 21.3408 8.98166 21.1008 9.17599L13.3184 15.4016H9.59998C8.71838 15.4016 8 16.1194 8 17.0012V23.4016C8 24.2844 8.71838 25.0012 9.59998 25.0012H13.3184L21.0992 31.2268C21.2448 31.342 21.4224 31.4016 21.6 31.4016C21.6552 31.4016 21.7104 31.3957 21.7649 31.384C21.8271 31.3703 21.8883 31.3498 21.9472 31.3215C22.224 31.1887 22.4 30.9084 22.4 30.6008V9.80099C22.4 9.49435 22.224 9.21408 21.9472 9.07931ZM26.4494 14.5442C26.1342 14.2336 25.6286 14.2385 25.3182 14.55C25.0078 14.8654 25.011 15.3713 25.3246 15.6828C26.5342 16.8772 27.1998 18.4817 27.1998 20.2014C27.1998 21.9211 26.5342 23.5266 25.3246 24.7199C25.011 25.0285 25.0078 25.5363 25.3182 25.8508C25.4217 25.9563 25.5468 26.0256 25.6787 26.0608C25.7467 26.0793 25.8165 26.0881 25.8862 26.0881C26.0894 26.0881 26.2926 26.011 26.4494 25.8557C27.9662 24.3635 28.7998 22.3537 28.7998 20.2014C28.7998 18.049 27.9662 16.0403 26.4494 14.5442ZM27.5748 12.2942C27.8868 11.9807 28.3923 11.9768 28.7076 12.2893C30.8323 14.3947 32.0004 17.2043 32.0004 20.2014C32.0004 23.1975 30.8323 26.007 28.7076 28.1115C28.5508 28.2668 28.3459 28.343 28.1428 28.343C27.938 28.343 27.7332 28.2649 27.5748 28.1086C27.2643 27.7951 27.2676 27.2873 27.5796 26.9758C29.3987 25.1721 30.4004 22.7678 30.4004 20.2014C30.4004 17.635 29.3987 15.2287 27.5796 13.425C27.2676 13.1145 27.2643 12.6076 27.5748 12.2942Z" fill="black"/>
</svg>
